<svg width="391" height="350" xmlns="http://www.w3.org/2000/svg">
 <g>
  <title>background</title>
  <rect x="-1" y="-1" width="393" height="352" id="canvas_background" fill="none"/>
 </g>

 <g>
  <title>Layer 1</title>
  <path d="m250.691,138.957l-0.052,0.081c-13.089,-8.294 -28.638,-11.817 -44.023,-9.975c-15.385,1.842 -29.664,8.936 -40.424,20.085l-61.946,-59.767c24.501,-25.3815 57.002,-41.543 92.028,-45.7617c35.025,-4.2187 70.434,3.7631 100.262,22.6007l0.2,-0.319c30.664,19.3659 53.467,48.979 64.355,83.574l-82.329,26.038c-4.758,-15.112 -14.7,-28.058 -28.071,-36.556z" fill="#CC4749" id="svg_1"/>
  <path fill-rule="evenodd" clip-rule="evenodd" d="m278.756,175.575l82.37,-26.053c7.15,22.599 8.985,46.544 5.361,69.968c-3.623,23.424 -12.606,45.696 -26.25,65.078c-13.643,19.383 -31.578,35.353 -52.407,46.666c-20.829,11.313 -43.989,17.664 -67.675,18.557l-3.253,-86.348c10.393,-0.391 20.555,-3.177 29.694,-8.14c9.139,-4.963 17.009,-11.97 22.995,-20.475c5.987,-8.504 9.928,-18.276 11.518,-28.554c1.59,-10.277 0.784,-20.783 -2.353,-30.699z" fill="#863443" id="svg_2"/>
  <path d="m103.876,89.811c-1.394,1.4634 -2.761,2.9587 -4.1003,4.486c-0.328,0.373 -0.657,0.748 -0.98,1.126c-1.4,1.6187 -2.7666,3.2724 -4.1,4.961c-0.237,0.3 -0.473,0.6 -0.708,0.9c-1.4153,1.817 -2.796,3.671 -4.142,5.562c-0.127,0.177 -0.253,0.355 -0.38,0.534c-1.4486,2.063 -2.8566,4.168 -4.224,6.317c-0.8,1.267 -1.5793,2.54 -2.338,3.821c-0.261,0.439 -0.514,0.882 -0.769,1.324c-0.494,0.851 -0.983,1.706 -1.46,2.563c-0.284,0.509 -0.5636,1.019 -0.839,1.531c-0.446,0.823 -0.8826,1.647 -1.31,2.473c-0.261,0.5 -0.523,1 -0.778,1.508c-0.493,0.976 -0.967,1.958 -1.438,2.941c-0.164,0.343 -0.337,0.683 -0.5,1.028c-0.6,1.279 -1.1793,2.563 -1.738,3.851c-0.219,0.5 -0.428,1.014 -0.642,1.519c-0.355,0.839 -0.7,1.676 -1.044,2.518c-0.2266,0.564 -0.449,1.131 -0.667,1.7c-0.316,0.805 -0.624,1.612 -0.924,2.422c-0.207,0.559 -0.414,1.117 -0.614,1.674c-0.325,0.915 -0.635,1.833 -0.942,2.75c-0.148,0.444 -0.305,0.889 -0.451,1.335c-0.4266,1.317 -0.8346,2.637 -1.224,3.962c-0.139,0.473 -0.268,0.948 -0.4,1.422c-0.259,0.908 -0.514,1.82 -0.755,2.734c-0.145,0.55 -0.284,1.1 -0.421,1.649c-0.218,0.86 -0.428,1.722 -0.63,2.586c-0.127,0.542 -0.253,1.085 -0.375,1.629c-0.212,0.958 -0.412,1.917 -0.607,2.875c-0.086,0.432 -0.18,0.864 -0.264,1.3c-0.2666,1.372 -0.513,2.746 -0.739,4.122c-0.055,0.334 -0.1,0.667 -0.153,1c-0.17,1.076 -0.332,2.15 -0.478,3.228c-0.066,0.482 -0.125,0.965 -0.186,1.447c-0.1213,0.953 -0.2336,1.907 -0.337,2.862c-0.05,0.484 -0.1,0.967 -0.15,1.453c-0.1,1.035 -0.189,2.068 -0.269,3.1c-0.03,0.378 -0.064,0.755 -0.089,1.131c-0.102,1.427 -0.183,2.856 -0.243,4.285c0,0.075 -0.005,0.15 -0.007,0.225c-0.055,1.34 -0.089,2.682 -0.109,4.022c-0.005,0.387 -0.005,0.773 -0.007,1.158c-0.0073,1.055 -0.0043,2.108 0.009,3.159c0.007,0.419 0.013,0.839 0.021,1.256c0.0247,1.096 0.061,2.19 0.109,3.283c0.014,0.325 0.025,0.653 0.041,0.978c0.1407,2.875 0.363,5.741 0.667,8.6c0.03,0.286 0.066,0.571 0.1,0.857c0.1247,1.14 0.2634,2.277 0.416,3.412c0.048,0.36 0.1,0.719 0.15,1.081c0.1587,1.119 0.3294,2.236 0.512,3.351c0.048,0.3 0.095,0.6 0.146,0.9c0.4834,2.853 1.0467,5.691 1.69,8.514c0.048,0.209 0.1,0.418 0.148,0.626c0.2734,1.178 0.5607,2.352 0.862,3.523c0.086,0.337 0.177,0.676 0.266,1.014c0.2854,1.081 0.5834,2.16 0.894,3.235c0.091,0.318 0.18,0.637 0.273,0.955c0.3767,1.276 0.7694,2.548 1.178,3.815l0.077,0.25c0.4534,1.4 0.9274,2.791 1.422,4.172c0.066,0.182 0.136,0.36 0.2,0.542c0.414,1.147 0.841,2.289 1.281,3.424c0.1407,0.361 0.2827,0.721 0.426,1.08c0.3894,0.98 0.7894,1.956 1.2,2.927c0.148,0.35 0.294,0.7 0.443,1.048c0.6747,1.57 1.3747,3.13 2.1,4.681c0.054,0.116 0.112,0.234 0.168,0.352c0.6994,1.477 1.4234,2.944 2.172,4.4c0.114,0.223 0.227,0.446 0.341,0.669c0.8087,1.558 1.642,3.103 2.5,4.636c0.059,0.105 0.121,0.209 0.182,0.314c0.83,1.467 1.686,2.923 2.568,4.368c0.1,0.159 0.191,0.316 0.289,0.475c0.9334,1.521 1.8957,3.026 2.887,4.517c0.075,0.114 0.153,0.227 0.228,0.339c0.9547,1.429 1.9357,2.845 2.943,4.247c0.077,0.107 0.153,0.216 0.232,0.325c1.0567,1.461 2.1404,2.907 3.251,4.336c0.1,0.13 0.205,0.259 0.307,0.391c1.074,1.371 2.174,2.726 3.3,4.067c0.061,0.073 0.12,0.145 0.18,0.216c1.1674,1.387 2.3624,2.753 3.5853,4.1c0.141,0.157 0.286,0.31 0.426,0.468c1.184,1.295 2.393,2.575 3.626,3.838l0.129,0.134c1.266,1.294 2.562,2.567 3.888,3.819c0.192,0.182 0.386,0.363 0.582,0.542c1.284,1.208 2.592,2.398 3.924,3.569c0.032,0.03 0.064,0.061 0.1,0.089c1.358,1.187 2.742,2.351 4.153,3.494c0.255,0.207 0.511,0.413 0.769,0.619c1.388,1.115 2.793,2.215 4.226,3.287l0.05,0.039c1.436,1.074 2.899,2.124 4.388,3.15c0.328,0.229 0.658,0.456 0.99,0.682c1.486,1.015 2.987,2.016 4.52,2.987c26.277,16.701 57.02,24.999 88.132,23.787l-3.251,-86.3c-13.651,0.539 -27.141,-3.096 -38.673,-10.42c-1.36,-0.862 -2.664,-1.779 -3.942,-2.721c-0.253,-0.186 -0.5,-0.373 -0.755,-0.562c-2.514,-1.907 -4.892,-3.988 -7.115,-6.228c-0.18,-0.182 -0.36,-0.36 -0.539,-0.544c-1.1,-1.133 -2.159,-2.289 -3.167,-3.485c-0.02,-0.023 -0.037,-0.048 -0.055,-0.071c-0.976,-1.162 -1.9,-2.359 -2.789,-3.576c-0.146,-0.2 -0.294,-0.4 -0.441,-0.6c-0.892,-1.251 -1.745,-2.523 -2.545,-3.824c-0.059,-0.1 -0.112,-0.195 -0.171,-0.289c-0.742,-1.222 -1.437,-2.464 -2.1,-3.724c-0.114,-0.219 -0.232,-0.439 -0.346,-0.66c-0.685,-1.344 -1.329,-2.705 -1.922,-4.088c-0.02,-0.043 -0.043,-0.086 -0.061,-0.13c-0.064,-0.15 -0.118,-0.305 -0.18,-0.459c-0.4,-0.96 -0.779,-1.928 -1.137,-2.905c-0.105,-0.289 -0.207,-0.58 -0.309,-0.871c-0.329,-0.937 -0.635,-1.88 -0.919,-2.83c-0.079,-0.264 -0.161,-0.528 -0.237,-0.794c-0.332,-1.156 -0.639,-2.318 -0.91,-3.49c-0.009,-0.039 -0.02,-0.08 -0.03,-0.12c-0.29,-1.267 -0.542,-2.541 -0.758,-3.824c-0.025,-0.145 -0.041,-0.293 -0.066,-0.439c-0.175,-1.076 -0.324,-2.156 -0.446,-3.239c-0.036,-0.325 -0.066,-0.65 -0.1,-0.976c-0.093,-0.933 -0.166,-1.867 -0.219,-2.8c-0.02,-0.348 -0.041,-0.692 -0.055,-1.04c-0.041,-1.019 -0.059,-2.036 -0.055,-3.059c0,-0.23 -0.007,-0.46 0,-0.691c0.018,-1.262 0.068,-2.523 0.157,-3.783c0.014,-0.2 0.039,-0.4 0.055,-0.6c0.082,-1.035 0.187,-2.068 0.316,-3.1c0.05,-0.4 0.111,-0.794 0.168,-1.19c0.123,-0.851 0.261,-1.7 0.418,-2.552c0.078,-0.423 0.157,-0.848 0.243,-1.269c0.18,-0.878 0.378,-1.753 0.594,-2.625c0.089,-0.357 0.168,-0.717 0.262,-1.074c0.319,-1.21 0.667,-2.414 1.056,-3.614c0.059,-0.184 0.13,-0.364 0.193,-0.546c0.341,-1.017 0.7,-2.033 1.1,-3.039c0.155,-0.4 0.325,-0.8 0.489,-1.2c0.328,-0.8 0.672,-1.595 1.031,-2.386c0.192,-0.423 0.39,-0.844 0.592,-1.265c0.389,-0.8 0.8,-1.6 1.219,-2.393c0.2,-0.366 0.382,-0.733 0.585,-1.1c0.635,-1.14 1.3,-2.275 2,-3.392c2.052,-3.238 4.378,-6.294 6.952,-9.135c0.489,-0.542 0.974,-1.09 1.478,-1.615l-62.166,-59.961c-0.198,0.21 -0.389,0.419 -0.585,0.625z" fill="#FA544D" id="svg_3"/>
  <path d="m82.5,222.5l-54,0" stroke="#323054" id="svg_4"/>
  <path d="m25,208l-20,0c-2.76142,0 -5,2.239 -5,5l0,20c0,2.761 2.23858,5 5,5l20,0c2.7614,0 5,-2.239 5,-5l0,-20c0,-2.761 -2.2386,-5 -5,-5z" fill="#1E2044" id="svg_5"/>
  <path d="m18.255,217.818l0,10.182l-2.1527,0l0,-8.138l-0.0597,0l-2.3317,1.461l0,-1.909l2.5206,-1.596l2.0235,0z" fill="#FA544D" id="svg_7"/>
  <path d="m215.75,61.5l0,-32.25" stroke="#323054" id="svg_8"/>
  <path d="m230.25,25.75l0,-20c0,-2.76142 -2.239,-5 -5,-5l-20,0c-2.761,0 -5,2.23858 -5,5l0,20c0,2.7614 2.239,5 5,5l20,0c2.761,0 5,-2.2386 5,-5z" fill="#1E2044" id="svg_9"/>
  <path d="m212.075,20.75l0,-1.5511l3.625,-3.3559c0.308,-0.2983 0.566,-0.5667 0.775,-0.8054c0.212,-0.2386 0.373,-0.4723 0.482,-0.701c0.11,-0.232 0.164,-0.4822 0.164,-0.7507c0,-0.2983 -0.067,-0.5551 -0.203,-0.7706c-0.136,-0.2187 -0.322,-0.3861 -0.557,-0.5021c-0.236,-0.1193 -0.502,-0.179 -0.801,-0.179c-0.311,0 -0.583,0.063 -0.815,0.189c-0.232,0.1259 -0.411,0.3065 -0.537,0.5419c-0.126,0.2353 -0.189,0.5153 -0.189,0.8402l-2.043,0c0,-0.6662 0.151,-1.2446 0.452,-1.7351c0.302,-0.4906 0.724,-0.8701 1.268,-1.1385c0.544,-0.2685 1.17,-0.4027 1.879,-0.4027c0.729,0 1.364,0.1292 1.904,0.3878c0.544,0.2552 0.967,0.6098 1.268,1.0639c0.302,0.4541 0.453,0.9744 0.453,1.5611c0,0.3844 -0.077,0.7639 -0.229,1.1385c-0.149,0.3745 -0.416,0.7904 -0.801,1.2478c-0.384,0.4541 -0.926,0.9993 -1.625,1.6357l-1.487,1.4567l0,0.0696l4.276,0l0,1.7599l-7.259,0z" fill="#FA544D" id="svg_11"/>
  <path d="m319.5,279.625l42.625,0" stroke="#323054" id="svg_12"/>
  <path d="m365.625,294.125l20,0c2.761,0 5,-2.239 5,-5l0,-20c0,-2.761 -2.239,-5 -5,-5l-20,0c-2.761,0 -5,2.239 -5,5l0,20c0,2.761 2.239,5 5,5z" fill="#1E2044" id="svg_13"/>
  <path d="m376.214,284.264c-0.743,0 -1.404,-0.127 -1.984,-0.383c-0.577,-0.258 -1.032,-0.613 -1.367,-1.064c-0.332,-0.454 -0.502,-0.977 -0.512,-1.571l2.167,0c0.014,0.249 0.095,0.468 0.244,0.657c0.153,0.185 0.355,0.329 0.607,0.432c0.252,0.103 0.535,0.154 0.85,0.154c0.328,0 0.618,-0.058 0.87,-0.174c0.252,-0.116 0.449,-0.276 0.591,-0.482c0.143,-0.205 0.214,-0.442 0.214,-0.711c0,-0.272 -0.076,-0.512 -0.229,-0.721c-0.149,-0.212 -0.364,-0.378 -0.646,-0.497c-0.278,-0.119 -0.61,-0.179 -0.994,-0.179l-0.95,0l0,-1.581l0.95,0c0.325,0 0.611,-0.056 0.86,-0.169c0.252,-0.113 0.447,-0.268 0.587,-0.467c0.139,-0.202 0.208,-0.438 0.208,-0.706c0,-0.255 -0.061,-0.479 -0.184,-0.671c-0.119,-0.196 -0.288,-0.348 -0.507,-0.458c-0.215,-0.109 -0.467,-0.164 -0.755,-0.164c-0.292,0 -0.559,0.053 -0.801,0.159c-0.242,0.103 -0.436,0.251 -0.581,0.443c-0.146,0.192 -0.224,0.417 -0.234,0.676l-2.063,0c0.01,-0.587 0.177,-1.104 0.502,-1.551c0.325,-0.448 0.762,-0.797 1.312,-1.049c0.554,-0.255 1.179,-0.383 1.875,-0.383c0.702,0 1.317,0.128 1.844,0.383c0.527,0.255 0.936,0.6 1.228,1.034c0.295,0.431 0.441,0.915 0.438,1.452c0.003,0.57 -0.174,1.045 -0.532,1.426c-0.355,0.382 -0.817,0.624 -1.387,0.726l0,0.08c0.749,0.096 1.319,0.356 1.71,0.78c0.394,0.421 0.59,0.948 0.586,1.581c0.004,0.58 -0.164,1.096 -0.502,1.546c-0.334,0.451 -0.797,0.806 -1.387,1.064c-0.59,0.259 -1.266,0.388 -2.028,0.388z" fill="#FA544D" id="svg_15"/>
  <path d="m215,311c-7.784,0.002 -15.549,-0.781 -23.176,-2.336c-7.399,-1.515 -14.63,-3.76 -21.587,-6.7c-6.838,-2.894 -13.38,-6.444 -19.534,-10.6c-6.107,-4.129 -11.806,-8.831 -17.02,-14.043c-5.212,-5.214 -9.914,-10.913 -14.043,-17.02c-4.156,-6.154 -7.705,-12.696 -10.6,-19.534c-2.94,-6.957 -5.185,-14.188 -6.7,-21.587c-1.557,-7.628 -2.3408,-15.394 -2.34,-23.18c-0.0019,-7.784 0.781,-15.549 2.336,-23.176c1.515,-7.399 3.76,-14.63 6.7,-21.587c2.895,-6.838 6.444,-13.38 10.6,-19.534c4.129,-6.107 8.831,-11.806 14.043,-17.02c5.214,-5.212 10.913,-9.914 17.021,-14.043c6.154,-4.1557 12.696,-7.7056 19.534,-10.6c6.957,-2.9403 14.188,-5.1846 21.587,-6.7c7.628,-1.5569 15.394,-2.3408 23.179,-2.34c7.785,-0.002 15.549,0.7806 23.177,2.336c7.399,1.5154 14.63,3.7597 21.587,6.7c6.839,2.8944 13.381,6.4443 19.535,10.6c6.107,4.128 11.806,8.83 17.02,14.042c5.212,5.214 9.914,10.913 14.043,17.02c4.156,6.154 7.706,12.696 10.6,19.534c2.94,6.957 5.185,14.188 6.7,21.587c1.556,7.629 2.34,15.395 2.338,23.181c0.002,7.785 -0.781,15.549 -2.336,23.177c-1.515,7.399 -3.76,14.63 -6.7,21.587c-2.894,6.838 -6.444,13.38 -10.6,19.534c-4.129,6.107 -8.831,11.806 -14.043,17.02c-5.213,5.212 -10.913,9.914 -17.02,14.043c-6.154,4.156 -12.696,7.706 -19.535,10.6c-6.957,2.94 -14.188,5.185 -21.587,6.7c-7.628,1.557 -15.394,2.34 -23.179,2.339zm0,-182c-8.959,-0.017 -17.829,1.773 -26.079,5.265c-3.984,1.687 -7.796,3.755 -11.381,6.177c-3.558,2.405 -6.879,5.145 -9.916,8.181c-3.036,3.037 -5.776,6.358 -8.181,9.916c-2.422,3.585 -4.49,7.397 -6.177,11.381c-3.492,8.25 -5.283,17.121 -5.266,26.08c-0.017,8.959 1.773,17.829 5.265,26.08c1.687,3.984 3.755,7.796 6.177,11.381c2.405,3.558 5.145,6.879 8.181,9.916c3.038,3.036 6.358,5.776 9.916,8.181c3.585,2.422 7.397,4.49 11.381,6.177c8.251,3.492 17.121,5.283 26.08,5.265c8.959,0.017 17.829,-1.773 26.08,-5.265c3.984,-1.687 7.796,-3.755 11.381,-6.177c3.558,-2.405 6.878,-5.145 9.916,-8.181c3.036,-3.037 5.776,-6.358 8.181,-9.916c2.422,-3.585 4.49,-7.397 6.177,-11.381c3.492,-8.251 5.282,-17.121 5.265,-26.08c0.017,-8.959 -1.773,-17.829 -5.265,-26.079c-1.687,-3.984 -3.755,-7.796 -6.177,-11.381c-2.405,-3.558 -5.145,-6.879 -8.181,-9.916c-3.038,-3.036 -6.358,-5.776 -9.916,-8.181c-3.585,-2.422 -7.397,-4.49 -11.381,-6.177c-8.251,-3.492 -17.121,-5.283 -26.08,-5.266z" fill="white" fill-opacity="0.2" id="svg_16"/>
  <path d="m215,310c7.735,0 15.466,-0.779 22.976,-2.316c7.319,-1.498 14.518,-3.733 21.398,-6.642c6.754,-2.857 13.269,-6.394 19.364,-10.511c6.037,-4.079 11.714,-8.762 16.872,-13.921c5.159,-5.159 9.843,-10.836 13.921,-16.872c4.118,-6.096 7.654,-12.611 10.511,-19.365c2.91,-6.879 5.144,-14.078 6.642,-21.397c1.537,-7.511 2.316,-15.241 2.316,-22.976c0,-7.735 -0.779,-15.465 -2.316,-22.976c-1.498,-7.319 -3.732,-14.518 -6.642,-21.398c-2.857,-6.754 -6.393,-13.269 -10.511,-19.364c-4.078,-6.036 -8.762,-11.713 -13.921,-16.872c-5.159,-5.159 -10.836,-9.843 -16.872,-13.921c-6.095,-4.1172 -12.61,-7.6534 -19.364,-10.5104c-6.88,-2.9098 -14.079,-5.1445 -21.398,-6.6422c-7.51,-1.5368 -15.241,-2.3161 -22.976,-2.3161c-7.736,0 -15.466,0.7793 -22.976,2.3161c-7.319,1.4977 -14.518,3.7325 -21.398,6.6422c-6.755,2.857 -13.27,6.3933 -19.364,10.5104c-6.036,4.078 -11.713,8.762 -16.872,13.921c-5.159,5.159 -9.843,10.836 -13.921,16.872c-4.118,6.095 -7.654,12.61 -10.511,19.364c-2.91,6.88 -5.145,14.079 -6.642,21.398c-1.537,7.511 -2.316,15.241 -2.316,22.976c0,7.735 0.779,15.465 2.316,22.976c1.497,7.319 3.732,14.518 6.642,21.397c2.857,6.755 6.393,13.27 10.511,19.365c4.078,6.036 8.762,11.713 13.921,16.872c5.159,5.159 10.835,9.843 16.872,13.921c6.094,4.117 12.609,7.653 19.364,10.511c6.88,2.909 14.079,5.144 21.398,6.642c7.51,1.537 15.241,2.316 22.976,2.316zm0,-182c9.179,0 18.085,1.798 26.469,5.344c4.03,1.705 7.916,3.814 11.551,6.27c3.601,2.432 6.987,5.226 10.063,8.303c3.077,3.076 5.871,6.462 8.303,10.063c2.456,3.635 4.566,7.521 6.27,11.551c3.546,8.384 5.344,17.289 5.344,26.469c0,9.179 -1.798,18.085 -5.344,26.469c-1.704,4.03 -3.814,7.916 -6.27,11.551c-2.432,3.601 -5.226,6.987 -8.303,10.063c-3.076,3.077 -6.462,5.871 -10.063,8.303c-3.635,2.456 -7.521,4.565 -11.551,6.27c-8.384,3.546 -17.29,5.344 -26.469,5.344c-9.18,0 -18.085,-1.798 -26.469,-5.344c-4.029,-1.704 -7.916,-3.814 -11.551,-6.27c-3.601,-2.433 -6.987,-5.226 -10.063,-8.303c-3.077,-3.077 -5.871,-6.463 -8.303,-10.063c-2.456,-3.635 -4.565,-7.521 -6.27,-11.551c-3.546,-8.384 -5.344,-17.29 -5.344,-26.469c0,-9.18 1.798,-18.085 5.344,-26.469c1.705,-4.03 3.814,-7.916 6.27,-11.551c2.432,-3.6 5.226,-6.986 8.303,-10.063c3.076,-3.077 6.462,-5.87 10.063,-8.303c3.635,-2.456 7.522,-4.566 11.551,-6.27c8.384,-3.546 17.289,-5.344 26.469,-5.344zm0,183c-7.803,0 -15.6,-0.786 -23.177,-2.337c-7.383,-1.511 -14.646,-3.765 -21.586,-6.7c-6.814,-2.883 -13.387,-6.45 -19.535,-10.603c-6.089,-4.114 -11.815,-8.839 -17.019,-14.043c-5.204,-5.204 -9.929,-10.93 -14.043,-17.02c-4.154,-6.148 -7.721,-12.72 -10.603,-19.534c-2.936,-6.94 -5.19,-14.203 -6.701,-21.587c-1.55,-7.576 -2.3365,-15.374 -2.3365,-23.176c0,-7.803 0.7865,-15.6 2.3365,-23.177c1.511,-7.383 3.765,-14.646 6.701,-21.586c2.882,-6.814 6.449,-13.386 10.603,-19.534c4.114,-6.09 8.839,-11.816 14.043,-17.02c5.204,-5.204 10.93,-9.929 17.019,-14.043c6.148,-4.153 12.721,-7.7203 19.535,-10.6024c6.94,-2.9355 14.203,-5.19 21.586,-6.7009c7.577,-1.5503 15.374,-2.3364 23.177,-2.3364c7.802,0 15.6,0.7861 23.176,2.3364c7.384,1.5109 14.647,3.7654 21.587,6.7009c6.814,2.8821 13.387,6.4494 19.535,10.6024c6.089,4.114 11.815,8.839 17.019,14.043c5.204,5.204 9.929,10.93 14.043,17.02c4.153,6.148 7.721,12.72 10.603,19.534c2.935,6.94 5.19,14.203 6.701,21.586c1.55,7.577 2.336,15.374 2.336,23.177c0,7.802 -0.786,15.6 -2.336,23.176c-1.511,7.384 -3.766,14.647 -6.701,21.587c-2.882,6.814 -6.45,13.386 -10.603,19.534c-4.114,6.09 -8.839,11.816 -14.043,17.02c-5.204,5.204 -10.93,9.929 -17.019,14.043c-6.148,4.153 -12.721,7.72 -19.535,10.603c-6.94,2.935 -14.203,5.189 -21.587,6.7c-7.576,1.551 -15.373,2.337 -23.176,2.337zm0,-182c-9.045,0 -17.819,1.771 -26.079,5.265c-3.97,1.679 -7.799,3.758 -11.381,6.178c-3.548,2.397 -6.884,5.149 -9.916,8.181c-3.032,3.032 -5.784,6.368 -8.181,9.916c-2.42,3.581 -4.498,7.41 -6.178,11.38c-3.493,8.261 -5.265,17.035 -5.265,26.08c0,9.045 1.772,17.819 5.265,26.079c1.68,3.971 3.758,7.8 6.178,11.381c2.397,3.548 5.149,6.884 8.181,9.916c3.032,3.032 6.368,5.784 9.916,8.181c3.582,2.42 7.411,4.499 11.381,6.178c8.26,3.494 17.034,5.265 26.079,5.265c9.045,0 17.819,-1.771 26.079,-5.265c3.971,-1.679 7.8,-3.758 11.381,-6.178c3.548,-2.396 6.884,-5.149 9.916,-8.181c3.032,-3.032 5.785,-6.368 8.182,-9.916c2.419,-3.581 4.498,-7.41 6.177,-11.381c3.494,-8.26 5.265,-17.034 5.265,-26.079c0,-9.045 -1.771,-17.819 -5.265,-26.08c-1.679,-3.97 -3.758,-7.799 -6.177,-11.38c-2.397,-3.548 -5.15,-6.885 -8.182,-9.916c-3.032,-3.032 -6.368,-5.785 -9.916,-8.181c-3.581,-2.42 -7.41,-4.499 -11.381,-6.178c-8.26,-3.494 -17.034,-5.265 -26.079,-5.265z" fill="white" fill-opacity="0.35" id="svg_17"/>
 </g>
</svg>