<svg width="8" height="8" viewBox="0 0 8 8" fill="none" xmlns="http://www.w3.org/2000/svg">
<path d="M3.61295 3.04315C3.76871 2.93287 3.95512 2.87413 4.14597 2.87515C4.31907 2.86978 4.49157 2.89797 4.65396 2.95816C4.73009 2.99001 4.80117 3.03281 4.86496 3.08517C4.89468 3.10971 4.92896 3.12813 4.96582 3.1394C5.00268 3.15067 5.04138 3.15459 5.07974 3.15087C5.11811 3.14716 5.15538 3.1359 5.18939 3.11776C5.2234 3.09963 5.25349 3.07495 5.27795 3.04516C5.32643 2.98653 5.3501 2.91127 5.34393 2.83545C5.33777 2.75962 5.30227 2.68919 5.24496 2.63916C4.94108 2.37876 4.55095 2.24113 4.15094 2.25317C3.79489 2.24918 3.44839 2.36822 3.16995 2.59018C2.88736 2.81114 2.6816 3.11556 2.58194 3.46017H2.28195C2.21883 3.46017 2.15828 3.48524 2.11365 3.52987C2.06901 3.57451 2.04395 3.63506 2.04395 3.69818C2.04395 3.7613 2.06901 3.82182 2.11365 3.86645C2.15828 3.91108 2.21883 3.93615 2.28195 3.93615H2.46497C2.46659 4.07653 2.47558 4.21674 2.49194 4.35617H2.27695C2.2178 4.35617 2.16108 4.37965 2.11926 4.42147C2.07744 4.46329 2.05396 4.52002 2.05396 4.57916C2.05396 4.6383 2.07744 4.69502 2.11926 4.73684C2.16108 4.77866 2.2178 4.80215 2.27695 4.80215H2.61395C2.71654 5.12923 2.92253 5.41419 3.20096 5.61416C3.47862 5.81301 3.81247 5.91809 4.15396 5.91415C4.54592 5.92749 4.92822 5.79089 5.22296 5.53216C5.27998 5.48185 5.3151 5.41126 5.32089 5.33544C5.32668 5.25963 5.30268 5.18454 5.25397 5.12616C5.20456 5.06607 5.13332 5.02804 5.05591 5.02035C4.9785 5.01267 4.9012 5.03598 4.84094 5.08517C4.7775 5.13751 4.70676 5.18028 4.63095 5.21215C4.48619 5.29508 4.32054 5.33434 4.15396 5.32516C3.97619 5.33248 3.80043 5.28536 3.65015 5.19012C3.49987 5.09488 3.38222 4.95605 3.31296 4.79217H4.26596C4.3251 4.79217 4.38182 4.76865 4.42365 4.72683C4.46547 4.68501 4.48895 4.62829 4.48895 4.56915C4.48895 4.51001 4.46547 4.45328 4.42365 4.41146C4.38182 4.36964 4.3251 4.34616 4.26596 4.34616H3.17294C3.13872 4.20893 3.12959 4.06666 3.14597 3.92617H4.23895C4.26824 3.92617 4.29722 3.92038 4.32428 3.90918C4.35134 3.89797 4.37593 3.88154 4.39664 3.86084C4.41734 3.84013 4.43377 3.81556 4.44498 3.78851C4.45618 3.76145 4.46194 3.73244 4.46194 3.70315C4.46194 3.64401 4.43846 3.58729 4.39664 3.54547C4.35482 3.50365 4.2981 3.48016 4.23895 3.48016H3.25595C3.32524 3.29551 3.45171 3.13783 3.61694 3.03015L3.61295 3.04315Z" fill="#FA544D"/>
<path d="M4.10299 7.53512C3.43152 7.53512 2.77516 7.33602 2.21685 6.96297C1.65855 6.58992 1.22338 6.05969 0.966424 5.43934C0.709465 4.81898 0.642251 4.13635 0.773248 3.47779C0.904245 2.81922 1.22759 2.21429 1.70239 1.73949C2.17719 1.26469 2.7821 0.94135 3.44067 0.810354C4.09923 0.679357 4.78186 0.746586 5.40222 1.00355C6.02257 1.2605 6.55279 1.69565 6.92584 2.25396C7.29888 2.81226 7.49801 3.46866 7.49801 4.14013C7.49669 5.04013 7.13856 5.9029 6.50216 6.5393C5.86576 7.1757 5.00299 7.53379 4.10299 7.53512ZM4.10299 1.66112C3.61269 1.66112 3.1334 1.80651 2.72573 2.07891C2.31806 2.3513 2.00034 2.73848 1.81271 3.19146C1.62508 3.64443 1.57597 4.14287 1.67162 4.62375C1.76728 5.10463 2.0034 5.54633 2.35009 5.89303C2.69679 6.23972 3.1385 6.47584 3.61938 6.57149C4.10026 6.66715 4.59871 6.61804 5.05169 6.43041C5.50467 6.24278 5.89181 5.92505 6.16421 5.51739C6.4366 5.10972 6.58199 4.63043 6.58199 4.14013C6.5812 3.4829 6.31977 2.85281 5.85504 2.38808C5.3903 1.92335 4.76022 1.66192 4.10299 1.66112Z" fill="#FA544D"/>
</svg>
