<svg width="18" height="18" viewBox="0 0 18 18" fill="none" xmlns="http://www.w3.org/2000/svg">
<path d="M3.28423 9.18491H4.38423C4.50079 9.18491 4.61259 9.13861 4.69501 9.05618C4.77743 8.97376 4.82373 8.86197 4.82373 8.74541C4.82373 8.62884 4.77743 8.51705 4.69501 8.43463C4.61259 8.35221 4.50079 8.30591 4.38423 8.30591H3.28423C3.16766 8.30591 3.05589 8.35221 2.97346 8.43463C2.89104 8.51705 2.84473 8.62884 2.84473 8.74541C2.84473 8.86197 2.89104 8.97376 2.97346 9.05618C3.05589 9.13861 3.16766 9.18491 3.28423 9.18491Z" fill="#8186AF"/>
<path d="M5.77518 9.71094H3.28618C3.16962 9.71094 3.05783 9.75724 2.9754 9.83966C2.89298 9.92208 2.84668 10.0339 2.84668 10.1505C2.84668 10.267 2.89298 10.3788 2.9754 10.4612C3.05783 10.5436 3.16962 10.5899 3.28618 10.5899H5.77518C5.89174 10.5899 6.00353 10.5436 6.08595 10.4612C6.16838 10.3788 6.21468 10.267 6.21468 10.1505C6.21468 10.0339 6.16838 9.92208 6.08595 9.83966C6.00353 9.75724 5.89174 9.71094 5.77518 9.71094Z" fill="#8186AF"/>
<path d="M9.80901 12.1399C9.80932 12.0024 9.82204 11.8652 9.847 11.7299H2.717C2.47468 11.7296 2.24235 11.6333 2.071 11.4619C1.89965 11.2906 1.80327 11.0582 1.803 10.8159V7.42991H12.695V8.96991C12.9595 8.92234 13.2305 8.92234 13.495 8.96991V4.71991C13.4945 4.26496 13.3135 3.82879 12.9918 3.5071C12.6701 3.1854 12.2339 3.00444 11.779 3.00391H2.716C2.26105 3.00444 1.82489 3.1854 1.50319 3.5071C1.18149 3.82879 1.00053 4.26496 1 4.71991V10.8199C1.00053 11.2749 1.18149 11.711 1.50319 12.0327C1.82489 12.3544 2.26105 12.5354 2.716 12.5359H9.843C9.82022 12.4051 9.80885 12.2726 9.80901 12.1399ZM1.802 4.71591C1.80227 4.47359 1.89865 4.24126 2.07 4.06991C2.24135 3.89856 2.47368 3.80218 2.716 3.80191H11.78C12.0223 3.80218 12.2547 3.89856 12.426 4.06991C12.5974 4.24126 12.6937 4.47359 12.694 4.71591V4.77391H1.802V4.71591ZM1.802 5.65591H12.694V6.54891H1.802V5.65591Z" fill="#8186AF"/>
</svg>
