<svg width="21" height="21" viewBox="0 0 21 21" fill="none" xmlns="http://www.w3.org/2000/svg">
<path d="M8.33301 21C7.50445 20.9992 6.71006 20.6697 6.12418 20.0838C5.5383 19.498 5.2088 18.7036 5.20801 17.875C5.20801 17.7092 5.27386 17.5503 5.39107 17.433C5.50828 17.3158 5.66725 17.25 5.83301 17.25C5.99877 17.25 6.15774 17.3158 6.27495 17.433C6.39216 17.5503 6.45801 17.7092 6.45801 17.875C6.45801 18.3723 6.65556 18.8492 7.00719 19.2008C7.35882 19.5525 7.83573 19.75 8.33301 19.75C8.83029 19.75 9.3072 19.5525 9.65883 19.2008C10.0105 18.8492 10.208 18.3723 10.208 17.875C10.208 17.7092 10.2739 17.5503 10.3911 17.433C10.5083 17.3158 10.6672 17.25 10.833 17.25C10.9988 17.25 11.1577 17.3158 11.2749 17.433C11.3922 17.5503 11.458 17.7092 11.458 17.875C11.4572 18.7036 11.1277 19.498 10.5418 20.0838C9.95596 20.6697 9.16157 20.9992 8.33301 21Z" fill="#8186AF"/>
<path d="M15.2078 18.5001H1.45778C1.15974 18.4999 0.868932 18.4083 0.624464 18.2379C0.379996 18.0674 0.1936 17.8261 0.0903495 17.5466C-0.0129007 17.267 -0.0280521 16.9625 0.0469336 16.674C0.121919 16.3856 0.283445 16.127 0.509782 15.9331C0.529835 15.9158 0.551236 15.9001 0.573782 15.8861C1.17869 15.3603 1.66366 14.7107 1.99593 13.9813C2.3282 13.2519 2.50002 12.4596 2.49978 11.6581V9.33311C2.49507 8.02199 2.93473 6.74796 3.74705 5.7188C4.55938 4.68964 5.69643 3.96607 6.97278 3.66611C7.13417 3.62805 7.30406 3.65566 7.44509 3.74287C7.58611 3.83007 7.68672 3.96973 7.72478 4.13111C7.76284 4.2925 7.73523 4.46239 7.64803 4.60342C7.56082 4.74444 7.42117 4.84505 7.25978 4.88311C6.2576 5.1184 5.36482 5.68658 4.72729 6.49485C4.08976 7.30312 3.74516 8.30368 3.74978 9.33311V11.6581C3.74983 12.6526 3.53339 13.6352 3.11549 14.5377C2.69759 15.4402 2.08825 16.2408 1.32978 16.8841L1.29578 16.9111C1.26575 16.9481 1.24949 16.9944 1.24978 17.0421C1.25056 17.097 1.27272 17.1495 1.31156 17.1883C1.3504 17.2272 1.40286 17.2493 1.45778 17.2501H15.2078C15.2627 17.2493 15.3152 17.2272 15.354 17.1883C15.3928 17.1495 15.415 17.097 15.4158 17.0421C15.4163 16.9947 15.4 16.9486 15.3698 16.9121C15.3578 16.9031 15.3468 16.8941 15.3358 16.8841C14.5962 16.2563 13.9989 15.478 13.5838 14.6011C13.5164 14.4519 13.5102 14.2822 13.5666 14.1286C13.623 13.9749 13.7374 13.8494 13.8853 13.7792C14.0332 13.709 14.2027 13.6996 14.3575 13.7531C14.5122 13.8065 14.6398 13.9186 14.7128 14.0651C15.0419 14.7616 15.5118 15.3823 16.0928 15.8881C16.1143 15.9022 16.135 15.9176 16.1548 15.9341C16.3817 16.1278 16.5437 16.3863 16.619 16.675C16.6943 16.9636 16.6793 17.2684 16.576 17.5482C16.4726 17.828 16.286 18.0694 16.0411 18.2398C15.7963 18.4102 15.5051 18.5014 15.2068 18.5011L15.2078 18.5001Z" fill="#8186AF"/>
<path d="M14.583 12.667C13.3469 12.667 12.1385 12.3004 11.1107 11.6137C10.0829 10.9269 9.28182 9.9508 8.80877 8.80877C8.33572 7.66673 8.21194 6.41006 8.4531 5.19768C8.69426 3.9853 9.28952 2.87166 10.1636 1.99758C11.0377 1.1235 12.1513 0.528245 13.3637 0.287087C14.5761 0.0459294 15.8327 0.1697 16.9748 0.642748C18.1168 1.1158 19.0929 1.91687 19.7797 2.94468C20.4665 3.97249 20.833 5.18086 20.833 6.417C20.8312 8.07403 20.1721 9.66266 19.0004 10.8344C17.8287 12.0061 16.24 12.6651 14.583 12.667ZM14.583 1.609C13.6321 1.609 12.7025 1.89098 11.9118 2.41929C11.1212 2.9476 10.5049 3.69851 10.141 4.57705C9.77709 5.4556 9.68187 6.42233 9.86739 7.35499C10.0529 8.28765 10.5108 9.14435 11.1832 9.81676C11.8557 10.4892 12.7124 10.9471 13.645 11.1326C14.5777 11.3181 15.5444 11.2229 16.4229 10.859C17.3015 10.4951 18.0524 9.87885 18.5807 9.08818C19.109 8.29751 19.391 7.36793 19.391 6.417C19.3897 5.14224 18.8827 3.92008 17.9813 3.01869C17.0799 2.1173 15.8578 1.61032 14.583 1.609Z" fill="#FA544D"/>
<path d="M14.5826 9.5881C13.9555 9.5881 13.3424 9.40212 12.8209 9.05369C12.2994 8.70525 11.893 8.21001 11.653 7.63058C11.413 7.05116 11.3502 6.41358 11.4726 5.79846C11.5949 5.18335 11.8969 4.61833 12.3404 4.17486C12.7839 3.73139 13.3489 3.42938 13.964 3.30703C14.5791 3.18467 15.2167 3.24747 15.7961 3.48747C16.3755 3.72748 16.8708 4.13391 17.2192 4.65538C17.5676 5.17685 17.7536 5.78993 17.7536 6.4171C17.7526 7.25777 17.4181 8.06371 16.8237 8.65816C16.2292 9.25261 15.4233 9.58704 14.5826 9.5881Z" fill="#8186AF"/>
</svg>
