<svg width="16" height="14" viewBox="0 0 16 14" fill="none" xmlns="http://www.w3.org/2000/svg">
<path d="M6.25158 11.4981H4.91158C4.79303 11.4981 4.67933 11.451 4.5955 11.3672C4.51167 11.2834 4.46458 11.1697 4.46458 11.0511V9.45111L4.59558 9.58212C4.68 9.6629 4.7927 9.7074 4.90954 9.70612C5.02638 9.70483 5.13807 9.65785 5.22069 9.57523C5.30331 9.4926 5.3503 9.38091 5.35159 9.26407C5.35288 9.14723 5.30836 9.03453 5.22758 8.9501L4.33458 8.05713C4.25076 7.97335 4.1371 7.92627 4.01858 7.92627C3.90007 7.92627 3.7864 7.97335 3.70258 8.05713L2.80958 8.9501C2.7288 9.03453 2.68429 9.14723 2.68557 9.26407C2.68686 9.38091 2.73384 9.4926 2.81646 9.57523C2.89909 9.65785 3.01078 9.70483 3.12762 9.70612C3.24446 9.7074 3.35716 9.6629 3.44158 9.58212L3.57258 9.45111V11.0511C3.57285 11.4064 3.71411 11.7471 3.96535 11.9984C4.21659 12.2496 4.55727 12.3908 4.91258 12.3911H6.25258C6.313 12.394 6.37336 12.3846 6.43002 12.3634C6.48668 12.3423 6.53846 12.3098 6.58223 12.2681C6.62599 12.2263 6.66083 12.1761 6.68464 12.1205C6.70844 12.0649 6.72072 12.0051 6.72072 11.9446C6.72072 11.8841 6.70844 11.8243 6.68464 11.7687C6.66083 11.7131 6.62599 11.6629 6.58223 11.6212C6.53846 11.5794 6.48668 11.547 6.43002 11.5258C6.37336 11.5047 6.312 11.4952 6.25158 11.4981Z" fill="#8186AF"/>
<path d="M12.3747 3.59C12.2909 3.50622 12.1773 3.45916 12.0587 3.45916C11.9402 3.45916 11.8266 3.50622 11.7427 3.59L11.6117 3.721V2.12101C11.6115 1.7657 11.4702 1.42502 11.219 1.17377C10.9677 0.922533 10.627 0.781271 10.2717 0.781006H8.93173C8.81697 0.786439 8.70869 0.835851 8.62939 0.918991C8.5501 1.00213 8.50586 1.11261 8.50586 1.2275C8.50586 1.3424 8.5501 1.45288 8.62939 1.53602C8.70869 1.61916 8.81697 1.66857 8.93173 1.674H10.2717C10.3903 1.674 10.504 1.7211 10.5878 1.80493C10.6716 1.88876 10.7188 2.00245 10.7188 2.12101V3.721L10.5877 3.59C10.5466 3.54699 10.4972 3.51264 10.4426 3.48895C10.388 3.46526 10.3292 3.45272 10.2697 3.45207C10.2102 3.45141 10.1511 3.46265 10.096 3.48513C10.0409 3.50761 9.99079 3.54087 9.9487 3.58297C9.90661 3.62506 9.87334 3.67514 9.85086 3.73026C9.82838 3.78538 9.81715 3.84444 9.81781 3.90397C9.81847 3.9635 9.83099 4.02229 9.85468 4.0769C9.87836 4.13152 9.91274 4.18085 9.95575 4.22201L10.8487 5.11501C10.9327 5.19854 11.0463 5.24544 11.1647 5.24544C11.2832 5.24544 11.3968 5.19854 11.4807 5.11501L12.3737 4.22201C12.4577 4.13832 12.5049 4.02473 12.5051 3.90621C12.5053 3.7877 12.4584 3.67396 12.3747 3.59Z" fill="#8186AF"/>
<path d="M0 0.559998V4.903C0 5.05152 0.0589998 5.19396 0.16402 5.29898C0.269041 5.404 0.411479 5.463 0.56 5.463H7.3C7.37354 5.463 7.44636 5.44851 7.5143 5.42037C7.58224 5.39223 7.64398 5.35098 7.69598 5.29898C7.74798 5.24698 7.78923 5.18524 7.81737 5.1173C7.84551 5.04936 7.86 4.97654 7.86 4.903V0.559998C7.86 0.486457 7.84551 0.413638 7.81737 0.345695C7.78923 0.277753 7.74798 0.216018 7.69598 0.164017C7.64398 0.112016 7.58224 0.0707681 7.5143 0.0426254C7.44636 0.0144828 7.37354 0 7.3 0H0.56C0.48646 0 0.41364 0.0144828 0.345697 0.0426254C0.277755 0.0707681 0.216021 0.112016 0.16402 0.164017C0.112019 0.216018 0.0707701 0.277753 0.0426275 0.345695C0.0144848 0.413638 0 0.486457 0 0.559998ZM7.075 0.780998V1.494C6.91072 1.43546 6.76152 1.34111 6.63821 1.21779C6.51489 1.09448 6.42054 0.945276 6.362 0.780998H7.075ZM0.78 0.780998H1.493C1.43446 0.945276 1.34011 1.09448 1.21679 1.21779C1.09348 1.34111 0.944277 1.43546 0.78 1.494V0.780998ZM0.78 4.681V3.968C0.944277 4.02654 1.09348 4.12088 1.21679 4.2442C1.34011 4.36752 1.43446 4.51672 1.493 4.681H0.78ZM7.075 4.681H6.362C6.42054 4.51672 6.51489 4.36752 6.63821 4.2442C6.76152 4.12088 6.91072 4.02654 7.075 3.968V4.681ZM7.075 3.16C6.70045 3.2371 6.35669 3.42224 6.0862 3.69255C5.81571 3.96286 5.63034 4.3065 5.553 4.681H2.3C2.22262 4.30695 2.03748 3.96371 1.76738 3.69362C1.49729 3.42352 1.15405 3.23837 0.78 3.161V2.302C1.15432 2.22448 1.49774 2.03903 1.76786 1.76856C2.03798 1.49808 2.22297 1.15442 2.3 0.779999H5.554C5.63134 1.1545 5.81671 1.49814 6.0872 1.76845C6.35769 2.03876 6.70145 2.2239 7.076 2.301L7.075 3.16Z" fill="#8186AF"/>
<path d="M3.92784 1.56104C3.69623 1.56104 3.46983 1.62971 3.27726 1.75838C3.08469 1.88706 2.9346 2.06994 2.84597 2.28391C2.75734 2.49788 2.73415 2.73334 2.77934 2.96049C2.82452 3.18764 2.93604 3.39629 3.09981 3.56006C3.26358 3.72383 3.47223 3.83535 3.69938 3.88053C3.92653 3.92571 4.16198 3.90253 4.37596 3.8139C4.58993 3.72527 4.77281 3.57518 4.90148 3.38261C5.03016 3.19004 5.09883 2.96363 5.09883 2.73203C5.09857 2.42155 4.97511 2.12385 4.75556 1.9043C4.53602 1.68476 4.23832 1.5613 3.92784 1.56104ZM3.92784 3.12203C3.8507 3.12203 3.7753 3.09916 3.71116 3.0563C3.64703 3.01345 3.59704 2.95254 3.56752 2.88128C3.538 2.81002 3.53028 2.73161 3.54533 2.65595C3.56038 2.5803 3.59752 2.5108 3.65206 2.45626C3.70661 2.40172 3.7761 2.36457 3.85175 2.34953C3.9274 2.33448 4.00582 2.3422 4.07708 2.37172C4.14835 2.40124 4.20925 2.45123 4.25211 2.51537C4.29496 2.5795 4.31784 2.6549 4.31784 2.73203C4.31757 2.83539 4.2764 2.93443 4.20332 3.00751C4.13024 3.0806 4.03119 3.12177 3.92784 3.12203Z" fill="#8186AF"/>
<path d="M11.5137 6.77396L7.89571 9.64896C7.85396 9.68162 7.81912 9.72228 7.79322 9.76852C7.76731 9.81477 7.75085 9.8657 7.7448 9.91837C7.73875 9.97103 7.74323 10.0244 7.75798 10.0753C7.77273 10.1262 7.79746 10.1737 7.83072 10.215C7.86339 10.2567 7.90401 10.2916 7.95026 10.3175C7.99651 10.3434 8.04745 10.3598 8.10012 10.3659C8.15278 10.3719 8.20612 10.3674 8.25704 10.3527C8.30795 10.3379 8.35544 10.3132 8.39672 10.28L9.06571 9.74796V13.315C9.06571 13.4054 9.10164 13.4921 9.16559 13.5561C9.22954 13.62 9.31627 13.6559 9.40671 13.6559H11.1417C11.2321 13.6559 11.3189 13.62 11.3828 13.5561C11.4468 13.4921 11.4827 13.4054 11.4827 13.315V11.423H12.2877V13.315C12.2877 13.4054 12.3236 13.4921 12.3876 13.5561C12.4515 13.62 12.5383 13.6559 12.6287 13.6559H14.3607C14.4512 13.6559 14.5379 13.62 14.6018 13.5561C14.6658 13.4921 14.7017 13.4054 14.7017 13.315V9.76395L15.3437 10.278C15.3849 10.3113 15.4322 10.3362 15.4831 10.3511C15.5339 10.366 15.5872 10.3707 15.6399 10.3648C15.6925 10.3589 15.7435 10.3427 15.7898 10.317C15.8361 10.2912 15.8769 10.2566 15.9097 10.215C15.9431 10.1738 15.9679 10.1264 15.9829 10.0756C15.9978 10.0247 16.0024 9.97145 15.9966 9.91879C15.9907 9.86613 15.9744 9.81515 15.9487 9.76883C15.923 9.72251 15.8883 9.68177 15.8467 9.64896L12.2607 6.77496C12.1547 6.69037 12.0231 6.64423 11.8874 6.64404C11.7517 6.64386 11.62 6.68965 11.5137 6.77396ZM13.8977 12.8499H13.0927V10.955C13.0927 10.9106 13.084 10.8666 13.067 10.8256C13.05 10.7846 13.0251 10.7474 12.9937 10.716C12.9623 10.6846 12.9251 10.6597 12.8841 10.6427C12.8431 10.6257 12.7991 10.617 12.7547 10.617H11.0157C10.9713 10.617 10.9274 10.6257 10.8864 10.6427C10.8454 10.6597 10.8081 10.6846 10.7767 10.716C10.7453 10.7474 10.7204 10.7846 10.7034 10.8256C10.6865 10.8666 10.6777 10.9106 10.6777 10.955V12.8499H9.87271V9.10696L11.8847 7.50696L13.8987 9.11795V12.849L13.8977 12.8499Z" fill="#FA544D"/>
</svg>
