<svg width="23" height="22" xmlns="http://www.w3.org/2000/svg">

 <g>
  <title>background</title>
  <rect fill="none" id="canvas_background" height="402" width="582" y="-1" x="-1"/>
 </g>
 <g>
  <title>Layer 1</title>
  <path id="svg_1" fill="#ffffff" d="m1.90119,10.6851l0.984,0.984l4.131,0l0.984,-0.984c0.05248,-0.058 0.11618,-0.1047 0.18725,-0.1373c0.07106,-0.0325 0.14801,-0.0503 0.22616,-0.0523c0.07816,-0.0019 0.15589,0.0121 0.22848,0.0411c0.0726,0.029 0.13853,0.0725 0.19382,0.1278c0.05528,0.0552 0.09875,0.1212 0.12777,0.1938c0.02902,0.0726 0.04298,0.1503 0.04105,0.2284c-0.00194,0.0782 -0.01974,0.1551 -0.05232,0.2262c-0.03258,0.0711 -0.07926,0.1348 -0.13721,0.1873l-1.153,1.153c-0.05355,0.0536 -0.11715,0.0961 -0.18716,0.1251c-0.07001,0.029 -0.14506,0.0439 -0.22084,0.0439l-1.724,0l0,2.453l10.45601,3.116l0,-2.11l-1.73,0c-0.0758,0 -0.1508,-0.0149 -0.2209,-0.0439c-0.07,-0.029 -0.1336,-0.0715 -0.1871,-0.1251l-1.153,-1.153c-0.058,-0.0525 -0.1046,-0.1162 -0.1372,-0.1873c-0.0326,-0.0711 -0.0504,-0.148 -0.0523,-0.2262c-0.002,-0.0781 0.012,-0.1558 0.041,-0.2284c0.029,-0.0726 0.0725,-0.1386 0.1278,-0.1938c0.0553,-0.0553 0.1212,-0.0988 0.1938,-0.1278c0.0726,-0.029 0.1503,-0.043 0.2285,-0.0411c0.0781,0.002 0.1551,0.0198 0.2261,0.0523c0.0711,0.0326 0.1348,0.0793 0.1873,0.1373l0.984,0.984l4.135,0l0.984,-0.984c0.0525,-0.058 0.1162,-0.1047 0.1872,-0.1373c0.0711,-0.0325 0.148,-0.0503 0.2262,-0.0523c0.0782,-0.0019 0.1559,0.0121 0.2285,0.0411c0.0726,0.029 0.1385,0.0725 0.1938,0.1278c0.0553,0.0552 0.0987,0.1212 0.1278,0.1938c0.029,0.0726 0.043,0.1503 0.041,0.2284c-0.0019,0.0782 -0.0197,0.1551 -0.0523,0.2262c-0.0326,0.0711 -0.0793,0.1348 -0.1372,0.1873l-1.152,1.157c-0.0536,0.0536 -0.1172,0.0961 -0.1872,0.1251c-0.07,0.029 -0.145,0.0439 -0.2208,0.0439l-1.73,0l0,2.883c0,0.0897 -0.021,0.1783 -0.0613,0.2585c-0.0402,0.0802 -0.0987,0.15 -0.1706,0.2037c-0.072,0.0537 -0.1554,0.0898 -0.2438,0.1056c-0.0884,0.0158 -0.1792,0.0107 -0.2653,-0.0148l-4.712,-1.4l1.968,2.531c0.0313,0.0871 0.0411,0.1804 0.0288,0.2721c-0.0124,0.0917 -0.0467,0.1791 -0.0999,0.2548c-0.0533,0.0757 -0.1239,0.1375 -0.2061,0.1801c-0.0821,0.0427 -0.1733,0.065 -0.2658,0.065l-4.61201,0c-0.09254,0 -0.18373,-0.0223 -0.26586,-0.065c-0.08213,-0.0426 -0.1528,-0.1044 -0.20604,-0.1801c-0.05324,-0.0757 -0.08749,-0.1631 -0.09987,-0.2548c-0.01237,-0.0917 -0.00251,-0.185 0.02877,-0.2721l2.05401,-3.036l-5.21601,-1.554c-0.12016,-0.0347 -0.22579,-0.1075 -0.301,-0.2074c-0.07521,-0.0999 -0.11592,-0.2216 -0.116,-0.3466l0,-2.883l-1.729,0c-0.07578,0 -0.15083,-0.0149 -0.22084,-0.0439c-0.07001,-0.029 -0.13361,-0.0715 -0.18716,-0.1251l-1.153,-1.156c-0.05795,-0.0525 -0.10463,-0.1162 -0.13721,-0.1873c-0.03258,-0.0711 -0.05038,-0.148 -0.05232,-0.2262c-0.00193,-0.0781 0.01203,-0.1558 0.04105,-0.2284c0.02902,-0.0726 0.07249,-0.1386 0.12777,-0.1938c0.05528,-0.0553 0.12122,-0.0988 0.19382,-0.1278c0.07259,-0.029 0.15032,-0.043 0.22848,-0.0411c0.07815,0.002 0.1551,0.0198 0.22616,0.0523c0.07107,0.0326 0.13477,0.0793 0.18725,0.1373zm9.86801,9.778l-1.011,-1.322l-1.04201,1.322l2.05301,0z"/>
  <path id="svg_2" fill="none" d="m7.635156,7.468334l-2.392,-1.794c-0.03506,-0.02717 -0.07815,-0.04191 -0.1225,-0.04191c-0.04435,0 -0.08747,0.01474 -0.12253,0.04191l-2.392,1.794c-0.04465,0.03348 -0.09544,0.05785 -0.1495,0.0717c-0.05407,0.01385 -0.11034,0.01692 -0.16559,0.00903c-0.11158,-0.01595 -0.21228,-0.07556 -0.27991,-0.16573c-0.06763,-0.09018 -0.09666,-0.20352 -0.08072,-0.31511c0.01594,-0.11158 0.07557,-0.21226 0.16574,-0.27989l2.556,-1.917c0.13543,-0.10074 0.29973,-0.15514 0.46851,-0.15514c0.16878,0 0.33305,0.0544 0.46848,0.15514l2.556,1.917c0.09017,0.06763 0.1498,0.16831 0.16574,0.27989c0.01594,0.11159 -0.01309,0.22493 -0.08072,0.31511c-0.06763,0.09017 -0.16833,0.14978 -0.27991,0.16573c-0.11158,0.01594 -0.22492,-0.0131 -0.31509,-0.08073z"/>
  <path id="svg_3" fill="#ffffff" d="m6.02606,8.29614l-0.82001,0l0,0.816l0.81598,0l0.00403,-0.816z"/>
  <path id="svg_4" fill="#ffffff" d="m4.80331,8.29614l-0.81601,0l0,0.816l0.81601,0l0,-0.816z"/>
  <path id="svg_5" fill="#ffffff" d="m2.94672,7.75201l1.58399,-1.188c0.13793,-0.10244 0.30517,-0.15776 0.47699,-0.15776c0.17181,0 0.33909,0.05532 0.47702,0.15776l1.58398,1.188c0.09845,0.07432 0.17839,0.1704 0.23355,0.28073c0.05517,0.11033 0.08409,0.23192 0.08448,0.35527l0,1.81099c0,0.0263 -0.00518,0.0523 -0.01523,0.0766c-0.01005,0.0242 -0.0248,0.0463 -0.04337,0.0648c-0.01857,0.0186 -0.04061,0.0333 -0.06488,0.0434c-0.02426,0.01 -0.05027,0.0152 -0.07654,0.0152l-4.35,0c-0.02627,0 -0.05227,-0.0052 -0.07654,-0.0152c-0.02426,-0.0101 -0.04631,-0.0248 -0.06488,-0.0434c-0.01857,-0.0185 -0.03331,-0.0406 -0.04337,-0.0648c-0.01005,-0.0243 -0.01519,-0.0503 -0.01519,-0.0766l0,-1.81099c-0.00056,-0.12268 0.02708,-0.24385 0.08084,-0.35413c0.05375,-0.11028 0.13217,-0.20672 0.22915,-0.28187zm0.56199,1.838c0,0.03395 0.0135,0.06651 0.0375,0.09051c0.02401,0.02401 0.05657,0.03749 0.09052,0.03749l2.74099,0c0.03395,0 0.06648,-0.01348 0.09049,-0.03749c0.024,-0.024 0.0375,-0.05656 0.0375,-0.09051l0,-1.142c0,-0.07762 -0.01808,-0.15418 -0.05279,-0.2236c-0.03471,-0.06943 -0.08512,-0.12982 -0.14722,-0.1764l-1,-0.749c-0.08655,-0.06491 -0.1918,-0.1 -0.29999,-0.1c-0.10818,0 -0.21343,0.03509 -0.29998,0.1l-1,0.749c-0.0621,0.04658 -0.11251,0.10697 -0.14722,0.1764c-0.03471,0.06942 -0.0528,0.14598 -0.0528,0.2236l0.003,1.142z"/>
  <path id="svg_6" fill="#ffffff" d="m2.83203,5.03398c0,-0.05304 0.02109,-0.10391 0.05859,-0.14142c0.03751,-0.0375 0.08838,-0.05858 0.14142,-0.05858l0.40799,0c0.05305,0 0.10394,0.02108 0.14145,0.05858c0.03751,0.03751 0.05857,0.08838 0.05857,0.14142l0,0.109l-0.80802,0.61l0,-0.719z"/>
  <path id="svg_7" fill="#ffffff" d="m16.583,12.667c-1.2361,0 -2.4445,-0.3666 -3.4723,-1.0533c-1.0278,-0.6868 -1.8289,-1.6629 -2.3019,-2.80493c-0.4731,-1.14204 -0.5969,-2.39871 -0.3557,-3.61109c0.2412,-1.21238 0.8364,-2.32602 1.7105,-3.2001c0.8741,-0.87408 1.9877,-1.46933 3.2001,-1.71049c1.2124,-0.24116 2.469,-0.11739 3.6111,0.35566c1.142,0.47305 2.1181,1.27412 2.8049,2.30193c0.6868,1.02781 1.0533,2.23618 1.0533,3.47232c-0.0018,1.65703 -0.6609,3.24566 -1.8326,4.4174c-1.1717,1.1717 -2.7604,1.8307 -4.4174,1.8326zm0,-11.058c-0.9509,0 -1.8805,0.28198 -2.6712,0.81029c-0.7906,0.52831 -1.4069,1.27922 -1.7708,2.15776c-0.3639,0.87855 -0.4591,1.84528 -0.2736,2.77794c0.1855,0.93266 0.6434,1.78936 1.3158,2.46177c0.6725,0.67244 1.5292,1.13034 2.4618,1.31584c0.9327,0.1855 1.8994,0.0903 2.7779,-0.2736c0.8786,-0.3639 1.6295,-0.98015 2.1578,-1.77082c0.5283,-0.79067 0.8103,-1.72025 0.8103,-2.67118c-0.0013,-1.27476 -0.5083,-2.49692 -1.4097,-3.39831c-0.9014,-0.90139 -2.1235,-1.40837 -3.3983,-1.40969z"/>
  <path id="svg_8" fill="#ffffff" d="m16.5831,9.5881c-0.6271,0 -1.2402,-0.18598 -1.7617,-0.53441c-0.5215,-0.34844 -0.9279,-0.84368 -1.1679,-1.42311c-0.24,-0.57942 -0.3028,-1.217 -0.1805,-1.83212c0.1224,-0.61511 0.4244,-1.18013 0.8679,-1.6236c0.4435,-0.44347 1.0085,-0.74548 1.6236,-0.86783c0.6151,-0.12236 1.2527,-0.05956 1.8321,0.18044c0.5794,0.24001 1.0747,0.64644 1.4231,1.16791c0.3484,0.52147 0.5344,1.13455 0.5344,1.76172c-0.0011,0.84067 -0.3355,1.64661 -0.9299,2.24106c-0.5945,0.59445 -1.4004,0.92888 -2.2411,0.92994z"/>
 </g>
</svg>