<svg width="21" height="21" xmlns="http://www.w3.org/2000/svg">

 <g>
  <title>background</title>
  <rect fill="none" id="canvas_background" height="402" width="582" y="-1" x="-1"/>
 </g>
 <g>
  <title>Layer 1</title>
  <path id="svg_1" fill="#ffffff" d="m8.33301,21c-0.82856,-0.0008 -1.62295,-0.3303 -2.20883,-0.9162c-0.58588,-0.5858 -0.91538,-1.3802 -0.91617,-2.2088c0,-0.1658 0.06585,-0.3247 0.18306,-0.442c0.11721,-0.1172 0.27618,-0.183 0.44194,-0.183c0.16576,0 0.32473,0.0658 0.44194,0.183c0.11721,0.1173 0.18306,0.2762 0.18306,0.442c0,0.4973 0.19755,0.9742 0.54918,1.3258c0.35163,0.3517 0.82854,0.5492 1.32582,0.5492c0.49728,0 0.97419,-0.1975 1.32582,-0.5492c0.35167,-0.3516 0.54917,-0.8285 0.54917,-1.3258c0,-0.1658 0.0659,-0.3247 0.1831,-0.442c0.1172,-0.1172 0.2761,-0.183 0.4419,-0.183c0.1658,0 0.3247,0.0658 0.4419,0.183c0.1173,0.1173 0.1831,0.2762 0.1831,0.442c-0.0008,0.8286 -0.3303,1.623 -0.9162,2.2088c-0.58584,0.5859 -1.38023,0.9154 -2.20879,0.9162z"/>
  <path id="svg_2" fill="#ffffff" d="m15.2078,18.5001l-13.75002,0c-0.29804,-0.0002 -0.588848,-0.0918 -0.833316,-0.2622c-0.244468,-0.1705 -0.430864,-0.4118 -0.534115,-0.6913c-0.10325,-0.2796 -0.118401,-0.5841 -0.043415,-0.8726c0.074985,-0.2884 0.236511,-0.547 0.462848,-0.7409c0.020053,-0.0173 0.041454,-0.033 0.064,-0.047c0.604908,-0.5258 1.089878,-1.1754 1.422148,-1.9048c0.33227,-0.7294 0.50409,-1.5217 0.50385,-2.3232l0,-2.32499c-0.00471,-1.31112 0.43495,-2.58515 1.24727,-3.61431c0.81233,-1.02916 1.94938,-1.75273 3.22573,-2.05269c0.16139,-0.03806 0.33128,-0.01045 0.47231,0.07676c0.14102,0.0872 0.24163,0.22686 0.27969,0.38824c0.03806,0.16139 0.01045,0.33128 -0.07675,0.47231c-0.08721,0.14102 -0.22686,0.24163 -0.38825,0.27969c-1.00218,0.23529 -1.89496,0.80347 -2.53249,1.61174c-0.63753,0.80827 -0.98213,1.80883 -0.97751,2.83826l0,2.32499c0.00005,0.9945 -0.21639,1.9771 -0.63429,2.8796c-0.4179,0.9025 -1.02724,1.7031 -1.78571,2.3464l-0.034,0.027c-0.03003,0.037 -0.04629,0.0833 -0.046,0.131c0.00078,0.0549 0.02294,0.1074 0.06178,0.1462c0.03884,0.0389 0.0913,0.061 0.14622,0.0618l13.75002,0c0.0549,-0.0008 0.1074,-0.0229 0.1462,-0.0618c0.0388,-0.0388 0.061,-0.0913 0.0618,-0.1462c0.0005,-0.0474 -0.0158,-0.0935 -0.046,-0.13c-0.012,-0.009 -0.023,-0.018 -0.034,-0.028c-0.7396,-0.6278 -1.3369,-1.4061 -1.752,-2.283c-0.0674,-0.1492 -0.0736,-0.3189 -0.0172,-0.4725c0.0564,-0.1537 0.1708,-0.2792 0.3187,-0.3494c0.1479,-0.0702 0.3174,-0.0796 0.4722,-0.0261c0.1547,0.0534 0.2823,0.1655 0.3553,0.312c0.3291,0.6965 0.799,1.3172 1.38,1.823c0.0215,0.0141 0.0422,0.0295 0.062,0.046c0.2269,0.1937 0.3889,0.4522 0.4642,0.7409c0.0753,0.2886 0.0603,0.5934 -0.043,0.8732c-0.1034,0.2798 -0.29,0.5212 -0.5349,0.6916c-0.2448,0.1704 -0.536,0.2616 -0.8343,0.2613l0.001,-0.001z"/>
  <path id="svg_3" fill="#ffffff" d="m14.583,12.667c-1.2361,0 -2.4445,-0.3666 -3.4723,-1.0533c-1.0278,-0.6868 -1.82888,-1.6629 -2.30193,-2.80493c-0.47305,-1.14204 -0.59683,-2.39871 -0.35567,-3.61109c0.24116,-1.21238 0.83642,-2.32602 1.7105,-3.2001c0.8741,-0.87408 1.9877,-1.469335 3.2001,-1.710493c1.2124,-0.241158 2.469,-0.117387 3.6111,0.355661c1.142,0.473052 2.1181,1.274122 2.8049,2.301932c0.6868,1.02781 1.0533,2.23618 1.0533,3.47232c-0.0018,1.65703 -0.6609,3.24566 -1.8326,4.4174c-1.1717,1.1717 -2.7604,1.8307 -4.4174,1.8326zm0,-11.058c-0.9509,0 -1.8805,0.28198 -2.6712,0.81029c-0.7906,0.52831 -1.4069,1.27922 -1.7708,2.15776c-0.36391,0.87855 -0.45913,1.84528 -0.27361,2.77794c0.18551,0.93266 0.64341,1.78936 1.31581,2.46177c0.6725,0.67244 1.5292,1.13034 2.4618,1.31584c0.9327,0.1855 1.8994,0.0903 2.7779,-0.2736c0.8786,-0.3639 1.6295,-0.98015 2.1578,-1.77082c0.5283,-0.79067 0.8103,-1.72025 0.8103,-2.67118c-0.0013,-1.27476 -0.5083,-2.49692 -1.4097,-3.39831c-0.9014,-0.90139 -2.1235,-1.40837 -3.3983,-1.40969z"/>
  <path id="svg_4" fill="#ffffff" d="m14.5826,9.5881c-0.6271,0 -1.2402,-0.18598 -1.7617,-0.53441c-0.5215,-0.34844 -0.9279,-0.84368 -1.1679,-1.42311c-0.24,-0.57942 -0.3028,-1.217 -0.1804,-1.83212c0.1223,-0.61511 0.4243,-1.18013 0.8678,-1.6236c0.4435,-0.44347 1.0085,-0.74548 1.6236,-0.86783c0.6151,-0.12236 1.2527,-0.05956 1.8321,0.18044c0.5794,0.24001 1.0747,0.64644 1.4231,1.16791c0.3484,0.52147 0.5344,1.13455 0.5344,1.76172c-0.001,0.84067 -0.3355,1.64661 -0.9299,2.24106c-0.5945,0.59445 -1.4004,0.92888 -2.2411,0.92994z"/>
 </g>
</svg>