<svg width="58" height="58" viewBox="0 0 58 58" fill="none" xmlns="http://www.w3.org/2000/svg">
<g filter="url(#filter0_d_0_5024)">
<path d="M28.999 42.999C39.4924 42.999 47.999 34.4924 47.999 23.999C47.999 13.5056 39.4924 4.99902 28.999 4.99902C18.5056 4.99902 9.99902 13.5056 9.99902 23.999C9.99902 34.4924 18.5056 42.999 28.999 42.999Z" fill="#323054"/>
<path d="M28.999 42.499C39.2163 42.499 47.499 34.2163 47.499 23.999C47.499 13.7818 39.2163 5.49902 28.999 5.49902C18.7818 5.49902 10.499 13.7818 10.499 23.999C10.499 34.2163 18.7818 42.499 28.999 42.499Z" stroke="#1E2044"/>
</g>
<path d="M29.9057 23.857L34.6237 19.139C34.6948 19.0696 34.7514 18.9867 34.7902 18.8953C34.8291 18.8038 34.8494 18.7055 34.8499 18.6062C34.8505 18.5068 34.8314 18.4083 34.7936 18.3164C34.7559 18.2244 34.7003 18.1409 34.63 18.0707C34.5597 18.0004 34.4762 17.9448 34.3843 17.907C34.2924 17.8693 34.1939 17.8501 34.0945 17.8507C33.9951 17.8513 33.8969 17.8716 33.8054 17.9105C33.714 17.9493 33.6311 18.0059 33.5617 18.077L28.8437 22.795L24.1257 18.077C23.9843 17.9389 23.7942 17.8621 23.5965 17.8633C23.3989 17.8645 23.2097 17.9435 23.0699 18.0832C22.9302 18.223 22.8511 18.4122 22.85 18.6098C22.8488 18.8075 22.9256 18.9976 23.0637 19.139L27.7817 23.857L23.0637 28.575C22.9587 28.68 22.8872 28.8137 22.8582 28.9593C22.8292 29.1048 22.844 29.2557 22.9007 29.3929C22.9574 29.5301 23.0535 29.6474 23.1769 29.73C23.3002 29.8126 23.4452 29.8568 23.5937 29.857C23.6922 29.8572 23.7898 29.8379 23.8807 29.8001C23.9717 29.7624 24.0543 29.7069 24.1237 29.637L28.8437 24.919L33.5617 29.637C33.6312 29.7067 33.7138 29.7621 33.8047 29.7998C33.8957 29.8376 33.9932 29.857 34.0917 29.857C34.1902 29.8575 34.2879 29.8382 34.3789 29.8005C34.4699 29.7627 34.5524 29.7071 34.6217 29.637C34.7625 29.4962 34.8416 29.3052 34.8416 29.106C34.8416 28.9068 34.7625 28.7158 34.6217 28.575L29.9057 23.857Z" fill="white"/>
<defs>
<filter id="filter0_d_0_5024" x="-0.000976562" y="-0.000976562" width="58" height="58" filterUnits="userSpaceOnUse" color-interpolation-filters="sRGB">
<feFlood flood-opacity="0" result="BackgroundImageFix"/>
<feColorMatrix in="SourceAlpha" type="matrix" values="0 0 0 0 0 0 0 0 0 0 0 0 0 0 0 0 0 0 127 0" result="hardAlpha"/>
<feOffset dy="5"/>
<feGaussianBlur stdDeviation="5"/>
<feColorMatrix type="matrix" values="0 0 0 0 0 0 0 0 0 0 0 0 0 0 0 0 0 0 0.2 0"/>
<feBlend mode="normal" in2="BackgroundImageFix" result="effect1_dropShadow_0_5024"/>
<feBlend mode="normal" in="SourceGraphic" in2="effect1_dropShadow_0_5024" result="shape"/>
</filter>
</defs>
</svg>
