<svg width="23" height="22" viewBox="0 0 23 22" fill="none" xmlns="http://www.w3.org/2000/svg">
<path d="M1.90119 10.6851L2.88519 11.6691H7.01619L8.00019 10.6851C8.05267 10.6271 8.11637 10.5804 8.18744 10.5478C8.2585 10.5153 8.33545 10.4975 8.4136 10.4955C8.49176 10.4936 8.56949 10.5076 8.64208 10.5366C8.71468 10.5656 8.78061 10.6091 8.8359 10.6644C8.89118 10.7196 8.93465 10.7856 8.96367 10.8582C8.99269 10.9308 9.00665 11.0085 9.00472 11.0866C9.00278 11.1648 8.98498 11.2417 8.9524 11.3128C8.91982 11.3839 8.87314 11.4476 8.81519 11.5001L7.66219 12.6531C7.60864 12.7067 7.54504 12.7492 7.47503 12.7782C7.40502 12.8072 7.32997 12.8221 7.25419 12.8221H5.53019V15.2751L15.9862 18.3911V16.2811H14.2562C14.1804 16.2811 14.1054 16.2662 14.0353 16.2372C13.9653 16.2082 13.9017 16.1657 13.8482 16.1121L12.6952 14.9591C12.6372 14.9066 12.5906 14.8429 12.558 14.7718C12.5254 14.7007 12.5076 14.6238 12.5057 14.5456C12.5037 14.4675 12.5177 14.3898 12.5467 14.3172C12.5757 14.2446 12.6192 14.1786 12.6745 14.1234C12.7298 14.0681 12.7957 14.0246 12.8683 13.9956C12.9409 13.9666 13.0186 13.9526 13.0968 13.9545C13.1749 13.9565 13.2519 13.9743 13.3229 14.0068C13.394 14.0394 13.4577 14.0861 13.5102 14.1441L14.4942 15.1281H18.6292L19.6132 14.1441C19.6657 14.0861 19.7294 14.0394 19.8004 14.0068C19.8715 13.9743 19.9484 13.9565 20.0266 13.9545C20.1048 13.9526 20.1825 13.9666 20.2551 13.9956C20.3277 14.0246 20.3936 14.0681 20.4489 14.1234C20.5042 14.1786 20.5476 14.2446 20.5767 14.3172C20.6057 14.3898 20.6197 14.4675 20.6177 14.5456C20.6158 14.6238 20.598 14.7007 20.5654 14.7718C20.5328 14.8429 20.4861 14.9066 20.4282 14.9591L19.2762 16.1161C19.2226 16.1697 19.159 16.2122 19.089 16.2412C19.019 16.2702 18.944 16.2851 18.8682 16.2851H17.1382V19.1681C17.1382 19.2578 17.1172 19.3464 17.0769 19.4266C17.0367 19.5068 16.9782 19.5766 16.9063 19.6303C16.8343 19.684 16.7509 19.7201 16.6625 19.7359C16.5741 19.7517 16.4833 19.7466 16.3972 19.7211L11.6852 18.3211L13.6532 20.8521C13.6845 20.9392 13.6943 21.0325 13.682 21.1242C13.6696 21.2159 13.6353 21.3033 13.5821 21.379C13.5288 21.4547 13.4582 21.5165 13.376 21.5591C13.2939 21.6018 13.2027 21.6241 13.1102 21.6241H8.49819C8.40565 21.6241 8.31446 21.6018 8.23233 21.5591C8.1502 21.5165 8.07953 21.4547 8.02629 21.379C7.97305 21.3033 7.9388 21.2159 7.92642 21.1242C7.91405 21.0325 7.92391 20.9392 7.95519 20.8521L10.0092 17.8161L4.79319 16.2621C4.67303 16.2274 4.5674 16.1546 4.49219 16.0547C4.41698 15.9548 4.37627 15.8331 4.37619 15.7081V12.8251H2.64719C2.57141 12.8251 2.49636 12.8102 2.42635 12.7812C2.35634 12.7522 2.29274 12.7097 2.23919 12.6561L1.08619 11.5001C1.02824 11.4476 0.981557 11.3839 0.948977 11.3128C0.916396 11.2417 0.898598 11.1648 0.896661 11.0866C0.894725 11.0085 0.908691 10.9308 0.937712 10.8582C0.966733 10.7856 1.0102 10.7196 1.06548 10.6644C1.12076 10.6091 1.1867 10.5656 1.2593 10.5366C1.33189 10.5076 1.40962 10.4936 1.48778 10.4955C1.56593 10.4975 1.64288 10.5153 1.71394 10.5478C1.78501 10.5804 1.84871 10.6271 1.90119 10.6851ZM11.7692 20.4631L10.7582 19.1411L9.71619 20.4631H11.7692Z" fill="#8186AF"/>
<path d="M7.52152 7.58197L5.12952 5.78797C5.09446 5.7608 5.05137 5.74606 5.00702 5.74606C4.96267 5.74606 4.91955 5.7608 4.88449 5.78797L2.49249 7.58197C2.44784 7.61545 2.39705 7.63982 2.34299 7.65367C2.28892 7.66752 2.23265 7.67059 2.1774 7.6627C2.06582 7.64675 1.96512 7.58714 1.89749 7.49697C1.82986 7.40679 1.80083 7.29345 1.81677 7.18186C1.83271 7.07028 1.89234 6.9696 1.98251 6.90197L4.53851 4.98497C4.67394 4.88423 4.83824 4.82983 5.00702 4.82983C5.1758 4.82983 5.34007 4.88423 5.4755 4.98497L8.0315 6.90197C8.12167 6.9696 8.1813 7.07028 8.19724 7.18186C8.21318 7.29345 8.18415 7.40679 8.11652 7.49697C8.04889 7.58714 7.94819 7.64675 7.83661 7.6627C7.72503 7.67864 7.61169 7.6496 7.52152 7.58197Z" fill="#FA544D"/>
<path d="M6.02606 8.29614H5.20605V9.11214H6.02203L6.02606 8.29614Z" fill="#FA544D"/>
<path d="M4.80331 8.29614H3.9873V9.11214H4.80331V8.29614Z" fill="#FA544D"/>
<path d="M2.94672 7.75201L4.53071 6.56401C4.66864 6.46157 4.83588 6.40625 5.0077 6.40625C5.17951 6.40625 5.34679 6.46157 5.48472 6.56401L7.0687 7.75201C7.16715 7.82633 7.24709 7.92241 7.30225 8.03274C7.35742 8.14307 7.38634 8.26466 7.38673 8.38801V10.199C7.38673 10.2253 7.38155 10.2513 7.3715 10.2756C7.36145 10.2998 7.3467 10.3219 7.32813 10.3404C7.30956 10.359 7.28752 10.3737 7.26325 10.3838C7.23899 10.3938 7.21298 10.399 7.18671 10.399H2.83671C2.81044 10.399 2.78444 10.3938 2.76017 10.3838C2.73591 10.3737 2.71386 10.359 2.69529 10.3404C2.67672 10.3219 2.66198 10.2998 2.65192 10.2756C2.64187 10.2513 2.63673 10.2253 2.63673 10.199V8.38801C2.63617 8.26533 2.66381 8.14416 2.71757 8.03388C2.77132 7.9236 2.84974 7.82716 2.94672 7.75201ZM3.50871 9.59001C3.50871 9.62396 3.52221 9.65652 3.54621 9.68052C3.57022 9.70453 3.60278 9.71801 3.63673 9.71801H6.37772C6.41167 9.71801 6.4442 9.70453 6.46821 9.68052C6.49221 9.65652 6.50571 9.62396 6.50571 9.59001V8.44801C6.50571 8.37039 6.48763 8.29383 6.45292 8.22441C6.41821 8.15498 6.3678 8.09459 6.3057 8.04801L5.3057 7.29901C5.21915 7.2341 5.1139 7.19901 5.00571 7.19901C4.89753 7.19901 4.79228 7.2341 4.70573 7.29901L3.70573 8.04801C3.64363 8.09459 3.59322 8.15498 3.55851 8.22441C3.5238 8.29383 3.50571 8.37039 3.50571 8.44801L3.50871 9.59001Z" fill="#FA544D"/>
<path d="M2.83203 5.03398C2.83203 4.98094 2.85312 4.93007 2.89062 4.89256C2.92813 4.85506 2.979 4.83398 3.03204 4.83398H3.44003C3.49308 4.83398 3.54397 4.85506 3.58148 4.89256C3.61899 4.93007 3.64005 4.98094 3.64005 5.03398V5.14298L2.83203 5.75298V5.03398Z" fill="#FA544D"/>
<path d="M16.583 12.667C15.3469 12.667 14.1385 12.3004 13.1107 11.6137C12.0829 10.9269 11.2818 9.9508 10.8088 8.80877C10.3357 7.66673 10.2119 6.41006 10.4531 5.19768C10.6943 3.9853 11.2895 2.87166 12.1636 1.99758C13.0377 1.1235 14.1513 0.528245 15.3637 0.287087C16.5761 0.0459294 17.8327 0.1697 18.9748 0.642748C20.1168 1.1158 21.0929 1.91687 21.7797 2.94468C22.4665 3.97249 22.833 5.18086 22.833 6.417C22.8312 8.07403 22.1721 9.66266 21.0004 10.8344C19.8287 12.0061 18.24 12.6651 16.583 12.667ZM16.583 1.609C15.6321 1.609 14.7025 1.89098 13.9118 2.41929C13.1212 2.9476 12.5049 3.69851 12.141 4.57705C11.7771 5.4556 11.6819 6.42233 11.8674 7.35499C12.0529 8.28765 12.5108 9.14435 13.1832 9.81676C13.8557 10.4892 14.7124 10.9471 15.645 11.1326C16.5777 11.3181 17.5444 11.2229 18.4229 10.859C19.3015 10.4951 20.0524 9.87885 20.5807 9.08818C21.109 8.29751 21.391 7.36793 21.391 6.417C21.3897 5.14224 20.8827 3.92008 19.9813 3.01869C19.0799 2.1173 17.8578 1.61032 16.583 1.609Z" fill="#FA544D"/>
<path d="M16.5831 9.5881C15.956 9.5881 15.3429 9.40212 14.8214 9.05369C14.2999 8.70525 13.8935 8.21001 13.6535 7.63058C13.4135 7.05116 13.3507 6.41358 13.473 5.79846C13.5954 5.18335 13.8974 4.61833 14.3409 4.17486C14.7844 3.73139 15.3494 3.42938 15.9645 3.30703C16.5796 3.18467 17.2172 3.24747 17.7966 3.48747C18.376 3.72748 18.8713 4.13391 19.2197 4.65538C19.5681 5.17685 19.7541 5.78993 19.7541 6.4171C19.753 7.25777 19.4186 8.06371 18.8242 8.65816C18.2297 9.25261 17.4238 9.58704 16.5831 9.5881Z" fill="#FA544D"/>
</svg>
