<svg width="25" height="24" xmlns="http://www.w3.org/2000/svg">

 <g>
  <title>background</title>
  <rect fill="none" id="canvas_background" height="26" width="27" y="-1" x="-1"/>
 </g>
 <g>
  <title>Layer 1</title>
  <path id="svg_2" fill="white" d="m21.6849,9.46294l0,3.86696c0,0.2072 -0.0823,0.4058 -0.2288,0.5523c-0.1464,0.1465 -0.3451,0.2287 -0.5522,0.2287c-0.2072,0 -0.4058,-0.0822 -0.5523,-0.2287c-0.1464,-0.1465 -0.2287,-0.3451 -0.2287,-0.5523l0,-1.11l-3.932,4c-0.0473,0.0478 -0.1037,0.0857 -0.1657,0.1115c-0.062,0.0259 -0.1286,0.0392 -0.1958,0.0392c-0.0672,0 -0.1338,-0.0133 -0.1958,-0.0392c-0.0621,-0.0258 -0.1184,-0.0637 -0.1657,-0.1115l-1.089,-1.089c-0.0473,-0.0477 -0.1037,-0.0856 -0.1657,-0.1115c-0.062,-0.0258 -0.1286,-0.0391 -0.1958,-0.0391c-0.0672,0 -0.1338,0.0133 -0.1958,0.0391c-0.0621,0.0259 -0.1184,0.0638 -0.1657,0.1115l-3.186,3.25c-0.0473,0.0478 -0.1037,0.0857 -0.1657,0.1115c-0.062,0.0259 -0.1286,0.0392 -0.1958,0.0392c-0.0672,0 -0.1338,-0.0133 -0.19585,-0.0392c-0.06204,-0.0258 -0.11835,-0.0637 -0.16567,-0.1115l-1.362,-1.362c-0.04733,-0.0477 -0.10364,-0.0856 -0.16568,-0.1115c-0.06205,-0.0258 -0.1286,-0.0391 -0.19582,-0.0391c-0.06722,0 -0.13378,0.0133 -0.19583,0.0391c-0.06204,0.0259 -0.11835,0.0638 -0.16567,0.1115l-4.322,4.423c-0.14483,0.1466 -0.3417,0.23 -0.54774,0.2321c-0.20604,0.002 -0.40454,-0.0774 -0.55226,-0.2211c-0.14657,-0.1448 -0.22997,-0.3417 -0.23203,-0.5477c-0.00206,-0.206 0.07738,-0.4045 0.22103,-0.5523l5.426,-5.536c0.04732,-0.0477 0.10363,-0.0856 0.16567,-0.1115c0.06205,-0.0258 0.12861,-0.0391 0.19583,-0.0391c0.06722,0 0.13377,0.0133 0.19582,0.0391c0.06204,0.0259 0.11835,0.0638 0.16568,0.1115l1.363,1.363c0.04732,0.0478 0.10363,0.0857 0.16567,0.1115c0.06205,0.0259 0.12865,0.0392 0.19585,0.0392c0.0672,0 0.1337,-0.0133 0.1958,-0.0392c0.062,-0.0258 0.1184,-0.0637 0.1657,-0.1115l3.186,-3.25c0.0473,-0.0477 0.1036,-0.0856 0.1657,-0.1115c0.062,-0.0258 0.1286,-0.0391 0.1958,-0.0391c0.0672,0 0.1338,0.0133 0.1958,0.0391c0.062,0.0259 0.1184,0.0638 0.1657,0.1115l1.086,1.07c0.0473,0.0478 0.1036,0.0857 0.1657,0.1115c0.062,0.0259 0.1286,0.0392 0.1958,0.0392c0.0672,0 0.1338,-0.0133 0.1958,-0.0392c0.062,-0.0258 0.1184,-0.0637 0.1657,-0.1115l2.924,-2.977l-1.326,0c-0.1026,0 -0.2041,-0.0202 -0.2989,-0.0594c-0.0948,-0.0393 -0.1809,-0.0968 -0.2534,-0.1693c-0.0725,-0.0725 -0.13,-0.1586 -0.1693,-0.2534c-0.0392,-0.0947 -0.0594,-0.1963 -0.0594,-0.2989c0,-0.2071 0.0823,-0.40575 0.2287,-0.55221c0.1465,-0.14647 0.3451,-0.22875 0.5523,-0.22875l3.905,0.002z"/>
  <path id="svg_3" fill="white" d="m3.64114,11.455l0,3.312c-0.00011,0.1552 0.04603,0.3069 0.13253,0.4358c0.0865,0.1289 0.20943,0.2291 0.35312,0.2878c0.14368,0.0587 0.3016,0.0732 0.45359,0.0418c0.15199,-0.0315 0.29117,-0.1075 0.39976,-0.2184c0.14345,-0.1459 0.22388,-0.3424 0.224,-0.547l0,-4.738l6.48296,-5.915l3.926,3.586c0.1444,0.12971 0.3319,0.20101 0.526,0.2c0.1575,-0.00007 0.3113,-0.04775 0.4412,-0.13679c0.1299,-0.08903 0.2299,-0.21526 0.2868,-0.36212c0.0569,-0.14686 0.068,-0.30749 0.032,-0.4608c-0.0361,-0.15332 -0.1176,-0.29215 -0.234,-0.39829l-4.978,-4.542l-9.43196,8.6c-0.15207,0.1394 -0.24279,0.3334 -0.25235,0.5395c-0.00955,0.2061 0.06283,0.4076 0.20135,0.5605c0.13944,0.1521 0.33338,0.2428 0.53949,0.2524c0.2061,0.0095 0.40761,-0.0629 0.56051,-0.2014l0.337,-0.296z"/>
  <path id="svg_4" fill="white" d="m18.17,19.6571c0,0.2071 -0.0823,0.4058 -0.2288,0.5523c-0.1465,0.1464 -0.3451,0.2287 -0.5522,0.2287l-10.69505,0c-0.05592,0.0003 -0.11122,0.0117 -0.16272,0.0335c-0.05149,0.0218 -0.09815,0.0536 -0.13728,0.0935l-0.709,0.722c-0.05764,0.0585 -0.09681,0.1327 -0.11264,0.2133c-0.01583,0.0806 -0.00763,0.164 0.02359,0.24c0.03122,0.076 0.08408,0.1411 0.152,0.1873c0.06793,0.0461 0.14793,0.0713 0.23005,0.0724l11.41105,0c0.6214,0 1.2173,-0.2468 1.6567,-0.6862c0.4394,-0.4394 0.6863,-1.0354 0.6863,-1.6568l0,-2.9c-0.0001,-0.155 -0.0464,-0.3065 -0.1328,-0.4351c-0.0865,-0.1287 -0.2092,-0.2287 -0.3527,-0.2874c-0.1435,-0.0586 -0.3012,-0.0733 -0.453,-0.042c-0.1518,0.0312 -0.2909,0.107 -0.3995,0.2175c-0.1435,0.1459 -0.2239,0.3424 -0.224,0.547l0,2.9z"/>
 </g>
</svg>