<svg width="20" height="20" viewBox="0 0 20 20" fill="none" xmlns="http://www.w3.org/2000/svg">
<path d="M18.2418 4.766H17.7848L13.6298 0.519995C13.2998 0.190853 12.8528 0.00600939 12.3868 0.00600939C11.9207 0.00600939 11.4737 0.190853 11.1438 0.519995L10.0508 1.628L8.93777 0.514995C8.77458 0.351509 8.58075 0.221807 8.36738 0.133313C8.154 0.0448182 7.92527 -0.000732422 7.69427 -0.000732422C7.46328 -0.000732422 7.23455 0.0448182 7.02117 0.133313C6.8078 0.221807 6.61397 0.351509 6.45077 0.514995L2.21777 4.766H18.2418ZM14.3638 2.945L16.1458 4.766H12.5938L14.3638 2.945ZM11.9698 1.345C12.0796 1.23648 12.2278 1.17562 12.3823 1.17562C12.5367 1.17562 12.6849 1.23648 12.7948 1.345L13.5438 2.11L10.9628 4.766H8.61977L11.9698 1.345ZM7.28077 1.345C7.39081 1.23526 7.53987 1.17364 7.69527 1.17364C7.85068 1.17364 7.99974 1.23526 8.10977 1.345L9.23077 2.465L6.97977 4.765H3.87177L7.28077 1.345Z" fill="#FA544D"/>
<path d="M18.242 4.76592H17.785C17.585 4.56092 9.444 4.76592 2.218 4.76592H1.758C1.29208 4.76644 0.845389 4.95169 0.515844 5.28105C0.186298 5.61041 0.000793874 6.057 0 6.52292V18.2419C0.000529345 18.708 0.185917 19.1549 0.515491 19.4844C0.845065 19.814 1.29191 19.9994 1.758 19.9999H18.242C18.7081 19.9994 19.1549 19.814 19.4845 19.4844C19.8141 19.1549 19.9995 18.708 20 18.2419V6.52292C19.9992 6.057 19.8137 5.61041 19.4842 5.28105C19.1546 4.95169 18.7079 4.76644 18.242 4.76592ZM1.172 6.52292C1.17226 6.36758 1.23409 6.21868 1.34393 6.10884C1.45377 5.999 1.60266 5.93718 1.758 5.93692H15.894C16.0493 5.93718 16.1982 5.999 16.3081 6.10884C16.4179 6.21868 16.4797 6.36758 16.48 6.52292V9.45292H15.894C15.6972 9.45286 15.5009 9.47263 15.308 9.51192V7.69992C15.308 7.5445 15.2463 7.39545 15.1364 7.28555C15.0265 7.17566 14.8774 7.11392 14.722 7.11392H1.172V6.52292ZM1.172 8.28092H14.14V10.0399C13.7761 10.3124 13.4808 10.666 13.2774 11.0725C13.0739 11.479 12.968 11.9273 12.968 12.3819C12.968 12.8365 13.0739 13.2848 13.2774 13.6914C13.4808 14.0979 13.7761 14.4514 14.14 14.7239V16.4829H1.172V8.28092ZM16.484 18.2419C16.4837 18.3973 16.4219 18.5461 16.3121 18.656C16.2022 18.7658 16.0533 18.8277 15.898 18.8279H1.758C1.60266 18.8277 1.45377 18.7658 1.34393 18.656C1.23409 18.5461 1.17226 18.3973 1.172 18.2419V17.6559H14.726C14.8814 17.6559 15.0305 17.5942 15.1404 17.4843C15.2503 17.3744 15.312 17.2253 15.312 17.0699V15.2529C15.5049 15.2922 15.7012 15.312 15.898 15.3119H16.484V18.2419ZM18.828 18.2419C18.8277 18.3973 18.7659 18.5461 18.6561 18.656C18.5462 18.7658 18.3973 18.8277 18.242 18.8279H17.555C17.6215 18.6397 17.6553 18.4415 17.655 18.2419V15.3119H18.241C18.4406 15.3122 18.6388 15.2784 18.827 15.2119L18.828 18.2419ZM18.828 13.5549C18.8277 13.7103 18.7659 13.8591 18.6561 13.969C18.5462 14.0788 18.3973 14.1407 18.242 14.1409H15.894C15.4277 14.1409 14.9806 13.9557 14.6509 13.626C14.3212 13.2963 14.136 12.8492 14.136 12.3829C14.136 11.9167 14.3212 11.4695 14.6509 11.1398C14.9806 10.8101 15.4277 10.6249 15.894 10.6249H18.238C18.3933 10.6252 18.5422 10.687 18.6521 10.7968C18.7619 10.9067 18.8237 11.0556 18.824 11.2109L18.828 13.5549ZM18.828 9.55492C18.6398 9.48841 18.4416 9.45459 18.242 9.45492H17.656V6.52392C17.6563 6.32431 17.6225 6.12612 17.556 5.93792H18.243C18.3983 5.93818 18.5472 6 18.6571 6.10984C18.7669 6.21968 18.8287 6.36858 18.829 6.52392L18.828 9.55492Z" fill="#8186AF"/>
</svg>
