<svg width="21" height="12" viewBox="0 0 21 12" fill="none" xmlns="http://www.w3.org/2000/svg">
<path d="M15.1978 10.076L15.1898 10.091C15.1571 10.1476 15.1238 10.2033 15.0898 10.258C14.756 10.7705 14.2994 11.1914 13.7615 11.4825C13.2236 11.7737 12.6214 11.9258 12.0098 11.925H8.56981C8.29612 11.9253 8.02479 11.8744 7.76981 11.775C7.52466 11.6794 7.29948 11.539 7.10581 11.361L7.09081 11.347C6.86694 11.1386 6.6885 10.8863 6.56667 10.6059C6.44484 10.3254 6.38226 10.0228 6.38282 9.71698V6.81696C7.15163 7.04025 7.94823 7.15337 8.74881 7.15295C8.83881 7.15295 9.2148 7.16596 9.3488 7.17096C9.3488 7.19396 9.3488 7.21797 9.3488 7.24097C9.34879 7.76898 9.5576 8.2756 9.92965 8.65027C10.3017 9.02494 10.8068 9.23727 11.3348 9.24097H11.3528C11.4153 9.24218 11.4778 9.23917 11.5398 9.23196C11.6048 9.22296 11.6338 9.22196 11.6808 9.21396C12.9183 9.07387 14.1653 9.37949 15.1978 10.076Z" fill="url(#paint0_linear_0_8724)"/>
<path d="M9.06289 9.373C8.58189 8.611 8.6519 7.25501 8.5449 5.64001C8.5149 5.19201 6.37989 6.82001 6.37989 6.82001V9.72C6.3792 10.0257 6.44164 10.3283 6.5633 10.6088C6.68495 10.8893 6.8632 11.1416 7.08689 11.35L7.10189 11.364C7.50175 11.7293 8.0243 11.931 8.56589 11.929H12.0059C12.6174 11.9299 13.2195 11.778 13.7574 11.487C14.2953 11.1961 14.752 10.7753 15.0859 10.263C15.1212 10.209 15.1546 10.1533 15.1859 10.096V10.089C15.1479 10.081 10.6109 11.829 9.06289 9.373Z" fill="url(#paint1_linear_0_8724)"/>
<path d="M9.34122 7.17303C9.21122 7.17303 8.83621 7.15503 8.74121 7.15503C8.85021 7.15503 9.07023 7.15503 9.07123 7.15503C9.16523 7.16303 9.25322 7.16703 9.34122 7.17303Z" fill="url(#paint2_linear_0_8724)"/>
<path d="M15.2023 10.068L15.1123 9.96802C15.146 9.99787 15.1761 10.0314 15.2023 10.068Z" fill="url(#paint3_linear_0_8724)"/>
<path d="M9.37292 2.03199C8.86688 2.0324 8.3619 2.07792 7.86394 2.16799C7.74994 2.18866 7.63693 2.21166 7.52493 2.23699C7.14596 2.30575 6.76273 2.34851 6.37793 2.36499V0.36499C6.66654 0.629102 7.03196 0.794121 7.42093 0.83599L7.47293 0.84199C7.52793 0.84799 7.67292 0.85199 7.73492 0.85299C7.75691 0.851878 7.77895 0.851878 7.80093 0.85299C8.14139 0.898224 8.46457 1.02999 8.73961 1.23569C9.01464 1.4414 9.23235 1.71418 9.37193 2.02799L9.37292 2.03199Z" fill="url(#paint4_linear_0_8724)"/>
<path d="M8.37686 2.21098C8.00328 2.21284 7.63032 2.24158 7.26086 2.29698C7.1942 2.30898 7.12752 2.32264 7.06085 2.33798C6.83618 2.37874 6.60899 2.40413 6.38086 2.41398V0.362976C6.59777 0.847832 6.95249 1.25819 7.40086 1.54298C7.61986 1.65898 8.10085 1.75498 8.28485 2.04298C8.31999 2.09641 8.35077 2.15259 8.37686 2.21098Z" fill="url(#paint5_linear_0_8724)"/>
<path d="M15.8673 7.51599C15.8525 8.40711 15.6249 9.28178 15.2033 10.067C15.0003 9.48315 14.7376 8.92184 14.4193 8.39199C13.8845 7.5905 13.2178 6.8855 12.4473 6.30699C11.5357 5.62207 10.4947 5.12914 9.38727 4.85799C9.3206 4.84133 9.25393 4.82599 9.18727 4.81199C8.91409 4.75214 8.63807 4.70608 8.36027 4.67399C8.24027 4.65999 8.12127 4.65599 7.99927 4.64699C7.95027 4.64699 7.89927 4.63999 7.85027 4.63999C7.63827 4.63999 7.42793 4.63233 7.21927 4.61699C6.9606 4.59766 6.70527 4.56733 6.45327 4.52599L6.38127 4.51299H6.36527C5.61179 4.3797 4.88004 4.14419 4.19027 3.81299C2.60962 3.05302 1.30234 1.82328 0.447266 0.291992C1.88126 1.54321 3.69624 2.27273 5.59727 2.36199C5.7306 2.36866 5.8676 2.37199 6.00827 2.37199C6.13293 2.37199 6.25727 2.36933 6.38127 2.36399C6.76616 2.34619 7.14939 2.30209 7.52827 2.23199C7.64227 2.21199 7.75527 2.18799 7.86727 2.16299C8.36472 2.07471 8.86904 2.03087 9.37427 2.03199H9.38527C10.652 2.03013 11.9029 2.31346 13.0453 2.86099L13.0333 2.86999C13.7792 3.2553 14.4219 3.81393 14.9073 4.49899L14.9143 4.50899C15.5355 5.38887 15.8681 6.43993 15.8663 7.51699L15.8673 7.51599Z" fill="url(#paint6_linear_0_8724)"/>
<path d="M15.2019 10.071L15.1119 9.971L15.0719 9.926C14.9909 9.82281 14.9002 9.7277 14.8009 9.642L14.7299 9.571L14.6809 9.522C14.5662 9.412 14.4482 9.305 14.3269 9.201L14.2529 9.139C14.1302 9.03633 14.0049 8.93633 13.8769 8.839C12.5733 7.86137 11.0145 7.28205 9.38888 7.171H9.34387C9.21387 7.171 8.83887 7.153 8.74387 7.153C7.94516 7.15423 7.15028 7.04246 6.38287 6.821C6.0876 6.73699 5.79717 6.63684 5.51288 6.521C4.8563 6.24784 4.23675 5.89305 3.66887 5.465C3.44226 5.29503 3.22432 5.11381 3.01588 4.922C1.67296 3.69142 0.763179 2.0602 0.421875 0.270996L0.446875 0.291996C1.30212 1.82292 2.60937 3.05229 4.18987 3.812C4.87965 4.1432 5.6114 4.37871 6.36487 4.512H6.38088L6.45288 4.525C6.70487 4.567 6.96021 4.59733 7.21887 4.616C7.42754 4.63133 7.63788 4.639 7.84987 4.639H7.88487C7.91287 4.639 7.95288 4.639 7.99888 4.645L8.14787 4.654H8.16988H8.19487H8.23688L8.30587 4.66H8.32188H8.36088C8.63868 4.69208 8.9147 4.73814 9.18787 4.798L9.38787 4.844L9.49387 4.87C9.93506 4.98345 10.3675 5.12849 10.7879 5.304C11.4099 5.55978 11.998 5.89128 12.5389 6.291C12.8243 6.5057 13.0918 6.74314 13.3389 7.001C13.7412 7.4313 14.1037 7.89721 14.4219 8.393C14.7386 8.92414 15 9.48643 15.2019 10.071Z" fill="url(#paint7_linear_0_8724)"/>
<path d="M18.7051 3.20601C17.6256 4.05257 16.9229 5.2902 16.7491 6.65101C16.7391 6.72801 16.7311 6.80601 16.7241 6.88501C16.6255 7.58248 16.3958 8.25499 16.0471 8.86701C16.3571 7.79654 16.3174 6.65503 15.9335 5.60873C15.5497 4.56243 14.8419 3.66601 13.9131 3.05001C14.5606 2.5914 15.2696 2.22647 16.0191 1.96601C16.1224 1.93001 16.2271 1.89668 16.3331 1.86602C16.4835 1.83034 16.6375 1.81222 16.7921 1.81201C17.2176 1.8113 17.6323 1.94599 17.9763 2.1966C18.3202 2.4472 18.5754 2.80072 18.7051 3.20601Z" fill="url(#paint8_linear_0_8724)"/>
<path d="M20.2686 3.38597C19.5525 3.67639 18.9095 4.12159 18.3857 4.68969C17.8618 5.25778 17.4701 5.93471 17.2386 6.67196C17.1724 6.8837 17.12 7.09948 17.0816 7.31797L17.0416 7.45397C17.0283 7.4993 17.0136 7.5433 16.9976 7.58597L16.9766 7.64997C16.9166 7.83063 16.8499 8.00797 16.7766 8.18197C16.3121 9.29329 15.612 10.2906 14.7246 11.105C15.3458 10.484 15.8001 9.71629 16.0456 8.87297C16.3903 8.25912 16.6197 7.58739 16.7226 6.89097C16.7326 6.81397 16.7406 6.73596 16.7476 6.65696C16.9214 5.29615 17.6241 4.05852 18.7036 3.21196C18.9436 3.05336 19.2316 2.98392 19.5176 3.01571C19.8035 3.0475 20.0693 3.17852 20.2686 3.38597Z" fill="url(#paint9_linear_0_8724)"/>
<path d="M19.6112 4.15702C19.6628 4.19527 19.7212 4.22343 19.7832 4.24002C19.8693 4.26325 19.9601 4.26325 20.0462 4.24002C20.1288 4.21773 20.2044 4.17499 20.2661 4.11574C20.3278 4.05649 20.3736 3.98264 20.3992 3.90102C20.4206 3.83236 20.4271 3.75991 20.4183 3.68852C20.4095 3.61713 20.3856 3.54844 20.3482 3.48702C20.3055 3.41697 20.2465 3.3583 20.1762 3.31603C20.1623 3.30692 20.148 3.29858 20.1332 3.29102L20.0872 3.27203C20.0079 3.24319 19.9228 3.23449 19.8394 3.2467C19.7559 3.25892 19.6768 3.29168 19.6092 3.34203C19.5963 3.35162 19.5839 3.36197 19.5722 3.37302C19.5603 3.38374 19.5489 3.39508 19.5382 3.40702C19.5051 3.44312 19.4774 3.48389 19.4562 3.52802C19.4492 3.54302 19.4422 3.55803 19.4372 3.57403C19.4167 3.63009 19.4062 3.68932 19.4062 3.74902C19.405 3.76634 19.405 3.78371 19.4062 3.80103C19.409 3.82601 19.4137 3.85074 19.4202 3.87502L19.4272 3.90003C19.4592 4.00222 19.5226 4.09176 19.6082 4.15602L19.6112 4.15702ZM19.6322 3.49303C19.6401 3.48393 19.6488 3.47556 19.6582 3.46803C19.667 3.45913 19.6763 3.45078 19.6862 3.44302C19.7008 3.43194 19.7162 3.42191 19.7322 3.41303C19.7486 3.40422 19.7657 3.39654 19.7832 3.39002L19.8012 3.38403L19.8372 3.37402C19.8625 3.36887 19.8883 3.3662 19.9142 3.36603C19.9904 3.3658 20.065 3.38844 20.1282 3.43102L20.1432 3.44202C20.1531 3.44972 20.1624 3.45808 20.1712 3.46703L20.1972 3.49203C20.2096 3.50553 20.2209 3.5199 20.2312 3.53503C20.2381 3.54503 20.2444 3.55538 20.2502 3.56603C20.2562 3.5767 20.2615 3.58772 20.2662 3.59902C20.2864 3.64645 20.2968 3.69747 20.2968 3.74902C20.2968 3.80057 20.2864 3.85159 20.2662 3.89903C20.2615 3.91031 20.2561 3.92132 20.2502 3.93202C20.2444 3.94267 20.2381 3.95302 20.2312 3.96303C20.2209 3.97815 20.2096 3.99252 20.1972 4.00603L20.1712 4.03202L20.1432 4.05502L20.1282 4.06603C20.065 4.10873 19.9904 4.13138 19.9142 4.13103C19.8883 4.13099 19.8625 4.12831 19.8372 4.12302L19.8012 4.11402L19.7832 4.10803C19.7657 4.10164 19.7486 4.09395 19.7322 4.08502C19.7161 4.07615 19.7008 4.06612 19.6862 4.05502L19.6582 4.03202C19.6491 4.02381 19.6404 4.01513 19.6322 4.00603C19.5684 3.93589 19.533 3.84453 19.5328 3.74972C19.5326 3.6549 19.5676 3.56341 19.6312 3.49303H19.6322Z" fill="url(#paint10_linear_0_8724)"/>
<path d="M20.2328 5.64598C20.2408 5.64598 20.2485 5.64282 20.2541 5.63719C20.2597 5.63157 20.2629 5.62394 20.2629 5.61598V5.48499C20.2629 5.47703 20.2597 5.46939 20.2541 5.46376C20.2485 5.45813 20.2408 5.45499 20.2328 5.45499H20.0469V4.32898C20.0049 4.33898 20.0589 4.34499 20.0139 4.34499C19.9694 4.34485 19.9251 4.33947 19.8818 4.32898V5.97998C19.8818 5.98794 19.885 5.99556 19.8906 6.00119C19.8963 6.00682 19.9039 6.00998 19.9119 6.00998H20.2328C20.2408 6.00998 20.2485 6.00682 20.2541 6.00119C20.2597 5.99556 20.2629 5.98794 20.2629 5.97998V5.84898C20.2629 5.84103 20.2597 5.83338 20.2541 5.82776C20.2485 5.82213 20.2408 5.81898 20.2328 5.81898H20.0458V5.64697L20.2328 5.64598Z" fill="url(#paint11_linear_0_8724)"/>
<defs>
<linearGradient id="paint0_linear_0_8724" x1="8.04885" y1="11.7309" x2="9.55404" y2="6.4361" gradientUnits="userSpaceOnUse">
<stop stop-color="#770000"/>
<stop offset="1" stop-color="#F65164"/>
</linearGradient>
<linearGradient id="paint1_linear_0_8724" x1="6.74974" y1="5.30733" x2="7.98464" y2="11.427" gradientUnits="userSpaceOnUse">
<stop stop-color="#770000"/>
<stop offset="1" stop-color="#F65164"/>
</linearGradient>
<linearGradient id="paint2_linear_0_8724" x1="9.26346" y1="7.40179" x2="9.26316" y2="6.95302" gradientUnits="userSpaceOnUse">
<stop stop-color="white"/>
<stop offset="1"/>
</linearGradient>
<linearGradient id="paint3_linear_0_8724" x1="15.2241" y1="10.1" x2="15.084" y2="9.95928" gradientUnits="userSpaceOnUse">
<stop stop-color="white"/>
<stop offset="1"/>
</linearGradient>
<linearGradient id="paint4_linear_0_8724" x1="8.4295" y1="0.65499" x2="7.6268" y2="2.36625" gradientUnits="userSpaceOnUse">
<stop stop-color="#F65164"/>
<stop offset="1" stop-color="#770000"/>
</linearGradient>
<linearGradient id="paint5_linear_0_8724" x1="6.15731" y1="0.139417" x2="7.90057" y2="3.8941" gradientUnits="userSpaceOnUse">
<stop stop-color="#F65164"/>
<stop offset="1" stop-color="#770000"/>
</linearGradient>
<linearGradient id="paint6_linear_0_8724" x1="8.72781" y1="5.01332" x2="17.0166" y2="1.11016" gradientUnits="userSpaceOnUse">
<stop stop-color="#F65164"/>
<stop offset="1" stop-color="#881318"/>
</linearGradient>
<linearGradient id="paint7_linear_0_8724" x1="5.31406" y1="8.2972" x2="8.05914" y2="0.44117" gradientUnits="userSpaceOnUse">
<stop stop-color="#F65164"/>
<stop offset="1" stop-color="#770000"/>
</linearGradient>
<linearGradient id="paint8_linear_0_8724" x1="12.648" y1="5.33951" x2="18.4128" y2="5.33951" gradientUnits="userSpaceOnUse">
<stop stop-color="#770000"/>
<stop offset="1" stop-color="#F65164"/>
</linearGradient>
<linearGradient id="paint9_linear_0_8724" x1="16.0385" y1="6.57076" x2="17.2248" y2="6.80849" gradientUnits="userSpaceOnUse">
<stop stop-color="#770000"/>
<stop offset="1" stop-color="#F65164"/>
</linearGradient>
<linearGradient id="paint10_linear_0_8724" x1="20.3327" y1="6.15452" x2="19.8656" y2="3.46984" gradientUnits="userSpaceOnUse">
<stop stop-color="#770000"/>
<stop offset="1" stop-color="#F65164"/>
</linearGradient>
<linearGradient id="paint11_linear_0_8724" x1="20.2682" y1="6.56471" x2="19.3568" y2="6.34817" gradientUnits="userSpaceOnUse">
<stop stop-color="#770000"/>
<stop offset="1" stop-color="#F65164"/>
</linearGradient>
</defs>
</svg>
