<svg width="12" height="18" xmlns="http://www.w3.org/2000/svg">

 <g>
  <title>background</title>
  <rect fill="none" id="canvas_background" height="402" width="582" y="-1" x="-1"/>
 </g>
 <g>
  <title>Layer 1</title>
  <path id="svg_1" fill="#ffffff" d="m5.99962,13.781c-0.41712,0 -0.82487,0.1237 -1.17169,0.3554c-0.34683,0.2318 -0.61714,0.5611 -0.77677,0.9465c-0.15962,0.3854 -0.20139,0.8094 -0.12001,1.2186c0.08138,0.4091 0.28223,0.7848 0.57718,1.0798c0.29495,0.2949 0.67074,0.4958 1.07985,0.5772c0.4091,0.0814 0.83315,0.0396 1.21852,-0.12c0.38537,-0.1597 0.71475,-0.43 0.94649,-0.7768c0.23174,-0.3468 0.35544,-0.7546 0.35544,-1.1717c-0.0008,-0.5591 -0.22325,-1.0951 -0.6186,-1.4904c-0.39534,-0.3953 -0.93132,-0.6178 -1.49041,-0.6186zm0,3.164c-0.20866,0 -0.41263,-0.0619 -0.58612,-0.1778c-0.1735,-0.1159 -0.30872,-0.2807 -0.38857,-0.4735c-0.07985,-0.1927 -0.10075,-0.4049 -0.06004,-0.6095c0.04071,-0.2047 0.1412,-0.3926 0.28874,-0.5402c0.14754,-0.1475 0.33553,-0.248 0.54018,-0.2887c0.20465,-0.0407 0.41676,-0.0198 0.60954,0.06c0.19278,0.0799 0.35755,0.2151 0.47348,0.3886c0.11592,0.1735 0.17779,0.3775 0.17779,0.5861c-0.00026,0.2797 -0.1115,0.5479 -0.30929,0.7457c-0.19779,0.1978 -0.46599,0.309 -0.74571,0.3093z"/>
  <path id="svg_2" fill="#ffffff" d="m5.99963,0c-1.45388,0.001852 -2.84769,0.580224 -3.87574,1.60827c-1.02804,1.02805 -1.606413,2.42185 -1.608265,3.87573l0,0.527l4.219005,0l0,-0.527c-0.00019,-0.21274 0.05324,-0.42209 0.15535,-0.60872c0.1021,-0.18663 0.24959,-0.34453 0.42884,-0.4591c0.17926,-0.11457 0.38449,-0.18212 0.59675,-0.19641c0.21225,-0.01429 0.42469,0.02513 0.61768,0.11463c0.19299,0.0895 0.36032,0.2262 0.48653,0.39745c0.1262,0.17126 0.20722,0.37156 0.23556,0.5824c0.02834,0.21084 0.00309,0.42543 -0.07341,0.62393c-0.0765,0.19851 -0.20179,0.37453 -0.3643,0.51182l-2.92701,2.489l0,3.788l4.21901,0l0,-1.838l1.441,-1.225c0.85577,-0.72677 1.46787,-1.6987 1.75357,-2.78448c0.2857,-1.08579 0.2312,-2.2331 -0.156,-3.28695c-0.3872,-1.05385 -1.0886,-1.96345 -2.00933,-2.605929c-0.92075,-0.642476 -2.0165,-0.986864 -3.13924,-0.986641zm2.86699,8.861l-1.81199,1.539l0,1.27l-2.109,0l0,-2.244l2.555,-2.173c0.27935,-0.23757 0.49841,-0.53798 0.63921,-0.87659c0.1408,-0.33861 0.19932,-0.70577 0.17077,-1.07138c-0.02855,-0.3656 -0.14337,-0.71922 -0.33503,-1.03187c-0.19166,-0.31265 -0.4547,-0.57541 -0.76755,-0.76673c-0.31285,-0.19132 -0.6666,-0.30575 -1.03223,-0.33391c-0.36564,-0.02816 -0.73274,0.03076 -1.07119,0.17192c-0.33846,0.14116 -0.63864,0.36054 -0.87591,0.64015c-0.23727,0.27962 -0.40488,0.61149 -0.48908,0.96841l-2.139,0c0.08503,-0.71671 0.34387,-1.40179 0.75402,-1.99565c0.41016,-0.59387 0.95919,-1.07853 1.59935,-1.41182c0.64017,-0.3333 1.35207,-0.50514 2.07379,-0.50058c0.72172,0.00456 1.4314,0.18539 2.0673,0.52675c0.6359,0.34137 1.17876,0.83293 1.58137,1.43193c0.40265,0.599 0.65275,1.2873 0.72875,2.00502c0.0759,0.71773 -0.0246,1.44314 -0.2929,2.11315c-0.26836,0.67 -0.69631,1.2643 -1.24668,1.7312l0.001,0.008z"/>
 </g>
</svg>