<svg width="21" height="11.999999999999998" xmlns="http://www.w3.org/2000/svg">
 <defs>
  <linearGradient y2="-11.222687" x2="0.869902" y1="13.708806" x1="0.870402" id="paint2_linear_0_6627">
   <stop stop-color="white"/>
   <stop offset="1"/>
  </linearGradient>
  <linearGradient y2="-0.087422" x2="-0.314443" y1="1.320068" x1="1.242221" id="paint3_linear_0_6627">
   <stop stop-color="white"/>
   <stop offset="1"/>
  </linearGradient>
 </defs>
 <g>
  <title>background</title>
  <rect fill="none" id="canvas_background" height="402" width="582" y="-1" x="-1"/>
 </g>
 <g>
  <title>Layer 1</title>
  <path id="svg_1" fill="#ffffff" d="m15.1978,10.0759l-0.008,0.015c-0.0327,0.0567 -0.066,0.1123 -0.1,0.167c-0.3338,0.5125 -0.7904,0.9335 -1.3283,1.2246c-0.5379,0.2911 -1.1401,0.4432 -1.7517,0.4424l-3.43999,0c-0.27369,0.0003 -0.54502,-0.0505 -0.8,-0.15c-0.24515,-0.0955 -0.47033,-0.2359 -0.664,-0.414l-0.015,-0.014c-0.22387,-0.2083 -0.40231,-0.4606 -0.52414,-0.7411c-0.12183,-0.2805 -0.18441,-0.5831 -0.18385,-0.88888l0,-2.90003c0.76881,0.2233 1.56541,0.33642 2.36599,0.336c0.09,0 0.46599,0.01301 0.59999,0.01801c0,0.023 0,0.04701 0,0.07001c-0.00001,0.52801 0.2088,1.03462 0.58085,1.4093c0.37205,0.37467 0.87715,0.587 1.40515,0.5907l0.018,0c0.0625,0.0012 0.125,-0.0018 0.187,-0.00901c0.065,-0.009 0.094,-0.01 0.141,-0.018c1.2375,-0.14009 2.4845,0.16553 3.517,0.862z"/>
  <path id="svg_2" fill="#ffffff" d="m9.06289,9.373c-0.481,-0.762 -0.41099,-2.11799 -0.51799,-3.73299c-0.03,-0.448 -2.16501,1.18 -2.16501,1.18l0,2.89999c-0.00069,0.3057 0.06175,0.6083 0.18341,0.8888c0.12165,0.2805 0.2999,0.5328 0.52359,0.7412l0.015,0.014c0.39986,0.3653 0.92241,0.567 1.464,0.565l3.44001,0c0.6115,0.0009 1.2136,-0.151 1.7515,-0.442c0.5379,-0.2909 0.9946,-0.7117 1.3285,-1.224c0.0353,-0.054 0.0687,-0.1097 0.1,-0.167l0,-0.007c-0.038,-0.008 -4.575,1.74 -6.12301,-0.716z"/>
  <path id="svg_3" fill="url(#paint2_linear_0_6627)" d="m9.34122,7.17303c-0.13,0 -0.50501,-0.018 -0.60001,-0.018c0.109,0 0.32902,0 0.33002,0c0.094,0.008 0.18199,0.012 0.26999,0.018z"/>
  <path id="svg_4" fill="url(#paint3_linear_0_6627)" d="m15.2023,10.068l-0.09,-0.09998c0.0337,0.02985 0.0638,0.06338 0.09,0.09998z"/>
  <path id="svg_5" fill="#ffffff" d="m9.37292,2.03199c-0.50604,0.00041 -1.01102,0.04593 -1.50898,0.136c-0.114,0.02067 -0.22701,0.04367 -0.33901,0.069c-0.37897,0.06876 -0.7622,0.11152 -1.147,0.128l0,-2c0.28861,0.26411 0.65403,0.42913 1.043,0.471l0.052,0.006c0.055,0.006 0.19999,0.01 0.26199,0.011c0.02199,-0.00111 0.04403,-0.00111 0.06601,0c0.34046,0.04523 0.66364,0.177 0.93868,0.3827c0.27503,0.20571 0.49274,0.47849 0.63232,0.7923l0.00099,0.004z"/>
  <path id="svg_6" fill="#ffffff" d="m8.37686,2.21104c-0.37358,0.00186 -0.74654,0.0306 -1.116,0.086c-0.06666,0.012 -0.13334,0.02566 -0.20001,0.041c-0.22467,0.04076 -0.45186,0.06615 -0.67999,0.076l0,-2.051c0.21691,0.48485 0.57163,0.89521 1.02,1.18c0.219,0.116 0.69999,0.212 0.88399,0.5c0.03514,0.05343 0.06592,0.10961 0.09201,0.168z"/>
  <path id="svg_7" fill="#ffffff" d="m15.8673,7.51599c-0.0148,0.89112 -0.2424,1.76579 -0.664,2.55101c-0.203,-0.58385 -0.4657,-1.14516 -0.784,-1.67501c-0.5348,-0.80149 -1.2015,-1.50649 -1.972,-2.085c-0.9116,-0.68492 -1.9526,-1.17785 -3.06003,-1.449c-0.06667,-0.01666 -0.13334,-0.032 -0.2,-0.046c-0.27318,-0.05985 -0.5492,-0.10591 -0.827,-0.138c-0.12,-0.014 -0.239,-0.018 -0.361,-0.027c-0.049,0 -0.1,-0.007 -0.149,-0.007c-0.212,0 -0.42234,-0.00766 -0.631,-0.023c-0.25867,-0.01933 -0.514,-0.04966 -0.766,-0.091l-0.072,-0.013l-0.016,0c-0.75348,-0.13329 -1.48523,-0.3688 -2.175,-0.7c-1.58065,-0.75997 -2.88793,-1.98971 -3.743,-3.521c1.43399,1.25122 3.24897,1.98074 5.15,2.07c0.13333,0.00667 0.27033,0.01 0.411,0.01c0.12466,0 0.249,-0.00266 0.373,-0.008c0.38489,-0.0178 0.76812,-0.0619 1.147,-0.132c0.114,-0.02 0.227,-0.044 0.339,-0.069c0.49745,-0.08828 1.00177,-0.13212 1.507,-0.131l0.011,0c1.26673,-0.00186 2.51763,0.28147 3.66003,0.829l-0.012,0.009c0.7459,0.38531 1.3886,0.94394 1.874,1.629l0.007,0.01c0.6212,0.87988 0.9538,1.93094 0.952,3.008l0.001,-0.001z"/>
  <path id="svg_8" fill="#ffffff" d="m15.2019,10.071l-0.09,-0.1l-0.04,-0.045c-0.081,-0.10319 -0.1717,-0.1983 -0.271,-0.284l-0.071,-0.071l-0.049,-0.049c-0.1147,-0.11 -0.2327,-0.217 -0.354,-0.321l-0.074,-0.062c-0.1227,-0.10267 -0.248,-0.20267 -0.376,-0.3c-1.3036,-0.97763 -2.8624,-1.55695 -4.48802,-1.668l-0.04501,0c-0.13,0 -0.505,-0.018 -0.6,-0.018c-0.79871,0.00123 -1.59359,-0.11054 -2.361,-0.332c-0.29527,-0.08401 -0.5857,-0.18416 -0.86999,-0.3c-0.65658,-0.27316 -1.27613,-0.62795 -1.84401,-1.056c-0.22661,-0.16997 -0.44455,-0.35119 -0.65299,-0.543c-1.34292,-1.23058 -2.2527,-2.8618 -2.594,-4.651l0.025,0.021c0.85524,1.53092 2.16249,2.76029 3.74299,3.52c0.68978,0.3312 1.42153,0.56671 2.175,0.7l0.01601,0l0.072,0.013c0.25199,0.042 0.50733,0.07233 0.76599,0.091c0.20867,0.01533 0.41901,0.023 0.631,0.023l0.035,0c0.028,0 0.06801,0 0.11401,0.006l0.14899,0.009l0.02201,0l0.02499,0l0.04201,0l0.06899,0.006l0.01601,0l0.039,0c0.2778,0.03208 0.55382,0.07814 0.82699,0.138l0.2,0.046l0.106,0.026c0.44119,0.11345 0.87363,0.25849 1.29403,0.434c0.622,0.25578 1.2101,0.58728 1.751,0.987c0.2854,0.2147 0.5529,0.45214 0.8,0.71c0.4023,0.4303 0.7648,0.89621 1.083,1.392c0.3167,0.53114 0.5781,1.09343 0.78,1.678z"/>
  <path id="svg_9" fill="#ffffff" d="m18.7051,3.20601c-1.0795,0.84656 -1.7822,2.08419 -1.956,3.445c-0.01,0.077 -0.018,0.155 -0.025,0.234c-0.0986,0.69747 -0.3283,1.36998 -0.677,1.982c0.31,-1.07047 0.2703,-2.21198 -0.1136,-3.25828c-0.3838,-1.0463 -1.0916,-1.94272 -2.0204,-2.55872c0.6475,-0.45861 1.3565,-0.82354 2.106,-1.084c0.1033,-0.036 0.208,-0.06933 0.314,-0.09999c0.1504,-0.03568 0.3044,-0.0538 0.459,-0.05401c0.4255,-0.00071 0.8402,0.13398 1.1842,0.38459c0.3439,0.2506 0.5991,0.60412 0.7288,1.00941z"/>
  <path id="svg_10" fill="#ffffff" d="m20.2686,3.38609c-0.7161,0.29042 -1.3591,0.73562 -1.8829,1.30372c-0.5239,0.5681 -0.9156,1.24502 -1.1471,1.98228c-0.0662,0.21173 -0.1186,0.42751 -0.157,0.646l-0.04,0.136c-0.0133,0.04533 -0.028,0.08933 -0.044,0.132l-0.021,0.064c-0.06,0.18067 -0.1267,0.358 -0.2,0.532c-0.4645,1.11132 -1.1646,2.10861 -2.052,2.92301c0.6212,-0.621 1.0755,-1.38869 1.321,-2.23201c0.3447,-0.61384 0.5741,-1.28557 0.677,-1.982c0.01,-0.077 0.018,-0.155 0.025,-0.234c0.1738,-1.36081 0.8765,-2.59844 1.956,-3.445c0.24,-0.1586 0.528,-0.22804 0.814,-0.19625c0.2859,0.03179 0.5517,0.1628 0.751,0.37025z"/>
  <path id="svg_11" fill="#ffffff" d="m19.6112,4.1569c0.0516,0.03825 0.11,0.06641 0.172,0.083c0.0861,0.02323 0.1769,0.02323 0.263,0c0.0826,-0.02229 0.1582,-0.06503 0.2199,-0.12428c0.0617,-0.05925 0.1075,-0.1331 0.1331,-0.21472c0.0214,-0.06866 0.0279,-0.14111 0.0191,-0.2125c-0.0088,-0.07139 -0.0327,-0.14008 -0.0701,-0.2015c-0.0427,-0.07005 -0.1017,-0.12872 -0.172,-0.171c-0.0139,-0.0091 -0.0282,-0.01744 -0.043,-0.025l-0.046,-0.019c-0.0793,-0.02883 -0.1644,-0.03754 -0.2478,-0.02532c-0.0835,0.01222 -0.1626,0.04498 -0.2302,0.09532c-0.0129,0.0096 -0.0253,0.01995 -0.037,0.031c-0.0119,0.01071 -0.0233,0.02206 -0.034,0.034c-0.0331,0.0361 -0.0608,0.07687 -0.082,0.121c-0.007,0.015 -0.014,0.03001 -0.019,0.04601c-0.0205,0.05606 -0.031,0.11529 -0.031,0.17499c-0.0012,0.01731 -0.0012,0.03469 0,0.052c0.0028,0.02499 0.0075,0.04972 0.014,0.074l0.007,0.025c0.032,0.10219 0.0954,0.19174 0.181,0.256l0.003,0.001zm0.021,-0.66399c0.0079,-0.0091 0.0166,-0.01747 0.026,-0.02501c0.0088,-0.00889 0.0181,-0.01725 0.028,-0.025c0.0146,-0.01109 0.03,-0.02111 0.046,-0.03c0.0164,-0.0088 0.0335,-0.01649 0.051,-0.023l0.018,-0.006l0.036,-0.01c0.0253,-0.00515 0.0511,-0.00782 0.077,-0.00799c0.0762,-0.00023 0.1508,0.0224 0.214,0.06499l0.015,0.011c0.0099,0.0077 0.0192,0.01606 0.028,0.025l0.026,0.02501c0.0124,0.0135 0.0237,0.02787 0.034,0.043c0.0069,0.01 0.0132,0.02034 0.019,0.03099c0.006,0.01068 0.0113,0.02169 0.016,0.033c0.0202,0.04743 0.0306,0.09845 0.0306,0.15c0,0.05155 -0.0104,0.10257 -0.0306,0.15c-0.0047,0.01129 -0.0101,0.0223 -0.016,0.033c-0.0058,0.01065 -0.0121,0.021 -0.019,0.03101c-0.0103,0.01512 -0.0216,0.02949 -0.034,0.043l-0.026,0.02599l-0.028,0.023l-0.015,0.011c-0.0632,0.0427 -0.1378,0.06536 -0.214,0.06501c-0.0259,-0.00004 -0.0517,-0.00273 -0.077,-0.00801l-0.036,-0.009l-0.018,-0.006c-0.0175,-0.00638 -0.0346,-0.01407 -0.051,-0.023c-0.0161,-0.00887 -0.0314,-0.0189 -0.046,-0.03l-0.028,-0.023c-0.0091,-0.00822 -0.0178,-0.01689 -0.026,-0.02599c-0.0638,-0.07014 -0.0992,-0.1615 -0.0994,-0.25631c-0.0002,-0.09482 0.0348,-0.18631 0.0984,-0.25669l0.001,0z"/>
  <path id="svg_12" fill="#ffffff" d="m20.2328,5.6461c0.008,0 0.0157,-0.00316 0.0213,-0.00879c0.0056,-0.00562 0.0088,-0.01325 0.0088,-0.02121l0,-0.13099c0,-0.00796 -0.0032,-0.0156 -0.0088,-0.02123c-0.0056,-0.00562 -0.0133,-0.00877 -0.0213,-0.00877l-0.1859,0l0,-1.12601c-0.042,0.01 0.012,0.01601 -0.033,0.01601c-0.0445,-0.00014 -0.0888,-0.00552 -0.1321,-0.01601l0,1.651c0,0.00796 0.0032,0.01559 0.0088,0.02121c0.0057,0.00563 0.0133,0.00879 0.0213,0.00879l0.3209,0c0.008,0 0.0157,-0.00316 0.0213,-0.00879c0.0056,-0.00562 0.0088,-0.01325 0.0088,-0.02121l0,-0.13099c0,-0.00796 -0.0032,-0.0156 -0.0088,-0.02123c-0.0056,-0.00563 -0.0133,-0.00877 -0.0213,-0.00877l-0.187,0l0,-0.17202l0.187,-0.00099z"/>
 </g>
</svg>