<svg width="19" height="17" viewBox="0 0 19 17" fill="none" xmlns="http://www.w3.org/2000/svg">
<path d="M16.6929 0.300049H1.8569C1.43749 0.300578 1.03541 0.467422 0.738844 0.76399C0.442276 1.06056 0.275432 1.46264 0.274902 1.88205L0.274902 11.3741C0.275432 11.7935 0.442276 12.1955 0.738844 12.4921C1.03541 12.7887 1.43749 12.9555 1.8569 12.956H6.6379V15.065H5.0559C4.916 15.065 4.78183 15.1206 4.6829 15.2196C4.58398 15.3185 4.5284 15.4526 4.5284 15.5925C4.5284 15.7325 4.58398 15.8666 4.6829 15.9655C4.78183 16.0645 4.916 16.12 5.0559 16.12H13.4939C13.6338 16.12 13.768 16.0645 13.8669 15.9655C13.9658 15.8666 14.0214 15.7325 14.0214 15.5925C14.0214 15.4526 13.9658 15.3185 13.8669 15.2196C13.768 15.1206 13.6338 15.065 13.4939 15.065H11.9119V12.956H16.6929C17.1123 12.9555 17.5144 12.7887 17.811 12.4921C18.1075 12.1955 18.2744 11.7935 18.2749 11.3741V1.88205C18.2744 1.46264 18.1075 1.06056 17.811 0.76399C17.5144 0.467422 17.1123 0.300578 16.6929 0.300049ZM10.8569 15.066H7.6929V12.956H10.8569V15.066ZM17.2199 11.375C17.2196 11.5147 17.164 11.6486 17.0653 11.7474C16.9665 11.8462 16.8326 11.9018 16.6929 11.9021H1.8569C1.71721 11.9018 1.58332 11.8462 1.48455 11.7474C1.38577 11.6486 1.33017 11.5147 1.3299 11.375V1.88205C1.33017 1.74236 1.38577 1.60847 1.48455 1.5097C1.58332 1.41092 1.71721 1.35531 1.8569 1.35505H16.6929C16.8326 1.35531 16.9665 1.41092 17.0653 1.5097C17.164 1.60847 17.2196 1.74236 17.2199 1.88205V11.375Z" fill="#8186AF"/>
<path d="M10.8569 6.10105C10.8569 5.78816 10.7641 5.4823 10.5903 5.22214C10.4164 4.96198 10.1694 4.75921 9.88028 4.63947C9.59121 4.51973 9.27311 4.4884 8.96623 4.54944C8.65936 4.61048 8.37748 4.76116 8.15624 4.98241C7.93499 5.20366 7.78431 5.48553 7.72327 5.79241C7.66223 6.09928 7.69356 6.41738 7.8133 6.70645C7.93303 6.99553 8.13581 7.2426 8.39597 7.41643C8.65613 7.59026 8.96198 7.68305 9.27487 7.68305C9.69428 7.68252 10.0964 7.51567 10.3929 7.2191C10.6895 6.92254 10.8563 6.52046 10.8569 6.10105ZM9.27487 6.62804C9.17064 6.62804 9.06875 6.59714 8.98209 6.53923C8.89542 6.48133 8.82787 6.39902 8.78798 6.30272C8.74809 6.20642 8.73766 6.10046 8.758 5.99823C8.77833 5.896 8.82852 5.8021 8.90222 5.7284C8.97593 5.65469 9.06983 5.6045 9.17206 5.58417C9.27429 5.56384 9.38025 5.57427 9.47655 5.61415C9.57285 5.65404 9.65515 5.7216 9.71306 5.80826C9.77097 5.89493 9.80187 5.99682 9.80187 6.10105C9.8016 6.24073 9.74599 6.37462 9.64722 6.47339C9.54844 6.57217 9.41456 6.62777 9.27487 6.62804Z" fill="#FA544D"/>
<path d="M9.27498 2.40906C8.2968 2.41143 7.35936 2.80107 6.66768 3.49275C5.976 4.18443 5.58636 5.12188 5.58398 6.10006V7.15506C5.58398 8.13411 5.97292 9.07305 6.66521 9.76534C7.3575 10.4576 8.29644 10.8466 9.27548 10.8466C10.2545 10.8466 11.1935 10.4576 11.8858 9.76534C12.5781 9.07305 12.967 8.13411 12.967 7.15506V6.10006C12.9646 5.1217 12.5748 4.18411 11.8829 3.4924C11.191 2.80069 10.2533 2.41117 9.27498 2.40906ZM7.69498 9.26406C8.1508 8.92175 8.70544 8.73668 9.27548 8.73668C9.84552 8.73668 10.4002 8.92175 10.856 9.26406C10.4002 9.60652 9.84556 9.79169 9.27548 9.79169C8.7054 9.79169 8.15073 9.60652 7.69498 9.26406ZM11.912 7.15506C11.9122 7.61804 11.7897 8.07281 11.557 8.47306C10.9066 7.96098 10.1028 7.68254 9.27498 7.68254C8.44716 7.68254 7.6434 7.96098 6.99298 8.47306C6.76027 8.07281 6.63779 7.61804 6.63799 7.15506V6.10006C6.65143 5.40971 6.93511 4.75217 7.42809 4.2687C7.92106 3.78523 8.58401 3.5144 9.27449 3.5144C9.96497 3.5144 10.6279 3.78523 11.1209 4.2687C11.6139 4.75217 11.8975 5.40971 11.911 6.10006L11.912 7.15506Z" fill="#FA544D"/>
</svg>
