<svg width="18" height="18" viewBox="0 0 18 18" fill="none" xmlns="http://www.w3.org/2000/svg">
<path d="M16.1159 13.384C16.042 13.3285 15.9579 13.2881 15.8683 13.2652C15.7787 13.2424 15.6854 13.2375 15.5939 13.2509C15.5024 13.2643 15.4145 13.2957 15.3352 13.3432C15.2559 13.3908 15.1868 13.4536 15.1319 13.528C15.0049 13.699 14.8679 13.867 14.7269 14.028C14.6658 14.0972 14.6189 14.1778 14.5889 14.2651C14.5589 14.3525 14.5464 14.4448 14.5521 14.537C14.5578 14.6292 14.5816 14.7193 14.6222 14.8023C14.6627 14.8852 14.7192 14.9594 14.7885 15.0205C14.8577 15.0817 14.9382 15.1286 15.0255 15.1586C15.1129 15.1885 15.2053 15.201 15.2974 15.1953C15.3896 15.1896 15.4797 15.1658 15.5627 15.1253C15.6456 15.0847 15.7198 15.0282 15.7809 14.959C15.9489 14.769 16.11 14.57 16.261 14.367C16.3163 14.2931 16.3565 14.2089 16.3792 14.1194C16.4018 14.0298 16.4066 13.9367 16.3931 13.8453C16.3796 13.7539 16.3482 13.6662 16.3006 13.587C16.2531 13.5078 16.1903 13.4388 16.1159 13.384Z" fill="#8186AF"/>
<path d="M17.2921 10.086C17.2018 10.0659 17.1085 10.0638 17.0174 10.08C16.9264 10.0961 16.8395 10.1301 16.7616 10.18C16.6838 10.23 16.6166 10.2948 16.564 10.3708C16.5114 10.4469 16.4744 10.5326 16.455 10.623C16.41 10.832 16.3551 11.041 16.2921 11.245C16.2648 11.3333 16.2552 11.426 16.2638 11.518C16.2724 11.6099 16.299 11.6993 16.3422 11.781C16.3853 11.8626 16.4441 11.935 16.5152 11.994C16.5863 12.0529 16.6683 12.0973 16.7566 12.1245C16.8448 12.1518 16.9376 12.1614 17.0295 12.1528C17.1215 12.1442 17.2108 12.1176 17.2925 12.0744C17.3742 12.0313 17.4465 11.9725 17.5055 11.9014C17.5644 11.8303 17.6088 11.7483 17.636 11.66C17.711 11.418 17.776 11.17 17.83 10.922C17.85 10.8318 17.8519 10.7385 17.8357 10.6475C17.8194 10.5565 17.7852 10.4697 17.7352 10.3919C17.6852 10.3142 17.6203 10.2471 17.5443 10.1946C17.4682 10.1421 17.3825 10.1052 17.2921 10.086Z" fill="#8186AF"/>
<path d="M12.731 15.6359C12.544 15.7359 12.351 15.8359 12.157 15.9249C11.987 16.0017 11.8545 16.1429 11.7885 16.3174C11.7226 16.4919 11.7287 16.6854 11.8055 16.8554C11.8823 17.0254 12.0235 17.158 12.198 17.2239C12.3725 17.2898 12.566 17.2837 12.736 17.2069C12.967 17.1069 13.196 16.9869 13.417 16.8639C13.5799 16.773 13.6999 16.621 13.7507 16.4416C13.8015 16.2621 13.779 16.0698 13.688 15.9069C13.597 15.7441 13.4451 15.6241 13.2656 15.5732C13.0862 15.5224 12.8939 15.545 12.731 15.6359Z" fill="#8186AF"/>
<path d="M8.29704 3.37194V8.70594L5.71904 11.2839C5.58723 11.4158 5.51318 11.5945 5.51318 11.7809C5.51318 11.9674 5.58723 12.1461 5.71904 12.2779C5.85085 12.4098 6.02964 12.4838 6.21605 12.4838C6.40246 12.4838 6.58123 12.4098 6.71304 12.2779L9.49704 9.49394C9.56282 9.42843 9.61492 9.35048 9.65028 9.26464C9.68565 9.1788 9.70358 9.08678 9.70305 8.99394V3.37194C9.70305 3.18549 9.62898 3.00669 9.49715 2.87485C9.36531 2.74301 9.18649 2.66895 9.00005 2.66895C8.8136 2.66895 8.63478 2.74301 8.50294 2.87485C8.37111 3.00669 8.29704 3.18549 8.29704 3.37194Z" fill="#FA544D"/>
<path d="M17.3001 1.512C17.1144 1.512 16.9364 1.58575 16.8051 1.71702C16.6738 1.8483 16.6001 2.02635 16.6001 2.212V4.167C15.7607 2.84848 14.5925 1.77128 13.2104 1.04144C11.8282 0.311606 10.2799 -0.0457084 8.71767 0.0046788C7.15549 0.055066 5.63336 0.511418 4.30114 1.32881C2.96891 2.1462 1.87252 3.29644 1.11991 4.6663C0.367292 6.03616 -0.0156024 7.57841 0.00892058 9.14121C0.0334436 10.704 0.464538 12.2335 1.25976 13.5791C2.05499 14.9246 3.18693 16.0399 4.54415 16.8151C5.90136 17.5903 7.43706 17.9986 9.00005 18H9.03505C9.28805 18 9.54405 17.989 9.79605 17.968C9.9817 17.9525 10.1536 17.8639 10.2739 17.7216C10.3942 17.5794 10.4531 17.3951 10.4376 17.2095C10.422 17.0238 10.3334 16.852 10.1912 16.7317C10.0489 16.6114 9.8647 16.5525 9.67905 16.568C9.46705 16.586 9.25005 16.595 9.03605 16.595H9.00005C7.67059 16.5947 6.36452 16.2453 5.21242 15.5819C4.06032 14.9185 3.10258 13.9642 2.43495 12.8146C1.76732 11.6649 1.41321 10.3601 1.40802 9.03065C1.40283 7.7012 1.74674 6.39368 2.40537 5.23884C3.064 4.08399 4.01427 3.12229 5.16115 2.44989C6.30803 1.77749 7.61134 1.41796 8.94076 1.40724C10.2702 1.39653 11.5791 1.73501 12.7367 2.38883C13.8942 3.04266 14.8599 3.98892 15.5371 5.133H13.6001C13.4136 5.133 13.2348 5.20706 13.103 5.3389C12.9711 5.47074 12.8971 5.64955 12.8971 5.836C12.8971 6.02244 12.9711 6.20126 13.103 6.33309C13.2348 6.46493 13.4136 6.539 13.6001 6.539H15.7501C16.1629 6.53946 16.5679 6.42559 16.9201 6.21C16.9418 6.19747 16.9628 6.18378 16.9831 6.169C17.2952 5.96459 17.5516 5.68573 17.7292 5.35754C17.9067 5.02934 17.9998 4.66213 18.0001 4.289V2.215C18.0004 2.12282 17.9826 2.03147 17.9476 1.9462C17.9126 1.86092 17.8611 1.7834 17.7961 1.71808C17.731 1.65276 17.6537 1.60093 17.5686 1.56557C17.4835 1.5302 17.3922 1.512 17.3001 1.512Z" fill="#8186AF"/>
</svg>
