<svg width="18" height="18" viewBox="0 0 18 18" fill="none" xmlns="http://www.w3.org/2000/svg">
<path d="M1.73085 1.73799L1.82385 1.64599C2.12826 1.34371 2.53986 1.17407 2.96885 1.17407C3.39785 1.17407 3.80944 1.34371 4.11385 1.64599L6.38985 3.92399C7.53085 5.06499 7.08985 6.30099 6.40785 6.67199L5.48485 7.17799C5.40334 7.282 5.36271 7.41224 5.37063 7.54414C5.37856 7.67604 5.43448 7.80049 5.52785 7.89399L10.1149 12.481C10.2084 12.5744 10.3328 12.6303 10.4647 12.6382C10.5966 12.6461 10.7268 12.6055 10.8309 12.524L11.3369 11.601C11.3487 11.5791 11.3621 11.558 11.3769 11.538C11.5153 11.3519 11.692 11.1977 11.8951 11.0857C12.0983 10.9737 12.323 10.9066 12.5543 10.8889C12.7855 10.8712 13.0179 10.9032 13.2357 10.983C13.4535 11.0627 13.6517 11.1882 13.8169 11.351C13.8919 11.421 14.3009 11.812 16.3529 13.861C16.6585 14.1653 16.8308 14.5785 16.8319 15.0097C16.8331 15.441 16.6629 15.8551 16.3589 16.161L16.2429 16.277C15.9682 16.553 15.6667 16.8009 15.3429 17.017L15.3199 17.032C14.195 17.7676 12.8514 18.0941 11.5145 17.9566C10.1775 17.8191 8.92847 17.2261 7.97685 16.277L1.71485 10.023C1.17018 9.4789 0.738383 8.83255 0.444264 8.12108C0.150144 7.40961 -0.000499309 6.64703 0.000987461 5.87716C0.00247423 5.10729 0.156062 4.34531 0.452927 3.63498C0.749793 2.92464 1.18408 2.27997 1.73085 1.73799ZM5.84985 5.74999C6.18185 5.47399 5.94985 5.01399 5.62485 4.69399L3.34785 2.41499C3.24635 2.31441 3.10924 2.25798 2.96635 2.25798C2.82346 2.25798 2.68635 2.31441 2.58485 2.41499L2.49185 2.50699C2.36267 2.63537 2.24081 2.77092 2.12685 2.91299L5.27885 6.06499L5.84985 5.74999ZM15.4799 15.517L15.5959 15.401C15.6966 15.2978 15.7524 15.159 15.7513 15.0148C15.7502 14.8706 15.6921 14.7326 15.5899 14.631C13.2799 12.326 13.0609 12.131 13.0609 12.131C13.0078 12.0773 12.9442 12.0353 12.8739 12.0078C12.8037 11.9802 12.7285 11.9677 12.6531 11.971C12.5777 11.9743 12.5039 11.9934 12.4363 12.0269C12.3688 12.0605 12.309 12.1079 12.2609 12.166L11.9479 12.736L15.0829 15.871C15.2213 15.7607 15.3535 15.6429 15.4789 15.518L15.4799 15.517ZM2.47985 9.25799L8.73885 15.517C9.43404 16.2107 10.3262 16.6732 11.2938 16.8414C12.2614 17.0096 13.2573 16.8754 14.1459 16.457L11.2369 13.548C10.9311 13.7036 10.5839 13.7584 10.2451 13.7045C9.90628 13.6506 9.59323 13.4908 9.35085 13.248L4.76185 8.66399C4.51904 8.42161 4.35923 8.10856 4.30534 7.76974C4.25144 7.43093 4.30623 7.08374 4.46185 6.77799L1.53785 3.85099C1.11821 4.73949 0.983379 5.73596 1.15182 6.70403C1.32027 7.67209 1.78376 8.56446 2.47885 9.25899L2.47985 9.25799Z" fill="#8186AF"/>
<path d="M8.51606 8.87401L9.28007 3.52301C9.29444 3.42378 9.3361 3.33049 9.4004 3.25356C9.46471 3.17663 9.54912 3.11908 9.64424 3.08734C9.73935 3.0556 9.84142 3.05092 9.93904 3.07382C10.0367 3.09672 10.126 3.14629 10.1971 3.21701L11.3441 4.36401L15.5441 0.164015C15.6455 0.0628904 15.7829 0.00610352 15.9261 0.00610352C16.0693 0.00610352 16.2067 0.0628904 16.3081 0.164015L17.8421 1.69101C17.9432 1.79243 18 1.9298 18 2.07301C18 2.21623 17.9432 2.3536 17.8421 2.45501L13.6421 6.65501L14.7891 7.80201C14.8598 7.87309 14.9094 7.96243 14.9323 8.06005C14.9552 8.15767 14.9505 8.25973 14.9187 8.35484C14.887 8.44996 14.8295 8.53438 14.7525 8.59868C14.6756 8.66299 14.5823 8.70465 14.4831 8.71902L9.13208 9.48302C9.04894 9.49488 8.96418 9.48723 8.88452 9.46066C8.80486 9.4341 8.73248 9.38936 8.67311 9.32999C8.61373 9.27061 8.56898 9.19822 8.54242 9.11856C8.51585 9.0389 8.50821 8.95415 8.52008 8.87101L8.51606 8.87401ZM13.2561 7.80401L12.4921 7.04001C12.391 6.9386 12.3342 6.80123 12.3342 6.65801C12.3342 6.5148 12.391 6.37743 12.4921 6.27601L16.6921 2.07601L15.9281 1.31201L11.7281 5.51201C11.6267 5.61314 11.4893 5.66993 11.3461 5.66993C11.2028 5.66993 11.0655 5.61314 10.9641 5.51201L10.2001 4.74801L9.69007 8.31602L13.2561 7.80401Z" fill="#FA544D"/>
</svg>
