<svg width="17" height="19" viewBox="0 0 17 19" fill="none" xmlns="http://www.w3.org/2000/svg">
<path d="M8.28677 2.60901C7.48886 2.60952 6.71262 2.86858 6.07433 3.34737C5.43605 3.82616 4.97009 4.49889 4.7463 5.26477C4.52251 6.03064 4.55292 6.84842 4.83298 7.59556C5.11305 8.34269 5.62768 8.97896 6.29977 9.40901C6.84365 9.75308 7.46661 9.9521 8.10923 9.98711C8.75185 10.0221 9.39273 9.89195 9.97077 9.60901C10.0978 9.55053 10.1964 9.44398 10.2449 9.3128C10.2934 9.18162 10.2878 9.03655 10.2293 8.90951C10.2003 8.8466 10.1592 8.79002 10.1084 8.74299C10.0576 8.69595 9.99801 8.6594 9.93305 8.63539C9.80187 8.58691 9.65682 8.59253 9.52978 8.65101C9.11201 8.85825 8.64814 8.95511 8.18235 8.93236C7.71656 8.9096 7.26434 8.76799 6.86877 8.52101C6.48306 8.27463 6.16815 7.93207 5.95502 7.52704C5.7419 7.12201 5.63789 6.66847 5.65325 6.21104C5.66862 5.75362 5.80283 5.30807 6.04266 4.91826C6.28248 4.52844 6.61968 4.20779 7.02105 3.98785C7.42242 3.76791 7.87414 3.65627 8.33176 3.66391C8.78938 3.67154 9.23713 3.7982 9.63094 4.03141C10.0248 4.26462 10.351 4.59635 10.5777 4.99395C10.8044 5.39155 10.9237 5.84132 10.9238 6.29901C10.9248 6.43891 10.8703 6.5735 10.7721 6.67318C10.6739 6.77286 10.5402 6.82944 10.4003 6.83051C10.2604 6.83157 10.1258 6.77701 10.0261 6.67883C9.92642 6.58066 9.86983 6.44691 9.86877 6.30701C9.86877 6.30701 9.86877 6.30201 9.86877 6.29901C9.86917 5.93619 9.745 5.58424 9.51704 5.30199C9.28907 5.01974 8.97112 4.8243 8.61634 4.74835C8.26156 4.67241 7.89146 4.72055 7.56792 4.88475C7.24439 5.04894 6.98704 5.31922 6.83887 5.65041C6.69071 5.98159 6.66073 6.3536 6.75394 6.70424C6.84716 7.05487 7.05793 7.36288 7.35101 7.57676C7.64408 7.79064 8.00168 7.89743 8.36404 7.87927C8.7264 7.86112 9.07155 7.71911 9.34177 7.47701C9.56917 7.68109 9.85082 7.81491 10.1527 7.86228C10.4545 7.90965 10.7636 7.86853 11.0426 7.7439C11.3216 7.61928 11.5585 7.41649 11.7246 7.16006C11.8908 6.90364 11.979 6.60455 11.9788 6.29901C11.9761 5.32082 11.5862 4.38349 10.8944 3.692C10.2025 3.0005 9.26495 2.61112 8.28677 2.60901ZM8.80677 6.38501C8.78841 6.51695 8.72067 6.63702 8.61723 6.72095C8.51378 6.80489 8.38235 6.84645 8.24946 6.83725C8.11656 6.82805 7.99211 6.76877 7.90122 6.67137C7.81034 6.57398 7.75979 6.44572 7.75979 6.31251C7.75979 6.17929 7.81034 6.05104 7.90122 5.95365C7.99211 5.85625 8.11656 5.79697 8.24946 5.78777C8.38235 5.77856 8.51378 5.82013 8.61723 5.90407C8.72067 5.98801 8.78841 6.10807 8.80677 6.24001C8.8001 6.28811 8.8001 6.33691 8.80677 6.38501Z" fill="#FA544D"/>
<path d="M16.197 7.425C16.1964 7.28559 16.1411 7.15198 16.043 7.053L14.088 5.1V1.027C14.088 0.887231 14.0324 0.753186 13.9336 0.654355C13.8348 0.555523 13.7007 0.5 13.561 0.5H3.01395C2.87419 0.5 2.74014 0.555523 2.64131 0.654355C2.54248 0.753186 2.48695 0.887231 2.48695 1.027V5.1L0.530952 7.053L0.525953 7.059C0.430962 7.15723 0.377581 7.28835 0.376953 7.425V16.917C0.377218 17.3366 0.543945 17.7389 0.840542 18.0357C1.13714 18.3325 1.53937 18.4995 1.95895 18.5H14.615C15.0344 18.4995 15.4364 18.3326 15.733 18.0361C16.0296 17.7395 16.1964 17.3374 16.197 16.918V7.425ZM14.088 6.59L14.924 7.426L14.088 8.262V6.59ZM3.54095 5.317V1.555H13.033V5.316V9.316L10.177 12.172H6.39595L3.54095 9.317V5.317ZM2.48595 6.59V8.262L1.64995 7.426L2.48595 6.59ZM1.43195 16.7V8.7L5.43195 12.7L1.43195 16.7ZM2.17795 17.446L6.39695 13.227H10.177L14.396 17.446H2.17795ZM15.143 16.7L11.143 12.7L15.143 8.7V16.7Z" fill="#8186AF"/>
</svg>
