<svg width="19" height="19" viewBox="0 0 19 19" fill="none" xmlns="http://www.w3.org/2000/svg">
<path d="M13.5883 9.08593C13.9765 9.08593 14.2913 8.77119 14.2913 8.38293C14.2913 7.99468 13.9765 7.67993 13.5883 7.67993C13.2 7.67993 12.8853 7.99468 12.8853 8.38293C12.8853 8.77119 13.2 9.08593 13.5883 9.08593Z" fill="#8186AF"/>
<path d="M15.2061 2.40598H14.2921V1.69998C14.2921 1.51354 14.218 1.33473 14.0862 1.20289C13.9543 1.07105 13.7755 0.996983 13.5891 0.996983C13.4026 0.996983 13.2238 1.07105 13.092 1.20289C12.9601 1.33473 12.8861 1.51354 12.8861 1.69998V2.39998H9.68607V1.69998C9.68607 1.51354 9.612 1.33473 9.48016 1.20289C9.34833 1.07105 9.16952 0.996983 8.98307 0.996983C8.79662 0.996983 8.61781 1.07105 8.48597 1.20289C8.35413 1.33473 8.28007 1.51354 8.28007 1.69998V2.39998H5.11807V1.69998C5.11807 1.51314 5.04384 1.33395 4.91172 1.20183C4.77961 1.06971 4.60041 0.995483 4.41357 0.995483C4.22672 0.995483 4.04753 1.06971 3.91541 1.20183C3.78329 1.33395 3.70907 1.51314 3.70907 1.69998V2.39998H2.83107C2.46127 2.40038 2.09516 2.47361 1.75366 2.61549C1.41216 2.75737 1.10194 2.96512 0.840734 3.22689C0.579522 3.48866 0.372428 3.79931 0.231275 4.14112C0.0901216 4.48292 0.0176738 4.84918 0.018068 5.21898V16.188C0.0191267 16.9336 0.315867 17.6484 0.843206 18.1756C1.37055 18.7027 2.08543 18.9992 2.83107 19H8.20907C8.39552 19 8.57433 18.9259 8.70616 18.7941C8.838 18.6622 8.91207 18.4834 8.91207 18.297C8.91207 18.1105 8.838 17.9317 8.70616 17.7999C8.57433 17.668 8.39552 17.594 8.20907 17.594H2.83107C2.45834 17.5935 2.10102 17.4452 1.83746 17.1816C1.5739 16.918 1.4256 16.5607 1.42507 16.188V5.21898C1.4256 4.84625 1.5739 4.48894 1.83746 4.22538C2.10102 3.96181 2.45834 3.81351 2.83107 3.81298H3.71007V4.51298C3.71007 4.69943 3.78413 4.87824 3.91597 5.01008C4.04781 5.14192 4.22662 5.21598 4.41307 5.21598C4.59951 5.21598 4.77833 5.14192 4.91016 5.01008C5.042 4.87824 5.11607 4.69943 5.11607 4.51298V3.81298H8.28007V4.51298C8.28007 4.69943 8.35413 4.87824 8.48597 5.01008C8.61781 5.14192 8.79662 5.21598 8.98307 5.21598C9.16952 5.21598 9.34833 5.14192 9.48016 5.01008C9.612 4.87824 9.68607 4.69943 9.68607 4.51298V3.81298H12.8861V4.51298C12.8861 4.69943 12.9601 4.87824 13.092 5.01008C13.2238 5.14192 13.4026 5.21598 13.5891 5.21598C13.7755 5.21598 13.9543 5.14192 14.0862 5.01008C14.218 4.87824 14.2921 4.69943 14.2921 4.51298V3.81298H15.2061C15.5788 3.81351 15.9361 3.96181 16.1997 4.22538C16.4632 4.48894 16.6115 4.84625 16.6121 5.21898V9.22698C16.6121 9.41343 16.6861 9.59224 16.818 9.72408C16.9498 9.85592 17.1286 9.92998 17.3151 9.92998C17.5015 9.92998 17.6803 9.85592 17.8122 9.72408C17.944 9.59224 18.0181 9.41343 18.0181 9.22698V5.21898C18.0173 4.47335 17.7208 3.75846 17.1936 3.23112C16.6665 2.70378 15.9517 2.40704 15.2061 2.40598Z" fill="#8186AF"/>
<path d="M13.7643 10.4919C12.9229 10.4919 12.1004 10.7414 11.4009 11.2089C10.7013 11.6763 10.1561 12.3407 9.83409 13.118C9.51211 13.8953 9.42785 14.7507 9.59199 15.5759C9.75613 16.4011 10.1613 17.159 10.7562 17.754C11.3512 18.3489 12.1091 18.7541 12.9343 18.9182C13.7595 19.0824 14.6149 18.9981 15.3922 18.6761C16.1695 18.3541 16.8339 17.8089 17.3013 17.1093C17.7688 16.4098 18.0183 15.5873 18.0183 14.7459C18.0169 13.6181 17.5683 12.5369 16.7708 11.7394C15.9733 10.9419 14.8921 10.4933 13.7643 10.4919ZM13.7643 17.5919C13.201 17.5919 12.6503 17.4249 12.182 17.112C11.7136 16.799 11.3486 16.3542 11.1331 15.8338C10.9175 15.3134 10.8611 14.7408 10.971 14.1883C11.0809 13.6359 11.3521 13.1284 11.7504 12.7301C12.1487 12.3318 12.6562 12.0605 13.2087 11.9507C13.7611 11.8408 14.3337 11.8972 14.8541 12.1127C15.3745 12.3283 15.8194 12.6933 16.1323 13.1617C16.4452 13.63 16.6123 14.1807 16.6123 14.744C16.6115 15.4991 16.3112 16.223 15.7772 16.7569C15.2433 17.2908 14.5194 17.5912 13.7643 17.5919Z" fill="#FA544D"/>
<path d="M14.7845 14.043H14.4685V13.302C14.4685 13.1156 14.3944 12.9367 14.2626 12.8049C14.1308 12.6731 13.952 12.599 13.7655 12.599C13.5791 12.599 13.4002 12.6731 13.2684 12.8049C13.1366 12.9367 13.0625 13.1156 13.0625 13.302V14.743C13.0625 14.9286 13.1362 15.1067 13.2675 15.238C13.3988 15.3693 13.5768 15.443 13.7625 15.443H14.7825C14.9689 15.443 15.1478 15.3689 15.2796 15.2371C15.4114 15.1053 15.4855 14.9264 15.4855 14.74C15.4855 14.5535 15.4114 14.3747 15.2796 14.2429C15.1478 14.1111 14.9689 14.037 14.7825 14.037L14.7845 14.043Z" fill="#FA544D"/>
<path d="M10.5301 9.08593C10.9184 9.08593 11.2331 8.77119 11.2331 8.38293C11.2331 7.99468 10.9184 7.67993 10.5301 7.67993C10.1419 7.67993 9.82715 7.99468 9.82715 8.38293C9.82715 8.77119 10.1419 9.08593 10.5301 9.08593Z" fill="#8186AF"/>
<path d="M7.47107 12.144C7.85932 12.144 8.17407 11.8293 8.17407 11.441C8.17407 11.0528 7.85932 10.738 7.47107 10.738C7.08281 10.738 6.76807 11.0528 6.76807 11.441C6.76807 11.8293 7.08281 12.144 7.47107 12.144Z" fill="#8186AF"/>
<path d="M4.41198 9.08593C4.80024 9.08593 5.11498 8.77119 5.11498 8.38293C5.11498 7.99468 4.80024 7.67993 4.41198 7.67993C4.02373 7.67993 3.70898 7.99468 3.70898 8.38293C3.70898 8.77119 4.02373 9.08593 4.41198 9.08593Z" fill="#8186AF"/>
<path d="M4.41198 12.144C4.80024 12.144 5.11498 11.8293 5.11498 11.441C5.11498 11.0528 4.80024 10.738 4.41198 10.738C4.02373 10.738 3.70898 11.0528 3.70898 11.441C3.70898 11.8293 4.02373 12.144 4.41198 12.144Z" fill="#8186AF"/>
<path d="M4.41198 15.203C4.80024 15.203 5.11498 14.8883 5.11498 14.5C5.11498 14.1117 4.80024 13.797 4.41198 13.797C4.02373 13.797 3.70898 14.1117 3.70898 14.5C3.70898 14.8883 4.02373 15.203 4.41198 15.203Z" fill="#8186AF"/>
<path d="M7.47107 15.203C7.85932 15.203 8.17407 14.8883 8.17407 14.5C8.17407 14.1117 7.85932 13.797 7.47107 13.797C7.08281 13.797 6.76807 14.1117 6.76807 14.5C6.76807 14.8883 7.08281 15.203 7.47107 15.203Z" fill="#8186AF"/>
<path d="M7.47107 9.08593C7.85932 9.08593 8.17407 8.77119 8.17407 8.38293C8.17407 7.99468 7.85932 7.67993 7.47107 7.67993C7.08281 7.67993 6.76807 7.99468 6.76807 8.38293C6.76807 8.77119 7.08281 9.08593 7.47107 9.08593Z" fill="#8186AF"/>
</svg>
