<svg width="40" height="40" viewBox="0 0 40 40" fill="none" xmlns="http://www.w3.org/2000/svg">
<path d="M20 39C30.4934 39 39 30.4934 39 20C39 9.50659 30.4934 1 20 1C9.50659 1 1 9.50659 1 20C1 30.4934 9.50659 39 20 39Z" fill="#1E2044" stroke="#323054"/>
<path d="M27 13H17C16.4477 13 16 13.4477 16 14C16 14.5523 16.4477 15 17 15H27C27.5523 15 28 14.5523 28 14C28 13.4477 27.5523 13 27 13Z" fill="#8186AF"/>
<path d="M27 19H17C16.4477 19 16 19.4477 16 20C16 20.5523 16.4477 21 17 21H27C27.5523 21 28 20.5523 28 20C28 19.4477 27.5523 19 27 19Z" fill="#8186AF"/>
<path d="M27 25H17C16.4477 25 16 25.4477 16 26C16 26.5523 16.4477 27 17 27H27C27.5523 27 28 26.5523 28 26C28 25.4477 27.5523 25 27 25Z" fill="#8186AF"/>
<path d="M14 14C14 13.4477 13.5523 13 13 13C12.4477 13 12 13.4477 12 14C12 14.5523 12.4477 15 13 15C13.5523 15 14 14.5523 14 14Z" fill="#8186AF"/>
<path d="M14 20C14 19.4477 13.5523 19 13 19C12.4477 19 12 19.4477 12 20C12 20.5523 12.4477 21 13 21C13.5523 21 14 20.5523 14 20Z" fill="#8186AF"/>
<path d="M14 26C14 25.4477 13.5523 25 13 25C12.4477 25 12 25.4477 12 26C12 26.5523 12.4477 27 13 27C13.5523 27 14 26.5523 14 26Z" fill="#8186AF"/>
</svg>
