<svg width="20" height="20" viewBox="0 0 20 20" fill="none" xmlns="http://www.w3.org/2000/svg">
<path d="M16.5038 2.41109C16.166 2.12103 15.8092 1.85377 15.4358 1.61108L14.7568 2.66109C15.0834 2.87334 15.3954 3.10719 15.6908 3.36108L16.5038 2.41109Z" fill="#FA544D"/>
<path d="M18.274 4.39302C18.0249 4.02501 17.7513 3.67421 17.455 3.34302L16.522 4.17602C16.7813 4.46653 17.0212 4.77387 17.24 5.09602L18.274 4.39302Z" fill="#FA544D"/>
<path d="M13.5949 8.926L13.728 9.373H19.9999L19.9059 8.665C19.7619 7.57727 19.4385 6.52095 18.9489 5.539L17.83 6.097C18.1508 6.73978 18.3903 7.42002 18.5429 8.122H14.637C14.3868 7.49962 14.0133 6.93427 13.539 6.45996C13.0647 5.98565 12.4993 5.61217 11.877 5.362V1.458C12.5197 1.5985 13.1443 1.81153 13.739 2.093L14.274 0.963C13.3458 0.523184 12.355 0.230031 11.3369 0.094L10.627 0V6.272L11.0739 6.405C11.671 6.58177 12.2144 6.905 12.6547 7.34529C13.095 7.78558 13.4182 8.32895 13.5949 8.926Z" fill="#FA544D"/>
<path d="M0 9.998C0.00772086 12.4163 0.88943 14.7503 2.48257 16.5697C4.07572 18.389 6.27288 19.5711 8.669 19.898L9.377 19.992V13.724L8.93 13.591C8.156 13.3601 7.4772 12.8856 6.99454 12.238C6.51189 11.5903 6.25118 10.8042 6.25118 9.9965C6.25118 9.1888 6.51189 8.40268 6.99454 7.75504C7.4772 7.10741 8.156 6.63287 8.93 6.402L9.377 6.272V0L8.669 0.094C6.2722 0.42098 4.0745 1.60365 2.48126 3.42386C0.888032 5.24406 0.00675737 7.57901 0 9.998ZM8.127 5.364C7.20409 5.73769 6.41377 6.37843 5.8573 7.2041C5.30082 8.02978 5.00354 9.0028 5.00354 9.9985C5.00354 10.9942 5.30082 11.9672 5.8573 12.7929C6.41377 13.6186 7.20409 14.2593 8.127 14.633V18.538C6.17887 18.1123 4.43486 17.0333 3.18435 15.48C1.93384 13.9268 1.25202 11.9926 1.25202 9.9985C1.25202 8.0044 1.93384 6.07025 3.18435 4.51698C4.43486 2.9637 6.17887 1.8847 8.127 1.459V5.364Z" fill="#8186AF"/>
<path d="M13.5949 11.071C13.4169 11.6666 13.093 12.2082 12.6526 12.6469C12.2122 13.0855 11.6692 13.4073 11.073 13.583L10.627 13.716V19.997L11.335 19.903C13.5048 19.6096 15.5183 18.6122 17.0665 17.0639C18.6146 15.5155 19.6118 13.5019 19.905 11.332L19.999 10.624H13.727L13.5949 11.071ZM18.542 11.871C18.1823 13.5017 17.3639 14.9955 16.1831 16.1762C15.0024 17.357 13.5086 18.1754 11.878 18.535V14.621C12.4993 14.372 13.0639 14 13.538 13.5275C14.0121 13.0549 14.3859 12.4915 14.637 11.871H18.542Z" fill="#8186AF"/>
</svg>
