<svg width="26" height="23" viewBox="0 0 26 23" fill="none" xmlns="http://www.w3.org/2000/svg">
<path d="M16.6339 17.7751L15.2339 18.7831C15.1326 18.8558 15.057 18.9588 15.0182 19.0773C14.9794 19.1958 14.9793 19.3236 15.0179 19.4421L15.5809 21.0731C15.6036 21.1411 15.6138 21.2125 15.6109 21.2841C15.6008 21.392 15.5625 21.4954 15.4998 21.5838C15.4371 21.6723 15.3523 21.7426 15.2538 21.7879C15.1553 21.8332 15.0467 21.8518 14.9388 21.8418C14.8308 21.8319 14.7274 21.7937 14.6389 21.7311L13.2389 20.7221C13.1369 20.6489 13.0145 20.6095 12.8889 20.6095C12.7633 20.6095 12.6409 20.6489 12.5389 20.7221L11.1389 21.7311C11.0504 21.7937 10.947 21.8319 10.8391 21.8418C10.7311 21.8518 10.6225 21.8332 10.524 21.7879C10.4255 21.7426 10.3407 21.6723 10.278 21.5838C10.2153 21.4954 10.177 21.392 10.1669 21.2841C10.1642 21.2126 10.1744 21.1411 10.1969 21.0731L10.7589 19.4421C10.7976 19.3236 10.7975 19.1958 10.7586 19.0773C10.7198 18.9588 10.6442 18.8558 10.5429 18.7831L9.14291 17.7751C9.04109 17.6964 8.9657 17.5886 8.92684 17.4659C8.88798 17.3432 8.88748 17.2116 8.92542 17.0887C8.96336 16.9657 9.03793 16.8573 9.13916 16.7778C9.24039 16.6984 9.36346 16.6518 9.49191 16.6441H11.2199C11.3385 16.6575 11.4582 16.6311 11.5602 16.5692C11.6622 16.5074 11.7409 16.4134 11.7839 16.3021L12.3179 14.6601C12.3574 14.5416 12.4331 14.4385 12.5345 14.3655C12.6358 14.2925 12.7575 14.2532 12.8824 14.2532C13.0073 14.2532 13.129 14.2925 13.2304 14.3655C13.3317 14.4385 13.4074 14.5416 13.4469 14.6601L13.9809 16.3021C14.0239 16.4134 14.1026 16.5074 14.2046 16.5692C14.3067 16.6311 14.4263 16.6575 14.5449 16.6441H16.2849C16.4134 16.6518 16.5364 16.6984 16.6377 16.7778C16.7389 16.8573 16.8135 16.9657 16.8514 17.0887C16.8893 17.2116 16.8888 17.3432 16.85 17.4659C16.8111 17.5886 16.7357 17.6964 16.6339 17.7751ZM24.6499 15.4311L23.2499 16.4391C23.1486 16.5118 23.073 16.6148 23.0342 16.7333C22.9954 16.8518 22.9953 16.9796 23.0339 17.0981L23.5969 18.7291C23.6196 18.7971 23.6298 18.8686 23.6269 18.9401C23.6168 19.048 23.5785 19.1514 23.5158 19.2398C23.4531 19.3283 23.3683 19.3987 23.2698 19.4439C23.1713 19.4892 23.0627 19.5078 22.9548 19.4978C22.8468 19.4879 22.7434 19.4497 22.6549 19.3871L21.2549 18.3781C21.1529 18.3049 21.0305 18.2655 20.9049 18.2655C20.7793 18.2655 20.6569 18.3049 20.5549 18.3781L19.1549 19.3871C19.0664 19.4497 18.963 19.4879 18.8551 19.4978C18.7471 19.5078 18.6385 19.4892 18.54 19.4439C18.4415 19.3987 18.3567 19.3283 18.294 19.2398C18.2313 19.1514 18.193 19.048 18.1829 18.9401C18.1802 18.8686 18.1904 18.7971 18.2129 18.7291L18.7749 17.0981C18.8136 16.9796 18.8135 16.8518 18.7746 16.7333C18.7358 16.6148 18.6602 16.5118 18.5589 16.4391L17.1589 15.4311C17.0571 15.3524 16.9817 15.2446 16.9428 15.1219C16.904 14.9992 16.9035 14.8676 16.9414 14.7447C16.9794 14.6217 17.0539 14.5133 17.1552 14.4338C17.2564 14.3544 17.3795 14.3078 17.5079 14.3001H19.2359C19.3545 14.3135 19.4742 14.2871 19.5762 14.2253C19.6782 14.1634 19.7569 14.0694 19.7999 13.9581L20.3339 12.3161C20.3734 12.1976 20.4491 12.0946 20.5505 12.0215C20.6518 11.9485 20.7735 11.9092 20.8984 11.9092C21.0233 11.9092 21.145 11.9485 21.2464 12.0215C21.3477 12.0946 21.4234 12.1976 21.4629 12.3161L21.9969 13.9581C22.0399 14.0694 22.1186 14.1634 22.2206 14.2253C22.3227 14.2871 22.4423 14.3135 22.5609 14.3001H24.2889C24.4185 14.3054 24.5434 14.3505 24.6465 14.4292C24.7496 14.5079 24.826 14.6164 24.8653 14.7401C24.9046 14.8637 24.905 14.9964 24.8662 15.1202C24.8275 15.244 24.7516 15.3529 24.6489 15.4321L24.6499 15.4311ZM8.61891 15.4311L7.21891 16.4391C7.11758 16.5118 7.04203 16.6148 7.00319 16.7333C6.96435 16.8518 6.96425 16.9796 7.00291 17.0981L7.56591 18.7291C7.58861 18.7971 7.59878 18.8686 7.59591 18.9401C7.5858 19.048 7.54748 19.1514 7.4848 19.2398C7.42212 19.3283 7.33729 19.3987 7.23882 19.4439C7.14034 19.4892 7.03169 19.5078 6.92376 19.4978C6.81583 19.4879 6.71242 19.4497 6.62391 19.3871L5.22391 18.3781C5.12191 18.3049 4.99949 18.2655 4.87391 18.2655C4.74833 18.2655 4.62591 18.3049 4.52391 18.3781L3.12391 19.3871C3.0354 19.4497 2.93199 19.4879 2.82406 19.4978C2.71613 19.5078 2.60748 19.4892 2.50901 19.4439C2.41053 19.3987 2.3257 19.3283 2.26302 19.2398C2.20034 19.1514 2.16202 19.048 2.15191 18.9401C2.14924 18.8686 2.1594 18.7971 2.18191 18.7291L2.74391 17.0981C2.78257 16.9796 2.78247 16.8518 2.74363 16.7333C2.7048 16.6148 2.62924 16.5118 2.52791 16.4391L1.12791 15.4311C1.02609 15.3524 0.950704 15.2446 0.91184 15.1219C0.872975 14.9992 0.872481 14.8676 0.910422 14.7447C0.948364 14.6217 1.02293 14.5133 1.12416 14.4338C1.22539 14.3544 1.34846 14.3078 1.47691 14.3001H3.21691C3.3355 14.3135 3.45516 14.2871 3.55719 14.2253C3.65923 14.1634 3.7379 14.0694 3.78091 13.9581L4.31491 12.3161C4.35439 12.1976 4.43015 12.0946 4.53147 12.0215C4.63278 11.9485 4.75451 11.9092 4.87941 11.9092C5.00431 11.9092 5.12604 11.9485 5.22736 12.0215C5.32867 12.0946 5.40443 12.1976 5.44391 12.3161L5.97791 13.9581C6.02092 14.0694 6.09959 14.1634 6.20163 14.2253C6.30366 14.2871 6.42332 14.3135 6.54191 14.3001H8.26891C8.39761 14.3075 8.52097 14.3541 8.62245 14.4336C8.72393 14.5131 8.79867 14.6217 8.83665 14.7449C8.87463 14.8681 8.87403 14.9999 8.83493 15.1228C8.79583 15.2456 8.72011 15.3536 8.61791 15.4321L8.61891 15.4311Z" stroke="#8186AF" stroke-width="1.2" stroke-miterlimit="10"/>
<path d="M15.8939 1.58311C15.7416 1.43094 15.5352 1.34546 15.3199 1.34546C15.1046 1.34546 14.8982 1.43094 14.7459 1.58311L8.40891 7.92612C8.26629 8.08023 8.18892 8.2836 8.19303 8.49353C8.19714 8.70347 8.28241 8.90365 8.43095 9.05206C8.57949 9.20047 8.77974 9.28556 8.98968 9.28949C9.19962 9.29342 9.40292 9.21587 9.5569 9.07312L15.8939 2.72812C16.0452 2.57598 16.1301 2.37016 16.1301 2.15562C16.1301 1.94108 16.0452 1.73526 15.8939 1.58311Z" fill="#FA544D"/>
<path d="M9.3071 0.746094C8.87486 0.745896 8.45228 0.8739 8.0928 1.11391C7.73333 1.35393 7.45311 1.69517 7.28761 2.09447C7.12211 2.49376 7.07875 2.93318 7.16303 3.35712C7.24731 3.78106 7.45543 4.17048 7.76107 4.47612C8.06671 4.78176 8.45613 4.98988 8.88007 5.07416C9.30401 5.15843 9.74342 5.11508 10.1427 4.94958C10.542 4.78408 10.8833 4.50386 11.1233 4.14439C11.3633 3.78491 11.4913 3.36233 11.4911 2.93009C11.4903 2.3511 11.26 1.79606 10.8505 1.38665C10.4411 0.977243 9.88609 0.746888 9.3071 0.746094ZM9.3071 3.4921C9.19618 3.4921 9.08776 3.45921 8.99553 3.39761C8.90329 3.33601 8.83139 3.24846 8.7889 3.14601C8.74641 3.04356 8.73524 2.93081 8.7568 2.82201C8.77837 2.71322 8.8317 2.61326 8.91006 2.53476C8.98842 2.45626 9.08828 2.40276 9.19704 2.381C9.3058 2.35924 9.41857 2.3702 9.52109 2.41251C9.62362 2.45481 9.71131 2.52657 9.77307 2.61869C9.83483 2.71082 9.8679 2.81918 9.8681 2.93009C9.8681 3.07897 9.80903 3.22177 9.70385 3.32713C9.59867 3.4325 9.45597 3.49183 9.3071 3.4921Z" fill="#FA544D"/>
<path d="M14.997 5.54004C14.5648 5.53984 14.1423 5.66782 13.7828 5.90779C13.4234 6.14776 13.1432 6.48894 12.9776 6.88818C12.8121 7.28742 12.7687 7.72678 12.8529 8.1507C12.9371 8.57461 13.1451 8.96404 13.4506 9.26971C13.7562 9.57539 14.1455 9.78359 14.5694 9.86798C14.9933 9.95237 15.4327 9.90917 15.832 9.74382C16.2313 9.57847 16.5726 9.29841 16.8127 8.93907C17.0529 8.57973 17.181 8.15723 17.181 7.72504C17.1805 7.14587 16.9503 6.59058 16.5408 6.18095C16.1314 5.77133 15.5762 5.54083 14.997 5.54004ZM14.997 8.28604C14.8861 8.28604 14.7776 8.25314 14.6854 8.1915C14.5931 8.12985 14.5212 8.04224 14.4787 7.93973C14.4363 7.83722 14.4252 7.72442 14.4468 7.6156C14.4684 7.50678 14.5219 7.40681 14.6003 7.32835C14.6788 7.2499 14.7788 7.19647 14.8876 7.17482C14.9964 7.15317 15.1092 7.16428 15.2117 7.20674C15.3142 7.2492 15.4018 7.3211 15.4635 7.41336C15.5251 7.50562 15.558 7.61408 15.558 7.72504C15.558 7.87382 15.4989 8.01653 15.3937 8.12173C15.2885 8.22694 15.1458 8.28604 14.997 8.28604Z" fill="#FA544D"/>
</svg>
