<svg width="20" height="21" viewBox="0 0 20 21" fill="none" xmlns="http://www.w3.org/2000/svg">
<path d="M7.988 18.3039V20.3299L7.498 19.9299C6.17133 18.8225 4.93416 17.6121 3.798 16.3099C1.277 13.4229 0 10.8269 0 8.5989V8.3779C3.15708e-08 6.25922 0.841643 4.22732 2.33978 2.72918C3.83791 1.23105 5.86982 0.389404 7.9885 0.389404C10.1072 0.389404 12.1391 1.23105 13.6372 2.72918C15.1354 4.22732 15.977 6.25922 15.977 8.3779V8.5989C15.977 8.7859 15.967 8.9759 15.949 9.1679L14.386 7.7429C14.2217 6.10179 13.433 4.58657 12.183 3.51052C10.9331 2.43448 9.3174 1.8799 7.67009 1.96144C6.02279 2.04299 4.4698 2.75442 3.33222 3.94865C2.19464 5.14288 1.55946 6.72858 1.558 8.3779V8.5989C1.559 12.3629 6.409 16.9199 7.988 18.3039ZM7.988 5.0659C8.64305 5.0659 9.28339 5.26015 9.82805 5.62408C10.3727 5.988 10.7972 6.50527 11.0479 7.11046C11.2986 7.71565 11.3642 8.38158 11.2364 9.02404C11.1086 9.66651 10.7931 10.2567 10.3299 10.7198C9.86675 11.183 9.2766 11.4985 8.63414 11.6263C7.99167 11.7541 7.32574 11.6885 6.72055 11.4378C6.11536 11.1871 5.5981 10.7626 5.23417 10.218C4.87025 9.6733 4.676 9.03296 4.676 8.3779C4.67706 7.49983 5.02634 6.65803 5.64723 6.03714C6.26812 5.41624 7.10993 5.06696 7.988 5.0659ZM7.988 6.6249C7.64105 6.6249 7.30189 6.7278 7.01343 6.92058C6.72496 7.11335 6.50015 7.38735 6.36742 7.70791C6.23469 8.02847 6.20002 8.38119 6.26778 8.72146C6.33554 9.06173 6.50269 9.37426 6.74809 9.61952C6.99349 9.86478 7.30612 10.0318 7.64642 10.0993C7.98673 10.1669 8.33944 10.132 8.65992 9.9991C8.9804 9.86619 9.25427 9.64122 9.44688 9.35265C9.6395 9.06407 9.7422 8.72485 9.742 8.3779C9.74147 7.91297 9.55647 7.46724 9.22762 7.13858C8.89877 6.80991 8.45294 6.62517 7.988 6.6249Z" fill="#8186AF"/>
<path d="M12.7818 17.185H15.1198V14.847H12.7818V17.185ZM18.9448 16.126L18.5068 15.726V18.226C18.506 18.7861 18.2831 19.3231 17.887 19.7192C17.4909 20.1153 16.954 20.3382 16.3938 20.339H11.4638C10.9036 20.3382 10.3666 20.1153 9.97055 19.7192C9.57446 19.3231 9.35159 18.7861 9.35079 18.226V15.726L8.91279 16.126L7.86279 14.975L13.9318 9.43799L20.0008 14.975L18.9448 16.126ZM16.9448 14.304L13.9308 11.547L10.9088 14.304V18.228C10.9088 18.3752 10.9673 18.5163 11.0713 18.6204C11.1754 18.7245 11.3166 18.783 11.4638 18.783H16.3988C16.546 18.783 16.6872 18.7245 16.7912 18.6204C16.8953 18.5163 16.9538 18.3752 16.9538 18.228L16.9448 14.304Z" fill="#FA544D"/>
</svg>
