<svg width="20" height="18" viewBox="0 0 20 18" fill="none" xmlns="http://www.w3.org/2000/svg">
<path d="M10.645 12.1081C10.645 13.1609 10.3328 14.19 9.74794 15.0654C9.16304 15.9408 8.3317 16.623 7.35905 17.0259C6.3864 17.4288 5.31612 17.5342 4.28356 17.3288C3.251 17.1234 2.30253 16.6165 1.5581 15.872C0.813662 15.1276 0.306695 14.1791 0.101306 13.1466C-0.104083 12.114 0.00132984 11.0437 0.404215 10.0711C0.8071 9.09842 1.48936 8.26708 2.36473 7.68219C3.24009 7.09729 4.26924 6.7851 5.32203 6.7851C6.73329 6.78669 8.08629 7.34801 9.0842 8.34592C10.0821 9.34384 10.6434 10.6968 10.645 12.1081ZM9.35503 12.1081C9.35483 11.3107 9.11819 10.5312 8.67502 9.86831C8.23186 9.20539 7.60208 8.68875 6.86531 8.38373C6.12854 8.07871 5.31787 7.99901 4.53581 8.15469C3.75374 8.31038 3.0354 8.69447 2.47162 9.2584C1.90783 9.82232 1.52392 10.5408 1.36843 11.3229C1.21293 12.105 1.29284 12.9156 1.59804 13.6523C1.90324 14.389 2.42003 15.0187 3.08307 15.4617C3.74611 15.9047 4.52561 16.1411 5.32303 16.1411C6.39215 16.1398 7.41708 15.7144 8.17297 14.9583C8.92886 14.2023 9.35397 13.1772 9.35503 12.1081ZM19.355 16.1401H18.911V5.4951C18.911 5.32403 18.8431 5.15998 18.7221 5.03902C18.6012 4.91806 18.4371 4.8501 18.266 4.8501C18.095 4.8501 17.9309 4.91806 17.8099 5.03902C17.689 5.15998 17.621 5.32403 17.621 5.4951V16.1411H14.355V8.0761C14.355 7.90503 14.2871 7.74098 14.1661 7.62001C14.0451 7.49905 13.8811 7.4311 13.71 7.4311C13.539 7.4311 13.3749 7.49905 13.2539 7.62001C13.133 7.74098 13.065 7.90503 13.065 8.0761V16.1411H10.323C10.152 16.1411 9.9879 16.2091 9.86694 16.33C9.74598 16.451 9.67803 16.615 9.67803 16.7861C9.67803 16.9572 9.74598 17.1212 9.86694 17.2422C9.9879 17.3631 10.152 17.4311 10.323 17.4311H19.355C19.5261 17.4311 19.6902 17.3631 19.8111 17.2422C19.9321 17.1212 20 16.9572 20 16.7861C20 16.615 19.9321 16.451 19.8111 16.33C19.6902 16.2091 19.5261 16.1401 19.355 16.1401Z" fill="#8186AF"/>
<path d="M4.93211 10.5861C5.15387 10.4299 5.4189 10.3471 5.6901 10.3491C5.93419 10.3425 6.17726 10.383 6.40611 10.4681C6.5145 10.5141 6.61557 10.5758 6.7061 10.6511C6.7921 10.7207 6.90218 10.7533 7.01221 10.7419C7.12223 10.7304 7.22325 10.6759 7.29311 10.5901C7.36083 10.5068 7.39375 10.4006 7.38499 10.2936C7.37624 10.1867 7.32647 10.0872 7.2461 10.0161C6.81408 9.64617 6.25958 9.45079 5.6911 9.4681C5.1853 9.46244 4.693 9.63125 4.2971 9.9461C3.89597 10.2605 3.60415 10.6933 3.4631 11.1831H3.04211C2.95273 11.1831 2.86701 11.2186 2.80381 11.2818C2.74061 11.345 2.7051 11.4307 2.7051 11.5201C2.7051 11.6094 2.74061 11.6952 2.80381 11.7584C2.86701 11.8216 2.95273 11.8571 3.04211 11.8571H3.3021C3.30414 12.0576 3.31683 12.2579 3.3401 12.4571H3.0221C2.93776 12.4571 2.85688 12.4906 2.79724 12.5502C2.7376 12.6099 2.7041 12.6907 2.7041 12.7751C2.7041 12.8594 2.7376 12.9403 2.79724 12.9999C2.85688 13.0596 2.93776 13.0931 3.0221 13.0931H3.50011C3.6456 13.5586 3.93827 13.9642 4.33411 14.2491C4.72777 14.5351 5.20251 14.6879 5.6891 14.6851C6.24661 14.7046 6.79059 14.5108 7.21011 14.1431C7.28961 14.0718 7.33862 13.9726 7.347 13.8661C7.35538 13.7596 7.32247 13.654 7.2551 13.5711C7.18465 13.4856 7.08315 13.4316 6.9729 13.4209C6.86265 13.4102 6.75267 13.4437 6.66711 13.5141C6.57663 13.5895 6.47554 13.6511 6.3671 13.6971C6.16168 13.8149 5.92657 13.8708 5.6901 13.8581C5.43743 13.8684 5.18763 13.8014 4.97409 13.6659C4.76055 13.5305 4.59344 13.3331 4.4951 13.1001H5.85011C5.93444 13.1001 6.01533 13.0666 6.07497 13.0069C6.1346 12.9473 6.16811 12.8664 6.16811 12.7821C6.16811 12.6978 6.1346 12.6168 6.07497 12.5572C6.01533 12.4976 5.93444 12.4641 5.85011 12.4641H4.2981C4.24927 12.268 4.23639 12.0647 4.2601 11.8641H5.8141C5.89844 11.8641 5.97933 11.8306 6.03896 11.771C6.0986 11.7113 6.1321 11.6304 6.1321 11.5461C6.1321 11.4617 6.0986 11.3809 6.03896 11.3212C5.97933 11.2616 5.89844 11.2281 5.8141 11.2281H4.4201C4.51862 10.9658 4.69836 10.7419 4.93311 10.5891L4.93211 10.5861Z" fill="#FA544D"/>
<path d="M9.9321 7.52411L12.2381 5.21811L13.2541 6.23412C13.3751 6.35503 13.5391 6.42295 13.7101 6.42295C13.8811 6.42295 14.0451 6.35503 14.1661 6.23412L17.6211 2.77911V3.07911C17.6211 3.25018 17.6891 3.41424 17.81 3.5352C17.931 3.65616 18.095 3.72411 18.2661 3.72411C18.4372 3.72411 18.6012 3.65616 18.7222 3.5352C18.8431 3.41424 18.9111 3.25018 18.9111 3.07911C18.9111 1.03211 18.9111 1.20511 18.9041 1.13311C18.8884 1.02224 18.844 0.91737 18.7755 0.828824C18.7069 0.740277 18.6165 0.671103 18.5131 0.628113C18.3531 0.562113 18.4031 0.579114 16.4131 0.579114C16.242 0.579114 16.078 0.647072 15.957 0.768033C15.8361 0.888994 15.7681 1.05305 15.7681 1.22411C15.7681 1.39518 15.8361 1.55924 15.957 1.6802C16.078 1.80116 16.242 1.86911 16.4131 1.86911H16.7131L13.7131 4.86911L12.6971 3.85312C12.5761 3.73221 12.4121 3.66428 12.2411 3.66428C12.0701 3.66428 11.9061 3.73221 11.7851 3.85312L9.0201 6.61111C8.90296 6.73283 8.83825 6.89564 8.83987 7.06455C8.84149 7.23347 8.90931 7.395 9.02876 7.51445C9.14821 7.6339 9.30974 7.70172 9.47866 7.70334C9.64757 7.70496 9.81038 7.64125 9.9321 7.52411Z" fill="#FA544D"/>
</svg>
