<svg width="20" height="22" viewBox="0 0 20 22" fill="none" xmlns="http://www.w3.org/2000/svg">
<path d="M14.4678 10.3119H11.4088C11.2913 10.3047 11.1757 10.3443 11.0873 10.4221C10.9989 10.4998 10.9448 10.6094 10.9368 10.7269V12.0749H8.34981C8.23229 12.0677 8.11671 12.1073 8.02829 12.1851C7.93987 12.2628 7.88578 12.3724 7.87781 12.4898V13.9179H5.2928C5.17528 13.9107 5.0597 13.9503 4.97128 14.0281C4.88286 14.1058 4.82877 14.2154 4.8208 14.3329V15.6809H2.85481C2.73729 15.6737 2.62172 15.7133 2.53329 15.7911C2.44487 15.8688 2.39078 15.9784 2.38281 16.0959V17.8589C2.39103 17.9762 2.44519 18.0856 2.53355 18.1633C2.62192 18.241 2.73735 18.2807 2.85481 18.2739H14.4688C14.5863 18.2807 14.7017 18.241 14.7901 18.1633C14.8784 18.0856 14.9326 17.9762 14.9408 17.8589V10.7279C14.9328 10.6104 14.8787 10.5008 14.7903 10.4231C14.7019 10.3453 14.5863 10.3057 14.4688 10.3129L14.4678 10.3119ZM13.9958 17.4429H3.32681V16.5099H5.2928C5.41032 16.517 5.5259 16.4774 5.61432 16.3996C5.70274 16.3219 5.75683 16.2123 5.7648 16.0949V14.7469H8.3508C8.46832 14.754 8.58391 14.7144 8.67233 14.6366C8.76075 14.5589 8.81483 14.4493 8.8228 14.3319V12.9039H11.4088C11.5263 12.9107 11.6417 12.871 11.7301 12.7933C11.8184 12.7156 11.8726 12.6062 11.8808 12.4888V11.1409H13.9928V17.4409L13.9958 17.4429Z" fill="#FA544D"/>
<path d="M1.68983 10.5939V12.3529C1.68904 12.4585 1.70914 12.5632 1.74899 12.6609C1.78884 12.7587 1.84764 12.8476 1.92201 12.9225C1.99637 12.9974 2.08484 13.0569 2.18229 13.0975C2.27974 13.138 2.38427 13.1589 2.48983 13.1589C2.59717 13.1593 2.70347 13.1381 2.80242 13.0965C2.90138 13.0549 2.99095 12.9938 3.06582 12.9169C3.21422 12.7668 3.29726 12.564 3.29682 12.3529V9.12492L9.97982 3.02493L18.3298 10.3119C18.4079 10.3834 18.4993 10.4389 18.5988 10.4751C18.6983 10.5113 18.8039 10.5275 18.9097 10.5229C19.0154 10.5182 19.1193 10.4928 19.2152 10.448C19.3112 10.4033 19.3973 10.34 19.4688 10.2619C19.5403 10.1838 19.5957 10.0924 19.6318 9.99283C19.6679 9.8933 19.684 9.78763 19.6793 9.68185C19.6746 9.57608 19.649 9.47228 19.6042 9.37637C19.5593 9.28047 19.496 9.19435 19.4178 9.12292L9.98382 0.846924L0.260827 9.71292C0.10396 9.85659 0.0103212 10.0565 0.000390338 10.269C-0.00954055 10.4815 0.0650346 10.6893 0.207818 10.8469C0.351486 11.0038 0.551411 11.0974 0.763894 11.1074C0.976378 11.1173 1.18415 11.0427 1.34182 10.8999L1.68983 10.5939Z" fill="#8186AF"/>
<path d="M16.6679 19.049C16.6679 19.2625 16.5831 19.4673 16.4322 19.6183C16.2812 19.7692 16.0764 19.854 15.8629 19.854H2.74495C2.53145 19.854 2.32669 19.9388 2.17572 20.0898C2.02475 20.2408 1.93994 20.4455 1.93994 20.659C1.93994 20.8725 2.02475 21.0773 2.17572 21.2283C2.32669 21.3792 2.53145 21.464 2.74495 21.464H15.8619C16.5024 21.464 17.1167 21.2096 17.5696 20.7567C18.0225 20.3038 18.2769 19.6895 18.2769 19.049V16.059C18.2756 15.8462 18.1901 15.6426 18.039 15.4927C17.888 15.3428 17.6838 15.2588 17.4709 15.259C17.3641 15.2591 17.2582 15.2804 17.1597 15.3218C17.0611 15.3632 16.9718 15.4238 16.8969 15.5C16.7485 15.6502 16.6655 15.8529 16.6659 16.064L16.6679 19.049Z" fill="#8186AF"/>
<path d="M6.51901 12.9639C6.42026 12.9645 6.32532 12.9258 6.25502 12.8565C6.18472 12.7871 6.14481 12.6927 6.14401 12.5939V10.6059L5.729 11.0209C5.65946 11.0903 5.56524 11.1293 5.46701 11.1293C5.36878 11.1293 5.27455 11.0903 5.205 11.0209C5.13563 10.9514 5.09668 10.8572 5.09668 10.7589C5.09668 10.6607 5.13563 10.5665 5.205 10.4969L6.259 9.44293C6.31084 9.39236 6.37648 9.35825 6.44766 9.34491C6.51884 9.33156 6.59238 9.33958 6.65901 9.36793C6.72703 9.39645 6.78513 9.44439 6.82603 9.50575C6.86694 9.56712 6.88884 9.63918 6.88901 9.71294V12.6049C6.88914 12.6536 6.87966 12.7017 6.86111 12.7467C6.84257 12.7916 6.81531 12.8325 6.78093 12.8669C6.74655 12.9012 6.7057 12.9285 6.66075 12.947C6.6158 12.9656 6.56764 12.9751 6.51901 12.9749V12.9639Z" fill="#FA544D"/>
<path d="M8.6326 10.932C8.54558 10.9312 8.46235 10.8963 8.40082 10.8347C8.33929 10.7732 8.30437 10.69 8.30359 10.603C8.32898 10.3536 8.41727 10.1149 8.56017 9.909C8.70306 9.70314 8.8959 9.53693 9.12059 9.42596C9.44559 9.19296 9.6436 9.03996 9.6436 8.81096C9.6436 8.69904 9.59913 8.5917 9.51999 8.51256C9.44085 8.43342 9.33351 8.38895 9.22159 8.38895C9.10967 8.38895 9.00234 8.43342 8.9232 8.51256C8.84406 8.5917 8.79959 8.69904 8.79959 8.81096C8.79881 8.89797 8.76389 8.9812 8.70236 9.04273C8.64083 9.10426 8.55761 9.13917 8.4706 9.13995C8.38358 9.13917 8.30035 9.10426 8.23882 9.04273C8.17728 8.9812 8.14238 8.89797 8.1416 8.81096C8.1416 8.52453 8.25538 8.24982 8.45792 8.04728C8.66046 7.84474 8.93515 7.73096 9.22159 7.73096C9.50701 7.732 9.7805 7.84558 9.9827 8.04703C10.1849 8.24848 10.2995 8.52154 10.3016 8.80695V8.81596C10.2737 9.05831 10.1859 9.28992 10.0463 9.48996C9.90664 9.69 9.71946 9.85219 9.50159 9.96196C9.35785 10.0553 9.22385 10.1628 9.10159 10.283H9.9666C10.0536 10.2837 10.1368 10.3186 10.1984 10.3802C10.2599 10.4417 10.2948 10.5249 10.2956 10.612C10.2948 10.699 10.2599 10.7822 10.1984 10.8437C10.1368 10.9053 10.0536 10.9402 9.9666 10.941L8.6326 10.932Z" fill="#FA544D"/>
<path d="M12.4099 9.29881C12.1198 9.29881 11.8415 9.18355 11.6363 8.97839C11.4312 8.77322 11.3159 8.49496 11.3159 8.20481C11.3159 8.12525 11.3475 8.04894 11.4038 7.99268C11.46 7.93642 11.5363 7.90482 11.6159 7.90482C11.6955 7.90482 11.7718 7.93642 11.828 7.99268C11.8843 8.04894 11.9159 8.12525 11.9159 8.20481C11.9158 8.2692 11.9284 8.33298 11.9529 8.39249C11.9775 8.452 12.0136 8.50606 12.0591 8.55159C12.1047 8.59712 12.1587 8.63321 12.2182 8.65778C12.2778 8.68236 12.3415 8.69495 12.4059 8.69482C12.4703 8.69495 12.5341 8.68236 12.5936 8.65778C12.6531 8.63321 12.7072 8.59712 12.7527 8.55159C12.7982 8.50606 12.8343 8.452 12.8589 8.39249C12.8835 8.33298 12.8961 8.2692 12.8959 8.20481C12.8961 8.14043 12.8835 8.07665 12.8589 8.01714C12.8343 7.95763 12.7982 7.90357 12.7527 7.85804C12.7072 7.81251 12.6531 7.77642 12.5936 7.75185C12.5341 7.72727 12.4703 7.71468 12.4059 7.71481C12.3457 7.71479 12.2869 7.69666 12.2372 7.66277C12.1874 7.62889 12.149 7.58082 12.1269 7.52481C12.1049 7.4691 12.1002 7.40809 12.1132 7.34963C12.1262 7.29118 12.1564 7.23796 12.1999 7.19682L12.4469 6.96181H11.6159C11.5363 6.96181 11.46 6.93021 11.4038 6.87395C11.3475 6.81769 11.3159 6.74138 11.3159 6.66181C11.3159 6.58225 11.3475 6.50595 11.4038 6.44968C11.46 6.39342 11.5363 6.36182 11.6159 6.36182H13.2039C13.2641 6.36184 13.3229 6.37996 13.3727 6.41385C13.4224 6.44773 13.4608 6.4958 13.4829 6.55181C13.5049 6.60753 13.5097 6.66854 13.4966 6.727C13.4836 6.78545 13.4534 6.83867 13.4099 6.87981L12.9889 7.27982C13.1466 7.37886 13.2766 7.51633 13.3667 7.67934C13.4568 7.84236 13.504 8.02557 13.5039 8.21181C13.5039 8.50196 13.3887 8.78022 13.1835 8.98539C12.9783 9.19055 12.7001 9.30582 12.4099 9.30582V9.29881Z" fill="#FA544D"/>
</svg>
