<svg width="20" height="22" viewBox="0 0 20 22" fill="none" xmlns="http://www.w3.org/2000/svg">
<path d="M2.67468 18.4086L6.97499 15.5089C7.67144 16.0735 8.50079 16.4503 9.3841 16.6037C10.2674 16.7571 11.1753 16.6819 12.0213 16.3852C12.8673 16.0884 13.6233 15.5802 14.2173 14.9087C14.8113 14.2372 15.2236 13.4248 15.4148 12.5489C15.4225 12.5097 15.4301 12.4704 15.4377 12.4311C15.6737 11.0766 15.369 9.68361 14.5891 8.55132C13.8091 7.41903 12.6162 6.63779 11.2666 6.37545C9.91694 6.11311 8.51823 6.39058 7.37094 7.14826C6.22364 7.90594 5.41929 9.08337 5.13065 10.4276C5.12302 10.4669 5.11539 10.5062 5.10776 10.5454C4.96807 11.3543 5.02094 12.1848 5.26207 12.9694L0.96275 15.8694C0.796005 15.9818 0.653046 16.126 0.542034 16.2937C0.431022 16.4615 0.354132 16.6494 0.315754 16.8469C0.277377 17.0443 0.278261 17.2474 0.31836 17.4444C0.358459 17.6415 0.436989 17.8288 0.549461 17.9955C0.661932 18.1623 0.806143 18.3053 0.973863 18.4163C1.14158 18.5273 1.32953 18.6042 1.52697 18.6425C1.7244 18.6809 1.92746 18.68 2.12456 18.6399C2.32165 18.5998 2.50892 18.5213 2.67567 18.4088L2.67468 18.4086ZM5.96992 10.6957C5.97622 10.6633 5.98271 10.6299 5.989 10.5975C6.21045 9.45828 6.8754 8.45365 7.83757 7.80466C8.79974 7.15567 9.98032 6.91547 11.1196 7.13692C12.2589 7.35837 13.2635 8.02333 13.9125 8.9855C14.5615 9.94767 14.8017 11.1282 14.5802 12.2675C14.5737 12.3009 14.5674 12.3333 14.5611 12.3657C14.3188 13.4841 13.648 14.4631 12.6925 15.0929C11.7369 15.7226 10.5727 15.953 9.44938 15.7346C8.32602 15.5163 7.33289 14.8666 6.68285 13.9247C6.03281 12.9829 5.77759 11.8239 5.97189 10.6961L5.96992 10.6957ZM1.27364 17.5088C1.22543 17.4374 1.19177 17.3571 1.17457 17.2727C1.15738 17.1882 1.15699 17.1012 1.17343 17.0166C1.18988 16.932 1.22283 16.8515 1.27041 16.7797C1.31798 16.7078 1.37925 16.646 1.45071 16.5978L5.59645 13.8015C5.79498 14.1932 6.0415 14.5587 6.33032 14.8895L2.18459 17.6859C2.11316 17.7341 2.03293 17.7677 1.94848 17.7849C1.86404 17.8021 1.77702 17.8025 1.69243 17.7861C1.60783 17.7696 1.52731 17.7367 1.45545 17.6891C1.38359 17.6415 1.32181 17.5802 1.27364 17.5088Z" fill="#FA544D"/>
<path d="M13.7202 12.0963C13.8522 11.4168 13.7799 10.7134 13.5122 10.075C13.2445 9.43661 12.7935 8.89195 12.2162 8.50988C11.639 8.12781 10.9614 7.92549 10.2692 7.92851C9.57696 7.93153 8.90118 8.13975 8.32729 8.52684C7.7534 8.91394 7.30719 9.46251 7.04508 10.1032C6.78297 10.7439 6.71671 11.4479 6.85472 12.1263C6.99273 12.8046 7.3288 13.4268 7.82042 13.9141C8.31203 14.4015 8.93711 14.7321 9.61663 14.8642C10.5278 15.0413 11.4721 14.8492 12.2416 14.3301C13.0112 13.811 13.543 13.0075 13.7202 12.0963ZM7.70573 10.9272C7.80483 10.4174 8.05289 9.94839 8.41854 9.57954C8.78419 9.21069 9.251 8.95855 9.75995 8.855C10.2689 8.75146 10.7971 8.80116 11.2778 8.99782C11.7585 9.19448 12.1701 9.52926 12.4605 9.95984C12.751 10.3904 12.9072 10.8975 12.9095 11.4168C12.9117 11.9362 12.7599 12.4446 12.4733 12.8777C12.1866 13.3108 11.778 13.6491 11.299 13.85C10.82 14.0508 10.2923 14.1051 9.78242 14.006C9.09915 13.8724 8.49678 13.4732 8.10746 12.896C7.71814 12.3188 7.57366 11.6108 7.70573 10.9272Z" fill="#FA544D"/>
<path d="M1.64114 9.455V12.767C1.64103 12.9222 1.68717 13.0739 1.77367 13.2028C1.86017 13.3317 1.9831 13.4319 2.12679 13.4906C2.27047 13.5493 2.42839 13.5638 2.58038 13.5324C2.73237 13.5009 2.87155 13.4249 2.98014 13.314C3.12359 13.1681 3.20402 12.9716 3.20414 12.767V8.029L9.68714 2.114L17.7871 9.183C17.8629 9.25234 17.9516 9.30607 18.0481 9.34114C18.1447 9.3762 18.2472 9.3919 18.3498 9.38735C18.4524 9.3828 18.5531 9.35809 18.6462 9.31462C18.7392 9.27115 18.8228 9.20977 18.8921 9.134C18.9615 9.05823 19.0152 8.96954 19.0503 8.873C19.0853 8.77646 19.101 8.67396 19.0965 8.57135C19.0919 8.46874 19.0672 8.36804 19.0238 8.27498C18.9803 8.18192 18.9189 8.09834 18.8431 8.029L9.68714 0L0.255143 8.6C0.103069 8.73944 0.0123476 8.93338 0.00279202 9.13948C-0.00676356 9.34558 0.065623 9.54709 0.204143 9.7C0.343579 9.85207 0.537525 9.9428 0.743625 9.95235C0.949726 9.96191 1.15124 9.88952 1.30414 9.751L1.64114 9.455Z" fill="#8186AF"/>
<path d="M16.17 17.6571C16.17 17.8642 16.0877 18.0629 15.9412 18.2094C15.7947 18.3558 15.5961 18.4381 15.389 18.4381H4.69395C4.63803 18.4384 4.58273 18.4498 4.53123 18.4716C4.47974 18.4934 4.43308 18.5252 4.39395 18.5651L3.68495 19.2871C3.62731 19.3456 3.58814 19.4198 3.57231 19.5004C3.55648 19.581 3.56468 19.6644 3.5959 19.7404C3.62712 19.8164 3.67998 19.8815 3.7479 19.9277C3.81583 19.9738 3.89583 19.999 3.97795 20.0001H15.389C16.0104 20.0001 16.6063 19.7533 17.0457 19.3139C17.4851 18.8745 17.732 18.2785 17.732 17.6571V14.7571C17.7319 14.6021 17.6856 14.4506 17.5992 14.322C17.5127 14.1933 17.39 14.0933 17.2465 14.0346C17.103 13.976 16.9453 13.9613 16.7935 13.9926C16.6417 14.0238 16.5026 14.0996 16.394 14.2101C16.2505 14.356 16.1701 14.5525 16.17 14.7571V17.6571Z" fill="#8186AF"/>
</svg>
