<svg width="20" height="17" viewBox="0 0 20 17" fill="none" xmlns="http://www.w3.org/2000/svg">
<path d="M3.38894 2.71094H7.45594C7.63576 2.71094 7.80821 2.78237 7.93536 2.90952C8.06251 3.03667 8.13393 3.20912 8.13393 3.38894C8.13393 3.56876 8.06251 3.74121 7.93536 3.86835C7.80821 3.9955 7.63576 4.06694 7.45594 4.06694H3.38894C3.20912 4.06694 3.03667 3.9955 2.90952 3.86835C2.78237 3.74121 2.71094 3.56876 2.71094 3.38894C2.71094 3.20912 2.78237 3.03667 2.90952 2.90952C3.03667 2.78237 3.20912 2.71094 3.38894 2.71094Z" fill="#8186AF"/>
<path d="M3.38894 5.4231H6.09994C6.27975 5.4231 6.4522 5.49452 6.57935 5.62167C6.7065 5.74882 6.77794 5.92127 6.77794 6.10109C6.77794 6.28091 6.7065 6.45337 6.57935 6.58052C6.4522 6.70767 6.27975 6.7791 6.09994 6.7791H3.38894C3.20912 6.7791 3.03667 6.70767 2.90952 6.58052C2.78237 6.45337 2.71094 6.28091 2.71094 6.10109C2.71094 5.92127 2.78237 5.74882 2.90952 5.62167C3.03667 5.49452 3.20912 5.4231 3.38894 5.4231Z" fill="#8186AF"/>
<path d="M11.523 14.912H5.762V11.354C5.762 11.1294 5.67276 10.9139 5.51392 10.7551C5.35508 10.5962 5.13964 10.507 4.915 10.507H1.356V1.356H11.523V2.034C11.523 2.21382 11.5944 2.38627 11.7216 2.51342C11.8487 2.64057 12.0212 2.712 12.201 2.712C12.3808 2.712 12.5533 2.64057 12.6804 2.51342C12.8076 2.38627 12.879 2.21382 12.879 2.034V0.847001C12.879 0.735687 12.8571 0.625465 12.8144 0.522637C12.7718 0.419809 12.7093 0.326392 12.6306 0.247727C12.5518 0.169063 12.4583 0.106694 12.3554 0.0641874C12.2526 0.0216805 12.1423 -0.000130831 12.031 5.90373e-07H0.847001C0.622362 5.90373e-07 0.406925 0.0892378 0.248081 0.248081C0.089238 0.406924 7.94856e-07 0.622362 7.94856e-07 0.847001V11.792C-0.000151823 11.9034 0.0216748 12.0137 0.0642307 12.1167C0.106786 12.2197 0.169235 12.3132 0.248001 12.392L3.877 16.02C3.95579 16.0988 4.04934 16.1612 4.1523 16.2038C4.25525 16.2463 4.3656 16.2682 4.477 16.268H12.032C12.2566 16.268 12.4721 16.1788 12.6309 16.0199C12.7898 15.8611 12.879 15.6456 12.879 15.421V14.234C12.879 14.145 12.8615 14.0568 12.8274 13.9745C12.7933 13.8923 12.7434 13.8175 12.6804 13.7546C12.6175 13.6916 12.5427 13.6417 12.4605 13.6076C12.3782 13.5735 12.29 13.556 12.201 13.556C12.0212 13.556 11.8487 13.6274 11.7216 13.7546C11.5944 13.8817 11.523 14.0542 11.523 14.234V14.912ZM4.406 14.631L1.637 11.862H4.406V14.631Z" fill="#8186AF"/>
<path d="M18.2509 16.217C18.0213 16.2176 17.7938 16.1726 17.5816 16.0847C17.3695 15.9969 17.1769 15.8678 17.0149 15.705L14.4999 13.19L14.7759 12.914L14.2119 12.35C13.194 12.9057 12.0099 13.076 10.8767 12.8294C9.74348 12.5829 8.73711 11.9361 8.04212 11.0077C7.34714 10.0793 7.01012 8.93143 7.09286 7.77466C7.1756 6.61789 7.67256 5.5297 8.49261 4.70965C9.31266 3.8896 10.4008 3.39264 11.5576 3.3099C12.7144 3.22716 13.8622 3.56418 14.7906 4.25916C15.7191 4.95415 16.3658 5.96052 16.6124 7.09374C16.8589 8.22696 16.6887 9.41108 16.1329 10.429L16.6969 10.993L16.9729 10.717L19.4869 13.232C19.7312 13.4766 19.8976 13.7881 19.9649 14.1272C20.0323 14.4662 19.9977 14.8177 19.8654 15.1371C19.7332 15.4565 19.5092 15.7295 19.2219 15.9217C18.9345 16.1139 18.5966 16.2167 18.2509 16.217ZM17.8319 14.888C17.9432 14.9992 18.0941 15.0617 18.2514 15.0617C18.4088 15.0617 18.5597 14.9992 18.6709 14.888C18.7822 14.7767 18.8447 14.6258 18.8447 14.4685C18.8447 14.3111 18.7822 14.1602 18.6709 14.049L16.9709 12.349L16.1319 13.188L17.8319 14.888ZM15.5939 12.098L15.8809 11.811L15.4509 11.381C15.3596 11.4803 15.2639 11.576 15.1639 11.668L15.5939 12.098ZM11.9059 4.45996C11.182 4.46036 10.4745 4.67536 9.87274 5.07779C9.27099 5.48022 8.80206 6.052 8.52522 6.72088C8.24837 7.38976 8.17604 8.1257 8.31736 8.83568C8.45869 9.54566 8.80733 10.1978 9.31921 10.7097C9.83109 11.2216 10.4832 11.5702 11.1932 11.7115C11.9032 11.8528 12.6391 11.7805 13.308 11.5037C13.9769 11.2268 14.5487 10.7579 14.9511 10.1562C15.3535 9.55441 15.5685 8.84687 15.5689 8.12296C15.5681 7.15145 15.1818 6.21996 14.4949 5.533C13.8079 4.84604 12.8764 4.45976 11.9049 4.45896L11.9059 4.45996Z" fill="#FA544D"/>
<path d="M7.29884 8.12209C7.29725 8.93514 7.51118 9.73407 7.91885 10.4375C8.32651 11.141 8.91334 11.7238 9.61956 12.1267C10.3258 12.5295 11.1262 12.738 11.9392 12.7309C12.7522 12.7238 13.5488 12.5013 14.2478 12.0861L15.0758 12.9141L14.7998 13.1901L17.1648 15.5551C17.4553 15.8317 17.8425 15.9839 18.2436 15.979C18.6447 15.9741 19.028 15.8126 19.3117 15.5289C19.5953 15.2453 19.7568 14.8619 19.7617 14.4608C19.7666 14.0597 19.6145 13.6726 19.3378 13.3821L16.9738 11.0161L16.6978 11.2921L15.8698 10.4641C16.2304 9.85415 16.4454 9.16925 16.4981 8.46267C16.5508 7.75609 16.4397 7.04687 16.1736 6.3902C15.9075 5.73353 15.4935 5.14711 14.9637 4.67656C14.434 4.20601 13.8028 3.86401 13.1194 3.67718C12.4359 3.49034 11.7186 3.46371 11.0231 3.59934C10.3277 3.73498 9.6729 4.02922 9.10973 4.4592C8.54657 4.88917 8.09019 5.44326 7.7761 6.07839C7.46202 6.71352 7.29869 7.41355 7.29884 8.12209ZM16.9738 12.0521L18.8208 13.8991C18.9719 14.05 19.0568 14.2547 19.0569 14.4682C19.057 14.6817 18.9722 14.8865 18.8213 15.0376C18.6704 15.1886 18.4657 15.2735 18.2522 15.2736C18.0387 15.2737 17.8339 15.189 17.6828 15.0381L15.8358 13.1911L16.9738 12.0521ZM15.5938 12.3971L14.8548 11.6581C15.0672 11.4806 15.2633 11.2845 15.4408 11.0721L16.1798 11.8111L15.5938 12.3971ZM11.9058 11.9971C11.1396 11.9971 10.3906 11.7699 9.75355 11.3442C9.11647 10.9185 8.61994 10.3135 8.32673 9.6056C8.03352 8.89772 7.95679 8.11879 8.10627 7.36731C8.25575 6.61583 8.62471 5.92555 9.1665 5.38376C9.70829 4.84197 10.3986 4.473 11.15 4.32352C11.9015 4.17404 12.6805 4.25077 13.3883 4.54398C14.0962 4.8372 14.7013 5.33373 15.1269 5.97081C15.5526 6.60788 15.7798 7.35689 15.7798 8.12309C15.7785 9.15031 15.3698 10.1351 14.6433 10.8613C13.9169 11.5876 12.933 11.996 11.9058 11.9971Z" fill="#FA544D"/>
<path d="M11.5921 8.7011H12.2921V7.9161H11.5921V8.7011ZM13.4381 8.3451L13.3031 8.2111V9.0511C13.3124 9.2287 13.2512 9.4028 13.1329 9.53556C13.0146 9.66832 12.8486 9.74901 12.6711 9.7601H11.1981C11.0206 9.74901 10.8546 9.66832 10.7363 9.53556C10.618 9.4028 10.5568 9.2287 10.5661 9.0511V8.2111L10.4351 8.3451L10.1211 7.9581L11.9361 6.1001L13.7531 7.9591L13.4381 8.3451ZM12.8381 7.7331L11.9381 6.8081L11.0381 7.7331V9.0511C11.0356 9.09773 11.0517 9.14344 11.0828 9.17828C11.1139 9.21312 11.1575 9.23426 11.2041 9.2371H12.6751C12.7217 9.23426 12.7653 9.21312 12.7964 9.17828C12.8275 9.14344 12.8436 9.09773 12.8411 9.0511L12.8381 7.7331Z" fill="#FA544D"/>
</svg>
