<svg width="18" height="20" viewBox="0 0 18 20" fill="none" xmlns="http://www.w3.org/2000/svg">
<path d="M12.7301 8.59399C12.7301 8.49143 12.7099 8.38987 12.6706 8.29511C12.6314 8.20036 12.5739 8.11426 12.5013 8.04174C12.4288 7.96922 12.3427 7.91169 12.248 7.87244C12.1532 7.8332 12.0517 7.81299 11.9491 7.81299H3.9021C3.79954 7.81299 3.69797 7.8332 3.60321 7.87244C3.50846 7.91169 3.42236 7.96922 3.34984 8.04174C3.27732 8.11426 3.21979 8.20036 3.18054 8.29511C3.14129 8.38987 3.12109 8.49143 3.12109 8.59399C3.12109 8.80113 3.20337 8.99977 3.34984 9.14624C3.4963 9.29271 3.69497 9.37499 3.9021 9.37499H11.9491C12.1562 9.37499 12.3549 9.29271 12.5013 9.14624C12.6478 8.99977 12.7301 8.80113 12.7301 8.59399Z" fill="#8186AF"/>
<path d="M3.9021 10.938C3.69497 10.938 3.4963 11.0203 3.34984 11.1667C3.20337 11.3132 3.12109 11.5119 3.12109 11.719C3.12109 11.8215 3.14129 11.9231 3.18054 12.0179C3.21979 12.1126 3.27732 12.1987 3.34984 12.2712C3.42236 12.3438 3.50846 12.4013 3.60321 12.4405C3.69797 12.4798 3.79954 12.5 3.9021 12.5H8.78909C8.89166 12.5 8.99321 12.4798 9.08797 12.4405C9.18272 12.4013 9.26882 12.3438 9.34134 12.2712C9.41386 12.1987 9.4714 12.1126 9.51065 12.0179C9.5499 11.9231 9.5701 11.8215 9.5701 11.719C9.5701 11.5119 9.4878 11.3132 9.34134 11.1667C9.19487 11.0203 8.99623 10.938 8.78909 10.938H3.9021Z" fill="#8186AF"/>
<path d="M5.73788 18.438H3.12489C2.71061 18.4375 2.31346 18.2726 2.02061 17.9796C1.72777 17.6865 1.56315 17.2893 1.56288 16.875V3.125C1.56341 2.71089 1.72815 2.3139 2.02097 2.02108C2.31378 1.72826 2.71079 1.56353 3.12489 1.563H12.7249C13.139 1.56353 13.536 1.72826 13.8288 2.02108C14.1216 2.3139 14.2864 2.71089 14.2869 3.125V7.925C14.2869 8.02757 14.3071 8.12912 14.3463 8.22388C14.3856 8.31863 14.4431 8.40473 14.5156 8.47725C14.5882 8.54977 14.6743 8.6073 14.769 8.64655C14.8638 8.6858 14.9653 8.706 15.0679 8.706C15.1704 8.706 15.272 8.6858 15.3668 8.64655C15.4615 8.6073 15.5476 8.54977 15.6201 8.47725C15.6927 8.40473 15.7502 8.31863 15.7894 8.22388C15.8287 8.12912 15.8489 8.02757 15.8489 7.925V3.125C15.8478 2.29756 15.5191 1.50422 14.9346 0.918571C14.35 0.332921 13.5573 0.00264375 12.7299 0H3.12988C2.30141 0.00105842 1.50716 0.330636 0.921341 0.916458C0.335519 1.50228 0.00594123 2.29652 0.00488281 3.125V16.875C0.00593738 17.7026 0.334829 18.4961 0.919571 19.0818C1.50431 19.6675 2.29728 19.9976 3.12489 20H5.73788C5.94502 20 6.14366 19.9177 6.29013 19.7712C6.4366 19.6248 6.51889 19.4261 6.51889 19.219C6.51889 19.0119 6.4366 18.8132 6.29013 18.6667C6.14366 18.5203 5.94502 18.438 5.73788 18.438Z" fill="#8186AF"/>
<path d="M17.2387 11.311C16.7989 10.8722 16.203 10.6257 15.5817 10.6257C14.9604 10.6257 14.3645 10.8722 13.9247 11.311L9.63569 15.591C9.54301 15.6814 9.47426 15.7934 9.43568 15.917L8.50169 18.992C8.4609 19.1259 8.45682 19.2682 8.4899 19.4042C8.52297 19.5402 8.59197 19.6648 8.68969 19.765C8.76245 19.8396 8.84938 19.8989 8.94537 19.9394C9.04137 19.9799 9.14449 20.0009 9.24869 20.001C9.31896 20.0011 9.38894 19.9917 9.45669 19.973L12.6097 19.099C12.7394 19.0631 12.8575 18.9942 12.9527 18.899L17.2327 14.627C17.6729 14.1879 17.9208 13.592 17.9219 12.9702C17.9231 12.3485 17.6773 11.7517 17.2387 11.311ZM11.9997 17.647L10.4137 18.086L10.8777 16.558L13.7717 13.67L14.8717 14.775L11.9997 17.647ZM16.1337 13.521L15.9827 13.672L14.8827 12.572L15.0337 12.421C15.1801 12.2761 15.3777 12.1949 15.5837 12.1949C15.7896 12.1949 15.9873 12.2761 16.1337 12.421C16.2784 12.5672 16.3596 12.7646 16.3598 12.9703C16.36 13.176 16.2791 13.3735 16.1347 13.52L16.1337 13.521Z" fill="#FA544D"/>
<path d="M11.9491 4.68701H3.9021C3.69497 4.68701 3.4963 4.7693 3.34984 4.91576C3.20337 5.06223 3.12109 5.26088 3.12109 5.46801C3.12109 5.67514 3.20337 5.8738 3.34984 6.02026C3.4963 6.16673 3.69497 6.24901 3.9021 6.24901H11.9491C12.1562 6.24901 12.3549 6.16673 12.5013 6.02026C12.6478 5.8738 12.7301 5.67514 12.7301 5.46801C12.7301 5.26088 12.6478 5.06223 12.5013 4.91576C12.3549 4.7693 12.1562 4.68701 11.9491 4.68701Z" fill="#8186AF"/>
</svg>
