<svg width="20" height="20" viewBox="0 0 20 20" fill="none" xmlns="http://www.w3.org/2000/svg">
<path d="M18.242 4.76514C17.7759 4.76567 17.3291 4.95105 16.9995 5.28062C16.6699 5.6102 16.4845 6.05705 16.484 6.52314V10.1531C16.2696 9.96595 16.0176 9.82684 15.7449 9.74516C15.4722 9.66348 15.1853 9.64112 14.9032 9.67958C14.6212 9.71804 14.3507 9.81644 14.1099 9.96815C13.869 10.1199 13.6635 10.3214 13.507 10.5591L11.299 13.9161C10.8594 14.5838 10.6251 15.3657 10.625 16.1651V19.4091C10.625 19.5646 10.6867 19.7136 10.7966 19.8235C10.9065 19.9334 11.0556 19.9951 11.211 19.9951H17.461C17.6164 19.9951 17.7655 19.9334 17.8754 19.8235C17.9853 19.7136 18.047 19.5646 18.047 19.4091V17.1821L19.955 12.6031C19.9847 12.5318 20 12.4554 20 12.3781V6.51913C19.9984 6.05374 19.8126 5.60792 19.4831 5.27921C19.1536 4.9505 18.7074 4.76566 18.242 4.76514ZM18.828 12.2651L16.92 16.8441C16.8903 16.9154 16.875 16.9919 16.875 17.0691V18.8271H11.797V16.1651C11.7965 15.5928 11.9641 15.033 12.279 14.5551L14.487 11.1981C14.5436 11.1062 14.6178 11.0263 14.7052 10.9631C14.7927 10.8998 14.8918 10.8544 14.9968 10.8294C15.1018 10.8044 15.2107 10.8004 15.3173 10.8175C15.4239 10.8346 15.5261 10.8725 15.618 10.9291C15.7099 10.9857 15.7898 11.0599 15.8531 11.1474C15.9163 11.2348 15.9617 11.3339 15.9867 11.4389C16.0117 11.5439 16.0158 11.6529 15.9987 11.7594C15.9815 11.866 15.9436 11.9682 15.887 12.0601L13.833 15.5991C13.7811 15.6882 13.7536 15.7893 13.7533 15.8923C13.753 15.9954 13.7799 16.0966 13.8312 16.186C13.8825 16.2753 13.9565 16.3496 14.0456 16.4012C14.1348 16.4529 14.236 16.4801 14.339 16.4801H14.35C14.453 16.4802 14.5541 16.4532 14.6433 16.4017C14.7325 16.3503 14.8065 16.2763 14.858 16.1871L17.58 11.5021C17.6331 11.4111 17.6608 11.3075 17.66 11.2021V6.51414C17.66 6.35872 17.7217 6.20967 17.8316 6.09977C17.9415 5.98987 18.0906 5.92814 18.246 5.92814C18.4014 5.92814 18.5505 5.98987 18.6604 6.09977C18.7703 6.20967 18.832 6.35872 18.832 6.51414V12.2651H18.828Z" fill="#8186AF"/>
<path d="M6.49202 10.5582C6.33555 10.3204 6.12999 10.1189 5.88916 9.96717C5.64833 9.81546 5.37781 9.71707 5.09579 9.6786C4.81377 9.64014 4.52678 9.6625 4.25412 9.74419C3.98146 9.82587 3.72945 9.96498 3.51502 10.1522V6.52216C3.51502 6.05591 3.32981 5.60876 3.00012 5.27907C2.67043 4.94938 2.22327 4.76416 1.75702 4.76416C1.29077 4.76416 0.843619 4.94938 0.51393 5.27907C0.184241 5.60876 -0.000976562 6.05591 -0.000976562 6.52216V12.3812C-0.000950204 12.4584 0.0143429 12.5349 0.0440234 12.6062L1.95202 17.1852V19.4122C1.95202 19.5676 2.01376 19.7166 2.12366 19.8265C2.23356 19.9364 2.38261 19.9982 2.53802 19.9982H8.78802C8.94344 19.9982 9.09249 19.9364 9.20239 19.8265C9.31229 19.7166 9.37402 19.5676 9.37402 19.4122V16.1652C9.37411 15.3654 9.13979 14.5831 8.70002 13.9152L6.49202 10.5582ZM8.20002 18.8282H3.12502V17.0652C3.125 16.9879 3.1097 16.9115 3.08002 16.8402L1.17202 12.2652V6.52316C1.17202 6.36775 1.23376 6.21869 1.34366 6.1088C1.45356 5.9989 1.60261 5.93716 1.75802 5.93716C1.91344 5.93716 2.06249 5.9989 2.17239 6.1088C2.28228 6.21869 2.34402 6.36775 2.34402 6.52316V11.2112C2.34323 11.3165 2.37087 11.4202 2.42402 11.5112L5.14602 16.1962C5.1975 16.2853 5.27155 16.3593 5.36073 16.4108C5.44991 16.4622 5.55107 16.4892 5.65402 16.4892H5.65902C5.76431 16.4893 5.86777 16.4617 5.95902 16.4092C6.09289 16.3309 6.19027 16.2027 6.22982 16.0528C6.26937 15.9028 6.24787 15.7433 6.17002 15.6092L4.11602 12.0652C4.00172 11.8795 3.96584 11.6561 4.01629 11.4439C4.06673 11.2318 4.19937 11.0485 4.38502 10.9342C4.47695 10.8776 4.57912 10.8396 4.68571 10.8225C4.7923 10.8054 4.90121 10.8094 5.00624 10.8344C5.21834 10.8849 5.40171 11.0175 5.51602 11.2032L7.72402 14.5602C8.03589 15.0373 8.20135 15.5952 8.20002 16.1652V18.8282Z" fill="#8186AF"/>
<path d="M6.06911 4.48106L6.19112 4.38106V8.40106C6.19112 8.55648 6.25285 8.70553 6.36275 8.81543C6.47264 8.92532 6.6217 8.98706 6.77711 8.98706H13.2221C13.3775 8.98706 13.5266 8.92532 13.6365 8.81543C13.7464 8.70553 13.8081 8.55648 13.8081 8.40106V4.38306L13.9301 4.48306C14.0518 4.57652 14.2052 4.61853 14.3575 4.60009C14.5098 4.58164 14.6488 4.50421 14.7447 4.38441C14.8405 4.26461 14.8855 4.11201 14.8701 3.95938C14.8547 3.80674 14.78 3.66625 14.6621 3.56806L10.3621 0.130063C10.2582 0.0469742 10.1291 0.00170898 9.99611 0.00170898C9.86308 0.00170898 9.73401 0.0469742 9.63011 0.130063L5.33011 3.56806C5.21223 3.66625 5.13755 3.80674 5.12212 3.95938C5.10668 4.11201 5.15172 4.26461 5.24756 4.38441C5.3434 4.50421 5.48239 4.58164 5.63469 4.60009C5.78699 4.61853 5.94045 4.57652 6.06212 4.48306L6.06911 4.48106ZM10.5861 7.81306H9.41711V6.25006H10.5891L10.5861 7.81306ZM10.0001 1.33706L12.6371 3.44606V7.81206H11.7581V5.66406C11.7581 5.58711 11.743 5.51091 11.7135 5.43981C11.6841 5.36871 11.6409 5.30411 11.5865 5.2497C11.5321 5.19528 11.4675 5.15212 11.3964 5.12267C11.3253 5.09322 11.2491 5.07806 11.1721 5.07806H8.82811C8.67269 5.07806 8.52364 5.1398 8.41374 5.2497C8.30385 5.35959 8.24211 5.50865 8.24211 5.66406V7.81206H7.36311V3.44506L10.0001 1.33706Z" fill="#FA544D"/>
<path d="M10.0001 3.90613C10.3237 3.90613 10.5861 3.64377 10.5861 3.32013C10.5861 2.99649 10.3237 2.73413 10.0001 2.73413C9.67642 2.73413 9.41406 2.99649 9.41406 3.32013C9.41406 3.64377 9.67642 3.90613 10.0001 3.90613Z" fill="#FA544D"/>
</svg>
