<svg width="26" height="23" viewBox="0 0 26 23" fill="none" xmlns="http://www.w3.org/2000/svg">
<path d="M16.6339 17.7751L15.2339 18.7831C15.1326 18.8558 15.057 18.9588 15.0182 19.0773C14.9794 19.1958 14.9793 19.3236 15.0179 19.4421L15.5809 21.0731C15.6036 21.1411 15.6138 21.2125 15.6109 21.2841C15.6008 21.392 15.5625 21.4954 15.4998 21.5838C15.4371 21.6723 15.3523 21.7426 15.2538 21.7879C15.1553 21.8332 15.0467 21.8518 14.9388 21.8418C14.8308 21.8319 14.7274 21.7937 14.6389 21.7311L13.2389 20.7221C13.1369 20.6489 13.0145 20.6095 12.8889 20.6095C12.7633 20.6095 12.6409 20.6489 12.5389 20.7221L11.1389 21.7311C11.0504 21.7937 10.947 21.8319 10.8391 21.8418C10.7311 21.8518 10.6225 21.8332 10.524 21.7879C10.4255 21.7426 10.3407 21.6723 10.278 21.5838C10.2153 21.4954 10.177 21.392 10.1669 21.2841C10.1642 21.2126 10.1744 21.1411 10.1969 21.0731L10.7589 19.4421C10.7976 19.3236 10.7975 19.1958 10.7586 19.0773C10.7198 18.9588 10.6442 18.8558 10.5429 18.7831L9.14291 17.7751C9.04109 17.6964 8.9657 17.5886 8.92684 17.4659C8.88798 17.3432 8.88748 17.2116 8.92542 17.0887C8.96336 16.9657 9.03793 16.8573 9.13916 16.7778C9.24039 16.6984 9.36346 16.6518 9.49191 16.6441H11.2199C11.3385 16.6575 11.4582 16.6311 11.5602 16.5692C11.6622 16.5074 11.7409 16.4134 11.7839 16.3021L12.3179 14.6601C12.3574 14.5416 12.4331 14.4385 12.5345 14.3655C12.6358 14.2925 12.7575 14.2532 12.8824 14.2532C13.0073 14.2532 13.129 14.2925 13.2304 14.3655C13.3317 14.4385 13.4074 14.5416 13.4469 14.6601L13.9809 16.3021C14.0239 16.4134 14.1026 16.5074 14.2046 16.5692C14.3067 16.6311 14.4263 16.6575 14.5449 16.6441H16.2849C16.4134 16.6518 16.5364 16.6984 16.6377 16.7778C16.7389 16.8573 16.8135 16.9657 16.8514 17.0887C16.8893 17.2116 16.8888 17.3432 16.85 17.4659C16.8111 17.5886 16.7357 17.6964 16.6339 17.7751ZM24.6499 15.4311L23.2499 16.4391C23.1486 16.5118 23.073 16.6148 23.0342 16.7333C22.9954 16.8518 22.9953 16.9796 23.0339 17.0981L23.5969 18.7291C23.6196 18.7971 23.6298 18.8686 23.6269 18.9401C23.6168 19.048 23.5785 19.1514 23.5158 19.2398C23.4531 19.3283 23.3683 19.3987 23.2698 19.4439C23.1713 19.4892 23.0627 19.5078 22.9548 19.4978C22.8468 19.4879 22.7434 19.4497 22.6549 19.3871L21.2549 18.3781C21.1529 18.3049 21.0305 18.2655 20.9049 18.2655C20.7793 18.2655 20.6569 18.3049 20.5549 18.3781L19.1549 19.3871C19.0664 19.4497 18.963 19.4879 18.8551 19.4978C18.7471 19.5078 18.6385 19.4892 18.54 19.4439C18.4415 19.3987 18.3567 19.3283 18.294 19.2398C18.2313 19.1514 18.193 19.048 18.1829 18.9401C18.1802 18.8686 18.1904 18.7971 18.2129 18.7291L18.7749 17.0981C18.8136 16.9796 18.8135 16.8518 18.7746 16.7333C18.7358 16.6148 18.6602 16.5118 18.5589 16.4391L17.1589 15.4311C17.0571 15.3524 16.9817 15.2446 16.9428 15.1219C16.904 14.9992 16.9035 14.8676 16.9414 14.7447C16.9794 14.6217 17.0539 14.5133 17.1552 14.4338C17.2564 14.3544 17.3795 14.3078 17.5079 14.3001H19.2359C19.3545 14.3135 19.4742 14.2871 19.5762 14.2253C19.6782 14.1634 19.7569 14.0694 19.7999 13.9581L20.3339 12.3161C20.3734 12.1976 20.4491 12.0946 20.5505 12.0215C20.6518 11.9485 20.7735 11.9092 20.8984 11.9092C21.0233 11.9092 21.145 11.9485 21.2464 12.0215C21.3477 12.0946 21.4234 12.1976 21.4629 12.3161L21.9969 13.9581C22.0399 14.0694 22.1186 14.1634 22.2206 14.2253C22.3227 14.2871 22.4423 14.3135 22.5609 14.3001H24.2889C24.4185 14.3054 24.5434 14.3505 24.6465 14.4292C24.7496 14.5079 24.826 14.6164 24.8653 14.7401C24.9046 14.8637 24.905 14.9964 24.8662 15.1202C24.8275 15.244 24.7516 15.3529 24.6489 15.4321L24.6499 15.4311ZM8.61891 15.4311L7.21891 16.4391C7.11758 16.5118 7.04203 16.6148 7.00319 16.7333C6.96435 16.8518 6.96425 16.9796 7.00291 17.0981L7.56591 18.7291C7.58861 18.7971 7.59878 18.8686 7.59591 18.9401C7.5858 19.048 7.54748 19.1514 7.4848 19.2398C7.42212 19.3283 7.33729 19.3987 7.23882 19.4439C7.14034 19.4892 7.03169 19.5078 6.92376 19.4978C6.81583 19.4879 6.71242 19.4497 6.62391 19.3871L5.22391 18.3781C5.12191 18.3049 4.99949 18.2655 4.87391 18.2655C4.74833 18.2655 4.62591 18.3049 4.52391 18.3781L3.12391 19.3871C3.0354 19.4497 2.93199 19.4879 2.82406 19.4978C2.71613 19.5078 2.60748 19.4892 2.50901 19.4439C2.41053 19.3987 2.3257 19.3283 2.26302 19.2398C2.20034 19.1514 2.16202 19.048 2.15191 18.9401C2.14924 18.8686 2.1594 18.7971 2.18191 18.7291L2.74391 17.0981C2.78257 16.9796 2.78247 16.8518 2.74363 16.7333C2.7048 16.6148 2.62924 16.5118 2.52791 16.4391L1.12791 15.4311C1.02609 15.3524 0.950704 15.2446 0.91184 15.1219C0.872975 14.9992 0.872481 14.8676 0.910422 14.7447C0.948364 14.6217 1.02293 14.5133 1.12416 14.4338C1.22539 14.3544 1.34846 14.3078 1.47691 14.3001H3.21691C3.3355 14.3135 3.45516 14.2871 3.55719 14.2253C3.65923 14.1634 3.7379 14.0694 3.78091 13.9581L4.31491 12.3161C4.35439 12.1976 4.43015 12.0946 4.53147 12.0215C4.63278 11.9485 4.75451 11.9092 4.87941 11.9092C5.00431 11.9092 5.12604 11.9485 5.22736 12.0215C5.32867 12.0946 5.40443 12.1976 5.44391 12.3161L5.97791 13.9581C6.02092 14.0694 6.09959 14.1634 6.20163 14.2253C6.30366 14.2871 6.42332 14.3135 6.54191 14.3001H8.26891C8.39761 14.3075 8.52097 14.3541 8.62245 14.4336C8.72393 14.5131 8.79867 14.6217 8.83665 14.7449C8.87463 14.8681 8.87403 14.9999 8.83493 15.1228C8.79583 15.2456 8.72011 15.3536 8.61791 15.4321L8.61891 15.4311Z" stroke="#8186AF" stroke-width="1.2" stroke-miterlimit="10"/>
<path d="M16.4368 9.34097L16.4298 9.35199C16.4045 9.39599 16.3781 9.43899 16.3508 9.48099C16.0916 9.87883 15.7372 10.2056 15.3196 10.4316C14.902 10.6576 14.4346 10.7756 13.9598 10.775H11.2888C11.0763 10.7751 10.8656 10.7355 10.6678 10.658C10.4777 10.5839 10.303 10.475 10.1528 10.337L10.1418 10.326C9.96806 10.1641 9.82964 9.96812 9.73517 9.75027C9.64071 9.53243 9.59223 9.29741 9.59278 9.05997V6.81396C10.1897 6.98733 10.8082 7.07523 11.4298 7.07498C11.4998 7.07498 11.7908 7.08499 11.8918 7.08899C11.8918 7.10699 11.8918 7.12498 11.8918 7.14398C11.8923 7.5539 12.0545 7.94706 12.3433 8.23804C12.632 8.52901 13.0239 8.69428 13.4338 8.69797H13.4478C13.4962 8.6989 13.5447 8.69658 13.5928 8.69098C13.6428 8.68398 13.6658 8.68297 13.7018 8.67697C14.6634 8.56566 15.6332 8.80111 16.4368 9.34097Z" stroke="#FA544D" stroke-width="0.6"/>
<path d="M11.67 8.79594C11.4263 8.27741 11.3088 7.70858 11.327 7.13594C11.327 7.17194 11.258 7.13594 11.255 7.07094C10.6934 7.01857 10.1355 6.93309 9.58399 6.81494V9.06494C9.58338 9.30239 9.63182 9.53741 9.72629 9.75526C9.82076 9.97312 9.95922 10.1691 10.133 10.3309L10.144 10.3419C10.4545 10.6258 10.8603 10.7825 11.281 10.7809H13.952C14.4267 10.7817 14.8941 10.6638 15.3116 10.438C15.7292 10.2122 16.0837 9.8856 16.343 9.48795C16.3703 9.44595 16.3967 9.40295 16.422 9.35895V9.35394C16.395 9.34494 12.872 10.7029 11.67 8.79594Z" stroke="#FA544D" stroke-width="0.6"/>
<path d="M11.8858 7.08701C11.7858 7.08701 11.4938 7.073 11.4238 7.073C11.5088 7.073 11.6788 7.073 11.6798 7.073C11.7488 7.079 11.8178 7.08201 11.8858 7.08701Z" fill="url(#paint0_linear_0_13232)"/>
<path d="M16.4371 9.33508L16.3672 9.2561C16.3935 9.27968 16.4169 9.30616 16.4371 9.33508Z" fill="url(#paint1_linear_0_13232)"/>
<path d="M11.9109 3.09605C11.5182 3.09655 11.1263 3.13202 10.7399 3.20205C10.6512 3.21805 10.5636 3.23572 10.4769 3.25505C10.1829 3.30861 9.88551 3.34202 9.58691 3.35505V1.80005C9.81099 2.00529 10.0948 2.13353 10.3969 2.16605H10.4379C10.4799 2.16605 10.5909 2.17405 10.6379 2.17505H10.6889C10.9546 2.21056 11.2066 2.31398 11.4207 2.47531C11.6347 2.63664 11.8036 2.85043 11.9109 3.09605Z" stroke="#FA544D" stroke-width="0.6"/>
<path d="M11.0649 3.12605C10.8051 3.14081 10.5469 3.17659 10.2929 3.23305C10.2403 3.24238 10.1883 3.25305 10.1369 3.26505C9.96246 3.29669 9.78605 3.31641 9.60892 3.32405L9.58691 1.80005C9.75508 2.17689 10.0306 2.49584 10.3789 2.71705C10.5489 2.80705 10.9199 2.88105 11.0649 3.10205C11.0929 3.14405 11.0439 3.07905 11.0649 3.12605Z" stroke="#FA544D" stroke-width="0.6"/>
<path d="M16.952 7.35412C16.9404 8.04615 16.7635 8.72539 16.436 9.33512C16.2783 8.88197 16.0742 8.44633 15.827 8.03512C15.4119 7.41242 14.8943 6.86464 14.296 6.41512C13.5881 5.88368 12.7798 5.50131 11.92 5.29112L11.765 5.25512C11.5529 5.2087 11.3386 5.17299 11.123 5.14812C11.03 5.13712 10.937 5.13412 10.843 5.12712C10.805 5.12712 10.765 5.12212 10.727 5.12212C10.5623 5.12212 10.399 5.11612 10.237 5.10412C10.037 5.08945 9.83865 5.06578 9.64198 5.03312L9.58598 5.02312H9.57398C8.98889 4.91982 8.42065 4.73713 7.88498 4.48012C6.65797 3.88955 5.64338 2.93433 4.97998 1.74512C6.09363 2.71719 7.50338 3.28391 8.97998 3.35312C9.08598 3.35845 9.19231 3.36112 9.29898 3.36112C9.39565 3.36112 9.49231 3.35912 9.58898 3.35512C9.88758 3.34209 10.1849 3.30868 10.479 3.25512C10.567 3.23912 10.655 3.22112 10.742 3.20212C11.1281 3.13214 11.5196 3.09667 11.912 3.09612H11.92C12.9033 3.09487 13.8743 3.31498 14.761 3.74012L14.752 3.74712C15.3312 4.04633 15.8302 4.48013 16.207 5.01212L16.212 5.02012C16.6942 5.70281 16.9528 6.51829 16.952 7.35412Z" stroke="#FA544D" stroke-width="0.6"/>
<path d="M16.4369 9.335L16.3669 9.256L16.3359 9.221C16.2732 9.14074 16.2029 9.06672 16.1259 9L16.0699 8.945L16.0319 8.907C15.9426 8.82167 15.8509 8.73867 15.7569 8.658L15.6999 8.61C15.6046 8.53 15.5073 8.453 15.4079 8.379C14.395 7.62204 13.1847 7.17437 11.9229 7.09H11.8879C11.7879 7.09 11.4959 7.076 11.4259 7.076C10.8044 7.07661 10.1859 6.98908 9.58894 6.816C9.35943 6.74947 9.13375 6.67035 8.91294 6.579C8.40326 6.36816 7.92214 6.09401 7.48094 5.763C7.30498 5.63091 7.13577 5.49007 6.97394 5.341C5.93149 4.38518 5.22548 3.11836 4.96094 1.729L4.97994 1.745C5.64376 2.934 6.6587 3.88887 7.88594 4.479C8.4216 4.73602 8.98985 4.91871 9.57494 5.022H9.58694L9.64294 5.032C9.83827 5.06467 10.0366 5.08834 10.2379 5.103C10.3999 5.115 10.5633 5.121 10.7279 5.121H10.7549C10.7769 5.121 10.8079 5.121 10.8439 5.121L10.9609 5.129H11.0299H11.0839H11.0959H11.1269C11.3426 5.15387 11.5569 5.18958 11.7689 5.236L11.9239 5.272L12.0059 5.292C12.3469 5.38032 12.6811 5.49294 13.0059 5.629C13.489 5.82746 13.9458 6.08473 14.3659 6.395C14.5875 6.56163 14.7951 6.7459 14.9869 6.946C15.2985 7.2764 15.5796 7.63418 15.8269 8.015C16.0755 8.43267 16.2799 8.87505 16.4369 9.335Z" stroke="#FA544D" stroke-width="0.6"/>
<path d="M19.1559 4.00907C18.3178 4.66609 17.772 5.62673 17.6368 6.68307C17.6288 6.74307 17.6229 6.80407 17.6179 6.86507C17.5878 7.38807 17.4564 7.90022 17.2309 8.37307C17.4666 7.52643 17.4308 6.62718 17.1285 5.80196C16.8262 4.97674 16.2727 4.26713 15.5459 3.77307C16.0291 3.48029 16.5402 3.23642 17.0718 3.04507C17.1518 3.01707 17.2332 2.99074 17.3159 2.96607C17.4325 2.93839 17.552 2.92429 17.6719 2.92407C18.0024 2.92402 18.3243 3.02912 18.5911 3.22418C18.8579 3.41924 19.0557 3.69413 19.1559 4.00907Z" stroke="#FA544D" stroke-width="0.6"/>
<path d="M20.3699 4.14803C19.9314 4.3255 19.5273 4.5783 19.1759 4.89503C19.0544 5.00475 18.9395 5.12163 18.8319 5.24503C18.463 5.6682 18.1858 6.16329 18.0179 6.69903C17.9665 6.86288 17.9257 7.0299 17.8959 7.19903L17.8649 7.30403C17.8539 7.33903 17.8429 7.37303 17.8309 7.40403L17.8149 7.45303C17.7682 7.59303 17.7169 7.73069 17.6609 7.86603C17.3304 8.47165 16.9134 9.02582 16.4229 9.51103C16.3079 9.65003 16.1229 9.77703 15.9409 9.97203C16.426 9.60357 16.8267 9.13562 17.1161 8.59957C17.4056 8.06352 17.577 7.47177 17.6189 6.86403C17.6269 6.80403 17.6329 6.74303 17.6379 6.68203C17.7732 5.62572 18.3189 4.66512 19.1569 4.00802C19.3436 3.88605 19.5671 3.83327 19.7887 3.85884C20.0103 3.88441 20.2159 3.98673 20.3699 4.14803Z" stroke="#FA544D" stroke-width="0.6"/>
<defs>
<linearGradient id="paint0_linear_0_13232" x1="11.8261" y1="7.26497" x2="11.8259" y2="6.91584" gradientUnits="userSpaceOnUse">
<stop stop-color="white"/>
<stop offset="1"/>
</linearGradient>
<linearGradient id="paint1_linear_0_13232" x1="16.4541" y1="9.36036" x2="16.3435" y2="9.25094" gradientUnits="userSpaceOnUse">
<stop stop-color="white"/>
<stop offset="1"/>
</linearGradient>
</defs>
</svg>
