<svg width="20" height="20" viewBox="0 0 20 20" fill="none" xmlns="http://www.w3.org/2000/svg">
<path d="M1.172 0V2.344H0V19.969L17.069 20H17.655V19.94C18.3164 19.8042 18.9107 19.4445 19.3377 18.9215C19.7647 18.3985 19.9983 17.7442 19.999 17.069V0H1.172ZM16.482 18.826L1.172 18.8V3.515H16.482V18.826ZM18.826 17.069C18.8256 17.4324 18.7127 17.7868 18.5029 18.0835C18.2931 18.3801 17.9965 18.6046 17.654 18.726V2.344H2.344V1.172H18.827V17.072L18.826 17.069Z" fill="#8186AF"/>
<path d="M14.9988 4.76489H2.56885V5.93689H14.9988V4.76489Z" fill="#FA544D"/>
<path d="M14.9988 14.179H9.56982V15.351H14.9988V14.179Z" fill="#FA544D"/>
<path d="M14.9988 16.5229H9.56982V17.6949H14.9988V16.5229Z" fill="#FA544D"/>
<path d="M7.99785 14.179H2.56885V15.351H7.99785V14.179Z" fill="#FA544D"/>
<path d="M7.99785 16.5229H2.56885V17.6949H7.99785V16.5229Z" fill="#FA544D"/>
<path d="M10.437 11.835L12.97 9.30203V10.155H14.142V7.30103H11.327V8.47302H12.141L10.116 10.498L7.22097 7.60303L3.82098 11.003V7.10303H2.64697V13.003H14.999V11.831L10.437 11.835ZM4.64697 11.835L7.22097 9.26103L9.79498 11.835H4.64697Z" fill="#FA544D"/>
</svg>
