<svg width="20" height="20" viewBox="0 0 20 20" fill="none" xmlns="http://www.w3.org/2000/svg">
<path d="M3.67194 5.62494H4.45293V6.40594C4.45293 6.56135 4.51468 6.71041 4.62457 6.8203C4.73447 6.9302 4.88352 6.99194 5.03894 6.99194C5.19436 6.99194 5.3434 6.9302 5.4533 6.8203C5.5632 6.71041 5.62494 6.56135 5.62494 6.40594V5.62494H6.40594C6.56135 5.62494 6.71041 5.5632 6.8203 5.4533C6.9302 5.3434 6.99194 5.19436 6.99194 5.03894C6.99194 4.88352 6.9302 4.73447 6.8203 4.62457C6.71041 4.51468 6.56135 4.45293 6.40594 4.45293H5.62494V3.67194C5.62494 3.51652 5.5632 3.36747 5.4533 3.25758C5.3434 3.14768 5.19436 3.08594 5.03894 3.08594C4.88352 3.08594 4.73447 3.14768 4.62457 3.25758C4.51468 3.36747 4.45293 3.51652 4.45293 3.67194V4.45293H3.67194C3.51652 4.45293 3.36747 4.51468 3.25758 4.62457C3.14768 4.73447 3.08594 4.88352 3.08594 5.03894C3.08594 5.19436 3.14768 5.3434 3.25758 5.4533C3.36747 5.5632 3.51652 5.62494 3.67194 5.62494Z" fill="#FA544D"/>
<path d="M12.773 5.62488H15.117C15.2724 5.62488 15.4215 5.56314 15.5314 5.45325C15.6413 5.34335 15.703 5.1943 15.703 5.03888C15.703 4.88346 15.6413 4.73442 15.5314 4.62452C15.4215 4.51462 15.2724 4.45288 15.117 4.45288H12.773C12.6176 4.45288 12.4685 4.51462 12.3586 4.62452C12.2487 4.73442 12.187 4.88346 12.187 5.03888C12.187 5.1943 12.2487 5.34335 12.3586 5.45325C12.4685 5.56314 12.6176 5.62488 12.773 5.62488Z" fill="#FA544D"/>
<path d="M15.3122 14.3359H12.5782C12.4228 14.3359 12.2737 14.3977 12.1638 14.5076C12.0539 14.6175 11.9922 14.7665 11.9922 14.9219C11.9922 15.0774 12.0539 15.2264 12.1638 15.3363C12.2737 15.4462 12.4228 15.5079 12.5782 15.5079H15.3122C15.4676 15.5079 15.6167 15.4462 15.7266 15.3363C15.8365 15.2264 15.8982 15.0774 15.8982 14.9219C15.8982 14.7665 15.8365 14.6175 15.7266 14.5076C15.6167 14.3977 15.4676 14.3359 15.3122 14.3359Z" fill="#FA544D"/>
<path d="M15.3122 12.3831H12.5782C12.4228 12.3831 12.2737 12.4448 12.1638 12.5547C12.0539 12.6646 11.9922 12.8136 11.9922 12.9691C11.9922 13.1245 12.0539 13.2735 12.1638 13.3834C12.2737 13.4933 12.4228 13.5551 12.5782 13.5551H15.3122C15.4676 13.5551 15.6167 13.4933 15.7266 13.3834C15.8365 13.2735 15.8982 13.1245 15.8982 12.9691C15.8982 12.8136 15.8365 12.6646 15.7266 12.5547C15.6167 12.4448 15.4676 12.3831 15.3122 12.3831Z" fill="#FA544D"/>
<path d="M6.42977 12.5541C6.37535 12.4996 6.31073 12.4564 6.23961 12.427C6.16849 12.3975 6.09225 12.3823 6.01527 12.3823C5.93828 12.3823 5.86205 12.3975 5.79092 12.427C5.7198 12.4564 5.65519 12.4996 5.60077 12.5541L5.03876 13.1161L4.47677 12.5541C4.36684 12.4441 4.21774 12.3824 4.06227 12.3824C3.9068 12.3824 3.7577 12.4441 3.64777 12.5541C3.53783 12.664 3.47607 12.8131 3.47607 12.9686C3.47607 13.1241 3.53783 13.2732 3.64777 13.3831L4.20977 13.9451L3.64777 14.5071C3.59333 14.5615 3.55016 14.6261 3.5207 14.6973C3.49124 14.7684 3.47607 14.8446 3.47607 14.9216C3.47607 14.9986 3.49124 15.0748 3.5207 15.1459C3.55016 15.217 3.59333 15.2817 3.64777 15.3361C3.7022 15.3905 3.76682 15.4337 3.83794 15.4632C3.90906 15.4926 3.98529 15.5078 4.06227 15.5078C4.13925 15.5078 4.21547 15.4926 4.28659 15.4632C4.35771 15.4337 4.42234 15.3905 4.47677 15.3361L5.03876 14.7741L5.60077 15.3361C5.7107 15.446 5.8598 15.5078 6.01527 15.5078C6.17073 15.5078 6.31984 15.446 6.42977 15.3361C6.5397 15.2262 6.60146 15.0771 6.60146 14.9216C6.60146 14.7661 6.5397 14.617 6.42977 14.5071L5.86777 13.9451L6.42977 13.3831C6.48423 13.3287 6.52742 13.2641 6.55689 13.1929C6.58637 13.1218 6.60154 13.0456 6.60154 12.9686C6.60154 12.8916 6.58637 12.8154 6.55689 12.7442C6.52742 12.6731 6.48423 12.6085 6.42977 12.5541Z" fill="#FA544D"/>
<path d="M18.984 10.593V1.758C18.9835 1.29208 18.7982 0.845389 18.4689 0.515844C18.1395 0.186298 17.6929 0.000793874 17.227 0L1.758 0C1.29191 0.000529345 0.845065 0.185917 0.515491 0.515491C0.185917 0.845065 0.000529345 1.29191 0 1.758L0 17.227C0.000529345 17.6931 0.185917 18.1399 0.515491 18.4695C0.845065 18.7991 1.29191 18.9845 1.758 18.985H10.593C11.7571 19.7604 13.1538 20.1087 14.5457 19.9706C15.9375 19.8326 17.2386 19.2166 18.2276 18.2276C19.2166 17.2386 19.8326 15.9375 19.9706 14.5457C20.1087 13.1538 19.7604 11.7571 18.985 10.593H18.984ZM17.813 1.758V9.29C16.7273 8.38565 15.359 7.89042 13.946 7.89042C12.533 7.89042 11.1647 8.38565 10.079 9.29V1.172H17.227C17.3823 1.17226 17.5312 1.23409 17.6411 1.34393C17.7509 1.45377 17.8127 1.60266 17.813 1.758ZM1.758 1.172H8.906V8.906H1.172V1.758C1.17226 1.60266 1.23409 1.45377 1.34393 1.34393C1.45377 1.23409 1.60266 1.17226 1.758 1.172ZM1.172 17.227V10.078H8.906V10.592C8.18293 11.676 7.82965 12.9646 7.89885 14.2658C7.96805 15.5669 8.45603 16.8109 9.29 17.812H1.758C1.60284 17.8117 1.45409 17.75 1.34428 17.6404C1.23447 17.5308 1.17253 17.3822 1.172 17.227ZM13.945 18.827C12.9792 18.827 12.0352 18.5406 11.2322 18.0041C10.4291 17.4675 9.80328 16.7049 9.4337 15.8126C9.06411 14.9204 8.96741 13.9386 9.15583 12.9914C9.34424 12.0442 9.8093 11.1741 10.4922 10.4912C11.1751 9.8083 12.0452 9.34324 12.9924 9.15483C13.9396 8.96641 14.9214 9.06311 15.8136 9.4327C16.7059 9.80228 17.4685 10.4281 18.0051 11.2312C18.5416 12.0342 18.828 12.9782 18.828 13.944C18.8269 15.2388 18.3122 16.4803 17.3967 17.396C16.4812 18.3117 15.2398 18.8257 13.945 18.827Z" fill="#8186AF"/>
</svg>
