<svg width="7" height="11" viewBox="0 0 7 11" fill="none" xmlns="http://www.w3.org/2000/svg">
<path d="M1.61022 10.6671C1.57735 10.6996 1.53829 10.7252 1.49535 10.7424C1.45241 10.7596 1.40646 10.7679 1.36022 10.7671C1.31398 10.7679 1.26804 10.7596 1.2251 10.7424C1.18216 10.7252 1.14309 10.6996 1.11022 10.6671C1.04403 10.6007 1.00685 10.5108 1.00685 10.4171C1.00685 10.3233 1.04403 10.2334 1.11022 10.1671L5.51022 5.76706L1.11022 1.36706C1.07463 1.33487 1.04595 1.29579 1.02593 1.25218C1.00591 1.20857 0.994969 1.16135 0.993764 1.11338C0.992559 1.06541 1.00112 1.0177 1.01892 0.973136C1.03673 0.928577 1.06341 0.888103 1.09734 0.854172C1.13127 0.820242 1.17174 0.793564 1.2163 0.775759C1.26086 0.757955 1.30857 0.749395 1.35654 0.7506C1.40451 0.751805 1.45174 0.76275 1.49535 0.78277C1.53895 0.80279 1.57804 0.831467 1.61022 0.867058L6.26022 5.51706C6.32642 5.58342 6.36359 5.67333 6.36359 5.76706C6.36359 5.86079 6.32642 5.9507 6.26022 6.01706L1.61022 10.6671Z" fill="#8186AF"/>
</svg>
