<svg width="16" height="13" xmlns="http://www.w3.org/2000/svg">

 <g>
  <title>background</title>
  <rect fill="none" id="canvas_background" height="402" width="582" y="-1" x="-1"/>
 </g>
 <g>
  <title>Layer 1</title>
  <path id="svg_1" fill="#8186AF" d="m14.594,0l-13.188,0c-0.37265,0.000793 -0.729812,0.149177 -0.993317,0.412682c-0.263504,0.263504 -0.41189,0.620668 -0.412683,0.993318l0,9.375c0.000793,0.3726 0.149179,0.7298 0.412683,0.9933c0.263505,0.2635 0.620667,0.4119 0.993317,0.4127l13.188,0c0.3727,-0.0008 0.7298,-0.1492 0.9933,-0.4127c0.2635,-0.2635 0.4119,-0.6207 0.4127,-0.9933l0,-9.375c-0.0008,-0.37265 -0.1492,-0.729814 -0.4127,-0.993318c-0.2635,-0.263505 -0.6206,-0.411889 -0.9933,-0.412682zm-0.194,0.938l-6.37,6.37l-6.43,-6.37l12.8,0zm-13.462,9.649l0,-8.987l4.515,4.476l-4.515,4.511zm0.663,0.663l4.518,-4.518l1.581,1.568c0.08786,0.08727 0.20667,0.13624 0.3305,0.13624c0.12383,0 0.24264,-0.04897 0.3305,-0.13624l1.544,-1.544l4.495,4.494l-12.799,0zm13.462,-0.663l-4.493,-4.493l4.493,-4.494l0,8.987z"/>
  <path id="svg_2" fill="#ffffff" d="m14.594,0l-13.188,0c-0.37265,0.000793 -0.729812,0.149177 -0.993317,0.412682c-0.263504,0.263504 -0.41189,0.620668 -0.412683,0.993318l0,9.375c0.000793,0.3726 0.149179,0.7298 0.412683,0.9933c0.263505,0.2635 0.620667,0.4119 0.993317,0.4127l13.188,0c0.3727,-0.0008 0.7298,-0.1492 0.9933,-0.4127c0.2635,-0.2635 0.4119,-0.6207 0.4127,-0.9933l0,-9.375c-0.0008,-0.37265 -0.1492,-0.729814 -0.4127,-0.993318c-0.2635,-0.263505 -0.6206,-0.411889 -0.9933,-0.412682zm-0.194,0.938l-6.37,6.37l-6.43,-6.37l12.8,0zm-13.462,9.649l0,-8.987l4.515,4.476l-4.515,4.511zm0.663,0.663l4.518,-4.518l1.581,1.568c0.08786,0.08727 0.20667,0.13624 0.3305,0.13624c0.12383,0 0.24264,-0.04897 0.3305,-0.13624l1.544,-1.544l4.495,4.494l-12.799,0zm13.462,-0.663l-4.493,-4.493l4.493,-4.494l0,8.987z"/>
 </g>
</svg>