<svg width="16" height="13" viewBox="0 0 16 13" fill="none" xmlns="http://www.w3.org/2000/svg">
<path d="M14.594 0H1.406C1.03335 0.000792596 0.676188 0.149177 0.412683 0.412682C0.149179 0.676186 0.000792596 1.03335 0 1.406L0 10.781C0.000792596 11.1536 0.149179 11.5108 0.412683 11.7743C0.676188 12.0378 1.03335 12.1862 1.406 12.187H14.594C14.9667 12.1862 15.3238 12.0378 15.5873 11.7743C15.8508 11.5108 15.9992 11.1536 16 10.781V1.406C15.9992 1.03335 15.8508 0.676186 15.5873 0.412682C15.3238 0.149177 14.9667 0.000792596 14.594 0ZM14.4 0.938L8.03 7.308L1.6 0.938H14.4ZM0.938 10.587V1.6L5.453 6.076L0.938 10.587ZM1.601 11.25L6.119 6.732L7.7 8.3C7.78786 8.38727 7.90667 8.43624 8.0305 8.43624C8.15433 8.43624 8.27314 8.38727 8.361 8.3L9.905 6.756L14.4 11.25H1.601ZM15.063 10.587L10.57 6.094L15.063 1.6V10.587Z" fill="#8186AF"/>
<path d="M14.594 0H1.406C1.03335 0.000792596 0.676188 0.149177 0.412683 0.412682C0.149179 0.676186 0.000792596 1.03335 0 1.406L0 10.781C0.000792596 11.1536 0.149179 11.5108 0.412683 11.7743C0.676188 12.0378 1.03335 12.1862 1.406 12.187H14.594C14.9667 12.1862 15.3238 12.0378 15.5873 11.7743C15.8508 11.5108 15.9992 11.1536 16 10.781V1.406C15.9992 1.03335 15.8508 0.676186 15.5873 0.412682C15.3238 0.149177 14.9667 0.000792596 14.594 0ZM14.4 0.938L8.03 7.308L1.6 0.938H14.4ZM0.938 10.587V1.6L5.453 6.076L0.938 10.587ZM1.601 11.25L6.119 6.732L7.7 8.3C7.78786 8.38727 7.90667 8.43624 8.0305 8.43624C8.15433 8.43624 8.27314 8.38727 8.361 8.3L9.905 6.756L14.4 11.25H1.601ZM15.063 10.587L10.57 6.094L15.063 1.6V10.587Z" fill="#8186AF"/>
</svg>
