<svg width="196" height="43" viewBox="0 0 196 43" fill="none" xmlns="http://www.w3.org/2000/svg">
<path d="M43.585 32.206L43.561 32.248C43.465 32.4133 43.365 32.5756 43.261 32.735L43.254 32.746C42.2793 34.2423 40.946 35.4713 39.3755 36.3213C37.8049 37.1713 36.0468 37.6153 34.261 37.613H24.217C23.4181 37.6135 22.6262 37.4646 21.882 37.174C21.1662 36.8953 20.5087 36.4856 19.943 35.966L19.9 35.926C19.2465 35.3175 18.7258 34.5806 18.3703 33.7616C18.0147 32.9425 17.8322 32.0588 17.834 31.166V22.7C20.079 23.3523 22.4052 23.6829 24.743 23.682C25.006 23.682 26.102 23.721 26.481 23.734C26.481 23.802 26.481 23.87 26.481 23.939C26.4825 25.481 27.0926 26.9601 28.1787 28.0548C29.2648 29.1495 30.739 29.7713 32.281 29.785H32.333C32.5153 29.7889 32.6978 29.7806 32.879 29.76C33.069 29.734 33.155 29.73 33.29 29.707C36.9098 29.2865 40.5608 30.1727 43.585 32.206Z" fill="url(#paint0_linear_0_5709)"/>
<path d="M25.6768 30.152C24.2768 27.926 24.4768 23.968 24.1638 19.252C24.0768 17.943 17.8408 22.699 17.8408 22.699V31.16C17.8388 32.0527 18.021 32.9363 18.3762 33.7554C18.7313 34.5744 19.2517 35.3113 19.9048 35.92L19.9478 35.96C21.1152 37.0271 22.6412 37.6161 24.2228 37.61H34.2668C36.0524 37.6127 37.8103 37.1691 39.3808 36.3197C40.9514 35.4702 42.2848 34.2418 43.2598 32.746L43.2668 32.735C43.3695 32.5763 43.4695 32.414 43.5668 32.248L43.5788 32.228C43.4398 32.221 30.1928 37.327 25.6768 30.152Z" fill="url(#paint1_linear_0_5709)"/>
<path d="M26.4841 23.728L26.6011 23.735H26.4841C26.1061 23.721 25.0091 23.683 24.7461 23.683C25.0651 23.683 25.7051 23.683 25.7081 23.695C25.9661 23.698 26.2251 23.71 26.4841 23.728Z" fill="url(#paint2_linear_0_5709)"/>
<path d="M43.5941 32.182C43.5081 32.0826 43.4204 31.9826 43.3311 31.882C43.4299 31.9715 43.5182 32.0722 43.5941 32.182Z" fill="url(#paint3_linear_0_5709)"/>
<path d="M26.578 8.71699C25.1003 8.71918 23.6259 8.85304 22.172 9.11699C21.8386 9.17699 21.5086 9.24366 21.182 9.31699C20.0758 9.51745 18.9572 9.64208 17.834 9.68999V3.84399C18.6766 4.6159 19.7438 5.09837 20.88 5.22099L21.033 5.23999C21.192 5.25699 21.608 5.26899 21.799 5.27199C21.8632 5.27343 21.9273 5.2781 21.991 5.28599C22.985 5.41827 23.9286 5.80322 24.7314 6.40407C25.5343 7.00491 26.1697 7.80159 26.577 8.71799L26.578 8.71699Z" fill="url(#paint4_linear_0_5709)"/>
<path d="M23.6669 9.23999C22.5766 9.24547 21.4882 9.32936 20.4099 9.49099C20.2099 9.52699 20.0143 9.56666 19.8229 9.60999C19.1667 9.72872 18.5032 9.80256 17.8369 9.83099V3.84399C18.4697 5.26008 19.505 6.45881 20.8139 7.29099C21.4519 7.62899 22.8479 7.90899 23.3939 8.73799C23.4985 8.8969 23.5898 9.06413 23.6669 9.23799V9.23999Z" fill="url(#paint5_linear_0_5709)"/>
<path d="M45.5367 24.732C45.4938 27.3344 44.829 29.8888 43.5977 32.182C42.9969 30.4822 42.2217 28.8492 41.2847 27.309C37.874 22.1346 32.6322 18.4418 26.6117 16.972C26.4204 16.924 26.2264 16.879 26.0297 16.837C25.2323 16.6632 24.4266 16.5297 23.6157 16.437C23.2647 16.395 22.9157 16.385 22.5617 16.359C22.4177 16.359 22.2697 16.34 22.1257 16.34C21.5064 16.34 20.8921 16.3173 20.2827 16.272C19.5274 16.216 18.7817 16.127 18.0457 16.005L17.8367 15.968L17.7907 15.961C15.5904 15.5728 13.4533 14.8861 11.4387 13.92C6.82392 11.7 3.0076 8.10857 0.511719 3.63696C4.69852 7.29084 9.99788 9.42158 15.5487 9.68296C15.9487 9.7023 16.3487 9.71196 16.7487 9.71196C17.1134 9.71196 17.4764 9.70396 17.8377 9.68796C18.9609 9.64004 20.0795 9.51542 21.1857 9.31496C21.5177 9.25496 21.8487 9.18796 22.1757 9.11496C23.6276 8.85136 25.1001 8.7175 26.5757 8.71496H26.6117C30.3101 8.71054 33.962 9.53867 37.2967 11.138L37.2627 11.164C39.4412 12.2887 41.318 13.9197 42.7357 15.92L42.7557 15.949C44.5698 18.5184 45.5416 21.5866 45.5367 24.732Z" fill="url(#paint6_linear_0_5709)"/>
<path d="M43.5975 32.182C43.5115 32.0826 43.4238 31.9826 43.3345 31.882C43.2965 31.8379 43.2565 31.794 43.2175 31.751C42.9815 31.4495 42.7169 31.1715 42.4275 30.921C42.3555 30.849 42.2885 30.7819 42.2175 30.715L42.0745 30.575C41.7411 30.253 41.3968 29.9403 41.0415 29.637L40.8265 29.457C40.4691 29.157 40.1025 28.867 39.7265 28.587C35.917 25.7405 31.3653 24.0572 26.6205 23.74H26.6095H26.4925C26.1145 23.726 25.0175 23.688 24.7545 23.688C22.4171 23.6901 20.0913 23.3608 17.8465 22.71C16.9838 22.4601 16.1355 22.163 15.3055 21.82C13.3884 21.0267 11.5788 19.9952 9.91945 18.75C9.25744 18.2506 8.62097 17.7183 8.01245 17.155C4.09201 13.5616 1.43602 8.79884 0.439453 3.57495C0.462453 3.59695 0.485453 3.61695 0.511453 3.63695C3.00824 8.10723 6.82487 11.6972 11.4395 13.916C13.4537 14.8824 15.5904 15.5694 17.7905 15.958L17.8365 15.965L18.0455 16.002C18.7788 16.124 19.5245 16.213 20.2825 16.269C20.8911 16.3136 21.5055 16.3363 22.1255 16.337H22.2255C22.3075 16.337 22.4255 16.346 22.5595 16.354C22.6935 16.362 22.8465 16.371 22.9945 16.381H23.0575L23.1295 16.386H23.1915H23.2515L23.4515 16.403H23.4965L23.6115 16.415C24.4223 16.5077 25.228 16.6412 26.0255 16.815C26.2201 16.8576 26.4141 16.9026 26.6075 16.95L26.9155 17.027C28.2032 17.3582 29.4654 17.7817 30.6925 18.294C32.5091 19.0407 34.2267 20.0087 35.8065 21.176C36.6394 21.8029 37.4203 22.4961 38.1415 23.249C39.3134 24.4917 40.371 25.8375 41.3015 27.27C42.2336 28.824 43.003 30.4701 43.5975 32.182Z" fill="url(#paint7_linear_0_5709)"/>
<path d="M53.8241 12.1489C50.6721 14.6205 48.62 18.2338 48.1121 22.2069C48.1123 22.2089 48.1123 22.2109 48.1121 22.2129C48.0831 22.4379 48.0601 22.6669 48.0401 22.8959C48.0404 22.8979 48.0404 22.8999 48.0401 22.9019C47.7523 24.9392 47.0811 26.9035 46.0621 28.6909C46.9679 25.565 46.852 22.2314 45.7313 19.176C44.6105 16.1205 42.5433 13.5027 39.8311 11.7039C41.7222 10.3647 43.793 9.29921 45.9821 8.53891C46.2834 8.43358 46.5894 8.33358 46.9001 8.23891C47.3389 8.13505 47.7882 8.08237 48.2391 8.08191H48.2531C49.4927 8.08282 50.6999 8.4771 51.701 9.20797C52.7022 9.93884 53.4456 10.9686 53.8241 12.1489Z" fill="url(#paint8_linear_0_5709)"/>
<path d="M58.395 12.67C56.7456 13.3372 55.2257 14.2879 53.904 15.479C53.4472 15.8915 53.0154 16.331 52.611 16.795C51.2226 18.3865 50.1797 20.2487 49.548 22.264C49.3547 22.8822 49.2014 23.5121 49.089 24.15C49.051 24.2833 49.012 24.4167 48.972 24.55C48.932 24.6833 48.8893 24.812 48.844 24.936C48.824 24.998 48.804 25.06 48.783 25.122C48.607 25.6487 48.4133 26.167 48.202 26.677C46.8455 29.9224 44.8008 32.8348 42.209 35.213C44.0227 33.3995 45.3493 31.1576 46.066 28.695C47.0728 26.9024 47.7432 24.9408 48.0439 22.907C48.0443 22.905 48.0443 22.903 48.0439 22.901C48.0729 22.676 48.096 22.447 48.116 22.218C48.1162 22.216 48.1162 22.214 48.116 22.212C48.6241 18.2387 50.6765 14.6253 53.829 12.154C54.5304 11.6928 55.3712 11.4918 56.2053 11.5861C57.0395 11.6803 57.8142 12.0639 58.395 12.67Z" fill="url(#paint9_linear_0_5709)"/>
<path d="M56.4705 14.921C56.6204 15.0327 56.7901 15.1151 56.9705 15.164C57.2223 15.232 57.4877 15.232 57.7395 15.164C57.9807 15.0989 58.2016 14.974 58.3818 14.801C58.5619 14.628 58.6956 14.4123 58.7705 14.174C58.8587 13.887 58.8587 13.5801 58.7705 13.293C58.7342 13.1785 58.6846 13.0688 58.6225 12.966C58.4985 12.7616 58.327 12.59 58.1225 12.466C58.0819 12.4397 58.0398 12.4157 57.9965 12.394C57.9535 12.373 57.9085 12.354 57.8635 12.338C57.6319 12.2523 57.3826 12.2257 57.1382 12.2607C56.8937 12.2956 56.6619 12.3909 56.4635 12.538C56.4255 12.5659 56.3891 12.5959 56.3545 12.628C56.3195 12.6596 56.2861 12.6929 56.2545 12.728C56.1581 12.8334 56.0775 12.9523 56.0155 13.081C55.9945 13.125 55.9765 13.169 55.9595 13.214C55.8998 13.3774 55.8693 13.55 55.8695 13.724C55.8682 13.7748 55.8705 13.8256 55.8765 13.876C55.8841 13.9486 55.8971 14.0204 55.9155 14.091C55.9215 14.115 55.9275 14.138 55.9345 14.163C56.0283 14.4613 56.2133 14.7225 56.4635 14.91L56.4705 14.921ZM56.5305 12.982C56.5536 12.9558 56.5791 12.9317 56.6065 12.91C56.6327 12.8844 56.6604 12.8603 56.6895 12.838C56.7326 12.8054 56.7781 12.776 56.8255 12.75C56.8733 12.7244 56.9227 12.702 56.9735 12.683L57.0255 12.666C57.0595 12.655 57.0975 12.646 57.1315 12.638C57.2056 12.6234 57.281 12.616 57.3565 12.616C57.5784 12.6159 57.7954 12.682 57.9795 12.806L58.0235 12.838C58.0528 12.8601 58.0804 12.8842 58.1065 12.91C58.1335 12.934 58.1585 12.959 58.1825 12.982C58.2188 13.0216 58.2522 13.0637 58.2825 13.108C58.3025 13.137 58.3215 13.168 58.3385 13.2C58.3561 13.2324 58.3718 13.2658 58.3855 13.3C58.4433 13.4376 58.4731 13.5853 58.4731 13.7345C58.4731 13.8837 58.4433 14.0314 58.3855 14.169C58.3717 14.2032 58.356 14.2366 58.3385 14.269C58.3215 14.301 58.3025 14.331 58.2825 14.361C58.2522 14.4053 58.2188 14.4475 58.1825 14.487C58.1585 14.514 58.1325 14.539 58.1065 14.563C58.08 14.5871 58.0523 14.6098 58.0235 14.631L57.9795 14.662C57.7957 14.7867 57.5786 14.8532 57.3565 14.853C57.2809 14.853 57.2055 14.8453 57.1315 14.83C57.0957 14.8229 57.0603 14.8138 57.0255 14.803L56.9735 14.785C56.8718 14.7478 56.7762 14.6959 56.6895 14.631C56.6605 14.609 56.6335 14.586 56.6065 14.563C56.5799 14.539 56.5545 14.5136 56.5305 14.487C56.3434 14.2809 56.24 14.0123 56.2405 13.7339C56.2411 13.4555 56.3455 13.1874 56.5335 12.982H56.5305Z" fill="url(#paint10_linear_0_5709)"/>
<path d="M58.2868 19.269C58.3101 19.269 58.3325 19.2597 58.349 19.2432C58.3655 19.2267 58.3748 19.2043 58.3748 19.181V18.8C58.3748 18.7766 58.3655 18.7542 58.349 18.7377C58.3325 18.7212 58.3101 18.7119 58.2868 18.7119H57.7448V15.424C57.6208 15.453 57.7798 15.4689 57.6448 15.4689C57.5151 15.4691 57.3859 15.454 57.2598 15.424V20.2449C57.2598 20.2683 57.269 20.2907 57.2855 20.3072C57.302 20.3237 57.3244 20.3329 57.3478 20.3329H58.2868C58.3101 20.3329 58.3325 20.3237 58.349 20.3072C58.3655 20.2907 58.3748 20.2683 58.3748 20.2449V19.864C58.3748 19.8406 58.3655 19.8182 58.349 19.8017C58.3325 19.7852 58.3101 19.776 58.2868 19.776H57.7418V19.276L58.2868 19.269Z" fill="url(#paint11_linear_0_5709)"/>
<path d="M63.903 9.5H75.033C77.693 9.5 80.038 10.0133 82.068 11.04C84.1214 12.0433 85.708 13.4667 86.828 15.31C87.9714 17.1533 88.543 19.3 88.543 21.75C88.543 24.2 87.9714 26.3467 86.828 28.19C85.708 30.0333 84.1214 31.4683 82.068 32.495C80.038 33.4983 77.693 34 75.033 34H63.903V9.5ZM74.753 29.345C77.203 29.345 79.1514 28.6683 80.598 27.315C82.068 25.9383 82.803 24.0833 82.803 21.75C82.803 19.4167 82.068 17.5733 80.598 16.22C79.1514 14.8433 77.203 14.155 74.753 14.155H69.573V29.345H74.753ZM99.1891 34.28C97.0657 34.28 95.4091 33.72 94.2191 32.6C93.0291 31.4567 92.4341 29.8467 92.4341 27.77V8.03H97.8941V27.455C97.8941 28.2483 98.0924 28.8667 98.4891 29.31C98.9091 29.73 99.4924 29.94 100.239 29.94C100.519 29.94 100.799 29.905 101.079 29.835C101.382 29.765 101.616 29.6833 101.779 29.59L102.024 33.825C101.114 34.1283 100.169 34.28 99.1891 34.28ZM113.848 29.905C114.828 29.905 115.691 29.765 116.438 29.485C117.208 29.1817 117.919 28.715 118.573 28.085L121.478 31.235C119.704 33.265 117.114 34.28 113.708 34.28C111.584 34.28 109.706 33.8717 108.073 33.055C106.439 32.215 105.179 31.06 104.293 29.59C103.406 28.12 102.963 26.4517 102.963 24.585C102.963 22.7417 103.394 21.085 104.258 19.615C105.144 18.1217 106.346 16.9667 107.863 16.15C109.403 15.31 111.129 14.89 113.043 14.89C114.839 14.89 116.473 15.275 117.943 16.045C119.413 16.7917 120.579 17.8883 121.443 19.335C122.329 20.7583 122.773 22.45 122.773 24.41L108.843 27.105C109.239 28.0383 109.858 28.7383 110.698 29.205C111.561 29.6717 112.611 29.905 113.848 29.905ZM113.043 19.02C111.666 19.02 110.546 19.4633 109.683 20.35C108.819 21.2367 108.364 22.4617 108.318 24.025L117.488 22.24C117.231 21.26 116.706 20.4783 115.913 19.895C115.119 19.3117 114.163 19.02 113.043 19.02ZM137.888 14.89C140.221 14.89 142.1 15.59 143.523 16.99C144.97 18.39 145.693 20.4667 145.693 23.22V34H140.233V24.06C140.233 22.5667 139.906 21.4583 139.253 20.735C138.6 19.9883 137.655 19.615 136.418 19.615C135.041 19.615 133.945 20.0467 133.128 20.91C132.311 21.75 131.903 23.01 131.903 24.69V34H126.443V15.17H131.658V17.375C132.381 16.5817 133.28 15.975 134.353 15.555C135.426 15.1117 136.605 14.89 137.888 14.89ZM170.027 8.03V34H164.812V31.83C163.459 33.4633 161.499 34.28 158.932 34.28C157.159 34.28 155.549 33.8833 154.102 33.09C152.679 32.2967 151.559 31.165 150.742 29.695C149.925 28.225 149.517 26.5217 149.517 24.585C149.517 22.6483 149.925 20.945 150.742 19.475C151.559 18.005 152.679 16.8733 154.102 16.08C155.549 15.2867 157.159 14.89 158.932 14.89C161.335 14.89 163.214 15.6483 164.567 17.165V8.03H170.027ZM159.877 29.8C161.254 29.8 162.397 29.3333 163.307 28.4C164.217 27.4433 164.672 26.1717 164.672 24.585C164.672 22.9983 164.217 21.7383 163.307 20.805C162.397 19.8483 161.254 19.37 159.877 19.37C158.477 19.37 157.322 19.8483 156.412 20.805C155.502 21.7383 155.047 22.9983 155.047 24.585C155.047 26.1717 155.502 27.4433 156.412 28.4C157.322 29.3333 158.477 29.8 159.877 29.8ZM184.041 34.28C182.057 34.28 180.272 33.8717 178.686 33.055C177.122 32.215 175.897 31.06 175.011 29.59C174.124 28.12 173.681 26.4517 173.681 24.585C173.681 22.7183 174.124 21.05 175.011 19.58C175.897 18.11 177.122 16.9667 178.686 16.15C180.272 15.31 182.057 14.89 184.041 14.89C186.024 14.89 187.797 15.31 189.361 16.15C190.924 16.9667 192.149 18.11 193.036 19.58C193.922 21.05 194.366 22.7183 194.366 24.585C194.366 26.4517 193.922 28.12 193.036 29.59C192.149 31.06 190.924 32.215 189.361 33.055C187.797 33.8717 186.024 34.28 184.041 34.28ZM184.041 29.8C185.441 29.8 186.584 29.3333 187.471 28.4C188.381 27.4433 188.836 26.1717 188.836 24.585C188.836 22.9983 188.381 21.7383 187.471 20.805C186.584 19.8483 185.441 19.37 184.041 19.37C182.641 19.37 181.486 19.8483 180.576 20.805C179.666 21.7383 179.211 22.9983 179.211 24.585C179.211 26.1717 179.666 27.4433 180.576 28.4C181.486 29.3333 182.641 29.8 184.041 29.8Z" fill="white"/>
<defs>
<linearGradient id="paint0_linear_0_5709" x1="22.7009" y1="37.0463" x2="27.0932" y2="21.5867" gradientUnits="userSpaceOnUse">
<stop stop-color="#9A0000"/>
<stop offset="1" stop-color="#FA544D"/>
</linearGradient>
<linearGradient id="paint1_linear_0_5709" x1="18.9218" y1="18.2806" x2="22.5225" y2="36.1462" gradientUnits="userSpaceOnUse">
<stop stop-color="#9A0000"/>
<stop offset="1" stop-color="#FA544D"/>
</linearGradient>
<linearGradient id="paint2_linear_0_5709" x1="26.2598" y1="24.3957" x2="26.2589" y2="23.0996" gradientUnits="userSpaceOnUse">
<stop stop-color="white"/>
<stop offset="1"/>
</linearGradient>
<linearGradient id="paint3_linear_0_5709" x1="43.658" y1="32.278" x2="43.2376" y2="31.8666" gradientUnits="userSpaceOnUse">
<stop stop-color="white"/>
<stop offset="1"/>
</linearGradient>
<linearGradient id="paint4_linear_0_5709" x1="23.8236" y1="4.69166" x2="21.4755" y2="9.69155" gradientUnits="userSpaceOnUse">
<stop stop-color="#FA544D"/>
<stop offset="1" stop-color="#9A0000"/>
</linearGradient>
<linearGradient id="paint5_linear_0_5709" x1="17.184" y1="3.19141" x2="22.2706" y2="14.1539" gradientUnits="userSpaceOnUse">
<stop stop-color="#FA544D"/>
<stop offset="1" stop-color="#9A0000"/>
</linearGradient>
<linearGradient id="paint6_linear_0_5709" x1="24.6902" y1="17.4242" x2="48.8937" y2="6.02806" gradientUnits="userSpaceOnUse">
<stop stop-color="#FA544D"/>
<stop offset="1" stop-color="#9A0000"/>
</linearGradient>
<linearGradient id="paint7_linear_0_5709" x1="14.7248" y1="27.0041" x2="22.7358" y2="4.07009" gradientUnits="userSpaceOnUse">
<stop stop-color="#FA544D"/>
<stop offset="1" stop-color="#9A0000"/>
</linearGradient>
<linearGradient id="paint8_linear_0_5709" x1="36.1369" y1="18.3864" x2="52.9705" y2="18.3864" gradientUnits="userSpaceOnUse">
<stop stop-color="#9A0000"/>
<stop offset="1" stop-color="#FA544D"/>
</linearGradient>
<linearGradient id="paint9_linear_0_5709" x1="46.0451" y1="21.9692" x2="49.5085" y2="22.663" gradientUnits="userSpaceOnUse">
<stop stop-color="#9A0000"/>
<stop offset="1" stop-color="#FA544D"/>
</linearGradient>
<linearGradient id="paint10_linear_0_5709" x1="58.5755" y1="20.7585" x2="57.2089" y2="12.9141" gradientUnits="userSpaceOnUse">
<stop stop-color="#9A0000"/>
<stop offset="1" stop-color="#FA544D"/>
</linearGradient>
<linearGradient id="paint11_linear_0_5709" x1="58.3904" y1="21.9529" x2="55.7241" y2="21.3182" gradientUnits="userSpaceOnUse">
<stop stop-color="#9A0000"/>
<stop offset="1" stop-color="#FA544D"/>
</linearGradient>
</defs>
</svg>
