<svg width="13" height="12" viewBox="0 0 13 12" fill="none" xmlns="http://www.w3.org/2000/svg">
<path d="M12.4651 6.09309C12.3772 6.18096 12.258 6.23032 12.1336 6.23032C12.0093 6.23032 11.8901 6.18096 11.8021 6.09309L11.4311 5.72009V9.82009C11.4311 9.94448 11.3817 10.0638 11.2938 10.1517C11.2058 10.2397 11.0865 10.2891 10.9621 10.2891C10.8378 10.2891 10.7185 10.2397 10.6305 10.1517C10.5426 10.0638 10.4931 9.94448 10.4931 9.82009V4.77409L6.92915 1.18509C6.8444 1.11269 6.7366 1.07291 6.62514 1.07291C6.51369 1.07291 6.40589 1.11269 6.32115 1.18509L2.71214 4.78509C2.71214 4.78509 2.71214 4.79409 2.71214 4.79909V9.76809C2.71267 10.0164 2.81156 10.2545 2.98717 10.4301C3.16278 10.6057 3.4008 10.7046 3.64914 10.7051H9.55614C9.80449 10.7046 10.0425 10.6057 10.2181 10.4301C10.3937 10.2545 10.4926 10.0164 10.4931 9.76809C10.4931 9.6437 10.5426 9.52441 10.6305 9.43646C10.7185 9.3485 10.8378 9.29909 10.9621 9.29909C11.0865 9.29909 11.2058 9.3485 11.2938 9.43646C11.3817 9.52441 11.4311 9.6437 11.4311 9.76809C11.4306 10.2652 11.2329 10.7418 10.8814 11.0933C10.5299 11.4448 10.0533 11.6426 9.55614 11.6431H3.65014C3.15303 11.6426 2.67642 11.4448 2.3249 11.0933C1.97339 10.7418 1.77567 10.2652 1.77515 9.76809V5.72109L1.40315 6.09209C1.36001 6.1376 1.30818 6.174 1.25073 6.19913C1.19328 6.22427 1.13138 6.23763 1.06868 6.23842C1.00598 6.23921 0.943751 6.22742 0.885685 6.20375C0.827619 6.18007 0.77489 6.14499 0.730617 6.10059C0.686344 6.05618 0.651425 6.00335 0.627926 5.94521C0.604428 5.88707 0.592826 5.82481 0.593807 5.76212C0.594789 5.69942 0.608334 5.63755 0.633641 5.58018C0.658948 5.5228 0.695503 5.47109 0.741145 5.42809L5.68915 0.491089C5.94684 0.260228 6.28066 0.132568 6.62665 0.132568C6.97263 0.132568 7.30645 0.260228 7.56415 0.491089L12.4641 5.42609C12.552 5.51403 12.6014 5.63327 12.6014 5.75759C12.6014 5.88191 12.552 6.00114 12.4641 6.08909L12.4651 6.09309Z" fill="#8186AF"/>
<path d="M8.05796 6.61202C8.18112 6.61202 8.28096 6.51218 8.28096 6.38902C8.28096 6.26586 8.18112 6.16602 8.05796 6.16602C7.9348 6.16602 7.83496 6.26586 7.83496 6.38902C7.83496 6.51218 7.9348 6.61202 8.05796 6.61202Z" fill="#FA544D"/>
<path d="M8.0582 6.78705C7.97909 6.78705 7.90175 6.76359 7.83597 6.71964C7.77019 6.67568 7.71891 6.61322 7.68863 6.54013C7.65836 6.46704 7.65046 6.38662 7.6659 6.30902C7.68133 6.23143 7.71942 6.16016 7.77536 6.10422C7.8313 6.04828 7.90257 6.01019 7.98017 5.99475C8.05776 5.97932 8.13819 5.98721 8.21128 6.01749C8.28437 6.04776 8.34683 6.09905 8.39078 6.16483C8.43473 6.23061 8.45819 6.30794 8.45819 6.38706C8.45819 6.49314 8.41605 6.59488 8.34104 6.66989C8.26602 6.74491 8.16429 6.78705 8.0582 6.78705ZM8.0582 6.34107C8.0489 6.34107 8.03981 6.34381 8.03208 6.34897C8.02435 6.35414 8.01833 6.36147 8.01477 6.37006C8.01122 6.37865 8.01027 6.3881 8.01209 6.39722C8.0139 6.40634 8.01839 6.41472 8.02497 6.4213C8.03154 6.42787 8.0399 6.43233 8.04901 6.43415C8.05813 6.43596 8.06759 6.43505 8.07617 6.43149C8.08476 6.42793 8.0921 6.42189 8.09726 6.41416C8.10243 6.40643 8.1052 6.39736 8.1052 6.38806C8.10494 6.37577 8.09985 6.36407 8.09107 6.35547C8.08228 6.34687 8.07049 6.34106 8.0582 6.34107Z" fill="#FA544D"/>
<path d="M7.08921 6.61202C7.21237 6.61202 7.31221 6.51218 7.31221 6.38902C7.31221 6.26586 7.21237 6.16602 7.08921 6.16602C6.96605 6.16602 6.86621 6.26586 6.86621 6.38902C6.86621 6.51218 6.96605 6.61202 7.08921 6.61202Z" fill="#FA544D"/>
<path d="M7.08945 6.78705C7.01034 6.78705 6.933 6.76359 6.86722 6.71964C6.80144 6.67568 6.75016 6.61322 6.71988 6.54013C6.68961 6.46704 6.68171 6.38662 6.69715 6.30902C6.71258 6.23143 6.75067 6.16016 6.80661 6.10422C6.86255 6.04828 6.93382 6.01019 7.01142 5.99475C7.08901 5.97932 7.16944 5.98721 7.24253 6.01749C7.31562 6.04776 7.37808 6.09905 7.42203 6.16483C7.46598 6.23061 7.48944 6.30794 7.48944 6.38706C7.48944 6.49314 7.4473 6.59488 7.37229 6.66989C7.29727 6.74491 7.19554 6.78705 7.08945 6.78705ZM7.08945 6.34107C7.08015 6.34107 7.07106 6.34381 7.06333 6.34897C7.0556 6.35414 7.04958 6.36147 7.04602 6.37006C7.04247 6.37865 7.04152 6.3881 7.04334 6.39722C7.04515 6.40634 7.04964 6.41472 7.05622 6.4213C7.06279 6.42787 7.07115 6.43233 7.08026 6.43415C7.08938 6.43596 7.09884 6.43505 7.10742 6.43149C7.11601 6.42793 7.12335 6.42189 7.12851 6.41416C7.13368 6.40643 7.13645 6.39736 7.13645 6.38806C7.13619 6.37577 7.1311 6.36407 7.12232 6.35547C7.11353 6.34687 7.10174 6.34106 7.08945 6.34107Z" fill="#FA544D"/>
<path d="M9.23938 7.97107C9.26866 7.97107 9.29767 7.96531 9.32472 7.9541C9.35178 7.94289 9.37636 7.92647 9.39706 7.90576C9.41777 7.88505 9.4342 7.86048 9.4454 7.83342C9.45661 7.80636 9.46237 7.77736 9.46237 7.74808V5.38608C9.46211 5.14985 9.36815 4.92337 9.20111 4.75633C9.03407 4.58929 8.80761 4.49534 8.57138 4.49507H8.28137V4.27208C8.28137 4.24279 8.27561 4.21379 8.2644 4.18674C8.2532 4.15968 8.23677 4.1351 8.21606 4.1144C8.19536 4.09369 8.17078 4.07726 8.14372 4.06606C8.11667 4.05485 8.08767 4.04907 8.05838 4.04907C8.0291 4.04907 8.00009 4.05485 7.97304 4.06606C7.94598 4.07726 7.9214 4.09369 7.9007 4.1144C7.87999 4.1351 7.86356 4.15968 7.85236 4.18674C7.84115 4.21379 7.83537 4.24279 7.83537 4.27208V4.49507H6.82138V4.27208C6.82138 4.21294 6.79788 4.15622 6.75606 4.1144C6.71424 4.07257 6.65752 4.04907 6.59837 4.04907C6.53923 4.04907 6.48251 4.07257 6.44069 4.1144C6.39887 4.15622 6.37538 4.21294 6.37538 4.27208V4.49507H5.37538V4.27208C5.37538 4.21294 5.35188 4.15622 5.31006 4.1144C5.26824 4.07257 5.21152 4.04907 5.15237 4.04907C5.09323 4.04907 5.03651 4.07257 4.99469 4.1144C4.95287 4.15622 4.92938 4.21294 4.92938 4.27208V4.49507H4.64638C4.41015 4.49534 4.18367 4.58929 4.01663 4.75633C3.84959 4.92337 3.75564 5.14985 3.75537 5.38608V8.86208C3.75564 9.0983 3.84959 9.32478 4.01663 9.49182C4.18367 9.65886 4.41015 9.7528 4.64638 9.75307H8.56738C8.80361 9.7528 9.03008 9.65886 9.19711 9.49182C9.36415 9.32478 9.45811 9.0983 9.45837 8.86208C9.45837 8.80293 9.43489 8.74621 9.39307 8.70439C9.35125 8.66257 9.29453 8.63907 9.23538 8.63907C9.17624 8.63907 9.11952 8.66257 9.0777 8.70439C9.03588 8.74621 9.01237 8.80293 9.01237 8.86208C9.01237 8.98036 8.96539 9.0938 8.88174 9.17744C8.7981 9.26109 8.68466 9.30807 8.56638 9.30807H4.64638C4.52809 9.30807 4.41465 9.26109 4.33101 9.17744C4.24737 9.0938 4.20038 8.98036 4.20038 8.86208V5.38608C4.20038 5.26779 4.24737 5.15435 4.33101 5.07071C4.41465 4.98707 4.52809 4.94008 4.64638 4.94008H4.92438V5.16307C4.92438 5.22221 4.94788 5.27893 4.9897 5.32076C5.03152 5.36258 5.08824 5.38608 5.14738 5.38608C5.20653 5.38608 5.26325 5.36258 5.30507 5.32076C5.34689 5.27893 5.37038 5.22221 5.37038 5.16307V4.94008H6.37038V5.16307C6.37038 5.22221 6.39388 5.27893 6.4357 5.32076C6.47752 5.36258 6.53424 5.38608 6.59338 5.38608C6.65253 5.38608 6.70925 5.36258 6.75107 5.32076C6.79289 5.27893 6.81638 5.22221 6.81638 5.16307V4.94008H7.83038V5.16307C7.83038 5.22221 7.85387 5.27893 7.89569 5.32076C7.93751 5.36258 7.99423 5.38608 8.05338 5.38608C8.11252 5.38608 8.16924 5.36258 8.21106 5.32076C8.25288 5.27893 8.27638 5.22221 8.27638 5.16307V4.94008H8.56638C8.68466 4.94008 8.7981 4.98707 8.88174 5.07071C8.96539 5.15435 9.01237 5.26779 9.01237 5.38608V7.74808C9.01237 7.7777 9.01827 7.80703 9.02972 7.83435C9.04118 7.86167 9.05797 7.88644 9.0791 7.9072C9.10023 7.92796 9.1253 7.94429 9.15282 7.95526C9.18034 7.96623 9.20976 7.9716 9.23938 7.97107Z" fill="#FA544D"/>
<path d="M5.15171 8.55098C5.27487 8.55098 5.37471 8.45114 5.37471 8.32798C5.37471 8.20482 5.27487 8.10498 5.15171 8.10498C5.02855 8.10498 4.92871 8.20482 4.92871 8.32798C4.92871 8.45114 5.02855 8.55098 5.15171 8.55098Z" fill="#FA544D"/>
<path d="M5.15147 8.72604C5.07236 8.72604 4.99502 8.70258 4.92924 8.65863C4.86346 8.61467 4.81219 8.55218 4.78192 8.47909C4.75164 8.406 4.74372 8.32557 4.75915 8.24798C4.77458 8.17039 4.81269 8.09912 4.86863 8.04318C4.92457 7.98724 4.99584 7.94914 5.07344 7.93371C5.15103 7.91828 5.23145 7.9262 5.30454 7.95648C5.37764 7.98675 5.4401 8.03804 5.48405 8.10382C5.528 8.1696 5.55146 8.24693 5.55146 8.32604C5.55146 8.43213 5.50932 8.53387 5.43431 8.60888C5.35929 8.6839 5.25756 8.72604 5.15147 8.72604ZM5.15147 8.28002C5.14217 8.28002 5.13309 8.28279 5.12536 8.28796C5.11763 8.29312 5.1116 8.30046 5.10804 8.30905C5.10448 8.31763 5.10356 8.32709 5.10537 8.33621C5.10719 8.34532 5.11166 8.35368 5.11824 8.36025C5.12481 8.36683 5.13318 8.37132 5.1423 8.37313C5.15142 8.37495 5.16087 8.374 5.16946 8.37045C5.17805 8.36689 5.18538 8.36087 5.19055 8.35314C5.19571 8.34541 5.19847 8.33632 5.19847 8.32702C5.1982 8.31473 5.19314 8.30303 5.18435 8.29443C5.17557 8.28583 5.16376 8.28103 5.15147 8.28103V8.28002Z" fill="#FA544D"/>
<path d="M5.15171 6.61202C5.27487 6.61202 5.37471 6.51218 5.37471 6.38902C5.37471 6.26586 5.27487 6.16602 5.15171 6.16602C5.02855 6.16602 4.92871 6.26586 4.92871 6.38902C4.92871 6.51218 5.02855 6.61202 5.15171 6.61202Z" fill="#FA544D"/>
<path d="M5.15147 6.78705C5.07236 6.78705 4.99502 6.76359 4.92924 6.71964C4.86346 6.67568 4.81219 6.61322 4.78192 6.54013C4.75164 6.46704 4.74372 6.38662 4.75915 6.30902C4.77458 6.23143 4.81269 6.16016 4.86863 6.10422C4.92457 6.04828 4.99584 6.01019 5.07344 5.99475C5.15103 5.97932 5.23145 5.98721 5.30454 6.01749C5.37764 6.04776 5.4401 6.09905 5.48405 6.16483C5.528 6.23061 5.55146 6.30794 5.55146 6.38706C5.55146 6.49314 5.50932 6.59488 5.43431 6.66989C5.35929 6.74491 5.25756 6.78705 5.15147 6.78705ZM5.15147 6.34107C5.14217 6.34107 5.13309 6.34381 5.12536 6.34897C5.11763 6.35414 5.1116 6.36147 5.10804 6.37006C5.10448 6.37865 5.10356 6.3881 5.10537 6.39722C5.10719 6.40634 5.11166 6.41472 5.11824 6.4213C5.12481 6.42787 5.13318 6.43233 5.1423 6.43415C5.15142 6.43596 5.16087 6.43505 5.16946 6.43149C5.17805 6.42793 5.18538 6.42189 5.19055 6.41416C5.19571 6.40643 5.19847 6.39736 5.19847 6.38806C5.1982 6.37577 5.19314 6.36407 5.18435 6.35547C5.17557 6.34687 5.16376 6.34106 5.15147 6.34107Z" fill="#FA544D"/>
<path d="M5.15171 7.58199C5.27487 7.58199 5.37471 7.48215 5.37471 7.35899C5.37471 7.23583 5.27487 7.13599 5.15171 7.13599C5.02855 7.13599 4.92871 7.23583 4.92871 7.35899C4.92871 7.48215 5.02855 7.58199 5.15171 7.58199Z" fill="#FA544D"/>
<path d="M5.15147 7.75704C5.07236 7.75704 4.99502 7.73358 4.92924 7.68963C4.86346 7.64568 4.81219 7.58319 4.78192 7.5101C4.75164 7.43701 4.74372 7.35658 4.75915 7.27899C4.77458 7.20139 4.81269 7.13012 4.86863 7.07418C4.92457 7.01824 4.99584 6.98015 5.07344 6.96472C5.15103 6.94928 5.23145 6.95721 5.30454 6.98748C5.37764 7.01776 5.4401 7.06904 5.48405 7.13482C5.528 7.2006 5.55146 7.27794 5.55146 7.35705C5.55146 7.46314 5.50932 7.56487 5.43431 7.63989C5.35929 7.7149 5.25756 7.75704 5.15147 7.75704ZM5.15147 7.31103C5.14217 7.31103 5.13309 7.3138 5.12536 7.31896C5.11763 7.32413 5.1116 7.33146 5.10804 7.34005C5.10448 7.34864 5.10356 7.3581 5.10537 7.36721C5.10719 7.37633 5.11166 7.38469 5.11824 7.39126C5.12481 7.39783 5.13318 7.40233 5.1423 7.40414C5.15142 7.40595 5.16087 7.40501 5.16946 7.40145C5.17805 7.3979 5.18538 7.39188 5.19055 7.38415C5.19571 7.37642 5.19847 7.36732 5.19847 7.35803C5.1982 7.34574 5.19314 7.33403 5.18435 7.32543C5.17557 7.31684 5.16376 7.31203 5.15147 7.31204V7.31103Z" fill="#FA544D"/>
<path d="M6.12046 7.58199C6.24362 7.58199 6.34346 7.48215 6.34346 7.35899C6.34346 7.23583 6.24362 7.13599 6.12046 7.13599C5.9973 7.13599 5.89746 7.23583 5.89746 7.35899C5.89746 7.48215 5.9973 7.58199 6.12046 7.58199Z" fill="#FA544D"/>
<path d="M6.12022 7.75704C6.04111 7.75704 5.96377 7.73358 5.89799 7.68963C5.83221 7.64568 5.78094 7.58319 5.75067 7.5101C5.72039 7.43701 5.71247 7.35658 5.7279 7.27899C5.74333 7.20139 5.78143 7.13012 5.83737 7.07418C5.89331 7.01824 5.96458 6.98015 6.04217 6.96472C6.11976 6.94928 6.20019 6.95721 6.27328 6.98748C6.34637 7.01776 6.40885 7.06904 6.4528 7.13482C6.49675 7.2006 6.52021 7.27794 6.52021 7.35705C6.52021 7.46314 6.47807 7.56487 6.40306 7.63989C6.32804 7.7149 6.22631 7.75704 6.12022 7.75704ZM6.12022 7.31103C6.11092 7.31103 6.10182 7.3138 6.0941 7.31896C6.08637 7.32413 6.08035 7.33146 6.07679 7.34005C6.07323 7.34864 6.07231 7.3581 6.07412 7.36721C6.07594 7.37633 6.08041 7.38469 6.08699 7.39126C6.09356 7.39783 6.10193 7.40233 6.11105 7.40414C6.12017 7.40595 6.12961 7.40501 6.13819 7.40145C6.14678 7.3979 6.15413 7.39188 6.1593 7.38415C6.16446 7.37642 6.16722 7.36732 6.16722 7.35803C6.16695 7.34574 6.16189 7.33403 6.1531 7.32543C6.14432 7.31684 6.13251 7.31203 6.12022 7.31204V7.31103Z" fill="#FA544D"/>
<path d="M6.12046 6.61202C6.24362 6.61202 6.34346 6.51218 6.34346 6.38902C6.34346 6.26586 6.24362 6.16602 6.12046 6.16602C5.9973 6.16602 5.89746 6.26586 5.89746 6.38902C5.89746 6.51218 5.9973 6.61202 6.12046 6.61202Z" fill="#FA544D"/>
<path d="M6.12022 6.78705C6.04111 6.78705 5.96377 6.76359 5.89799 6.71964C5.83221 6.67568 5.78094 6.61322 5.75067 6.54013C5.72039 6.46704 5.71247 6.38662 5.7279 6.30902C5.74333 6.23143 5.78143 6.16016 5.83737 6.10422C5.89331 6.04828 5.96458 6.01019 6.04217 5.99475C6.11976 5.97932 6.20019 5.98721 6.27328 6.01749C6.34637 6.04776 6.40885 6.09905 6.4528 6.16483C6.49675 6.23061 6.52021 6.30794 6.52021 6.38706C6.52021 6.49314 6.47807 6.59488 6.40306 6.66989C6.32804 6.74491 6.22631 6.78705 6.12022 6.78705ZM6.12022 6.34107C6.11092 6.34107 6.10182 6.34381 6.0941 6.34897C6.08637 6.35414 6.08035 6.36147 6.07679 6.37006C6.07323 6.37865 6.07231 6.3881 6.07412 6.39722C6.07594 6.40634 6.08041 6.41472 6.08699 6.4213C6.09356 6.42787 6.10193 6.43233 6.11105 6.43415C6.12017 6.43596 6.12961 6.43505 6.13819 6.43149C6.14678 6.42793 6.15413 6.42189 6.1593 6.41416C6.16446 6.40643 6.16722 6.39736 6.16722 6.38806C6.16695 6.37577 6.16189 6.36407 6.1531 6.35547C6.14432 6.34687 6.13251 6.34106 6.12022 6.34107Z" fill="#FA544D"/>
<path d="M6.12046 8.55098C6.24362 8.55098 6.34346 8.45114 6.34346 8.32798C6.34346 8.20482 6.24362 8.10498 6.12046 8.10498C5.9973 8.10498 5.89746 8.20482 5.89746 8.32798C5.89746 8.45114 5.9973 8.55098 6.12046 8.55098Z" fill="#FA544D"/>
<path d="M6.12022 8.72604C6.04111 8.72604 5.96377 8.70258 5.89799 8.65863C5.83221 8.61467 5.78094 8.55218 5.75067 8.47909C5.72039 8.406 5.71247 8.32557 5.7279 8.24798C5.74333 8.17039 5.78143 8.09912 5.83737 8.04318C5.89331 7.98724 5.96458 7.94914 6.04217 7.93371C6.11976 7.91828 6.20019 7.9262 6.27328 7.95648C6.34637 7.98675 6.40885 8.03804 6.4528 8.10382C6.49675 8.1696 6.52021 8.24693 6.52021 8.32604C6.52021 8.43213 6.47807 8.53387 6.40306 8.60888C6.32804 8.6839 6.22631 8.72604 6.12022 8.72604ZM6.12022 8.28002C6.11092 8.28002 6.10182 8.28279 6.0941 8.28796C6.08637 8.29312 6.08035 8.30046 6.07679 8.30905C6.07323 8.31763 6.07231 8.32709 6.07412 8.33621C6.07594 8.34532 6.08041 8.35368 6.08699 8.36025C6.09356 8.36683 6.10193 8.37132 6.11105 8.37313C6.12017 8.37495 6.12961 8.374 6.13819 8.37045C6.14678 8.36689 6.15413 8.36087 6.1593 8.35314C6.16446 8.34541 6.16722 8.33632 6.16722 8.32702C6.16695 8.31473 6.16189 8.30303 6.1531 8.29443C6.14432 8.28583 6.13251 8.28103 6.12022 8.28103V8.28002Z" fill="#FA544D"/>
<path d="M7.08921 8.55098C7.21237 8.55098 7.31221 8.45114 7.31221 8.32798C7.31221 8.20482 7.21237 8.10498 7.08921 8.10498C6.96605 8.10498 6.86621 8.20482 6.86621 8.32798C6.86621 8.45114 6.96605 8.55098 7.08921 8.55098Z" fill="#FA544D"/>
<path d="M7.08945 8.72604C7.01034 8.72604 6.933 8.70258 6.86722 8.65863C6.80144 8.61467 6.75016 8.55218 6.71988 8.47909C6.68961 8.406 6.68171 8.32557 6.69715 8.24798C6.71258 8.17039 6.75067 8.09912 6.80661 8.04318C6.86255 7.98724 6.93382 7.94914 7.01142 7.93371C7.08901 7.91828 7.16944 7.9262 7.24253 7.95648C7.31562 7.98675 7.37808 8.03804 7.42203 8.10382C7.46598 8.1696 7.48944 8.24693 7.48944 8.32604C7.48944 8.43213 7.4473 8.53387 7.37229 8.60888C7.29727 8.6839 7.19554 8.72604 7.08945 8.72604ZM7.08945 8.28002C7.08015 8.28002 7.07106 8.28279 7.06333 8.28796C7.0556 8.29312 7.04958 8.30046 7.04602 8.30905C7.04247 8.31763 7.04152 8.32709 7.04334 8.33621C7.04515 8.34532 7.04964 8.35368 7.05622 8.36025C7.06279 8.36683 7.07115 8.37132 7.08026 8.37313C7.08938 8.37495 7.09884 8.374 7.10742 8.37045C7.11601 8.36689 7.12335 8.36087 7.12851 8.35314C7.13368 8.34541 7.13645 8.33632 7.13645 8.32702C7.13619 8.31473 7.1311 8.30303 7.12232 8.29443C7.11353 8.28583 7.10174 8.28103 7.08945 8.28103V8.28002Z" fill="#FA544D"/>
<path d="M7.08921 7.58199C7.21237 7.58199 7.31221 7.48215 7.31221 7.35899C7.31221 7.23583 7.21237 7.13599 7.08921 7.13599C6.96605 7.13599 6.86621 7.23583 6.86621 7.35899C6.86621 7.48215 6.96605 7.58199 7.08921 7.58199Z" fill="#FA544D"/>
<path d="M7.08945 7.75704C7.01034 7.75704 6.933 7.73358 6.86722 7.68963C6.80144 7.64568 6.75016 7.58319 6.71988 7.5101C6.68961 7.43701 6.68171 7.35658 6.69715 7.27899C6.71258 7.20139 6.75067 7.13012 6.80661 7.07418C6.86255 7.01824 6.93382 6.98015 7.01142 6.96472C7.08901 6.94928 7.16944 6.95721 7.24253 6.98748C7.31562 7.01776 7.37808 7.06904 7.42203 7.13482C7.46598 7.2006 7.48944 7.27794 7.48944 7.35705C7.48944 7.46314 7.4473 7.56487 7.37229 7.63989C7.29727 7.7149 7.19554 7.75704 7.08945 7.75704ZM7.08945 7.31103C7.08015 7.31103 7.07106 7.3138 7.06333 7.31896C7.0556 7.32413 7.04958 7.33146 7.04602 7.34005C7.04247 7.34864 7.04152 7.3581 7.04334 7.36721C7.04515 7.37633 7.04964 7.38469 7.05622 7.39126C7.06279 7.39783 7.07115 7.40233 7.08026 7.40414C7.08938 7.40595 7.09884 7.40501 7.10742 7.40145C7.11601 7.3979 7.12335 7.39188 7.12851 7.38415C7.13368 7.37642 7.13645 7.36732 7.13645 7.35803C7.13619 7.34574 7.1311 7.33403 7.12232 7.32543C7.11353 7.31684 7.10174 7.31203 7.08945 7.31204V7.31103Z" fill="#FA544D"/>
<path d="M8.05796 7.58199C8.18112 7.58199 8.28096 7.48215 8.28096 7.35899C8.28096 7.23583 8.18112 7.13599 8.05796 7.13599C7.9348 7.13599 7.83496 7.23583 7.83496 7.35899C7.83496 7.48215 7.9348 7.58199 8.05796 7.58199Z" fill="#FA544D"/>
<path d="M8.0582 7.75704C7.97909 7.75704 7.90175 7.73358 7.83597 7.68963C7.77019 7.64568 7.71891 7.58319 7.68863 7.5101C7.65836 7.43701 7.65046 7.35658 7.6659 7.27899C7.68133 7.20139 7.71942 7.13012 7.77536 7.07418C7.8313 7.01824 7.90257 6.98015 7.98017 6.96472C8.05776 6.94928 8.13819 6.95721 8.21128 6.98748C8.28437 7.01776 8.34683 7.06904 8.39078 7.13482C8.43473 7.2006 8.45819 7.27794 8.45819 7.35705C8.45819 7.46314 8.41605 7.56487 8.34104 7.63989C8.26602 7.7149 8.16429 7.75704 8.0582 7.75704ZM8.0582 7.31103C8.0489 7.31103 8.03981 7.3138 8.03208 7.31896C8.02435 7.32413 8.01833 7.33146 8.01477 7.34005C8.01122 7.34864 8.01027 7.3581 8.01209 7.36721C8.0139 7.37633 8.01839 7.38469 8.02497 7.39126C8.03154 7.39783 8.0399 7.40233 8.04901 7.40414C8.05813 7.40595 8.06759 7.40501 8.07617 7.40145C8.08476 7.3979 8.0921 7.39188 8.09726 7.38415C8.10243 7.37642 8.1052 7.36732 8.1052 7.35803C8.10494 7.34574 8.09985 7.33403 8.09107 7.32543C8.08228 7.31684 8.07049 7.31203 8.0582 7.31204V7.31103Z" fill="#FA544D"/>
<path d="M8.05796 8.55098C8.18112 8.55098 8.28096 8.45114 8.28096 8.32798C8.28096 8.20482 8.18112 8.10498 8.05796 8.10498C7.9348 8.10498 7.83496 8.20482 7.83496 8.32798C7.83496 8.45114 7.9348 8.55098 8.05796 8.55098Z" fill="#FA544D"/>
<path d="M8.0582 8.72604C7.97909 8.72604 7.90175 8.70258 7.83597 8.65863C7.77019 8.61467 7.71891 8.55218 7.68863 8.47909C7.65836 8.406 7.65046 8.32557 7.6659 8.24798C7.68133 8.17039 7.71942 8.09912 7.77536 8.04318C7.8313 7.98724 7.90257 7.94914 7.98017 7.93371C8.05776 7.91828 8.13819 7.9262 8.21128 7.95648C8.28437 7.98675 8.34683 8.03804 8.39078 8.10382C8.43473 8.1696 8.45819 8.24693 8.45819 8.32604C8.45819 8.43213 8.41605 8.53387 8.34104 8.60888C8.26602 8.6839 8.16429 8.72604 8.0582 8.72604ZM8.0582 8.28002C8.0489 8.28002 8.03981 8.28279 8.03208 8.28796C8.02435 8.29312 8.01833 8.30046 8.01477 8.30905C8.01122 8.31763 8.01027 8.32709 8.01209 8.33621C8.0139 8.34532 8.01839 8.35368 8.02497 8.36025C8.03154 8.36683 8.0399 8.37132 8.04901 8.37313C8.05813 8.37495 8.06759 8.374 8.07617 8.37045C8.08476 8.36689 8.0921 8.36087 8.09726 8.35314C8.10243 8.34541 8.1052 8.33632 8.1052 8.32702C8.10494 8.31473 8.09985 8.30303 8.09107 8.29443C8.08228 8.28583 8.07049 8.28103 8.0582 8.28103V8.28002Z" fill="#FA544D"/>
</svg>
