<svg width="24" height="13" viewBox="0 0 24 13" fill="none" xmlns="http://www.w3.org/2000/svg">
<path d="M23.839 5.75893C21.6576 3.1016 17.0404 0 12 0C6.94203 0 2.32364 3.12211 0.16096 5.75893C0.0569124 5.88496 0 6.04328 0 6.2067C0 6.37013 0.0569124 6.52846 0.16096 6.65448C2.39397 9.37629 7.02292 12.4134 12 12.4134C17.1547 12.4134 21.7526 9.19694 23.839 6.65448C23.9431 6.52846 24 6.37013 24 6.2067C24 6.04328 23.9431 5.88496 23.839 5.75893ZM16.7942 6.2067C16.7943 7.15505 16.5132 8.08214 15.9864 8.87072C15.4596 9.6593 14.7108 10.274 13.8347 10.637C12.9586 10.9999 11.9945 11.095 11.0644 10.91C10.1342 10.7251 9.2798 10.2685 8.60918 9.59794C7.93855 8.9274 7.48183 8.07305 7.29678 7.14293C7.11172 6.21281 7.20664 5.2487 7.56953 4.37253C7.93242 3.49636 8.54698 2.74748 9.3355 2.22059C10.124 1.69371 11.0511 1.41248 11.9994 1.41248C13.2706 1.41388 14.4894 1.91949 15.3883 2.81839C16.2872 3.71729 16.7928 4.93606 16.7942 6.20729V6.2067ZM1.6596 6.2067C3.19889 4.61794 5.03267 3.34394 7.05867 2.45572C6.23759 3.53382 5.79294 4.85154 5.79294 6.2067C5.79294 7.56186 6.23759 8.87959 7.05867 9.95769C5.02871 9.07656 3.19363 7.80164 1.6596 6.2067ZM16.9407 9.95769C17.7618 8.87959 18.2065 7.56186 18.2065 6.2067C18.2065 4.85154 17.7618 3.53382 16.9407 2.45572C18.9705 3.33699 20.8053 4.61189 22.3392 6.2067C20.7994 7.79567 18.965 9.0697 16.9384 9.95769H16.9407Z" fill="white"/>
<path d="M9.59961 6.20668C9.59961 6.68137 9.74037 7.14539 10.0041 7.54007C10.2678 7.93476 10.6426 8.24238 11.0812 8.42403C11.5197 8.60568 12.0023 8.65321 12.4679 8.56061C12.9334 8.468 13.3611 8.23942 13.6967 7.90377C14.0324 7.56812 14.261 7.14047 14.3536 6.67491C14.4462 6.20934 14.3987 5.72678 14.217 5.28823C14.0353 4.84967 13.7277 4.47484 13.333 4.21112C12.9384 3.9474 12.4743 3.80664 11.9997 3.80664C11.3634 3.80742 10.7533 4.06052 10.3034 4.51045C9.85349 4.96038 9.60038 5.57039 9.59961 6.20668ZM12.9878 6.20668C12.9878 6.40212 12.9298 6.59317 12.8213 6.75567C12.7127 6.91817 12.5584 7.04483 12.3778 7.11962C12.1972 7.19441 11.9986 7.21397 11.8069 7.17584C11.6152 7.13771 11.4391 7.04361 11.3009 6.90541C11.1627 6.76722 11.0686 6.59114 11.0305 6.39946C10.9924 6.20778 11.0119 6.0091 11.0867 5.82854C11.1615 5.64798 11.2882 5.49365 11.4507 5.38507C11.6132 5.27649 11.8042 5.21853 11.9997 5.21853C12.2616 5.21884 12.5128 5.32305 12.698 5.5083C12.8833 5.69354 12.9875 5.94471 12.9878 6.20668Z" fill="white"/>
</svg>
