<svg width="10" height="14" viewBox="0 0 10 14" fill="none" xmlns="http://www.w3.org/2000/svg">
<path d="M5.05213 13.1849C3.86261 13.1804 2.72345 12.7041 1.88467 11.8607C1.04589 11.0172 0.576005 9.87541 0.578132 8.68588C0.611315 7.74362 0.884991 6.82552 1.37313 6.01888C1.64047 5.50588 1.87592 4.97687 2.07813 4.43488L2.31313 3.78588L2.88913 3.92688L2.79813 4.61088C2.7293 5.20528 2.8262 5.80713 3.07813 6.34988C3.17749 6.56839 3.30526 6.77282 3.45813 6.95788C3.40525 6.07848 3.4992 5.19641 3.73613 4.34788C3.97831 3.48985 4.37701 2.68398 4.91213 1.97088C5.34099 1.30201 5.96023 0.776803 6.69013 0.462881L7.69013 0.327881L7.01813 1.08088C6.71101 1.42349 6.54178 1.86777 6.54313 2.32788C6.64163 3.19634 7.06105 3.99667 7.71913 4.57188C8.18372 5.07423 8.58966 5.62779 8.92913 6.22188C9.33304 6.98009 9.53939 7.82786 9.52913 8.68688C9.53099 9.87676 9.06058 11.0187 8.22118 11.8621C7.38177 12.7054 6.24201 13.1812 5.05213 13.1849ZM2.17813 6.06588L2.03513 6.35288C1.60437 7.05778 1.35972 7.86055 1.32413 8.68588C1.32413 9.67474 1.71696 10.6231 2.41618 11.3223C3.11541 12.0216 4.06377 12.4144 5.05263 12.4144C6.04149 12.4144 6.98985 12.0216 7.68908 11.3223C8.38831 10.6231 8.78113 9.67474 8.78113 8.68588C8.7659 8.0034 8.61419 7.33087 8.33493 6.70794C8.05567 6.08502 7.65452 5.52432 7.15513 5.05888C6.36931 4.35625 5.8835 3.37855 5.79813 2.32788C5.7982 2.23535 5.80321 2.14288 5.81313 2.05088C5.57512 2.32082 5.36098 2.61091 5.17313 2.91788C4.31222 4.36004 3.99781 6.06341 4.28713 7.71788L4.38713 8.36988L3.77813 8.11388C3.15488 7.81862 2.66447 7.3011 2.40313 6.66288C2.31265 6.47006 2.23742 6.27045 2.17813 6.06588Z" fill="#FA544D"/>
</svg>
