<svg width="12" height="13" viewBox="0 0 12 13" fill="none" xmlns="http://www.w3.org/2000/svg">
<path d="M4.793 11.1389V12.3539L4.5 12.1169C3.7033 11.4525 2.96033 10.7263 2.278 9.94489C0.766 8.20989 0 6.65189 0 5.31489V5.18289C0 3.91171 0.504975 2.69259 1.40384 1.79373C2.3027 0.894868 3.52182 0.389893 4.793 0.389893C6.06418 0.389893 7.2833 0.894868 8.18216 1.79373C9.08103 2.69259 9.586 3.91171 9.586 5.18289V5.31489C9.586 5.42689 9.58 5.54089 9.569 5.65689L8.632 4.80189C8.54178 3.81036 8.07173 2.8921 7.32014 2.23912C6.56855 1.58614 5.59362 1.249 4.59921 1.2982C3.6048 1.34741 2.66791 1.77914 1.98446 2.50313C1.301 3.22712 0.923896 4.1873 0.932 5.18289V5.31489C0.935 7.57389 3.845 10.3079 4.793 11.1389ZM4.793 3.19589C5.18599 3.19589 5.57016 3.31243 5.89692 3.53076C6.22368 3.7491 6.47836 4.05942 6.62875 4.4225C6.77914 4.78558 6.81849 5.1851 6.74182 5.57054C6.66515 5.95598 6.47591 6.31003 6.19802 6.58791C5.92013 6.8658 5.56608 7.05504 5.18064 7.13171C4.7952 7.20838 4.39568 7.16903 4.03261 7.01864C3.66953 6.86825 3.3592 6.61357 3.14087 6.28681C2.92254 5.96005 2.806 5.57588 2.806 5.18289C2.80679 4.65615 3.01639 4.15121 3.38886 3.77875C3.76132 3.40628 4.26626 3.19669 4.793 3.19589ZM4.793 4.13089C4.58493 4.13089 4.38154 4.19259 4.20854 4.30819C4.03554 4.42378 3.9007 4.58808 3.82108 4.78031C3.74146 4.97254 3.72062 5.18406 3.76121 5.38813C3.80181 5.5922 3.902 5.77964 4.04912 5.92677C4.19625 6.07389 4.3837 6.17409 4.58777 6.21468C4.79183 6.25527 5.00336 6.23444 5.19558 6.15481C5.38781 6.07519 5.55211 5.94035 5.66771 5.76735C5.7833 5.59435 5.845 5.39096 5.845 5.18289C5.84474 4.90397 5.73381 4.63654 5.53658 4.43931C5.33935 4.24208 5.07193 4.13116 4.793 4.13089Z" fill="#8186AF"/>
<path d="M7.6688 10.4669H9.0688V9.06687H7.6688V10.4669ZM11.3688 9.83187L11.1058 9.59187V11.0919C11.1055 11.4281 10.9719 11.7505 10.7341 11.9882C10.4964 12.2259 10.174 12.3596 9.8378 12.3599H6.8778C6.71115 12.3597 6.54616 12.3268 6.39225 12.2629C6.23834 12.199 6.09852 12.1054 5.98077 11.9875C5.86303 11.8696 5.76966 11.7296 5.70601 11.5756C5.64236 11.4216 5.60967 11.2565 5.6098 11.0899V9.58987L5.3468 9.82987L4.7168 9.13887L8.3578 5.81787L11.9998 9.14087L11.3688 9.83187ZM10.1688 8.73887L8.3578 7.08387L6.5448 8.73787V11.0899C6.5448 11.1782 6.57988 11.2629 6.64233 11.3253C6.70478 11.3878 6.78948 11.4229 6.8778 11.4229H9.8388C9.92711 11.4229 10.0118 11.3878 10.0743 11.3253C10.1367 11.2629 10.1718 11.1782 10.1718 11.0899L10.1688 8.73887Z" fill="#FA544D"/>
</svg>
