<svg width="19" height="15" viewBox="0 0 19 15" fill="none" xmlns="http://www.w3.org/2000/svg">
<path d="M5.01041 3.89697C4.84093 3.89697 4.6784 3.9643 4.55856 4.08414C4.43873 4.20397 4.37141 4.36651 4.37141 4.53598V8.16197L1.8934 4.19698C1.81782 4.08266 1.70774 3.99543 1.57917 3.94798C1.4506 3.90053 1.31025 3.89534 1.17852 3.93315C1.04679 3.97096 0.930563 4.0498 0.846733 4.15822C0.762904 4.26664 0.715844 4.39898 0.712402 4.53598V10.397C0.712402 10.5664 0.779723 10.729 0.899559 10.8488C1.01939 10.9687 1.18193 11.036 1.3514 11.036C1.52088 11.036 1.68341 10.9687 1.80325 10.8488C1.92308 10.729 1.9904 10.5664 1.9904 10.397V6.77098L4.46841 10.736C4.54399 10.8503 4.65407 10.9375 4.78264 10.985C4.91121 11.0324 5.05156 11.0376 5.18329 10.9998C5.31502 10.962 5.43125 10.8832 5.51508 10.7747C5.59891 10.6663 5.64596 10.534 5.64941 10.397V4.54198C5.6502 4.45756 5.63425 4.37381 5.60249 4.29559C5.57074 4.21737 5.52379 4.14623 5.46438 4.08626C5.40496 4.02628 5.33425 3.97867 5.25633 3.94618C5.17841 3.91369 5.09483 3.89697 5.01041 3.89697Z" fill="#43FCFF"/>
<path d="M18.0974 10.3981V4.54306C18.0974 4.37345 18.0301 4.2108 17.9102 4.09087C17.7902 3.97094 17.6276 3.90356 17.4579 3.90356C17.2883 3.90356 17.1257 3.97094 17.0058 4.09087C16.8858 4.2108 16.8185 4.37345 16.8185 4.54306V8.44305L15.8835 7.16505C15.8234 7.08495 15.7455 7.01994 15.6559 6.97516C15.5664 6.93038 15.4676 6.90706 15.3675 6.90706C15.2673 6.90706 15.1686 6.93038 15.079 6.97516C14.9894 7.01994 14.9115 7.08495 14.8514 7.16505L13.9044 8.45206V4.54607C13.9044 4.37659 13.8371 4.21406 13.7173 4.09422C13.5974 3.97439 13.4349 3.90706 13.2654 3.90706C13.096 3.90706 12.9334 3.97439 12.8136 4.09422C12.6938 4.21406 12.6265 4.37659 12.6265 4.54607V10.4011C12.6294 10.5343 12.6735 10.6633 12.7528 10.7704C12.8322 10.8775 12.9428 10.9573 13.0694 10.9989C13.196 11.0404 13.3323 11.0417 13.4597 11.0025C13.587 10.9633 13.6991 10.8856 13.7805 10.7801L15.3665 8.62405L16.9435 10.7791C16.9708 10.8156 17.002 10.8492 17.0365 10.8791C17.1295 10.9581 17.2431 11.0091 17.364 11.0261C17.485 11.0431 17.6082 11.0253 17.7194 10.9749C17.8306 10.9245 17.9252 10.8435 17.9922 10.7413C18.0591 10.6392 18.0956 10.5202 18.0974 10.3981Z" fill="#43FCFF"/>
<path d="M17.0361 10.874C17.0561 10.892 17.4141 11.208 17.0361 10.874V10.874Z" fill="#43FCFF"/>
<path d="M10.9865 5.17912C11.156 5.17912 11.3185 5.11181 11.4383 4.99197C11.5582 4.87214 11.6255 4.7096 11.6255 4.54013C11.6255 4.37066 11.5582 4.20812 11.4383 4.08829C11.3185 3.96845 11.156 3.90112 10.9865 3.90112H7.32649C7.15702 3.90112 6.99448 3.96845 6.87465 4.08829C6.75481 4.20812 6.6875 4.37066 6.6875 4.54013V10.3971C6.6875 10.5666 6.75481 10.7291 6.87465 10.849C6.99448 10.9688 7.15702 11.0361 7.32649 11.0361H10.9865C11.156 11.0361 11.3185 10.9688 11.4383 10.849C11.5582 10.7291 11.6255 10.5666 11.6255 10.3971C11.6255 10.2277 11.5582 10.0651 11.4383 9.94528C11.3185 9.82545 11.156 9.75813 10.9865 9.75813H7.96649V8.10713H9.8275C9.99697 8.10713 10.1595 8.0398 10.2793 7.91997C10.3992 7.80013 10.4665 7.6376 10.4665 7.46812C10.4665 7.29865 10.3992 7.13612 10.2793 7.01628C10.1595 6.89645 9.99697 6.82913 9.8275 6.82913H7.96649V5.18013L10.9865 5.17912Z" fill="#43FCFF"/>
<path d="M3.20325 1.34904C3.37273 1.34904 3.53526 1.28172 3.6551 1.16189C3.77493 1.04205 3.84225 0.879518 3.84225 0.710045C3.84225 0.540572 3.77493 0.378037 3.6551 0.258202C3.53526 0.138366 3.37273 0.0710449 3.20325 0.0710449H0.774254C0.60478 0.0710449 0.442246 0.138366 0.322411 0.258202C0.202575 0.378037 0.135254 0.540572 0.135254 0.710045C0.135254 0.879518 0.202575 1.04205 0.322411 1.16189C0.442246 1.28172 0.60478 1.34904 0.774254 1.34904H3.20325Z" fill="#43FCFF"/>
<path d="M5.69731 0.0710449H5.31332C5.14385 0.0710449 4.98132 0.138366 4.86148 0.258202C4.74164 0.378037 4.67432 0.540572 4.67432 0.710045C4.67432 0.879518 4.74164 1.04205 4.86148 1.16189C4.98132 1.28172 5.14385 1.34904 5.31332 1.34904H5.69731C5.86678 1.34904 6.02932 1.28172 6.14915 1.16189C6.26899 1.04205 6.33632 0.879518 6.33632 0.710045C6.33632 0.540572 6.26899 0.378037 6.14915 0.258202C6.02932 0.138366 5.86678 0.0710449 5.69731 0.0710449Z" fill="#43FCFF"/>
<path d="M15.7321 13.6501H13.3031C13.1336 13.6501 12.9711 13.7175 12.8512 13.8373C12.7314 13.9571 12.6641 14.1197 12.6641 14.2892C12.6641 14.4586 12.7314 14.6212 12.8512 14.741C12.9711 14.8608 13.1336 14.9282 13.3031 14.9282H15.7321C15.9015 14.9282 16.0641 14.8608 16.1839 14.741C16.3037 14.6212 16.3711 14.4586 16.3711 14.2892C16.3711 14.1197 16.3037 13.9571 16.1839 13.8373C16.0641 13.7175 15.9015 13.6501 15.7321 13.6501Z" fill="#43FCFF"/>
<path d="M18.2261 13.6501H17.8421C17.6727 13.6501 17.5101 13.7175 17.3903 13.8373C17.2705 13.9571 17.2031 14.1197 17.2031 14.2892C17.2031 14.4586 17.2705 14.6212 17.3903 14.741C17.5101 14.8608 17.6727 14.9282 17.8421 14.9282H18.2261C18.3956 14.9282 18.5581 14.8608 18.678 14.741C18.7978 14.6212 18.8651 14.4586 18.8651 14.2892C18.8651 14.1197 18.7978 13.9571 18.678 13.8373C18.5581 13.7175 18.3956 13.6501 18.2261 13.6501Z" fill="#43FCFF"/>
</svg>
