<svg width="19" height="18" viewBox="0 0 19 18" fill="none" xmlns="http://www.w3.org/2000/svg">
<path d="M17.6659 5.35402L16.7659 6.25401H12.9839L12.0839 5.35402C11.985 5.25509 11.8508 5.19951 11.7109 5.19951C11.571 5.19951 11.4369 5.25509 11.3379 5.35402C11.239 5.45294 11.1834 5.5871 11.1834 5.72701C11.1834 5.86691 11.239 6.00108 11.3379 6.10001L12.3929 7.15501C12.4419 7.20411 12.5 7.24307 12.564 7.26967C12.628 7.29627 12.6966 7.30997 12.7659 7.31001H14.3479V9.55402L4.78493 12.4V10.471H6.36593C6.43524 10.471 6.50387 10.4573 6.56787 10.4307C6.63188 10.4041 6.69001 10.3651 6.73893 10.316L7.79393 9.26102C7.89286 9.16209 7.94843 9.02792 7.94843 8.88802C7.94843 8.74811 7.89286 8.61394 7.79393 8.51501C7.69501 8.41609 7.56083 8.3605 7.42093 8.3605C7.28103 8.3605 7.14686 8.41609 7.04793 8.51501L6.14793 9.41501H2.36593L1.46593 8.51501C1.36701 8.41609 1.23283 8.3605 1.09293 8.3605C0.953029 8.3605 0.818857 8.41609 0.719931 8.51501C0.621006 8.61394 0.56543 8.74811 0.56543 8.88802C0.56543 9.02792 0.621006 9.16209 0.719931 9.26102L1.77493 10.316C1.82386 10.3651 1.88199 10.4041 1.94599 10.4307C2.01 10.4573 2.07862 10.471 2.14793 10.471H3.73093V13.108C3.73112 13.1901 3.75044 13.271 3.78734 13.3442C3.82425 13.4175 3.87772 13.4812 3.94353 13.5302C4.00934 13.5792 4.08566 13.6122 4.16645 13.6266C4.24723 13.641 4.33026 13.6363 4.40893 13.613L8.71793 12.329L6.96593 17.221C6.93707 17.3009 6.92795 17.3866 6.93938 17.4709C6.9508 17.5551 6.98241 17.6353 7.03153 17.7046C7.08064 17.774 7.14579 17.8304 7.22143 17.8691C7.29707 17.9079 7.38096 17.9277 7.46593 17.927H11.6759C11.7609 17.9277 11.8448 17.9079 11.9204 17.8691C11.9961 17.8304 12.0612 17.774 12.1103 17.7046C12.1595 17.6353 12.1911 17.5551 12.2025 17.4709C12.2139 17.3866 12.2048 17.3009 12.1759 17.221L10.2549 11.874L15.0249 10.452C15.1349 10.4203 15.2315 10.3537 15.3002 10.2622C15.369 10.1708 15.4061 10.0594 15.4059 9.94501V7.30801H16.9879C17.0572 7.30798 17.1259 7.29427 17.1899 7.26767C17.2539 7.24107 17.312 7.20211 17.3609 7.15302L18.4159 6.09801C18.4649 6.04902 18.5038 5.99088 18.5303 5.92688C18.5568 5.86288 18.5704 5.79428 18.5704 5.72501C18.5704 5.65573 18.5568 5.58715 18.5303 5.52315C18.5038 5.45915 18.4649 5.40099 18.4159 5.35201C18.3669 5.30302 18.3088 5.26418 18.2448 5.23767C18.1808 5.21116 18.1122 5.19751 18.0429 5.19751C17.9737 5.19751 17.9051 5.21116 17.8411 5.23767C17.7771 5.26418 17.7189 5.30302 17.6699 5.35201L17.6659 5.35402ZM8.20693 16.872L9.56593 13.088L10.9259 16.872H8.20693Z" fill="#8186AF"/>
<path d="M12.528 2.51688L14.715 0.875882C14.7474 0.8517 14.7867 0.838632 14.827 0.838632C14.8674 0.838632 14.9067 0.8517 14.939 0.875882L17.126 2.51688C17.2087 2.57605 17.3112 2.60052 17.4117 2.58506C17.5121 2.5696 17.6025 2.51543 17.6635 2.43415C17.7246 2.35287 17.7514 2.25093 17.7382 2.15014C17.725 2.04936 17.6729 1.95774 17.593 1.89488L15.255 0.141882C15.1311 0.0497536 14.9809 0 14.8265 0C14.6721 0 14.5219 0.0497536 14.398 0.141882L12.06 1.89488C12.0179 1.92505 11.9822 1.96334 11.9551 2.00749C11.9279 2.05165 11.9099 2.10078 11.902 2.152C11.8941 2.20322 11.8965 2.25551 11.9092 2.30578C11.9218 2.35605 11.9443 2.40329 11.9754 2.44474C12.0065 2.48618 12.0456 2.52099 12.0903 2.54712C12.1351 2.57325 12.1846 2.59017 12.236 2.59689C12.2874 2.60361 12.3396 2.6 12.3896 2.58626C12.4396 2.57252 12.4863 2.54893 12.527 2.51688H12.528Z" fill="#FA544D"/>
<path d="M13.8911 3.16992H14.6371V3.91592H13.8911V3.16992Z" fill="#FA544D"/>
<path d="M15.0142 3.16992H15.7602V3.91592H15.0142V3.16992Z" fill="#FA544D"/>
<path d="M16.7079 2.67195L15.259 1.58495C15.1332 1.49066 14.9802 1.4397 14.823 1.4397C14.6658 1.4397 14.5128 1.49066 14.387 1.58495L12.938 2.67195C12.8477 2.73958 12.7744 2.82729 12.7239 2.92813C12.6734 3.02896 12.6471 3.14017 12.647 3.25295V4.90995C12.647 4.95928 12.6666 5.00659 12.7014 5.04147C12.7363 5.07635 12.7836 5.09595 12.8329 5.09595H16.811C16.8603 5.09595 16.9076 5.07635 16.9425 5.04147C16.9774 5.00659 16.9969 4.95928 16.9969 4.90995V3.25395C16.9972 3.14117 16.9713 3.02987 16.9211 2.92886C16.871 2.82785 16.798 2.73989 16.7079 2.67195ZM16.194 4.35295C16.194 4.38398 16.1816 4.41374 16.1597 4.43568C16.1378 4.45762 16.108 4.46995 16.077 4.46995H13.5699C13.5388 4.46995 13.509 4.45765 13.4869 4.43574C13.4648 4.41383 13.4522 4.38407 13.452 4.35295V3.30895C13.452 3.23793 13.4685 3.16789 13.5003 3.10437C13.5321 3.04085 13.5782 2.98559 13.6349 2.94295L14.548 2.25795C14.6273 2.19839 14.7238 2.1662 14.823 2.1662C14.9222 2.1662 15.0186 2.19839 15.098 2.25795L16.011 2.94295C16.0677 2.98559 16.1138 3.04085 16.1456 3.10437C16.1774 3.16789 16.1939 3.23793 16.194 3.30895V4.35295Z" fill="#FA544D"/>
<path d="M16.8168 0.186003C16.8168 0.161493 16.812 0.137224 16.8026 0.114592C16.7931 0.0919599 16.7794 0.0714109 16.762 0.0541261C16.7446 0.0368413 16.724 0.0231615 16.7013 0.0138732C16.6786 0.00458481 16.6543 -0.000129087 16.6298 2.68836e-06H16.2568C16.2323 -0.000129087 16.208 0.00458481 16.1853 0.0138732C16.1627 0.0231615 16.142 0.0368413 16.1246 0.0541261C16.1073 0.0714109 16.0935 0.0919599 16.0841 0.114592C16.0747 0.137224 16.0698 0.161493 16.0698 0.186003V0.286003L16.8158 0.845003L16.8168 0.186003Z" fill="#FA544D"/>
<path d="M1.92401 5.68681L4.11101 4.04581C4.14334 4.02162 4.18263 4.00855 4.22301 4.00855C4.26338 4.00855 4.30268 4.02162 4.33501 4.04581L6.52201 5.68681C6.56274 5.71885 6.60946 5.74244 6.65943 5.75618C6.7094 5.76992 6.76162 5.77354 6.81301 5.76682C6.8644 5.76009 6.91392 5.74317 6.95868 5.71704C7.00344 5.69091 7.04252 5.65611 7.07364 5.61466C7.10476 5.57322 7.12728 5.52597 7.13988 5.4757C7.15249 5.42543 7.15492 5.37315 7.14703 5.32192C7.13915 5.2707 7.12111 5.22157 7.09397 5.17741C7.06683 5.13326 7.03115 5.09497 6.98901 5.0648L4.65101 3.31181C4.52714 3.21968 4.37688 3.16992 4.22251 3.16992C4.06814 3.16992 3.91787 3.21968 3.79401 3.31181L1.45601 5.0648C1.41387 5.09497 1.37818 5.13326 1.35104 5.17741C1.32391 5.22157 1.30587 5.2707 1.29798 5.32192C1.2901 5.37315 1.29253 5.42543 1.30514 5.4757C1.31774 5.52597 1.34026 5.57322 1.37138 5.61466C1.40249 5.65611 1.44158 5.69091 1.48634 5.71704C1.53109 5.74317 1.58062 5.76009 1.63201 5.76682C1.6834 5.77354 1.73561 5.76992 1.78558 5.75618C1.83556 5.74244 1.88228 5.71885 1.92301 5.68681H1.92401Z" fill="#FA544D"/>
<path d="M3.29102 6.33984H4.03702V7.08585H3.29102V6.33984Z" fill="#FA544D"/>
<path d="M4.40918 6.33984H5.15517V7.08585H4.40918V6.33984Z" fill="#FA544D"/>
<path d="M6.10787 5.84187L4.65887 4.75487C4.53307 4.66058 4.38009 4.60962 4.22287 4.60962C4.06566 4.60962 3.91268 4.66058 3.78687 4.75487L2.33788 5.84187C2.24763 5.90951 2.17435 5.99722 2.12385 6.09805C2.07334 6.19889 2.04699 6.31009 2.04688 6.42287V8.07988C2.04688 8.12921 2.06647 8.17651 2.10135 8.2114C2.13623 8.24628 2.18354 8.26587 2.23287 8.26587H6.21087C6.2602 8.26587 6.30751 8.24628 6.3424 8.2114C6.37728 8.17651 6.39687 8.12921 6.39687 8.07988V6.42287C6.39699 6.31026 6.37095 6.19917 6.32079 6.09834C6.27064 5.99752 6.19775 5.90972 6.10787 5.84187ZM5.59387 7.52287C5.59361 7.55382 5.5812 7.58343 5.55932 7.60532C5.53743 7.6272 5.50782 7.63962 5.47688 7.63988H2.96988C2.93884 7.63988 2.90908 7.62755 2.88714 7.60561C2.8652 7.58366 2.85287 7.5539 2.85287 7.52287V6.47887C2.85291 6.40785 2.86947 6.33783 2.90123 6.27431C2.93299 6.21079 2.97908 6.15551 3.03587 6.11287L3.94888 5.42787C4.02819 5.36832 4.12469 5.33612 4.22387 5.33612C4.32306 5.33612 4.41956 5.36832 4.49887 5.42787L5.41187 6.11287C5.46866 6.15551 5.51476 6.21079 5.54652 6.27431C5.57828 6.33783 5.59484 6.40785 5.59488 6.47887L5.59387 7.52287Z" fill="#FA544D"/>
<path d="M6.20987 3.35592C6.20987 3.3315 6.20506 3.30731 6.19571 3.28475C6.18636 3.26218 6.17265 3.24167 6.15538 3.2244C6.13811 3.20713 6.11761 3.19342 6.09505 3.18408C6.07248 3.17473 6.04829 3.16992 6.02386 3.16992H5.65086C5.62635 3.16979 5.60206 3.17451 5.57938 3.18379C5.55669 3.19308 5.53607 3.20676 5.51869 3.22405C5.50131 3.24133 5.48753 3.26188 5.47812 3.28451C5.46871 3.30714 5.46387 3.33141 5.46387 3.35592V3.45592L6.20987 4.01493V3.35592Z" fill="#FA544D"/>
</svg>
