<svg width="17" height="13" viewBox="0 0 17 13" fill="none" xmlns="http://www.w3.org/2000/svg">
<path d="M16.3971 1.06691C16.5242 1.19395 16.625 1.34478 16.6938 1.51079C16.7626 1.67679 16.798 1.85472 16.798 2.03441C16.798 2.2141 16.7626 2.39204 16.6938 2.55804C16.625 2.72405 16.5242 2.87487 16.3971 3.00191L7.21909 12.1799C7.09206 12.307 6.94124 12.4078 6.77523 12.4766C6.60922 12.5454 6.43128 12.5808 6.25159 12.5808C6.0719 12.5808 5.89398 12.5454 5.72797 12.4766C5.56197 12.4078 5.41113 12.307 5.2841 12.1799L0.915107 7.81091C0.669472 7.55226 0.534574 7.2079 0.539177 6.85123C0.543779 6.49455 0.687508 6.15378 0.939735 5.90155C1.19196 5.64932 1.53274 5.50559 1.88941 5.50099C2.24609 5.49639 2.59045 5.63127 2.8491 5.87691L6.24911 9.27692L14.4591 1.06592C14.5863 0.93845 14.7373 0.837332 14.9036 0.768372C15.07 0.699412 15.2483 0.66397 15.4283 0.664063C15.6084 0.664156 15.7866 0.69979 15.9529 0.768921C16.1191 0.838053 16.2701 0.93931 16.3971 1.06691Z" fill="#43FCFF"/>
</svg>
