<svg width="11" height="6" viewBox="0 0 11 6" fill="none" xmlns="http://www.w3.org/2000/svg">
<path d="M0.792903 0.692009C0.760372 0.659136 0.734762 0.620076 0.717587 0.577136C0.700411 0.534196 0.692017 0.488248 0.692903 0.442009C0.692017 0.39577 0.700411 0.349823 0.717587 0.306883C0.734762 0.263943 0.760372 0.224882 0.792903 0.192009C0.859265 0.125814 0.949171 0.0886405 1.0429 0.0886405C1.13663 0.0886405 1.22654 0.125814 1.2929 0.192009L5.6929 4.59201L10.0929 0.192009C10.1251 0.156418 10.1642 0.127741 10.2078 0.107721C10.2514 0.0877013 10.2986 0.0767563 10.3466 0.0755511C10.3946 0.074346 10.4423 0.0829058 10.4868 0.100711C10.5314 0.118515 10.5719 0.145193 10.6058 0.179124C10.6397 0.213054 10.6664 0.253528 10.6842 0.298088C10.702 0.342647 10.7106 0.390361 10.7094 0.43833C10.7082 0.4863 10.6972 0.533524 10.6772 0.577133C10.6572 0.620742 10.6285 0.659826 10.5929 0.692009L5.9429 5.34201C5.87654 5.4082 5.78663 5.44538 5.6929 5.44538C5.59917 5.44538 5.50926 5.4082 5.4429 5.34201L0.792903 0.692009Z" fill="white"/>
</svg>
