<svg width="7" height="13" viewBox="0 0 7 13" fill="none" xmlns="http://www.w3.org/2000/svg">
<path d="M5.73277 0.36104C5.77184 0.321226 5.81855 0.28972 5.87011 0.268411C5.92166 0.247102 5.97699 0.236432 6.03277 0.237041C6.08855 0.236432 6.14387 0.247102 6.19543 0.268411C6.24698 0.28972 6.2937 0.321226 6.33277 0.36104C6.41215 0.440701 6.45673 0.548578 6.45673 0.66104C6.45673 0.773502 6.41215 0.88138 6.33277 0.96104L1.05677 6.23704L6.33277 11.513C6.41233 11.5926 6.45703 11.7005 6.45703 11.813C6.45703 11.9256 6.41233 12.0335 6.33277 12.113C6.2532 12.1926 6.14529 12.2373 6.03277 12.2373C5.92025 12.2373 5.81233 12.1926 5.73277 12.113L0.156767 6.53704C0.0773816 6.45738 0.0328069 6.3495 0.0328069 6.23704C0.0328069 6.12458 0.0773816 6.0167 0.156767 5.93704L5.73277 0.36104Z" fill="#FA544D"/>
</svg>
