<svg width="7" height="13" viewBox="0 0 7 13" fill="none" xmlns="http://www.w3.org/2000/svg">
<path d="M0.756979 12.113C0.717907 12.1528 0.671192 12.1843 0.619639 12.2056C0.568086 12.2269 0.512759 12.2376 0.456979 12.237C0.401199 12.2376 0.345872 12.2269 0.294319 12.2056C0.242766 12.1843 0.196051 12.1528 0.156979 12.113C0.0775938 12.0333 0.0330188 11.9254 0.0330188 11.813C0.0330188 11.7005 0.0775938 11.5926 0.156979 11.513L5.43298 6.23696L0.156979 0.960958C0.077414 0.881393 0.0327148 0.77348 0.0327148 0.660958C0.0327148 0.548437 0.077414 0.440523 0.156979 0.360958C0.236544 0.281393 0.344457 0.236694 0.456979 0.236694C0.569501 0.236694 0.677414 0.281393 0.756979 0.360958L6.33298 5.93696C6.41236 6.01662 6.45694 6.1245 6.45694 6.23696C6.45694 6.34942 6.41236 6.4573 6.33298 6.53696L0.756979 12.113Z" fill="#FA544D"/>
</svg>
