<svg width="18" height="18" viewBox="0 0 18 18" fill="none" xmlns="http://www.w3.org/2000/svg">
<path d="M8.85978 5.27222C8.14776 5.27222 7.45173 5.48335 6.85972 5.87892C6.2677 6.27449 5.80628 6.83674 5.5338 7.49455C5.26133 8.15237 5.19003 8.87621 5.32894 9.57454C5.46785 10.2729 5.81071 10.9143 6.31418 11.4178C6.81765 11.9213 7.45911 12.2641 8.15745 12.403C8.85578 12.542 9.57962 12.4707 10.2374 12.1982C10.8952 11.9257 11.4575 11.4643 11.8531 10.8723C12.2486 10.2803 12.4598 9.58424 12.4598 8.87222C12.4598 7.91744 12.0805 7.00176 11.4054 6.32663C10.7302 5.6515 9.81456 5.27222 8.85978 5.27222ZM8.85978 11.0282C8.43297 11.0282 8.01573 10.9017 7.66085 10.6645C7.30597 10.4274 7.02937 10.0904 6.86603 9.69604C6.7027 9.30172 6.65996 8.86783 6.74323 8.44922C6.8265 8.03061 7.03204 7.64609 7.33384 7.34428C7.63564 7.04248 8.02016 6.83694 8.43877 6.75368C8.85738 6.67041 9.29128 6.71315 9.6856 6.87648C10.0799 7.03981 10.417 7.31641 10.6541 7.6713C10.8912 8.02618 11.0178 8.44341 11.0178 8.87022C11.017 9.44232 10.7894 9.99075 10.3848 10.3953C9.9803 10.7998 9.43187 11.0274 8.85978 11.0282Z" fill="white"/>
<path d="M16.8764 6.71911L14.8334 6.39011L16.0534 4.76411C16.157 4.62615 16.2077 4.45556 16.1961 4.28341C16.1846 4.11125 16.1116 3.94897 15.9904 3.82611L13.9474 1.75311C13.8256 1.62887 13.6628 1.55317 13.4893 1.54011C13.3158 1.52704 13.1434 1.57751 13.0044 1.68211L11.3334 2.85611L11.0084 0.840107C10.9813 0.671323 10.8949 0.517717 10.7648 0.406844C10.6347 0.295971 10.4693 0.235085 10.2984 0.235107H7.4204C7.24733 0.235042 7.08005 0.297403 6.94926 0.410742C6.81847 0.524081 6.73295 0.680792 6.7084 0.852107L6.3714 2.89211L4.7094 1.67611C4.57107 1.57446 4.40091 1.52573 4.22975 1.53876C4.05858 1.55178 3.89775 1.6257 3.7764 1.74711L1.7404 3.77611C1.61741 3.89859 1.54287 4.06143 1.53056 4.23457C1.51825 4.4077 1.56898 4.57945 1.6734 4.71811L2.8654 6.38711L0.850399 6.67511C0.679084 6.69966 0.522372 6.78518 0.409033 6.91597C0.295694 7.04676 0.233334 7.21404 0.233399 7.38711V10.2651C0.233156 10.4381 0.295478 10.6054 0.408871 10.736C0.522264 10.8667 0.679081 10.952 0.850399 10.9761L2.8954 11.3061L1.6734 12.9321C1.56885 13.0706 1.51795 13.2423 1.53008 13.4155C1.54221 13.5886 1.61656 13.7515 1.7394 13.8741L3.7754 15.9101C3.8979 16.0331 4.06083 16.1076 4.23402 16.1198C4.40722 16.1319 4.57894 16.0809 4.7174 15.9761L6.3854 14.7841L6.6734 16.7981C6.69795 16.9694 6.78347 17.1261 6.91426 17.2395C7.04505 17.3528 7.21233 17.4152 7.3854 17.4151H10.2634C10.4362 17.4152 10.6032 17.3532 10.734 17.2402C10.8647 17.1273 10.9504 16.9711 10.9754 16.8001L11.3054 14.7551L12.9334 15.9781C13.0719 16.0829 13.2436 16.1339 13.4168 16.1218C13.59 16.1096 13.7529 16.0351 13.8754 15.9121L15.9114 13.8761C16.0342 13.7535 16.1086 13.5906 16.1207 13.4175C16.1329 13.2443 16.0819 13.0726 15.9774 12.9341L14.7634 11.2681L16.8574 11.0231C17.0325 11.0028 17.194 10.9188 17.3113 10.7872C17.4285 10.6555 17.4934 10.4854 17.4934 10.3091V7.43111C17.4935 7.25804 17.4311 7.09076 17.3178 6.95997C17.2044 6.82918 17.0477 6.74366 16.8764 6.71911ZM16.0554 9.66811L14.5874 9.83911C14.3334 9.86953 14.0924 9.96841 13.8902 10.1252C13.688 10.2819 13.5322 10.4907 13.4394 10.7291C13.3368 10.9626 13.2978 11.2191 13.3265 11.4726C13.3551 11.726 13.4503 11.9674 13.6024 12.1721L14.4504 13.2981L13.2974 14.4511L12.1664 13.6001C11.9696 13.4518 11.7374 13.3574 11.4929 13.3263C11.2484 13.2953 11 13.3287 10.7724 13.4231C10.5248 13.5112 10.3062 13.6658 10.1406 13.8699C9.97493 14.0739 9.86866 14.3197 9.8334 14.5801L9.6334 15.9801H8.0094L7.8094 14.5921C7.77986 14.3374 7.68149 14.0956 7.52486 13.8927C7.36823 13.6897 7.15926 13.5332 6.9204 13.4401C6.68676 13.3373 6.43006 13.2983 6.17642 13.3269C5.92278 13.3555 5.68125 13.4508 5.4764 13.6031L4.3504 14.4511L3.1984 13.2991L4.0494 12.1681C4.19748 11.9712 4.29168 11.739 4.32272 11.4946C4.35375 11.2501 4.32056 11.0018 4.2264 10.7741C4.13756 10.5272 3.98255 10.3095 3.77832 10.1448C3.57408 9.98007 3.3285 9.87467 3.0684 9.84011L1.6684 9.64011V8.01111L3.0574 7.81111C3.31118 7.7807 3.55193 7.68194 3.75395 7.52537C3.95596 7.36879 4.11166 7.16028 4.2044 6.92211C4.30723 6.68853 4.3464 6.4319 4.31795 6.17828C4.2895 5.92466 4.19443 5.68309 4.0424 5.47811L3.1994 4.35311L4.3554 3.20111L5.5184 4.05111C5.72441 4.19813 5.96462 4.28999 6.21617 4.31793C6.46772 4.34587 6.72223 4.30897 6.95549 4.21074C7.18874 4.1125 7.39297 3.95621 7.54874 3.75673C7.70451 3.55725 7.80664 3.32122 7.8454 3.07111L8.0454 1.67111H9.6854L9.9084 3.05811C9.93848 3.3125 10.0372 3.55391 10.194 3.75649C10.3508 3.95907 10.5597 4.11518 10.7984 4.20811C11.0316 4.31037 11.2876 4.34924 11.5407 4.32079C11.7937 4.29235 12.0347 4.19759 12.2394 4.04611L13.3634 3.20611L14.5334 4.39311L13.6794 5.52811C13.5324 5.73412 13.4405 5.97433 13.4126 6.22588C13.3846 6.47743 13.4215 6.73194 13.5198 6.96519C13.618 7.19845 13.7743 7.40268 13.9738 7.55845C14.1733 7.71422 14.4093 7.81635 14.6594 7.85511L16.0594 8.05511V9.66911L16.0554 9.66811Z" fill="white"/>
</svg>
