<svg width="40" height="40" viewBox="0 0 40 40" fill="none" xmlns="http://www.w3.org/2000/svg">
<path d="M34.1416 5.85808C30.3852 2.13449 25.3069 0.0504778 20.0177 0.0620597C14.7286 0.0736417 9.65939 2.17988 5.91939 5.91988C2.17939 9.65987 0.0731534 14.7291 0.0615715 20.0182C0.0499895 25.3074 2.13401 30.3857 5.85759 34.1421C9.61393 37.8657 14.6923 39.9497 19.9814 39.9381C25.2706 39.9265 30.3398 37.8203 34.0798 34.0803C37.8198 30.3403 39.926 25.2711 39.9376 19.9819C39.9492 14.6928 37.8652 9.61442 34.1416 5.85808ZM10.0256 34.5581C10.4386 32.2129 11.6648 30.0883 13.4888 28.5575C15.3128 27.0267 17.6179 26.1876 19.9991 26.1876C22.3803 26.1876 24.6854 27.0267 26.5094 28.5575C28.3334 30.0883 29.5596 32.2129 29.9726 34.5581C27.0372 36.5739 23.5599 37.6529 19.9991 37.6529C16.4382 37.6529 12.9609 36.5739 10.0256 34.5581ZM13.6406 17.4901C13.6406 16.2324 14.0135 15.0029 14.7123 13.9572C15.411 12.9115 16.4042 12.0964 17.5661 11.6151C18.7281 11.1338 20.0066 11.0079 21.2402 11.2533C22.4737 11.4986 23.6068 12.1043 24.4961 12.9936C25.3854 13.8829 25.991 15.016 26.2364 16.2495C26.4818 17.483 26.3558 18.7616 25.8745 19.9236C25.3932 21.0855 24.5782 22.0787 23.5325 22.7774C22.4867 23.4761 21.2573 23.8491 19.9996 23.8491C18.3136 23.8472 16.6973 23.1767 15.5051 21.9845C14.313 20.7924 13.6424 19.176 13.6406 17.4901ZM31.9996 32.9361C31.4853 31.1163 30.5646 29.437 29.3068 28.0249C28.049 26.6127 26.487 25.5046 24.7386 24.7841C26.3113 23.7616 27.5114 22.2583 28.16 20.4982C28.8086 18.738 28.8709 16.8154 28.3377 15.017C27.8045 13.2186 26.7043 11.6406 25.2011 10.5184C23.698 9.39629 21.8724 8.79001 19.9966 8.79001C18.1208 8.79001 16.2952 9.39629 14.792 10.5184C13.2889 11.6406 12.1887 13.2186 11.6555 15.017C11.1223 16.8154 11.1846 18.738 11.8332 20.4982C12.4818 22.2583 13.6819 23.7616 15.2546 24.7841C13.5073 25.5051 11.9465 26.6134 10.6898 28.0253C9.43305 29.4372 8.51321 31.116 7.99959 32.9351C5.39698 30.5223 3.58189 27.3812 2.79104 23.9215C2.0002 20.4618 2.27032 16.8441 3.56618 13.5402C4.86203 10.2363 7.12347 7.39961 10.0555 5.4001C12.9876 3.40059 16.4541 2.33109 20.0031 2.33109C23.552 2.33109 27.0186 3.40059 29.9507 5.4001C32.8827 7.39961 35.1441 10.2363 36.44 13.5402C37.7359 16.8441 38.006 20.4618 37.2151 23.9215C36.4243 27.3812 34.6092 30.5223 32.0066 32.9351L31.9996 32.9361Z" fill="#8186AF"/>
</svg>
