<svg width="16" height="15" viewBox="0 0 16 15" fill="none" xmlns="http://www.w3.org/2000/svg">
<path d="M13.5793 10.2659H12.3723V9.05893C12.3723 8.95284 12.3301 8.85111 12.2551 8.77609C12.1801 8.70108 12.0783 8.65894 11.9723 8.65894C11.8662 8.65894 11.7644 8.70108 11.6894 8.77609C11.6144 8.85111 11.5723 8.95284 11.5723 9.05893V10.6679C11.5723 10.774 11.6144 10.8758 11.6894 10.9508C11.7644 11.0258 11.8662 11.0679 11.9723 11.0679H13.5812C13.6873 11.0679 13.7891 11.0258 13.8641 10.9508C13.9391 10.8758 13.9813 10.774 13.9813 10.6679C13.9813 10.5619 13.9391 10.4601 13.8641 10.3851C13.7891 10.3101 13.6873 10.2679 13.5812 10.2679L13.5793 10.2659Z" fill="#FA544D"/>
<path d="M14.5295 8.10898C14.0785 7.65977 13.517 7.33743 12.9017 7.17451C12.2864 7.01159 11.639 7.01384 11.0248 7.18104C10.4107 7.34823 9.85144 7.67446 9.40361 8.12681C8.95578 8.57915 8.63519 9.1416 8.47417 9.75742C8.31314 10.3732 8.31738 11.0206 8.48646 11.6343C8.65555 12.2479 8.98346 12.8062 9.43718 13.2526C9.89089 13.699 10.4544 14.0179 11.0707 14.177C11.687 14.3362 12.3343 14.3299 12.9475 14.159C13.5551 13.9865 14.1071 13.6584 14.5491 13.2071C14.991 12.7559 15.3075 12.1971 15.4672 11.586C15.627 10.975 15.6246 10.3328 15.4601 9.72297C15.2956 9.11315 14.9748 8.55683 14.5295 8.10898ZM12.7415 13.382C12.2632 13.5198 11.7569 13.5286 11.2741 13.4076C10.7913 13.2865 10.3491 13.0398 9.99248 12.6926C9.63582 12.3454 9.3774 11.91 9.24342 11.4306C9.10945 10.9512 9.10469 10.4449 9.22966 9.96305C9.35462 9.48123 9.60486 9.04108 9.95494 8.68723C10.305 8.33339 10.7425 8.07848 11.2229 7.94837C11.7034 7.81826 12.2097 7.8176 12.6905 7.94645C13.1713 8.07529 13.6095 8.32906 13.9605 8.68198C14.3026 9.03094 14.5487 9.46246 14.6748 9.93464C14.8008 10.4068 14.8026 10.9036 14.6799 11.3767C14.5572 11.8497 14.3142 12.283 13.9746 12.6344C13.6349 12.9858 13.2101 13.2433 12.7415 13.382Z" fill="#FA544D"/>
<path d="M6.97916 12.038H5.60917C5.48796 12.038 5.37172 11.9898 5.28602 11.9041C5.20031 11.8184 5.15217 11.7022 5.15217 11.581V9.94299L5.28616 10.077C5.37268 10.1584 5.48751 10.203 5.60631 10.2012C5.7251 10.1994 5.83853 10.1514 5.92254 10.0674C6.00655 9.98334 6.05455 9.86993 6.05634 9.75113C6.05814 9.63233 6.0136 9.51748 5.93217 9.43097L5.01916 8.51797C4.93347 8.43236 4.8173 8.38428 4.69617 8.38428C4.57503 8.38428 4.45886 8.43236 4.37317 8.51797L3.46017 9.43097C3.37873 9.51748 3.33419 9.63233 3.33599 9.75113C3.33779 9.86993 3.38577 9.98334 3.46979 10.0674C3.5538 10.1514 3.66723 10.1994 3.78602 10.2012C3.90482 10.203 4.01965 10.1584 4.10616 10.077L4.24016 9.94299V11.577C4.24069 11.9402 4.3852 12.2883 4.64201 12.5451C4.89882 12.8019 5.24698 12.9465 5.61017 12.947H6.98016C7.04191 12.9499 7.1036 12.9402 7.16151 12.9186C7.21941 12.8969 7.27232 12.8638 7.31704 12.8211C7.36176 12.7784 7.39735 12.7271 7.42168 12.6703C7.446 12.6135 7.45853 12.5523 7.45853 12.4905C7.45853 12.4287 7.446 12.3675 7.42168 12.3107C7.39735 12.2538 7.36176 12.2025 7.31704 12.1599C7.27232 12.1172 7.21941 12.084 7.16151 12.0624C7.1036 12.0408 7.04191 12.0311 6.98016 12.034L6.97916 12.038Z" fill="#8186AF"/>
<path d="M13.2396 3.95091C13.1539 3.8653 13.0377 3.81721 12.9166 3.81721C12.7955 3.81721 12.6793 3.8653 12.5936 3.95091L12.4596 4.08491V2.44692C12.4591 2.08373 12.3145 1.73557 12.0577 1.47876C11.8009 1.22195 11.4528 1.07745 11.0896 1.07692H9.7196C9.65786 1.07403 9.59614 1.08369 9.53824 1.10533C9.48034 1.12697 9.42744 1.16012 9.38272 1.2028C9.338 1.24547 9.3024 1.29678 9.27808 1.3536C9.25375 1.41043 9.24121 1.4716 9.24121 1.53341C9.24121 1.59523 9.25375 1.6564 9.27808 1.71323C9.3024 1.77005 9.338 1.82136 9.38272 1.86403C9.42744 1.90671 9.48034 1.93987 9.53824 1.9615C9.59614 1.98314 9.65786 1.9928 9.7196 1.98991H11.0896C11.2108 1.98991 11.327 2.03806 11.4128 2.12377C11.4985 2.20947 11.5466 2.32571 11.5466 2.44692V4.08491L11.4126 3.95091C11.3261 3.86948 11.2112 3.82494 11.0924 3.82674C10.9736 3.82854 10.8602 3.87653 10.7762 3.96054C10.6922 4.04455 10.6442 4.15798 10.6424 4.27678C10.6406 4.39557 10.6852 4.5104 10.7666 4.59691L11.6796 5.50991C11.7654 5.59528 11.8815 5.64321 12.0026 5.64321C12.1236 5.64321 12.2398 5.59528 12.3256 5.50991L13.2386 4.59691C13.3243 4.51135 13.3726 4.39525 13.3728 4.27412C13.373 4.15299 13.3251 4.03674 13.2396 3.95091Z" fill="#8186AF"/>
<path d="M0.585938 0.853004V5.294C0.585938 5.44571 0.646202 5.5912 0.753472 5.69847C0.860743 5.80574 1.00623 5.866 1.15794 5.866H8.04594C8.19764 5.866 8.34313 5.80574 8.4504 5.69847C8.55767 5.5912 8.61794 5.44571 8.61794 5.294V0.853004C8.61794 0.701301 8.55767 0.555811 8.4504 0.44854C8.34313 0.341269 8.19764 0.281006 8.04594 0.281006H1.15794C1.00623 0.281006 0.860743 0.341269 0.753472 0.44854C0.646202 0.555811 0.585938 0.701301 0.585938 0.853004ZM7.82094 1.079V1.808C7.65289 1.7483 7.50026 1.65189 7.37416 1.52578C7.24806 1.39968 7.15164 1.24705 7.09194 1.079H7.82094ZM1.38394 1.079H2.11294C2.05323 1.24705 1.95682 1.39968 1.83072 1.52578C1.70461 1.65189 1.55198 1.7483 1.38394 1.808V1.079ZM1.38394 5.069V4.34C1.55198 4.39971 1.70461 4.49612 1.83072 4.62223C1.95682 4.74833 2.05323 4.90096 2.11294 5.069H1.38394ZM7.82094 5.069H7.09094C7.15064 4.90096 7.24706 4.74833 7.37316 4.62223C7.49926 4.49612 7.65189 4.39971 7.81994 4.34L7.82094 5.069ZM7.82094 3.513C7.43784 3.59181 7.08626 3.78121 6.8097 4.05777C6.53314 4.33433 6.34374 4.68591 6.26494 5.069H2.93994C2.86075 4.68673 2.67141 4.33598 2.39527 4.06002C2.11913 3.78406 1.76827 3.59494 1.38594 3.516V2.638C1.76903 2.5592 2.12061 2.36979 2.39717 2.09324C2.67373 1.81668 2.86313 1.4651 2.94194 1.082H6.26494C6.34374 1.4651 6.53314 1.81668 6.8097 2.09324C7.08626 2.36979 7.43784 2.5592 7.82094 2.638V3.513Z" fill="#8186AF"/>
<path d="M4.60234 1.87695C4.36501 1.87695 4.133 1.94733 3.93566 2.07919C3.73832 2.21104 3.58451 2.39846 3.49369 2.61773C3.40286 2.837 3.3791 3.07828 3.4254 3.31106C3.47171 3.54384 3.58599 3.75766 3.75381 3.92548C3.92163 4.09331 4.13546 4.20759 4.36824 4.25389C4.60101 4.30019 4.84229 4.27643 5.06156 4.18561C5.28084 4.09478 5.46825 3.94098 5.60011 3.74364C5.73197 3.5463 5.80234 3.31429 5.80234 3.07695C5.80234 2.91936 5.7713 2.76332 5.71099 2.61773C5.65069 2.47214 5.5623 2.33985 5.45087 2.22842C5.33944 2.11699 5.20716 2.02861 5.06156 1.9683C4.91597 1.90799 4.75993 1.87695 4.60234 1.87695ZM4.60234 3.47695C4.52323 3.47695 4.44589 3.45349 4.38011 3.40954C4.31434 3.36559 4.26307 3.30312 4.23279 3.23003C4.20252 3.15694 4.19459 3.07651 4.21003 2.99892C4.22546 2.92132 4.26356 2.85005 4.3195 2.79411C4.37544 2.73817 4.44671 2.70007 4.5243 2.68464C4.6019 2.6692 4.68232 2.67712 4.75541 2.7074C4.8285 2.73767 4.89098 2.78894 4.93493 2.85472C4.97888 2.9205 5.00235 2.99784 5.00235 3.07695C5.00129 3.18234 4.95868 3.28306 4.88378 3.35722C4.80888 3.43137 4.70774 3.47296 4.60234 3.47295V3.47695Z" fill="#8186AF"/>
</svg>
