<svg width="15" height="16" viewBox="0 0 15 16" fill="none" xmlns="http://www.w3.org/2000/svg">
<path d="M3.75713 6.67212H2.85713C2.80124 6.67212 2.74589 6.68314 2.69426 6.70456C2.64263 6.72598 2.59573 6.75738 2.55625 6.79695C2.51677 6.83652 2.4855 6.88349 2.4642 6.93517C2.4429 6.98684 2.432 7.04222 2.43213 7.09811L2.43813 10.3271C2.43813 10.3829 2.44912 10.4382 2.47048 10.4898C2.49184 10.5413 2.52314 10.5882 2.56261 10.6276C2.60207 10.6671 2.64892 10.6984 2.70049 10.7198C2.75205 10.7411 2.80732 10.7521 2.86313 10.7521C2.91894 10.7521 2.97421 10.7411 3.02577 10.7198C3.07734 10.6984 3.12419 10.6671 3.16365 10.6276C3.20312 10.5882 3.23442 10.5413 3.25578 10.4898C3.27713 10.4382 3.28813 10.3829 3.28813 10.3271V9.34712H3.75613C4.11072 9.34712 4.4508 9.20626 4.70153 8.95552C4.95227 8.70478 5.09313 8.36471 5.09313 8.01012C5.09313 7.65552 4.95227 7.31545 4.70153 7.06471C4.4508 6.81398 4.11072 6.67313 3.75613 6.67313L3.75713 6.67212ZM3.75713 8.49512H3.28713C3.28713 8.31412 3.28713 8.11913 3.28713 8.00713C3.28713 7.90713 3.28713 7.70713 3.28713 7.52013H3.76013C3.82588 7.51714 3.89154 7.52751 3.95316 7.55061C4.01479 7.57372 4.07108 7.60907 4.11866 7.65454C4.16624 7.70001 4.20411 7.75466 4.22998 7.81517C4.25585 7.87568 4.26919 7.94081 4.26919 8.00662C4.26919 8.07243 4.25585 8.13756 4.22998 8.19807C4.20411 8.25859 4.16624 8.31322 4.11866 8.35869C4.07108 8.40416 4.01479 8.43951 3.95316 8.46262C3.89154 8.48572 3.82588 8.4961 3.76013 8.49312L3.75713 8.49512Z" fill="#FA544D"/>
<path d="M7.37209 6.67212H6.48409C6.42819 6.67212 6.37284 6.68314 6.32121 6.70456C6.26959 6.72598 6.22269 6.75738 6.18321 6.79695C6.14374 6.83652 6.11244 6.88349 6.09114 6.93517C6.06984 6.98684 6.05895 7.04222 6.05908 7.09811C6.05908 7.09811 6.06508 10.2221 6.06508 10.2341C6.06534 10.3467 6.11024 10.4545 6.18991 10.534C6.26959 10.6135 6.37754 10.6581 6.49008 10.6581C6.51708 10.6581 7.15008 10.6581 7.40308 10.6511C7.64362 10.6332 7.87811 10.5671 8.09261 10.4568C8.3071 10.3464 8.49723 10.1941 8.6517 10.0089C8.80618 9.82359 8.92184 9.60917 8.99182 9.37834C9.06181 9.14751 9.08468 8.90496 9.05908 8.66512C9.09179 8.42125 9.073 8.17324 9.00392 7.93709C8.93485 7.70093 8.81702 7.48188 8.65805 7.29408C8.49908 7.10628 8.30251 6.9539 8.08101 6.84677C7.85951 6.73964 7.618 6.68014 7.37209 6.67212ZM7.39108 9.80013H6.91509C6.91509 9.43113 6.91509 7.90012 6.91509 7.51712H7.37708C8.15708 7.51712 8.21808 8.39112 8.21808 8.65912C8.21808 9.21712 7.96409 9.78512 7.39609 9.79512L7.39108 9.80013Z" fill="#FA544D"/>
<path d="M11.8651 7.48892C11.9779 7.48892 12.0859 7.44414 12.1656 7.36444C12.2454 7.28474 12.2901 7.17664 12.2901 7.06392C12.2901 6.9512 12.2454 6.8431 12.1656 6.7634C12.0859 6.68369 11.9779 6.63892 11.8651 6.63892H10.5651C10.4524 6.63892 10.3443 6.68369 10.2646 6.7634C10.1849 6.8431 10.1401 6.9512 10.1401 7.06392V10.2709C10.1401 10.3836 10.1849 10.4917 10.2646 10.5714C10.3443 10.6511 10.4524 10.6959 10.5651 10.6959C10.6778 10.6959 10.786 10.6511 10.8657 10.5714C10.9454 10.4917 10.9901 10.3836 10.9901 10.2709V9.06192H11.7611C11.8739 9.06192 11.9819 9.01714 12.0616 8.93744C12.1413 8.85774 12.1861 8.74963 12.1861 8.63692C12.1861 8.5242 12.1413 8.4161 12.0616 8.3364C11.9819 8.25669 11.8739 8.21191 11.7611 8.21191H10.9901V7.48892H11.8651Z" fill="#FA544D"/>
<path d="M13.1161 4.85802H12.8041V4.73702C12.8049 4.19287 12.5961 3.66932 12.2211 3.27502L10.4551 1.41202C10.2562 1.20302 10.0171 1.03651 9.75204 0.922552C9.487 0.808597 9.20161 0.749565 8.91311 0.749023L3.25311 0.749023C2.91513 0.749552 2.59113 0.884052 2.35214 1.12305C2.11314 1.36204 1.97864 1.68603 1.97811 2.02402V4.85802H1.66611C1.32795 4.85855 1.00381 4.99319 0.764784 5.2324C0.525761 5.47161 0.391378 5.79586 0.391113 6.13402V11.234C0.391642 11.572 0.526142 11.896 0.765137 12.135C1.00413 12.374 1.32812 12.5085 1.66611 12.509H1.97811V13.983C1.97864 14.321 2.11314 14.645 2.35214 14.884C2.59113 15.123 2.91513 15.2575 3.25311 15.258H11.5281C11.8661 15.2575 12.1901 15.123 12.4291 14.884C12.6681 14.645 12.8026 14.321 12.8031 13.983V12.51H13.1151C13.4533 12.5098 13.7775 12.3754 14.0167 12.1364C14.2559 11.8973 14.3906 11.5732 14.3911 11.235V6.13502C14.3911 5.79669 14.2568 5.47218 14.0178 5.23275C13.7787 4.99333 13.4544 4.85855 13.1161 4.85802ZM2.82811 2.02402C2.82838 1.91139 2.87324 1.80344 2.95288 1.72379C3.03253 1.64415 3.14048 1.59929 3.25311 1.59902H8.91211C9.0855 1.59956 9.25697 1.63529 9.41614 1.70404C9.57531 1.7728 9.71887 1.87315 9.83811 1.99902L11.6041 3.86202C11.8292 4.09851 11.9545 4.41257 11.9541 4.73902V4.86002H2.82811V2.02402ZM11.9541 13.984C11.9538 14.0967 11.909 14.2046 11.8293 14.2843C11.7497 14.3639 11.6417 14.4088 11.5291 14.409H3.25311C3.14048 14.4088 3.03253 14.3639 2.95288 14.2843C2.87324 14.2046 2.82838 14.0967 2.82811 13.984V12.51H11.9541V13.984ZM13.5411 11.235C13.5408 11.3477 13.496 11.4556 13.4163 11.5353C13.3367 11.6149 13.2287 11.6598 13.1161 11.66H1.66611C1.55348 11.6598 1.44553 11.6149 1.36588 11.5353C1.28624 11.4556 1.24138 11.3477 1.24111 11.235V6.13502C1.24138 6.02239 1.28624 5.91444 1.36588 5.83479C1.44553 5.75515 1.55348 5.71029 1.66611 5.71002H13.1161C13.2287 5.71029 13.3367 5.75515 13.4163 5.83479C13.496 5.91444 13.5408 6.02239 13.5411 6.13502V11.235Z" fill="#8186AF"/>
</svg>
