<svg width="16" height="16" viewBox="0 0 16 16" fill="none" xmlns="http://www.w3.org/2000/svg">
<path d="M12.8911 4.43802H12.4911V2.89402C12.4906 2.32478 12.264 1.77904 11.8612 1.3768C11.4584 0.974568 10.9124 0.748758 10.3431 0.749024H5.08111C4.51239 0.749553 3.9671 0.975714 3.56495 1.37786C3.1628 1.78002 2.93664 2.3253 2.93611 2.89402V4.43802H2.53611C1.96739 4.43855 1.4221 4.66471 1.01995 5.06686C0.617803 5.46901 0.391643 6.0143 0.391113 6.58302L0.391113 10.014C0.391643 10.5828 0.617803 11.128 1.01995 11.5302C1.4221 11.9323 1.96739 12.1585 2.53611 12.159H2.93611V14.104C2.93638 14.4453 3.07206 14.7725 3.31336 15.0138C3.55466 15.2551 3.88186 15.3908 4.22311 15.391H11.2011C11.3703 15.3913 11.538 15.3582 11.6944 15.2937C11.8508 15.2291 11.993 15.1344 12.1128 15.0148C12.2326 14.8953 12.3277 14.7534 12.3926 14.5971C12.4575 14.4408 12.491 14.2732 12.4911 14.104V12.159H12.8911C13.4598 12.1585 14.0051 11.9323 14.4073 11.5302C14.8094 11.128 15.0356 10.5828 15.0361 10.014V6.58302C15.0356 6.0143 14.8094 5.46901 14.4073 5.06686C14.0051 4.66471 13.4598 4.43855 12.8911 4.43802ZM3.79111 2.89402C3.79124 2.7248 3.82472 2.55725 3.88963 2.40097C3.95455 2.24469 4.04962 2.10273 4.16942 1.98321C4.28922 1.86369 4.4314 1.76894 4.58783 1.7044C4.74427 1.63985 4.91189 1.60676 5.08111 1.60702H10.3431C10.6844 1.60729 11.0116 1.74297 11.2529 1.98427C11.4942 2.22557 11.6298 2.55277 11.6301 2.89402V4.43802H3.79111V2.89402ZM11.6271 14.104C11.6271 14.1604 11.616 14.2161 11.5945 14.2682C11.5729 14.3202 11.5413 14.3675 11.5015 14.4074C11.4616 14.4472 11.4143 14.4788 11.3623 14.5004C11.3102 14.5219 11.2545 14.533 11.1981 14.533H4.22311C4.16678 14.533 4.11099 14.5219 4.05894 14.5004C4.00689 14.4788 3.9596 14.4472 3.91976 14.4074C3.87993 14.3675 3.84833 14.3202 3.82677 14.2682C3.80521 14.2161 3.79411 14.1604 3.79411 14.104V9.87102H11.6301L11.6271 14.104ZM14.1721 10.015C14.1716 10.3551 14.0366 10.6811 13.7966 10.922C13.5567 11.1629 13.2312 11.2992 12.8911 11.301H12.4911V9.87102H12.7481C12.8619 9.87102 12.971 9.82582 13.0515 9.74537C13.1319 9.66492 13.1771 9.5558 13.1771 9.44202C13.1771 9.32825 13.1319 9.21913 13.0515 9.13867C12.971 9.05822 12.8619 9.01302 12.7481 9.01302H2.67911C2.56534 9.01302 2.45622 9.05822 2.37576 9.13867C2.29531 9.21913 2.25011 9.32825 2.25011 9.44202C2.25011 9.5558 2.29531 9.66492 2.37576 9.74537C2.45622 9.82582 2.56534 9.87102 2.67911 9.87102H2.93611V11.301H2.53611C2.19486 11.3008 1.86766 11.1651 1.62636 10.9238C1.38506 10.6825 1.24938 10.3553 1.24911 10.014V6.58302C1.24938 6.24177 1.38506 5.91457 1.62636 5.67327C1.86766 5.43197 2.19486 5.29629 2.53611 5.29602H12.8911C13.2324 5.29629 13.5596 5.43197 13.8009 5.67327C14.0422 5.91457 14.1778 6.24177 14.1781 6.58302L14.1721 10.015Z" fill="#8186AF"/>
<path d="M8.85616 10.844H6.56816C6.45438 10.844 6.34527 10.8892 6.26482 10.9696C6.18436 11.0501 6.13916 11.1592 6.13916 11.273C6.13916 11.3868 6.18436 11.4959 6.26482 11.5764C6.34527 11.6568 6.45438 11.702 6.56816 11.702H8.85616C8.96993 11.702 9.07906 11.6568 9.15952 11.5764C9.23997 11.4959 9.28516 11.3868 9.28516 11.273C9.28516 11.1592 9.23997 11.0501 9.15952 10.9696C9.07906 10.8892 8.96993 10.844 8.85616 10.844Z" fill="#FA544D"/>
<path d="M8.85616 12.6741H6.56816C6.45438 12.6741 6.34527 12.7193 6.26482 12.7997C6.18436 12.8802 6.13916 12.9893 6.13916 13.1031C6.13916 13.2168 6.18436 13.326 6.26482 13.4064C6.34527 13.4869 6.45438 13.5321 6.56816 13.5321H8.85616C8.96993 13.5321 9.07906 13.4869 9.15952 13.4064C9.23997 13.326 9.28516 13.2168 9.28516 13.1031C9.28516 12.9893 9.23997 12.8802 9.15952 12.7997C9.07906 12.7193 8.96993 12.6741 8.85616 12.6741Z" fill="#FA544D"/>
<path d="M4.05 6.26807H2.679C2.56522 6.26807 2.4561 6.31327 2.37565 6.39372C2.2952 6.47418 2.25 6.58329 2.25 6.69707C2.25 6.81085 2.2952 6.91996 2.37565 7.00041C2.4561 7.08087 2.56522 7.12607 2.679 7.12607H4.05C4.16378 7.12607 4.27289 7.08087 4.35335 7.00041C4.4338 6.91996 4.479 6.81085 4.479 6.69707C4.479 6.58329 4.4338 6.47418 4.35335 6.39372C4.27289 6.31327 4.16378 6.26807 4.05 6.26807Z" fill="#FA544D"/>
</svg>
