<svg width="16" height="15" viewBox="0 0 16 15" fill="none" xmlns="http://www.w3.org/2000/svg">
<path d="M5.98707 7.44505C6.11021 7.25597 6.17999 7.03714 6.18906 6.81168C6.19813 6.58621 6.14615 6.36248 6.0386 6.16411C5.93106 5.96574 5.77195 5.80009 5.57806 5.68466C5.38418 5.56923 5.16272 5.5083 4.93707 5.5083C4.71143 5.5083 4.48997 5.56923 4.29609 5.68466C4.1022 5.80009 3.94308 5.96574 3.83554 6.16411C3.72799 6.36248 3.67602 6.58621 3.68509 6.81168C3.69416 7.03714 3.76394 7.25597 3.88708 7.44505C3.56563 7.62669 3.29938 7.892 3.11662 8.2128C2.93386 8.5336 2.84141 8.89791 2.84907 9.26704C2.84934 9.37773 2.89349 9.48379 2.97185 9.56197C3.05022 9.64014 3.15639 9.68405 3.26707 9.68405H6.60708C6.71776 9.68405 6.82393 9.64014 6.90229 9.56197C6.98065 9.48379 7.02481 9.37773 7.02508 9.26704C7.03274 8.89791 6.94028 8.5336 6.75752 8.2128C6.57476 7.892 6.30852 7.62669 5.98707 7.44505ZM4.52007 6.76205C4.52007 6.67938 4.54459 6.59856 4.59052 6.52982C4.63645 6.46108 4.70173 6.40751 4.77811 6.37587C4.85449 6.34423 4.93854 6.33595 5.01962 6.35208C5.10071 6.36821 5.17518 6.40802 5.23364 6.46648C5.2921 6.52493 5.33192 6.59941 5.34804 6.6805C5.36417 6.76158 5.35589 6.84563 5.32426 6.92201C5.29262 6.99839 5.23904 7.06367 5.1703 7.1096C5.10156 7.15553 5.02074 7.18005 4.93807 7.18005C4.88318 7.18005 4.82883 7.16923 4.77811 7.14822C4.7274 7.12722 4.68132 7.09643 4.6425 7.05762C4.60369 7.0188 4.5729 6.97273 4.55189 6.92201C4.53089 6.8713 4.52007 6.81695 4.52007 6.76205ZM3.75007 8.84904C3.83889 8.6042 4.00095 8.39265 4.21422 8.24315C4.42749 8.09364 4.68162 8.01344 4.94208 8.01344C5.20253 8.01344 5.45666 8.09364 5.66993 8.24315C5.8832 8.39265 6.04526 8.6042 6.13407 8.84904H3.75007Z" fill="#FA544D"/>
<path d="M12.4952 9.98993C12.1257 9.98989 11.7608 10.0717 11.4267 10.2296C11.0926 10.3875 10.7977 10.6174 10.5632 10.9029L8.66316 9.79293C8.96813 9.20084 9.12725 8.54445 9.12725 7.87843C9.12725 7.21241 8.96813 6.55603 8.66316 5.96393L10.5752 4.86393C10.979 5.34325 11.5481 5.65341 12.1698 5.73296C12.7915 5.81251 13.4204 5.65564 13.9319 5.29343C14.4433 4.93123 14.8001 4.39012 14.9315 3.77729C15.0629 3.16447 14.9593 2.52464 14.6413 1.98458C14.3233 1.44451 13.814 1.04361 13.2143 0.86129C12.6147 0.67897 11.9684 0.728536 11.4036 1.00017C10.8388 1.2718 10.3966 1.74568 10.1646 2.32793C9.93265 2.91018 9.92785 3.55831 10.1512 4.14393L8.21016 5.26193C7.6681 4.58378 6.92872 4.0908 6.09427 3.85117C5.25983 3.61153 4.37154 3.63709 3.55225 3.92429C2.73296 4.21149 2.02314 4.74615 1.52095 5.45434C1.01877 6.16253 0.749023 7.00926 0.749023 7.87743C0.749023 8.74561 1.01877 9.59233 1.52095 10.3005C2.02314 11.0087 2.73296 11.5434 3.55225 11.8306C4.37154 12.1178 5.25983 12.1433 6.09427 11.9037C6.92872 11.6641 7.6681 11.1711 8.21016 10.4929L10.1492 11.6259C9.96416 12.1261 9.94361 12.6722 10.0905 13.1849C10.2374 13.6975 10.544 14.1499 10.9658 14.4762C11.3876 14.8025 11.9025 14.9857 12.4356 14.9991C12.9687 15.0126 13.4922 14.8555 13.9298 14.5508C14.3675 14.2461 14.6965 13.8097 14.869 13.3051C15.0414 12.8005 15.0484 12.254 14.8888 11.7452C14.7292 11.2363 14.4113 10.7917 13.9815 10.476C13.5518 10.1604 13.0324 9.99005 12.4992 9.98993H12.4952ZM12.4952 1.58393C12.8255 1.58393 13.1483 1.68188 13.423 1.86538C13.6976 2.04888 13.9116 2.3097 14.038 2.61485C14.1644 2.92 14.1975 3.25578 14.1331 3.57973C14.0686 3.90368 13.9096 4.20125 13.676 4.4348C13.4425 4.66835 13.1449 4.82741 12.821 4.89184C12.497 4.95628 12.1612 4.92321 11.8561 4.79681C11.5509 4.67041 11.2901 4.45636 11.1066 4.18173C10.9231 3.9071 10.8252 3.58423 10.8252 3.25393C10.8257 2.81118 11.0018 2.38672 11.3149 2.07365C11.6279 1.76058 12.0524 1.58446 12.4952 1.58393ZM4.93816 11.2279C4.2748 11.2279 3.62634 11.0312 3.07478 10.6627C2.52322 10.2941 2.09332 9.77032 1.83947 9.15745C1.58561 8.54459 1.51919 7.87021 1.64861 7.2196C1.77802 6.56899 2.09746 5.97136 2.56652 5.5023C3.03559 5.03323 3.63322 4.71379 4.28383 4.58438C4.93444 4.45496 5.60882 4.52138 6.22168 4.77524C6.83454 5.0291 7.35837 5.45899 7.72691 6.01055C8.09545 6.56211 8.29216 7.21057 8.29216 7.87393C8.2911 8.76314 7.93739 9.61563 7.30863 10.2444C6.67986 10.8732 5.82737 11.2269 4.93816 11.2279ZM12.4952 14.1639C12.1649 14.1639 11.842 14.066 11.5674 13.8825C11.2927 13.699 11.0787 13.4382 10.9523 13.133C10.8259 12.8279 10.7928 12.4921 10.8572 12.1681C10.9217 11.8442 11.0807 11.5466 11.3143 11.3131C11.5478 11.0795 11.8454 10.9205 12.1694 10.856C12.4933 10.7916 12.8291 10.8247 13.1342 10.9511C13.4394 11.0775 13.7002 11.2915 13.8837 11.5661C14.0672 11.8408 14.1652 12.1636 14.1652 12.4939C14.1649 12.9369 13.9889 13.3616 13.6758 13.6749C13.3627 13.9881 12.9381 14.1644 12.4952 14.1649V14.1639Z" fill="#8186AF"/>
</svg>
