<svg width="111" height="21" viewBox="0 0 111 21" fill="none" xmlns="http://www.w3.org/2000/svg">
<path d="M25.7901 17.398L25.7761 17.423C25.7201 17.5203 25.6622 17.6157 25.6022 17.709V17.715C25.0292 18.594 24.2458 19.316 23.3231 19.8155C22.4003 20.3149 21.3674 20.576 20.3181 20.575H14.4111C13.9417 20.5753 13.4764 20.4878 13.0392 20.317C12.6187 20.1532 12.2324 19.9124 11.9001 19.607L11.8752 19.583C11.4908 19.2251 11.1845 18.7917 10.9756 18.3098C10.7667 17.828 10.6597 17.3082 10.6611 16.783V11.813C11.9801 12.1962 13.3467 12.3905 14.7202 12.39C14.8742 12.39 15.5201 12.413 15.7411 12.421C15.7411 12.461 15.7411 12.501 15.7411 12.542C15.7419 13.4481 16.1003 14.3173 16.7385 14.9605C17.3767 15.6038 18.2431 15.9691 19.1492 15.977H19.1801C19.2874 15.9792 19.3946 15.9742 19.5011 15.962C19.6121 15.947 19.6631 15.944 19.7421 15.931C21.8685 15.6838 24.0133 16.2041 25.7901 17.398Z" fill="url(#paint0_linear_0_15385)"/>
<path d="M15.2652 16.193C14.4412 14.885 14.5652 12.559 14.3762 9.79297C14.3252 9.02397 10.6612 11.818 10.6612 11.818V16.789C10.6595 17.3141 10.7664 17.8338 10.9752 18.3157C11.1839 18.7975 11.49 19.231 11.8742 19.589L11.8992 19.613C12.5849 20.2403 13.4817 20.5866 14.4112 20.583H20.3112C21.3602 20.5842 22.393 20.3234 23.3158 19.8243C24.2385 19.3252 25.022 18.6036 25.5952 17.725V17.719C25.6552 17.6256 25.7132 17.5303 25.7692 17.433L25.7762 17.421C25.7012 17.406 17.9212 20.406 15.2652 16.193Z" fill="url(#paint1_linear_0_15385)"/>
<path d="M15.7407 12.416C15.5187 12.408 14.8737 12.385 14.7197 12.385C14.9067 12.385 15.2837 12.385 15.2847 12.392C15.4377 12.399 15.5897 12.406 15.7407 12.416Z" fill="url(#paint2_linear_0_15385)"/>
<path d="M25.798 17.3789C25.7474 17.3203 25.696 17.2623 25.644 17.205C25.7018 17.2569 25.7535 17.3153 25.798 17.3789Z" fill="url(#paint3_linear_0_15385)"/>
<path d="M15.7982 3.59291C14.9299 3.59351 14.0635 3.67149 13.2092 3.82591C13.0138 3.86124 12.8198 3.90058 12.6272 3.94391C11.9772 4.06162 11.32 4.13479 10.6602 4.16291V0.73291C11.1553 1.18648 11.7825 1.46993 12.4501 1.54191L12.5401 1.55291C12.6341 1.56291 12.8782 1.56991 12.9902 1.57191C13.0279 1.57267 13.0656 1.57534 13.1031 1.57991C13.6869 1.65722 14.2412 1.88283 14.713 2.23524C15.1847 2.58764 15.5584 3.05506 15.7982 3.59291Z" fill="url(#paint4_linear_0_15385)"/>
<path d="M14.0871 3.90291C13.4464 3.90629 12.8068 3.95575 12.1731 4.05091C12.0578 4.07224 11.9428 4.09558 11.8281 4.12091C11.4425 4.19072 11.0526 4.23416 10.6611 4.25091V0.73291C11.033 1.56479 11.6412 2.26898 12.4101 2.75791C12.7851 2.95791 13.6101 3.12091 13.9261 3.60791C13.9875 3.70168 14.041 3.80035 14.0861 3.90291H14.0871Z" fill="url(#paint5_linear_0_15385)"/>
<path d="M26.937 13.006C26.9118 14.5349 26.5212 16.0357 25.798 17.383C25.4449 16.3843 24.9895 15.4249 24.439 14.52C22.4339 11.4813 19.3539 9.31331 15.817 8.45096C15.7043 8.42296 15.5903 8.39663 15.475 8.37196C15.0062 8.26919 14.5326 8.19009 14.056 8.13496C13.85 8.11096 13.645 8.10496 13.437 8.08896C13.353 8.08896 13.265 8.07796 13.181 8.07796C12.817 8.07796 12.456 8.06463 12.098 8.03796C11.654 8.00529 11.216 7.95296 10.784 7.88096L10.661 7.85096H10.634C9.34115 7.62263 8.08556 7.2189 6.90196 6.65096C4.19041 5.34731 1.94783 3.2378 0.480957 0.610962C2.94101 2.75761 6.05461 4.0094 9.31596 4.16296C9.54996 4.1743 9.78496 4.17996 10.021 4.17996C10.2356 4.17996 10.449 4.1753 10.661 4.16596C11.3211 4.13921 11.9786 4.06738 12.629 3.95096C12.829 3.91596 13.018 3.87596 13.211 3.83296C14.0643 3.67872 14.9298 3.60074 15.797 3.59996H15.816C17.9892 3.5967 20.1352 4.08272 22.095 5.02196L22.075 5.03696C23.3546 5.69685 24.4575 6.65393 25.291 7.82796L25.303 7.84496C26.3688 9.35464 26.9397 11.1579 26.937 13.006Z" fill="url(#paint6_linear_0_15385)"/>
<path d="M25.798 17.383C25.7473 17.3243 25.696 17.2663 25.644 17.209L25.575 17.132C25.4364 16.9547 25.281 16.7913 25.111 16.644L24.988 16.523L24.904 16.439C24.704 16.2496 24.5016 16.066 24.297 15.888L24.17 15.782C23.96 15.6053 23.745 15.435 23.525 15.271C21.2868 13.5986 18.6127 12.6095 15.825 12.423H15.818H15.749C15.527 12.415 14.882 12.392 14.728 12.392C13.3546 12.3931 11.988 12.1995 10.669 11.817C10.1621 11.6701 9.66366 11.4955 9.17597 11.294C8.04964 10.8291 6.98629 10.2243 6.01096 9.49395C5.62141 9.19967 5.24693 8.88594 4.88896 8.55395C2.58523 6.44279 1.02452 3.64437 0.438965 0.574951C0.452965 0.587951 0.465965 0.598951 0.480965 0.610951C1.94784 3.23779 4.19042 5.3473 6.90196 6.65095C8.08557 7.21889 9.34116 7.62261 10.634 7.85095H10.661L10.784 7.87295C11.216 7.94495 11.654 7.99728 12.098 8.02995C12.456 8.05595 12.817 8.06928 13.181 8.06995H13.241C13.289 8.06995 13.358 8.07495 13.441 8.07995L13.697 8.09595H13.734H13.776H13.813H13.848L13.967 8.10595H13.993L14.061 8.11295C14.5376 8.16808 15.0112 8.24718 15.48 8.34995C15.594 8.37528 15.708 8.40162 15.822 8.42895L16.003 8.47395C16.7595 8.66846 17.5011 8.9171 18.222 9.21795C19.2877 9.65699 20.2953 10.2256 21.222 10.911C21.7114 11.2793 22.1702 11.6866 22.594 12.129C23.2827 12.8593 23.9042 13.6501 24.451 14.492C24.9982 15.4067 25.4496 16.3755 25.798 17.383Z" fill="url(#paint7_linear_0_15385)"/>
<path d="M31.806 5.61489C29.954 7.06721 28.7483 9.19037 28.45 11.5249C28.433 11.6569 28.419 11.7919 28.408 11.9249C28.2387 13.1214 27.8444 14.2751 27.246 15.3249C27.7782 13.4882 27.7101 11.5295 27.0516 9.73425C26.3931 7.93896 25.1786 6.40081 23.585 5.34389C24.6961 4.55691 25.9128 3.93073 27.199 3.48389C27.3763 3.42189 27.556 3.36389 27.738 3.30989C27.9959 3.24894 28.26 3.21807 28.525 3.2179H28.533C29.2621 3.21897 29.9721 3.45173 30.5604 3.88256C31.1487 4.3134 31.5849 4.92003 31.806 5.61489Z" fill="url(#paint8_linear_0_15385)"/>
<path d="M34.489 5.91899C33.5198 6.31118 32.6267 6.86994 31.85 7.56999C31.5815 7.8123 31.3278 8.07043 31.09 8.34299C30.2741 9.27824 29.6612 10.3727 29.29 11.557C29.1764 11.9201 29.0862 12.2902 29.02 12.665C28.9974 12.7423 28.9743 12.8197 28.951 12.897C28.9277 12.9743 28.9027 13.05 28.876 13.124L28.84 13.233C28.7367 13.5423 28.623 13.8467 28.499 14.146C27.7021 16.0531 26.5008 17.7644 24.978 19.162C26.0437 18.0964 26.8231 16.779 27.244 15.332C27.8355 14.279 28.2293 13.1267 28.406 11.932C28.423 11.8 28.437 11.665 28.448 11.532C28.7465 9.19727 29.9526 7.07406 31.805 5.62199C32.2165 5.34991 32.7104 5.23064 33.2007 5.2849C33.6911 5.33916 34.1469 5.56352 34.489 5.91899Z" fill="url(#paint9_linear_0_15385)"/>
<path d="M33.3608 7.242C33.4507 7.30839 33.5525 7.35693 33.6608 7.385C33.8088 7.42496 33.9648 7.42496 34.1128 7.385C34.2544 7.34665 34.3841 7.27321 34.4898 7.17149C34.5955 7.06977 34.674 6.94303 34.7178 6.803C34.7752 6.61761 34.7688 6.41831 34.6995 6.237C34.6303 6.0557 34.5022 5.90287 34.3357 5.803C34.3119 5.78767 34.2872 5.77365 34.2618 5.761C34.2368 5.749 34.2098 5.738 34.1838 5.728C34.0479 5.67841 33.9017 5.66341 33.7586 5.68436C33.6155 5.70531 33.4798 5.76154 33.3638 5.848C33.3414 5.86439 33.32 5.88209 33.2997 5.901C33.2791 5.91962 33.2594 5.93932 33.2408 5.96C33.1842 6.02214 33.1371 6.09222 33.1008 6.168C33.0888 6.194 33.0777 6.219 33.0677 6.246C33.0326 6.34211 33.0147 6.44366 33.0148 6.546C33.0127 6.57563 33.0127 6.60537 33.0148 6.635C33.0192 6.67785 33.0269 6.72031 33.0378 6.762C33.0378 6.776 33.0448 6.79 33.0488 6.804C33.1039 6.9793 33.2126 7.13286 33.3597 7.243L33.3608 7.242ZM33.3957 6.103C33.4095 6.0877 33.4245 6.07364 33.4407 6.061C33.4562 6.04603 33.4726 6.03201 33.4897 6.019C33.5151 6.00008 33.5419 5.98303 33.5698 5.968C33.5978 5.95304 33.6269 5.94 33.6567 5.929L33.6877 5.919L33.7508 5.903C33.7946 5.89433 33.8391 5.88998 33.8838 5.89C34.0142 5.88999 34.1416 5.929 34.2498 6.002L34.2758 6.021C34.293 6.0339 34.3094 6.04793 34.3248 6.063L34.3697 6.105C34.3908 6.12826 34.4102 6.15299 34.4277 6.179C34.4396 6.19643 34.4507 6.21446 34.4607 6.233C34.4708 6.25147 34.4799 6.2705 34.4878 6.29C34.5218 6.37088 34.5393 6.45775 34.5393 6.5455C34.5393 6.63325 34.5218 6.72011 34.4878 6.801C34.4798 6.82047 34.4708 6.8395 34.4607 6.858C34.4507 6.87654 34.4396 6.89456 34.4277 6.912C34.4102 6.93801 34.3908 6.96274 34.3697 6.986C34.3557 7.002 34.3408 7.01599 34.3248 7.03099C34.3091 7.04515 34.2928 7.0585 34.2758 7.071L34.2498 7.089C34.1417 7.16217 34.0142 7.20119 33.8838 7.201C33.8391 7.20123 33.7946 7.19688 33.7508 7.188C33.7295 7.18377 33.7084 7.17843 33.6877 7.172L33.6567 7.161C33.597 7.13928 33.5407 7.10895 33.4897 7.071C33.4727 7.058 33.4567 7.04499 33.4407 7.03099C33.4247 7.01699 33.4107 7.002 33.3957 6.986C33.2856 6.86516 33.2245 6.70752 33.2245 6.544C33.2245 6.38047 33.2856 6.22384 33.3957 6.103Z" fill="url(#paint10_linear_0_15385)"/>
<path d="M34.4292 9.79599C34.443 9.79599 34.4562 9.79051 34.4659 9.78076C34.4757 9.77101 34.4811 9.75778 34.4811 9.74399V9.51999C34.4811 9.5062 34.4757 9.49297 34.4659 9.48322C34.4562 9.47346 34.443 9.46799 34.4292 9.46799H34.1102V7.53699C34.0372 7.55399 34.1312 7.56398 34.0532 7.56398C33.977 7.56384 33.9012 7.55479 33.8271 7.53699V10.37C33.8271 10.3838 33.8327 10.397 33.8424 10.4068C33.8522 10.4165 33.8654 10.422 33.8792 10.422H34.4312C34.4449 10.422 34.4582 10.4165 34.468 10.4068C34.4777 10.397 34.4832 10.3838 34.4832 10.37V10.146C34.4832 10.1322 34.4777 10.119 34.468 10.1092C34.4582 10.0995 34.4449 10.094 34.4312 10.094H34.1111V9.79399L34.4292 9.79599Z" fill="url(#paint11_linear_0_15385)"/>
<path d="M37.7862 4.62997H44.3532C45.7917 4.60162 47.2169 4.90984 48.5152 5.52999C49.6739 6.08771 50.6487 6.96558 51.3242 8.0599C51.9804 9.21886 52.3254 10.5281 52.3254 11.8599C52.3254 13.1918 51.9804 14.501 51.3242 15.66C50.6489 16.7548 49.6741 17.6331 48.5152 18.191C47.2169 18.8112 45.7917 19.1192 44.3532 19.0909H37.7842L37.7862 4.62997ZM44.1862 16.343C45.453 16.4073 46.6947 15.9737 47.6462 15.135C48.4751 14.2463 48.9361 13.0762 48.9361 11.8609C48.9361 10.6457 48.4751 9.47569 47.6462 8.587C46.6948 7.74788 45.4531 7.31389 44.1862 7.37789H41.1292V16.343H44.1862Z" fill="white"/>
<path d="M54.8494 18.2529C54.4849 17.8795 54.2028 17.4339 54.0212 16.9447C53.8397 16.4555 53.7628 15.9337 53.7954 15.413V3.76196H57.0184V15.2269C56.9926 15.6218 57.1221 16.0112 57.3794 16.3119C57.5135 16.4439 57.6739 16.5461 57.8502 16.6119C58.0264 16.6778 58.2146 16.7057 58.4024 16.694C58.5729 16.6933 58.7427 16.6725 58.9084 16.632C59.0476 16.6019 59.1822 16.5531 59.3084 16.4869L59.4534 18.9869C58.9139 19.1665 58.3489 19.2574 57.7804 19.256C56.7096 19.3194 55.6568 18.9591 54.8494 18.2529Z" fill="white"/>
<path d="M67.1552 16.415C67.6226 16.23 68.0478 15.9524 68.4052 15.5989L70.1202 17.4579C69.5364 18.0783 68.8223 18.5615 68.0293 18.8727C67.2363 19.184 66.3841 19.3156 65.5342 19.258C64.3831 19.2811 63.243 19.0298 62.2082 18.5249C61.2853 18.0738 60.5111 17.3675 59.9772 16.4899C59.4467 15.5971 59.1749 14.5743 59.1922 13.5359C59.178 12.5027 59.4459 11.4852 59.9672 10.5929C60.4741 9.72781 61.2106 9.01993 62.0952 8.54789C63.0328 8.05044 64.081 7.79837 65.1422 7.81498C66.1462 7.80174 67.1386 8.03187 68.0342 8.48588C68.8941 8.92642 69.6133 9.59922 70.1102 10.4279C70.6436 11.3381 70.912 12.3792 70.8852 13.4339L62.6552 15.0199C62.869 15.5487 63.2595 15.9869 63.7602 16.2599C64.3318 16.5515 64.9679 16.6935 65.6092 16.6729C66.1361 16.6832 66.6602 16.5957 67.1552 16.415ZM63.1552 11.034C62.6184 11.6269 62.3298 12.4033 62.3492 13.2029L67.7612 12.149C67.624 11.5924 67.2947 11.1022 66.8312 10.7649C66.3378 10.413 65.743 10.2318 65.1372 10.2489C64.7702 10.2355 64.4045 10.2986 64.0632 10.4342C63.722 10.5699 63.4128 10.7752 63.1552 11.0369V11.034Z" fill="white"/>
<path d="M82.3151 9.04998C82.7659 9.5442 83.111 10.1252 83.3294 10.7575C83.5478 11.3898 83.6348 12.0599 83.5851 12.727V19.0889H80.3621V13.222C80.4169 12.5158 80.2113 11.814 79.7841 11.249C79.5698 11.0248 79.3089 10.8503 79.0199 10.7378C78.7308 10.6254 78.4206 10.5776 78.1111 10.598C77.7527 10.5807 77.3946 10.639 77.0601 10.7689C76.7256 10.8987 76.422 11.0974 76.1691 11.352C75.6448 11.9759 75.3853 12.7802 75.4461 13.5929V19.0879H72.2241V7.97491H75.3021V9.27496C75.7431 8.7973 76.2872 8.42658 76.8931 8.19097C77.5574 7.93052 78.2657 7.80073 78.9791 7.80889C79.5899 7.78231 80.1998 7.87845 80.7728 8.09161C81.3458 8.30476 81.8702 8.63068 82.3151 9.04998Z" fill="white"/>
<path d="M97.1133 3.76196V19.0879H94.0353V17.8069C93.6066 18.2979 93.0706 18.6838 92.4689 18.9346C91.8672 19.1853 91.2159 19.2942 90.5653 19.2529C89.5742 19.2674 88.5961 19.0264 87.7253 18.553C86.8835 18.0904 86.1919 17.3964 85.7323 16.553C85.257 15.6187 85.0093 14.5852 85.0093 13.537C85.0093 12.4887 85.257 11.4553 85.7323 10.521C86.1921 9.67772 86.8836 8.98371 87.7253 8.521C88.5962 8.04777 89.5743 7.80663 90.5653 7.82092C91.1842 7.78728 91.803 7.89011 92.3778 8.12219C92.9525 8.35428 93.4692 8.70996 93.8913 9.16394V3.77295L97.1133 3.76196ZM93.1473 15.7739C93.6681 15.143 93.9529 14.3505 93.9529 13.5325C93.9529 12.7144 93.6681 11.9218 93.1473 11.2909C92.6058 10.7549 91.8747 10.4543 91.1128 10.4543C90.3509 10.4543 89.6198 10.7549 89.0783 11.2909C88.5575 11.9218 88.2726 12.7144 88.2726 13.5325C88.2726 14.3505 88.5575 15.143 89.0783 15.7739C89.6199 16.3097 90.351 16.6102 91.1128 16.6102C91.8746 16.6102 92.6057 16.3097 93.1473 15.7739Z" fill="white"/>
<path d="M101.398 18.5219C100.497 18.0592 99.7421 17.3546 99.2191 16.4869C98.7047 15.5874 98.4341 14.569 98.4341 13.5328C98.4341 12.4966 98.7047 11.4784 99.2191 10.5789C99.7422 9.71121 100.497 9.0066 101.398 8.54395C102.376 8.06149 103.452 7.81055 104.543 7.81055C105.634 7.81055 106.71 8.06149 107.688 8.54395C108.585 9.00902 109.336 9.71328 109.857 10.5789C110.372 11.4784 110.642 12.4966 110.642 13.5328C110.642 14.5691 110.372 15.5874 109.857 16.4869C109.336 17.3525 108.585 18.0568 107.688 18.5219C106.71 19.0042 105.634 19.2551 104.543 19.2551C103.452 19.2551 102.376 19.0042 101.398 18.5219ZM106.583 15.7749C107.098 15.1412 107.378 14.3498 107.378 13.5334C107.378 12.7171 107.098 11.9256 106.583 11.2919C106.322 11.0165 106.006 10.7995 105.655 10.6553C105.305 10.511 104.927 10.4426 104.548 10.4548C104.168 10.4434 103.789 10.5121 103.437 10.6562C103.084 10.8004 102.766 11.0169 102.503 11.2919C101.982 11.9228 101.697 12.7154 101.697 13.5334C101.697 14.3515 101.982 15.144 102.503 15.7749C102.766 16.0497 103.084 16.266 103.437 16.41C103.789 16.554 104.168 16.6224 104.548 16.6108C104.927 16.623 105.305 16.5548 105.655 16.4105C106.006 16.2663 106.322 16.0503 106.583 15.7749Z" fill="white"/>
<defs>
<linearGradient id="paint0_linear_0_15385" x1="13.5205" y1="20.2421" x2="16.1013" y2="11.159" gradientUnits="userSpaceOnUse">
<stop stop-color="#9A0000"/>
<stop offset="1" stop-color="#FA544D"/>
</linearGradient>
<linearGradient id="paint1_linear_0_15385" x1="11.296" y1="9.2221" x2="13.4139" y2="19.722" gradientUnits="userSpaceOnUse">
<stop stop-color="#9A0000"/>
<stop offset="1" stop-color="#FA544D"/>
</linearGradient>
<linearGradient id="paint2_linear_0_15385" x1="15.6092" y1="12.8099" x2="15.6086" y2="12.0371" gradientUnits="userSpaceOnUse">
<stop stop-color="white"/>
<stop offset="1"/>
</linearGradient>
<linearGradient id="paint3_linear_0_15385" x1="25.8355" y1="17.4346" x2="25.5916" y2="17.1937" gradientUnits="userSpaceOnUse">
<stop stop-color="white"/>
<stop offset="1"/>
</linearGradient>
<linearGradient id="paint4_linear_0_15385" x1="14.1797" y1="1.23026" x2="12.8033" y2="4.1654" gradientUnits="userSpaceOnUse">
<stop stop-color="#FA544D"/>
<stop offset="1" stop-color="#9A0000"/>
</linearGradient>
<linearGradient id="paint5_linear_0_15385" x1="10.2774" y1="0.349448" x2="13.2662" y2="6.79127" gradientUnits="userSpaceOnUse">
<stop stop-color="#FA544D"/>
<stop offset="1" stop-color="#9A0000"/>
</linearGradient>
<linearGradient id="paint6_linear_0_15385" x1="14.6878" y1="8.71184" x2="28.9093" y2="2.01549" gradientUnits="userSpaceOnUse">
<stop stop-color="#FA544D"/>
<stop offset="1" stop-color="#9A0000"/>
</linearGradient>
<linearGradient id="paint7_linear_0_15385" x1="8.83279" y1="14.3407" x2="13.5395" y2="0.865684" gradientUnits="userSpaceOnUse">
<stop stop-color="#FA544D"/>
<stop offset="1" stop-color="#9A0000"/>
</linearGradient>
<linearGradient id="paint8_linear_0_15385" x1="21.4146" y1="9.2714" x2="31.3045" y2="9.2714" gradientUnits="userSpaceOnUse">
<stop stop-color="#9A0000"/>
<stop offset="1" stop-color="#FA544D"/>
</linearGradient>
<linearGradient id="paint9_linear_0_15385" x1="27.2321" y1="11.3836" x2="29.2672" y2="11.7915" gradientUnits="userSpaceOnUse">
<stop stop-color="#9A0000"/>
<stop offset="1" stop-color="#FA544D"/>
</linearGradient>
<linearGradient id="paint10_linear_0_15385" x1="34.6032" y1="10.6632" x2="33.8044" y2="6.06606" gradientUnits="userSpaceOnUse">
<stop stop-color="#9A0000"/>
<stop offset="1" stop-color="#FA544D"/>
</linearGradient>
<linearGradient id="paint11_linear_0_15385" x1="34.4923" y1="11.374" x2="32.9238" y2="11.0002" gradientUnits="userSpaceOnUse">
<stop stop-color="#9A0000"/>
<stop offset="1" stop-color="#FA544D"/>
</linearGradient>
</defs>
</svg>
