<svg width="13" height="13" viewBox="0 0 13 13" fill="none" xmlns="http://www.w3.org/2000/svg">
<path d="M7.90617 6.85699L12.6242 2.13899C12.6953 2.06956 12.7519 1.98672 12.7907 1.89525C12.8295 1.80379 12.8498 1.70552 12.8504 1.60615C12.851 1.50678 12.8319 1.40829 12.7941 1.31637C12.7564 1.22445 12.7008 1.14094 12.6305 1.07067C12.5602 1.00041 12.4767 0.944783 12.3848 0.907027C12.2929 0.869271 12.1944 0.850133 12.095 0.850721C11.9956 0.851309 11.8974 0.871612 11.8059 0.910453C11.7144 0.949294 11.6316 1.0059 11.5622 1.07699L6.84417 5.79499L2.12617 1.07699C1.98477 0.938905 1.79464 0.862121 1.59701 0.863291C1.39937 0.864461 1.21016 0.943489 1.07041 1.08324C0.930662 1.22299 0.851633 1.4122 0.850463 1.60983C0.849293 1.80747 0.926078 1.9976 1.06417 2.13899L5.78217 6.85699L1.06417 11.575C0.959211 11.68 0.887717 11.8137 0.858714 11.9593C0.82971 12.1048 0.844498 12.2557 0.90121 12.3929C0.957921 12.5301 1.05401 12.6474 1.17735 12.73C1.30068 12.8126 1.44573 12.8568 1.59416 12.857C1.69267 12.8572 1.79025 12.8379 1.88123 12.8001C1.97221 12.7624 2.05479 12.7069 2.12416 12.637L6.84417 7.91899L11.5622 12.637C11.6317 12.7067 11.7143 12.7621 11.8052 12.7998C11.8962 12.8376 11.9937 12.857 12.0922 12.857C12.1907 12.8575 12.2883 12.8382 12.3794 12.8005C12.4704 12.7627 12.5529 12.7071 12.6222 12.637C12.763 12.4962 12.8421 12.3052 12.8421 12.106C12.8421 11.9068 12.763 11.7158 12.6222 11.575L7.90617 6.85699Z" fill="white"/>
</svg>
