<svg width="406" height="31" viewBox="0 0 406 31" fill="none" xmlns="http://www.w3.org/2000/svg">
<path d="M404.663 0.5V30.5" stroke="#323054" stroke-miterlimit="10"/>
<path d="M395.417 13.5V30.5" stroke="#323054" stroke-miterlimit="10"/>
<path d="M386.172 13.5V30.5" stroke="#323054" stroke-miterlimit="10"/>
<path d="M378.247 13.5V30.5" stroke="#323054" stroke-miterlimit="10"/>
<path d="M369.002 13.5V30.5" stroke="#323054" stroke-miterlimit="10"/>
<path d="M359.756 0.5V30.5" stroke="#323054" stroke-miterlimit="10"/>
<path d="M350.51 13.5V30.5" stroke="#323054" stroke-miterlimit="10"/>
<path d="M341.265 13.5V30.5" stroke="#323054" stroke-miterlimit="10"/>
<path d="M333.34 13.5V30.5" stroke="#323054" stroke-miterlimit="10"/>
<path d="M324.095 13.5V30.5" stroke="#323054" stroke-miterlimit="10"/>
<path d="M314.849 0.5V30.5" stroke="#323054" stroke-miterlimit="10"/>
<path d="M305.603 13.5V30.5" stroke="#323054" stroke-miterlimit="10"/>
<path d="M296.358 13.5V30.5" stroke="#323054" stroke-miterlimit="10"/>
<path d="M288.433 13.5V30.5" stroke="#323054" stroke-miterlimit="10"/>
<path d="M279.188 13.5V30.5" stroke="#323054" stroke-miterlimit="10"/>
<path d="M269.942 0.5V30.5" stroke="#323054" stroke-miterlimit="10"/>
<path d="M260.697 13.5V30.5" stroke="#323054" stroke-miterlimit="10"/>
<path d="M251.451 13.5V30.5" stroke="#323054" stroke-miterlimit="10"/>
<path d="M243.526 13.5V30.5" stroke="#323054" stroke-miterlimit="10"/>
<path d="M234.28 13.5V30.5" stroke="#323054" stroke-miterlimit="10"/>
<path d="M225.035 0.5V30.5" stroke="#323054" stroke-miterlimit="10"/>
<path d="M215.789 13.5V30.5" stroke="#323054" stroke-miterlimit="10"/>
<path d="M206.544 13.5V30.5" stroke="#323054" stroke-miterlimit="10"/>
<path d="M198.619 13.5V30.5" stroke="#323054" stroke-miterlimit="10"/>
<path d="M189.374 13.5V30.5" stroke="#323054" stroke-miterlimit="10"/>
<path d="M180.128 0.5V30.5" stroke="#323054" stroke-miterlimit="10"/>
<path d="M170.883 13.5V30.5" stroke="#323054" stroke-miterlimit="10"/>
<path d="M161.637 13.5V30.5" stroke="#323054" stroke-miterlimit="10"/>
<path d="M153.712 13.5V30.5" stroke="#323054" stroke-miterlimit="10"/>
<path d="M144.467 13.5V30.5" stroke="#323054" stroke-miterlimit="10"/>
<path d="M135.221 0.5V30.5" stroke="#323054" stroke-miterlimit="10"/>
<path d="M125.976 13.5V30.5" stroke="#323054" stroke-miterlimit="10"/>
<path d="M116.73 13.5V30.5" stroke="#323054" stroke-miterlimit="10"/>
<path d="M108.805 13.5V30.5" stroke="#323054" stroke-miterlimit="10"/>
<path d="M99.5601 13.5V30.5" stroke="#323054" stroke-miterlimit="10"/>
<path d="M90.314 0.5V30.5" stroke="#323054" stroke-miterlimit="10"/>
<path d="M81.0693 13.5V30.5" stroke="#323054" stroke-miterlimit="10"/>
<path d="M71.8232 13.5V30.5" stroke="#323054" stroke-miterlimit="10"/>
<path d="M63.8979 13.5V30.5" stroke="#323054" stroke-miterlimit="10"/>
<path d="M54.6533 13.5V30.5" stroke="#323054" stroke-miterlimit="10"/>
<path d="M45.4072 0.5V30.5" stroke="#323054" stroke-miterlimit="10"/>
<path d="M36.1621 13.5V30.5" stroke="#323054" stroke-miterlimit="10"/>
<path d="M26.916 13.5V30.5" stroke="#323054" stroke-miterlimit="10"/>
<path d="M18.9912 13.5V30.5" stroke="#323054" stroke-miterlimit="10"/>
<path d="M9.74609 13.5L9.74609 30.5" stroke="#323054" stroke-miterlimit="10"/>
<path d="M0.5 0.5L0.5 30.5" stroke="#323054" stroke-miterlimit="10"/>
</svg>
