<svg width="19" height="18" viewBox="0 0 19 18" fill="none" xmlns="http://www.w3.org/2000/svg">
<path d="M14.0612 6.896V4.949H15.6742L12.3742 0L9.07422 4.949H10.6872V6.896M12.3742 2.025L13.5742 3.825H12.9372V6.665C12.5632 6.62674 12.1862 6.62674 11.8122 6.665V3.824H11.1752L12.3742 2.025Z" fill="#8186AF"/>
<path d="M12.373 8.88892C11.8758 8.89078 11.3931 9.05733 11.0005 9.36255C10.6079 9.66777 10.3275 10.0945 10.203 10.5759H8.99805V11.7009H10.123V12.8259H8.99805V13.9509H10.1981C10.3337 14.4812 10.6583 14.9437 11.111 15.2514C11.5637 15.5591 12.1132 15.6908 12.6562 15.6218C13.1992 15.5528 13.6983 15.2877 14.0596 14.8765C14.4209 14.4653 14.6195 13.9363 14.618 13.3889V12.8269H13.498V13.3889C13.4988 13.6362 13.4178 13.8768 13.2677 14.0733C13.1175 14.2697 12.9066 14.411 12.6678 14.4751C12.4289 14.5393 12.1756 14.5226 11.9472 14.4278C11.7189 14.333 11.5282 14.1653 11.4051 13.9509H12.373V12.8259H11.248V11.7009H12.373V10.5759H11.4051C11.5282 10.3615 11.7189 10.1938 11.9472 10.099C12.1756 10.0042 12.4289 9.98757 12.6678 10.0517C12.9066 10.1158 13.1175 10.2571 13.2677 10.4536C13.4178 10.65 13.4988 10.8906 13.498 11.1379V11.6999H14.623V11.1379C14.6228 10.5413 14.3856 9.96932 13.9637 9.54758C13.5418 9.12584 12.9696 8.88892 12.373 8.88892Z" fill="#FA544D"/>
<path d="M12.3009 17.9999C11.163 17.9999 10.0507 17.6625 9.10466 17.0303C8.15858 16.3982 7.42121 15.4997 6.98577 14.4485C6.55034 13.3973 6.43642 12.2405 6.6584 11.1246C6.88038 10.0086 7.4283 8.98349 8.23287 8.17892C9.03745 7.37435 10.0625 6.82642 11.1785 6.60444C12.2945 6.38246 13.4512 6.49639 14.5024 6.93182C15.5537 7.36725 16.4522 8.10462 17.0843 9.0507C17.7164 9.99678 18.0539 11.1091 18.0539 12.2469C18.052 13.7721 17.4453 15.2344 16.3668 16.3128C15.2883 17.3913 13.8261 17.9981 12.3009 17.9999ZM12.3009 7.6229C11.3863 7.6229 10.4923 7.89409 9.7319 8.40219C8.97149 8.91028 8.37881 9.63244 8.02883 10.4774C7.67885 11.3223 7.58728 12.252 7.7657 13.149C7.94411 14.046 8.38452 14.8699 9.0312 15.5166C9.67788 16.1632 10.5018 16.6036 11.3988 16.7821C12.2957 16.9605 13.2255 16.8689 14.0704 16.5189C14.9153 16.1689 15.6375 15.5763 16.1456 14.8159C16.6537 14.0554 16.9249 13.1614 16.9249 12.2469C16.9235 11.0209 16.4359 9.84558 15.5691 8.97869C14.7022 8.11181 13.5268 7.62423 12.3009 7.6229Z" fill="#FA544D"/>
<path d="M0 17.8859H3.375V6.63989H0V17.8859ZM1.125 7.7619H2.25V16.7619H1.125V7.7619Z" fill="#8186AF"/>
<path d="M5.62402 4.38689H6.74902V7.19889H7.87402V3.26489H4.49902V17.8849H7.31102V16.7649H5.62402V4.38689Z" fill="#8186AF"/>
</svg>
