<svg width="19" height="18" viewBox="0 0 19 18" fill="none" xmlns="http://www.w3.org/2000/svg">
<path d="M18.7922 8.9369C18.7271 9.00251 18.6497 9.05459 18.5644 9.09013C18.4791 9.12567 18.3876 9.14396 18.2952 9.14396C18.2028 9.14396 18.1113 9.12567 18.026 9.09013C17.9407 9.05459 17.8633 9.00251 17.7982 8.9369L17.2422 8.3769V11.6769C17.2422 11.8634 17.1681 12.0422 17.0363 12.174C16.9044 12.3058 16.7256 12.3799 16.5392 12.3799C16.3527 12.3799 16.1739 12.3058 16.0421 12.174C15.9102 12.0422 15.8362 11.8634 15.8362 11.6769V6.9579L10.4922 1.5759C10.3653 1.46692 10.2035 1.407 10.0362 1.407C9.86888 1.407 9.70712 1.46692 9.58018 1.5759L4.16718 6.9759C4.16718 6.9829 4.16718 6.9889 4.16718 6.9959V15.1869C4.16771 15.5596 4.31601 15.917 4.57958 16.1805C4.84314 16.4441 5.20045 16.5924 5.57318 16.5929H14.4322C14.8049 16.5924 15.1622 16.4441 15.4258 16.1805C15.6894 15.917 15.8377 15.5596 15.8382 15.1869C15.8382 15.0005 15.9122 14.8216 16.0441 14.6898C16.1759 14.558 16.3547 14.4839 16.5412 14.4839C16.7276 14.4839 16.9064 14.558 17.0383 14.6898C17.1701 14.8216 17.2442 15.0005 17.2442 15.1869C17.2434 15.9331 16.9465 16.6484 16.4187 17.1758C15.8909 17.7033 15.1753 17.9996 14.4292 17.9999H5.57018C4.82455 17.9991 4.10966 17.7026 3.58232 17.1755C3.05498 16.6483 2.75824 15.9335 2.75718 15.1879V8.3789L2.19918 8.9359C2.06657 9.06758 1.88709 9.14119 1.70021 9.14054C1.51333 9.13988 1.33436 9.06501 1.20268 8.9324C1.071 8.7998 0.997395 8.62031 0.998051 8.43343C0.998708 8.24655 1.07357 8.06758 1.20618 7.9359L8.59918 0.561904L8.62818 0.533904C9.01549 0.188678 9.5165 -0.00159051 10.0353 -0.000483478C10.5542 0.000623555 11.0544 0.193029 11.4402 0.539904L11.4692 0.567904L18.7922 7.9419C18.8578 8.00698 18.9099 8.0844 18.9454 8.1697C18.9809 8.255 18.9992 8.3465 18.9992 8.4389C18.9992 8.53131 18.9809 8.62281 18.9454 8.70811C18.9099 8.79341 18.8578 8.87083 18.7922 8.9359V8.9369Z" fill="#8186AF"/>
<path d="M9.33225 9.49293V10.9339C9.33225 11.1196 9.406 11.2976 9.53727 11.4289C9.66855 11.5602 9.8466 11.6339 10.0322 11.6339H11.0522C11.2387 11.6339 11.4175 11.5599 11.5493 11.428C11.6812 11.2962 11.7552 11.1174 11.7552 10.9309C11.7552 10.7445 11.6812 10.5657 11.5493 10.4338C11.4175 10.302 11.2387 10.2279 11.0522 10.2279H10.7362V9.48993C10.7362 9.30348 10.6622 9.12467 10.5303 8.99284C10.3985 8.861 10.2197 8.78693 10.0332 8.78693C9.8468 8.78693 9.66799 8.861 9.53615 8.99284C9.40432 9.12467 9.33025 9.30348 9.33025 9.48993L9.33225 9.49293ZM10.0322 6.68093C10.8738 6.68034 11.6966 6.92935 12.3966 7.39647C13.0965 7.86359 13.6423 8.52782 13.9647 9.30515C14.2871 10.0825 14.3717 10.938 14.2078 11.7634C14.0439 12.5888 13.6389 13.3471 13.044 13.9423C12.4491 14.5374 11.691 14.9428 10.8657 15.1071C10.0403 15.2714 9.18479 15.1872 8.40732 14.8651C7.62984 14.5431 6.96535 13.9977 6.4979 13.2979C6.03045 12.5981 5.78105 11.7755 5.78125 10.9339C5.78257 9.80611 6.23119 8.72485 7.02868 7.92736C7.82617 7.12987 8.90743 6.68125 10.0353 6.67993L10.0322 6.68093ZM10.0322 8.08693C9.46897 8.08693 8.91834 8.25396 8.44999 8.56691C7.98163 8.87985 7.6166 9.32465 7.40104 9.84505C7.18548 10.3655 7.12908 10.9381 7.23897 11.4905C7.34886 12.043 7.62011 12.5505 8.01841 12.9488C8.41671 13.3471 8.92417 13.6183 9.47663 13.7282C10.0291 13.8381 10.6017 13.7817 11.1221 13.5661C11.6425 13.3506 12.0873 12.9855 12.4003 12.5172C12.7132 12.0488 12.8802 11.4982 12.8802 10.9349C12.8797 10.1802 12.5799 9.45644 12.0466 8.92238C11.5133 8.38832 10.79 8.08752 10.0353 8.08593L10.0322 8.08693Z" fill="#FA544D"/>
</svg>
