<svg width="17" height="21" viewBox="0 0 17 21" fill="none" xmlns="http://www.w3.org/2000/svg">
<path d="M15.895 16.6409H14.485C15.3565 15.951 15.9876 15.0032 16.2881 13.933C16.5886 12.8628 16.543 11.725 16.158 10.6823C15.7729 9.63953 15.0681 8.7452 14.1442 8.12712C13.2204 7.50904 12.1247 7.19885 11.014 7.24089V6.6179H12.177C12.2947 6.61806 12.4098 6.58273 12.5072 6.51653C12.6046 6.45033 12.6798 6.35631 12.723 6.24675C12.7661 6.13719 12.7753 6.01715 12.7493 5.90231C12.7232 5.78746 12.6632 5.68312 12.577 5.6029L6.91996 0.328895C6.81143 0.227526 6.66847 0.171143 6.51996 0.171143C6.37145 0.171143 6.22849 0.227526 6.11996 0.328895L0.467962 5.60089C0.382108 5.68119 0.322385 5.78544 0.296552 5.90012C0.27072 6.01479 0.279971 6.13458 0.323107 6.24393C0.366242 6.35328 0.441265 6.44713 0.538431 6.51328C0.635597 6.57944 0.750411 6.61484 0.86796 6.61489H2.03296V18.3799C2.03296 18.5353 2.0947 18.6844 2.2046 18.7943C2.31449 18.9042 2.46354 18.9659 2.61896 18.9659H5.89796C5.92896 19.4339 5.80596 19.7369 6.06996 19.9999C6.12397 20.0548 6.18843 20.0983 6.25954 20.1278C6.33065 20.1574 6.40696 20.1724 6.48396 20.1719L15.896 20.1589C16.0512 20.1586 16.2 20.0968 16.3097 19.9869C16.4194 19.877 16.481 19.7281 16.481 19.5729V17.2269C16.481 17.0715 16.4192 16.9224 16.3093 16.8125C16.1994 16.7026 16.0504 16.6409 15.895 16.6409ZM15.309 12.5149C15.309 13.3258 15.0685 14.1185 14.618 14.7927C14.1675 15.467 13.5271 15.9925 12.778 16.3028C12.0288 16.6131 11.2044 16.6943 10.4091 16.5361C9.61377 16.3779 8.88322 15.9874 8.30982 15.414C7.73643 14.8406 7.34594 14.1101 7.18774 13.3148C7.02954 12.5194 7.11074 11.6951 7.42106 10.9459C7.73138 10.1967 8.25688 9.55638 8.93112 9.10587C9.60537 8.65536 10.3981 8.4149 11.209 8.4149C12.296 8.41622 13.3382 8.84857 14.107 9.61716C14.8758 10.3857 15.3074 11.4278 15.309 12.5149ZM3.20396 17.7939V6.02889C3.20396 5.87348 3.14222 5.72443 3.03232 5.61453C2.92243 5.50463 2.77338 5.44289 2.61796 5.44289H2.35496L6.52096 1.55889L10.693 5.4469H10.429C10.2739 5.44716 10.1252 5.50888 10.0156 5.61853C9.90594 5.72818 9.84423 5.87682 9.84396 6.0319V7.4209C8.90043 7.67544 8.04614 8.18704 7.37633 8.89865C6.70653 9.61027 6.24752 10.4939 6.0505 11.4511C5.85349 12.4083 5.9262 13.4014 6.26052 14.3197C6.59485 15.238 7.17765 16.0454 7.94396 16.6519H6.48496C6.32972 16.6522 6.18092 16.714 6.07124 16.8239C5.96156 16.9338 5.89996 17.0827 5.89996 17.2379V17.7919H3.20396V17.7939ZM15.309 18.9879L7.06896 18.9989V17.8249L15.309 17.8139V18.9879Z" fill="#8186AF"/>
<path d="M9.56387 14.1869C9.61829 14.2413 9.68291 14.2846 9.75403 14.314C9.82515 14.3435 9.90138 14.3587 9.97836 14.3587C10.0553 14.3587 10.1316 14.3435 10.2027 14.314C10.2738 14.2846 10.3385 14.2413 10.3929 14.1869L12.8789 11.7009C12.9888 11.591 13.0506 11.4419 13.0506 11.2864C13.0506 11.1309 12.9888 10.9818 12.8789 10.8719C12.7689 10.762 12.6198 10.7002 12.4644 10.7002C12.3089 10.7002 12.1598 10.762 12.0499 10.8719L9.56387 13.3579C9.50942 13.4123 9.46621 13.4769 9.43674 13.5481C9.40726 13.6192 9.39209 13.6954 9.39209 13.7724C9.39209 13.8494 9.40726 13.9256 9.43674 13.9967C9.46621 14.0679 9.50942 14.1325 9.56387 14.1869Z" fill="#FA544D"/>
<path d="M9.94972 11.8399C10.2723 11.8399 10.5337 11.5784 10.5337 11.2559C10.5337 10.9333 10.2723 10.6719 9.94972 10.6719C9.62719 10.6719 9.36572 10.9333 9.36572 11.2559C9.36572 11.5784 9.62719 11.8399 9.94972 11.8399Z" fill="#FA544D"/>
<path d="M12.026 13.332C11.9443 13.4136 11.8887 13.5177 11.8662 13.631C11.8437 13.7443 11.8552 13.8617 11.8994 13.9684C11.9436 14.0751 12.0185 14.1663 12.1145 14.2305C12.2106 14.2946 12.3235 14.3289 12.439 14.3289C12.5545 14.3289 12.6674 14.2946 12.7634 14.2305C12.8594 14.1663 12.9343 14.0751 12.9785 13.9684C13.0227 13.8617 13.0343 13.7443 13.0118 13.631C12.9892 13.5177 12.9336 13.4136 12.852 13.332C12.7977 13.2777 12.7334 13.2347 12.6625 13.2054C12.5916 13.176 12.5157 13.1609 12.439 13.1609C12.3623 13.1609 12.2863 13.176 12.2155 13.2054C12.1446 13.2347 12.0802 13.2777 12.026 13.332Z" fill="#FA544D"/>
</svg>
