<svg width="18" height="18" viewBox="0 0 18 18" fill="none" xmlns="http://www.w3.org/2000/svg">
<path d="M16.416 9.528C16.1991 9.52777 15.9844 9.57202 15.7852 9.65801C15.586 9.74401 15.4066 9.86993 15.258 10.028L14.834 10.483V7.293C15.1862 7.41674 15.5709 7.41193 15.9199 7.27942C16.2689 7.14691 16.5598 6.89524 16.7411 6.56893C16.9225 6.24261 16.9826 5.86268 16.9108 5.49632C16.8391 5.12995 16.6401 4.80078 16.349 4.567L14.834 3.355V0.530001C14.8344 0.460542 14.8211 0.391691 14.7948 0.327405C14.7684 0.26312 14.7297 0.20467 14.6807 0.155415C14.6317 0.10616 14.5735 0.0670731 14.5094 0.0404015C14.4452 0.0137299 14.3765 -1.60317e-07 14.307 9.65138e-07H12.198C12.1285 -0.000132124 12.0596 0.0135005 11.9953 0.0401131C11.9311 0.0667257 11.8727 0.105792 11.8236 0.15506C11.7746 0.204328 11.7357 0.262823 11.7093 0.327174C11.683 0.391524 11.6696 0.460458 11.67 0.530001V0.824001L11.076 0.349001C10.7962 0.123174 10.4475 4.6416e-06 10.088 4.6416e-06C9.72846 4.6416e-06 9.37977 0.123174 9.1 0.349001L3.828 4.567C3.53616 4.80053 3.33644 5.12985 3.26423 5.49658C3.19202 5.86331 3.25199 6.24376 3.43351 6.5705C3.61503 6.89723 3.90637 7.14914 4.2559 7.28158C4.60542 7.41401 4.99054 7.41841 5.343 7.294V9.47C4.96568 9.5815 4.60878 9.75303 4.286 9.978C4.26451 9.57332 4.08873 9.19226 3.79483 8.91324C3.50092 8.63422 3.11126 8.47845 2.706 8.478H0.527001C0.388094 8.47799 0.254802 8.53283 0.156112 8.63058C0.0574232 8.72834 0.00131885 8.8611 9.48853e-07 9V17.472C-0.000130533 17.5413 0.0134037 17.6099 0.0398291 17.674C0.0662544 17.738 0.105052 17.7963 0.154002 17.8453C0.202951 17.8943 0.261092 17.9332 0.325096 17.9598C0.389099 17.9863 0.45771 18 0.527001 18H2.707C3.03539 17.9997 3.35556 17.8973 3.62322 17.7071C3.89088 17.5168 4.09278 17.248 4.201 16.938C4.23006 16.9431 4.25949 16.9458 4.289 16.946H12.198C12.7735 16.939 13.3396 16.7989 13.852 16.5366C14.3643 16.2743 14.8089 15.8969 15.151 15.434L17.682 12.059C17.858 11.8239 17.965 11.5445 17.9912 11.2521C18.0174 10.9596 17.9617 10.6656 17.8303 10.4031C17.6989 10.1405 17.497 9.91964 17.2472 9.76527C16.9974 9.6109 16.7096 9.52909 16.416 9.529V9.528ZM3.234 16.418C3.23374 16.5577 3.17813 16.6916 3.07935 16.7904C2.98058 16.8891 2.84669 16.9447 2.707 16.945H1.055V9.528H2.707C2.84669 9.52826 2.98058 9.58387 3.07935 9.68265C3.17813 9.78142 3.23374 9.91531 3.234 10.055V16.418ZM12.725 1.057H13.78V2.511L12.725 1.667V1.057ZM5.145 6.214C5.03552 6.29736 4.89777 6.33459 4.7612 6.31774C4.62463 6.30088 4.50006 6.23128 4.41413 6.1238C4.3282 6.01632 4.28772 5.87949 4.30133 5.74256C4.31495 5.60563 4.38159 5.47945 4.487 5.391L9.759 1.173C9.85226 1.09758 9.96856 1.05644 10.0885 1.05644C10.2084 1.05644 10.3247 1.09758 10.418 1.173L15.691 5.392C15.8001 5.47939 15.8701 5.60655 15.8855 5.74552C15.9008 5.88448 15.8604 6.02386 15.773 6.133C15.6856 6.24214 15.5584 6.31209 15.4195 6.32747C15.2805 6.34284 15.1411 6.30239 15.032 6.215L10.418 2.523C10.3245 2.4481 10.2083 2.40729 10.0885 2.40729C9.96871 2.40729 9.85249 2.4481 9.759 2.523L5.145 6.214ZM11.145 7.419H9.034C8.89423 7.419 8.76019 7.47452 8.66136 7.57336C8.56252 7.67219 8.507 7.80623 8.507 7.946V9.976C7.88799 9.5456 7.15194 9.31526 6.398 9.316V6.562L10.089 3.61L13.78 6.562V11.62L13.709 11.696C13.6085 11.3738 13.4077 11.092 13.1359 10.8918C12.8641 10.6916 12.5356 10.5834 12.198 10.583H11.67V7.947C11.6701 7.87771 11.6566 7.80907 11.6302 7.74502C11.6037 7.68097 11.5649 7.62275 11.516 7.57371C11.4671 7.52467 11.4089 7.48576 11.3449 7.45921C11.2809 7.43266 11.2123 7.419 11.143 7.419H11.145ZM10.618 8.474V10.583H9.561V8.474H10.618ZM16.84 11.426L14.307 14.8C14.0635 15.1321 13.7463 15.4034 13.3804 15.5925C13.0145 15.7816 12.6098 15.8834 12.198 15.89H4.289V11.349L4.656 11.026C5.13784 10.6036 5.75675 10.3708 6.3975 10.3708C7.03825 10.3708 7.65716 10.6036 8.139 11.026C8.326 11.19 8.406 11.264 8.483 11.326C8.517 11.351 8.848 11.642 9.034 11.642H12.198C12.3379 11.642 12.4721 11.6976 12.571 11.7965C12.6699 11.8954 12.7255 12.0296 12.7255 12.1695C12.7255 12.3094 12.6699 12.4436 12.571 12.5425C12.4721 12.6414 12.3379 12.697 12.198 12.697H7.98C7.8401 12.697 7.70593 12.7526 7.607 12.8515C7.50808 12.9504 7.4525 13.0846 7.4525 13.2245C7.4525 13.3644 7.50808 13.4986 7.607 13.5975C7.70593 13.6964 7.8401 13.752 7.98 13.752H12.552C12.7688 13.7521 12.9833 13.7078 13.1823 13.6218C13.3813 13.5358 13.5605 13.4099 13.709 13.252L16.03 10.76C16.0792 10.7067 16.1389 10.6643 16.2053 10.6354C16.2718 10.6064 16.3435 10.5917 16.416 10.592C16.5557 10.5923 16.6896 10.6479 16.7884 10.7466C16.8871 10.8454 16.9427 10.9793 16.943 11.119C16.9415 11.2299 16.9047 11.3374 16.838 11.426H16.84Z" fill="#8186AF"/>
<path d="M6.39693 9.316V6.562L10.0879 3.61L13.7789 6.562V11.62L14.8339 10.488V7.293C15.1862 7.41674 15.5708 7.41193 15.9198 7.27942C16.2688 7.14691 16.5597 6.89524 16.7411 6.56893C16.9224 6.24261 16.9825 5.86268 16.9108 5.49631C16.839 5.12995 16.64 4.80078 16.3489 4.567L14.8289 3.355V0.53C14.8297 0.390574 14.7752 0.256513 14.6774 0.157176C14.5796 0.0578381 14.4464 0.00132055 14.3069 0L12.1979 0C12.0582 0 11.9241 0.0555231 11.8253 0.154355C11.7264 0.253186 11.6709 0.387231 11.6709 0.527V0.824L11.0759 0.349C10.7962 0.123173 10.4475 3.67646e-06 10.0879 3.67646e-06C9.72839 3.67646e-06 9.3797 0.123173 9.09993 0.349L3.82893 4.567C3.53709 4.80053 3.33737 5.12985 3.26516 5.49658C3.19295 5.86331 3.25291 6.24376 3.43443 6.5705C3.61595 6.89723 3.9073 7.14914 4.25682 7.28158C4.60634 7.41401 4.99147 7.41841 5.34392 7.294V9.47L6.39693 9.316ZM9.56093 10.583V8.474H10.6159V10.583L11.6709 10.588V7.947C11.6709 7.87779 11.6573 7.80926 11.6308 7.74533C11.6043 7.68139 11.5655 7.62329 11.5166 7.57435C11.4676 7.52542 11.4095 7.4866 11.3456 7.46012C11.2817 7.43363 11.2131 7.42 11.1439 7.42H9.02893C8.95972 7.42 8.89119 7.43363 8.82725 7.46012C8.76332 7.4866 8.70522 7.52542 8.65628 7.57435C8.60734 7.62329 8.56853 7.68139 8.54205 7.74533C8.51556 7.80926 8.50193 7.87779 8.50193 7.947V9.977L9.56093 10.583ZM12.7289 1.057H13.7839V2.511L12.7289 1.668V1.057ZM15.7769 6.132C15.7337 6.18617 15.6803 6.23128 15.6196 6.26473C15.559 6.29818 15.4923 6.31933 15.4235 6.32695C15.3546 6.33457 15.2849 6.32851 15.2184 6.30913C15.1519 6.28975 15.0899 6.25742 15.0359 6.214L10.4179 2.523C10.3244 2.4481 10.2082 2.40729 10.0884 2.40729C9.96863 2.40729 9.85242 2.4481 9.75893 2.523L5.14493 6.214C5.03544 6.29736 4.89769 6.33459 4.76112 6.31774C4.62455 6.30088 4.49999 6.23128 4.41406 6.1238C4.32813 6.01632 4.28765 5.87949 4.30126 5.74256C4.31488 5.60563 4.38152 5.47945 4.48693 5.391L9.75893 1.173C9.85218 1.09758 9.96849 1.05644 10.0884 1.05644C10.2084 1.05644 10.3247 1.09758 10.4179 1.173L15.6909 5.392C15.7449 5.43517 15.7899 5.48857 15.8233 5.54914C15.8567 5.60971 15.8778 5.67626 15.8854 5.745C15.893 5.81373 15.887 5.88329 15.8677 5.94969C15.8484 6.0161 15.8162 6.07805 15.7729 6.132H15.7769Z" fill="#FA544D"/>
</svg>
