<svg width="19" height="19" viewBox="0 0 19 19" fill="none" xmlns="http://www.w3.org/2000/svg">
<path d="M17.477 10.248C17.2551 9.87688 17.1045 9.46752 17.033 9.04104C17.1047 8.61461 17.2552 8.20529 17.477 7.83404C17.7245 7.47897 17.8928 7.07482 17.9705 6.649C18.0481 6.22317 18.0333 5.78563 17.927 5.36604C17.7009 4.98401 17.3946 4.65556 17.0293 4.40333C16.664 4.1511 16.2483 3.9811 15.811 3.90504C15.4126 3.80595 15.035 3.63663 14.696 3.40504C14.4646 3.06665 14.2953 2.68977 14.196 2.29204C14.1202 1.85366 13.9501 1.43699 13.6973 1.07092C13.4445 0.70485 13.1151 0.398136 12.732 0.172041C12.3121 0.0662457 11.8744 0.0520335 11.4486 0.130369C11.0227 0.208705 10.6187 0.377755 10.264 0.626041C9.89243 0.846143 9.4831 0.995021 9.05697 1.06504C8.63087 0.99493 8.22156 0.846058 7.84997 0.626041C7.49531 0.378017 7.09148 0.209119 6.66584 0.13079C6.2402 0.0524597 5.8027 0.0665279 5.38297 0.172041C5.00099 0.398192 4.67257 0.704468 4.42034 1.06977C4.16812 1.43507 3.99809 1.8507 3.92197 2.28804C3.82285 2.68614 3.65353 3.06338 3.42197 3.40204C3.08337 3.63369 2.70611 3.80302 2.30797 3.90204C1.86962 3.9782 1.45302 4.14864 1.08699 4.40159C0.720962 4.65453 0.414222 4.98393 0.187974 5.36704C0.081751 5.7867 0.0670491 6.22429 0.144866 6.65013C0.222683 7.07596 0.391198 7.48008 0.638974 7.83504C0.860784 8.20624 1.01136 8.61559 1.08297 9.04204C1.01118 9.46845 0.860614 9.87776 0.638974 10.249C0.39157 10.604 0.22335 11.008 0.14571 11.4336C0.0680696 11.8592 0.0828244 12.2966 0.188974 12.716C0.415073 13.0981 0.721334 13.4265 1.08664 13.6788C1.45195 13.931 1.86761 14.101 2.30497 14.177C2.70301 14.2763 3.08022 14.4457 3.41897 14.677C3.65029 15.0158 3.81959 15.393 3.91897 15.791C3.99497 16.2284 4.16494 16.6441 4.41718 17.0094C4.66941 17.3747 4.9979 17.681 5.37997 17.907C5.59083 17.994 5.81688 18.0382 6.04497 18.037C6.68063 17.9799 7.29556 17.7818 7.84497 17.457C8.21784 17.2355 8.62895 17.086 9.05697 17.016C9.48339 17.0878 9.8927 17.2384 10.264 17.46C10.6189 17.7075 11.0229 17.8758 11.4485 17.9534C11.8742 18.031 12.3115 18.0163 12.731 17.91C13.113 17.6839 13.4415 17.3777 13.6937 17.0124C13.9459 16.6471 14.1159 16.2314 14.192 15.794C14.2912 15.396 14.4605 15.0188 14.692 14.68C15.0307 14.4487 15.4079 14.2793 15.806 14.18C16.2445 14.1043 16.6613 13.9341 17.0275 13.6813C17.3937 13.4285 17.7006 13.0992 17.927 12.716C18.0333 12.2965 18.0481 11.8589 17.9705 11.4331C17.8928 11.0073 17.7245 10.6031 17.477 10.248ZM16.131 10.91C16.342 11.339 16.631 11.925 16.542 12.141C16.442 12.383 15.802 12.598 15.334 12.755C14.7087 12.9099 14.1272 13.2058 13.634 13.62C13.2194 14.1132 12.9232 14.6947 12.768 15.32C12.611 15.788 12.396 16.428 12.154 16.528C11.936 16.618 11.354 16.328 10.924 16.118C10.3554 15.7783 9.71692 15.5725 9.05697 15.516C8.3965 15.5715 7.75734 15.7767 7.18797 16.116C6.75997 16.327 6.17497 16.616 5.95697 16.527C5.71497 16.427 5.49997 15.787 5.34397 15.32C5.18867 14.6948 4.89245 14.1133 4.47797 13.62C3.9845 13.2061 3.40307 12.9103 2.77797 12.755C2.31097 12.598 1.66997 12.383 1.56997 12.14C1.47997 11.924 1.76997 11.34 1.98097 10.91C2.32031 10.3407 2.5255 9.70152 2.58097 9.04104C2.52547 8.38057 2.32028 7.74141 1.98097 7.17204C1.76997 6.74404 1.48097 6.15704 1.56997 5.94204C1.66997 5.70004 2.31097 5.48504 2.77797 5.32804C3.40322 5.17267 3.98469 4.87646 4.47797 4.46204C4.89209 3.9687 5.18796 3.38722 5.34297 2.76204C5.49997 2.29404 5.71497 1.65404 5.95697 1.55404C5.98908 1.54291 6.02305 1.53815 6.05697 1.54004C6.45515 1.61828 6.83743 1.76261 7.18797 1.96704C7.75751 2.30564 8.39666 2.51014 9.05697 2.56504C9.71776 2.50951 10.3572 2.30433 10.927 1.96504C11.356 1.75404 11.94 1.46504 12.157 1.55504C12.399 1.65504 12.614 2.29504 12.771 2.76304C12.9259 3.38825 13.2218 3.96974 13.636 4.46304C14.1294 4.87707 14.7108 5.17293 15.336 5.32804C15.803 5.48504 16.443 5.70004 16.544 5.94204C16.634 6.15804 16.344 6.74204 16.133 7.17304C15.7938 7.74247 15.5886 8.38159 15.533 9.04204C15.588 9.70202 15.7924 10.3408 16.131 10.91Z" fill="#8186AF"/>
<path d="M12.5149 5.58092C12.4452 5.51123 12.3625 5.45594 12.2715 5.41822C12.1805 5.3805 12.0829 5.36108 11.9844 5.36108C11.8859 5.36108 11.7883 5.3805 11.6973 5.41822C11.6062 5.45594 11.5235 5.51123 11.4539 5.58092L5.6019 11.4439C5.46535 11.5854 5.38983 11.7749 5.39163 11.9716C5.39343 12.1682 5.47241 12.3563 5.61153 12.4953C5.75065 12.6343 5.9388 12.7131 6.13545 12.7147C6.33209 12.7163 6.52151 12.6406 6.6629 12.5039L12.5179 6.64393C12.5877 6.57404 12.643 6.49106 12.6806 6.39974C12.7183 6.30843 12.7375 6.21057 12.7372 6.1118C12.737 6.01303 12.7172 5.91529 12.679 5.82419C12.6409 5.73309 12.5851 5.65041 12.5149 5.58092Z" fill="#FA544D"/>
<path d="M6.42913 4.80811C6.03001 4.80811 5.63985 4.92646 5.30799 5.1482C4.97614 5.36994 4.71748 5.68511 4.56475 6.05385C4.41201 6.42259 4.37204 6.82834 4.44991 7.2198C4.52777 7.61125 4.71997 7.97082 5.00219 8.25304C5.28442 8.53527 5.64399 8.72746 6.03544 8.80533C6.4269 8.88319 6.83265 8.84323 7.20139 8.69049C7.57013 8.53775 7.8853 8.2791 8.10704 7.94724C8.32878 7.61538 8.44714 7.22523 8.44714 6.8261C8.44635 6.29114 8.23347 5.77832 7.8552 5.40004C7.47692 5.02176 6.9641 4.8089 6.42913 4.80811ZM6.42913 7.3451C6.32644 7.3453 6.226 7.31503 6.14052 7.25813C6.05504 7.20122 5.98837 7.12023 5.94893 7.02541C5.9095 6.9306 5.89907 6.82621 5.91899 6.72546C5.9389 6.62472 5.98825 6.53216 6.06079 6.45947C6.13334 6.38679 6.22581 6.33726 6.32652 6.31715C6.42722 6.29705 6.53162 6.30727 6.62651 6.34652C6.72141 6.38577 6.80253 6.45229 6.8596 6.53766C6.91667 6.62303 6.94714 6.72341 6.94714 6.8261C6.94714 6.96358 6.8926 7.09544 6.79548 7.19274C6.69837 7.29004 6.56661 7.34484 6.42913 7.3451Z" fill="#FA544D"/>
<path d="M11.686 9.23706C11.2869 9.23706 10.8968 9.35539 10.5649 9.57709C10.2331 9.79878 9.97443 10.1139 9.82167 10.4826C9.6689 10.8513 9.62889 11.257 9.70668 11.6484C9.78446 12.0398 9.97656 12.3994 10.2587 12.6817C10.5408 12.9639 10.9003 13.1562 11.2917 13.2342C11.6831 13.3121 12.0888 13.2723 12.4575 13.1197C12.8263 12.9672 13.1415 12.7087 13.3634 12.3769C13.5852 12.0452 13.7038 11.6551 13.704 11.2561C13.7034 10.7209 13.4907 10.2078 13.1124 9.82935C12.7341 9.45085 12.2211 9.23785 11.686 9.23706ZM11.686 11.7741C11.5833 11.7741 11.4829 11.7436 11.3975 11.6865C11.3121 11.6295 11.2456 11.5483 11.2064 11.4534C11.1671 11.3586 11.1569 11.2541 11.177 11.1534C11.1971 11.0527 11.2466 10.9603 11.3193 10.8877C11.392 10.8152 11.4846 10.7658 11.5853 10.7459C11.6861 10.726 11.7905 10.7364 11.8853 10.7759C11.9801 10.8153 12.0611 10.882 12.118 10.9675C12.1749 11.0529 12.2052 11.1534 12.205 11.2561C12.2047 11.3935 12.1499 11.5253 12.0526 11.6224C11.9553 11.7195 11.8234 11.7741 11.686 11.7741Z" fill="#FA544D"/>
</svg>
