<svg width="19" height="13" viewBox="0 0 19 13" fill="none" xmlns="http://www.w3.org/2000/svg">
<path d="M17.4158 6.328C17.416 6.57099 17.5 6.80647 17.6535 6.9948C17.8071 7.18313 18.0208 7.3128 18.2588 7.362C18.418 7.39376 18.5611 7.47985 18.6638 7.60554C18.7665 7.73122 18.8224 7.8887 18.8218 8.051V9.844C18.8205 10.3749 18.6697 10.8947 18.3868 11.3439C18.1038 11.7931 17.7001 12.1536 17.2218 12.384C17.1385 12.4237 17.0481 12.4466 16.9559 12.4515C16.8638 12.4563 16.7715 12.4429 16.6845 12.4121C16.5975 12.3812 16.5174 12.3336 16.4488 12.2718C16.3803 12.21 16.3245 12.1353 16.2848 12.052C16.2451 11.9687 16.2221 11.8783 16.2173 11.7862C16.2125 11.694 16.2259 11.6017 16.2567 11.5147C16.2876 11.4277 16.3352 11.3476 16.397 11.2791C16.4588 11.2105 16.5335 11.1547 16.6168 11.115C16.8559 10.9997 17.0577 10.8195 17.1992 10.5949C17.3407 10.3703 17.4161 10.1104 17.4168 9.845V8.552C16.996 8.3524 16.6405 8.03752 16.3916 7.64393C16.1427 7.25034 16.0106 6.7942 16.0106 6.3285C16.0106 5.8628 16.1427 5.40666 16.3916 5.01307C16.6405 4.61948 16.996 4.3046 17.4168 4.105V2.812C17.4163 2.43926 17.268 2.08195 17.0044 1.81839C16.7408 1.55483 16.3835 1.40653 16.0108 1.406H13.8308C13.8308 1.59245 13.7567 1.77126 13.6249 1.9031C13.493 2.03494 13.3142 2.109 13.1278 2.109C12.9413 2.109 12.7625 2.03494 12.6307 1.9031C12.4988 1.77126 12.4248 1.59245 12.4248 1.406H3.63478C3.26205 1.40653 2.90474 1.55483 2.64117 1.81839C2.37761 2.08195 2.22931 2.43926 2.22878 2.812V4.1C2.64954 4.2996 3.00502 4.61448 3.25394 5.00807C3.50286 5.40166 3.635 5.8578 3.635 6.3235C3.635 6.7892 3.50286 7.24533 3.25394 7.63892C3.00502 8.03251 2.64954 8.3474 2.22878 8.547V9.839C2.22839 10.024 2.26445 10.2072 2.33491 10.3783C2.40536 10.5493 2.50883 10.7048 2.63941 10.8358C2.76998 10.9669 2.92509 11.0709 3.09588 11.142C3.26668 11.213 3.4498 11.2497 3.63478 11.25H12.4218C12.4218 11.0636 12.4958 10.8847 12.6277 10.7529C12.7595 10.6211 12.9383 10.547 13.1248 10.547C13.3112 10.547 13.49 10.6211 13.6219 10.7529C13.7537 10.8847 13.8278 11.0636 13.8278 11.25V11.95C13.8278 12.1356 13.754 12.3137 13.6228 12.445C13.4915 12.5763 13.3134 12.65 13.1278 12.65H3.63478C2.89018 12.6492 2.1762 12.3535 1.64903 11.8277C1.12187 11.3018 0.824426 10.5886 0.821782 9.844V8.051C0.821194 7.8887 0.877027 7.73122 0.979727 7.60554C1.08243 7.47985 1.22561 7.39376 1.38478 7.362C1.62284 7.31319 1.83676 7.18369 1.99037 6.99538C2.14398 6.80708 2.22788 6.57151 2.22788 6.3285C2.22788 6.08548 2.14398 5.84992 1.99037 5.66161C1.83676 5.47331 1.62284 5.34381 1.38478 5.295C1.22561 5.26323 1.08243 5.17715 0.979727 5.05146C0.877027 4.92578 0.821194 4.76831 0.821782 4.606V2.812C0.822841 2.06636 1.11958 1.35158 1.64692 0.824432C2.17426 0.297281 2.88914 0.000793607 3.63478 0H16.0098C16.7552 0.00105815 17.4699 0.29766 17.997 0.824783C18.5241 1.35191 18.8207 2.06653 18.8218 2.812V4.605C18.8224 4.76731 18.7665 4.92478 18.6638 5.05046C18.5611 5.17615 18.418 5.26223 18.2588 5.294C18.0208 5.34319 17.8071 5.47287 17.6535 5.6612C17.5 5.84953 17.416 6.08502 17.4158 6.328ZM13.1218 3.164C12.9833 3.164 12.848 3.20506 12.7329 3.28197C12.6178 3.35889 12.528 3.46821 12.4751 3.59612C12.4221 3.72403 12.4082 3.86478 12.4352 4.00056C12.4622 4.13635 12.5289 4.26108 12.6268 4.35898C12.7247 4.45687 12.8494 4.52354 12.9852 4.55055C13.121 4.57756 13.2618 4.5637 13.3897 4.51072C13.5176 4.45774 13.6269 4.36801 13.7038 4.2529C13.7807 4.13778 13.8218 4.00245 13.8218 3.864C13.8218 3.67835 13.748 3.5003 13.6168 3.36903C13.4855 3.23775 13.3074 3.164 13.1218 3.164ZM13.1218 5.625C12.9833 5.625 12.848 5.66606 12.7329 5.74297C12.6178 5.81989 12.528 5.92921 12.4751 6.05712C12.4221 6.18503 12.4082 6.32578 12.4352 6.46156C12.4622 6.59735 12.5289 6.72208 12.6268 6.81998C12.7247 6.91787 12.8494 6.98454 12.9852 7.01155C13.121 7.03856 13.2618 7.0247 13.3897 6.97172C13.5176 6.91874 13.6269 6.82901 13.7038 6.7139C13.7807 6.59878 13.8218 6.46344 13.8218 6.325C13.8218 6.13935 13.748 5.9613 13.6168 5.83002C13.4855 5.69875 13.3074 5.625 13.1218 5.625ZM13.1218 8.086C12.9833 8.086 12.848 8.12706 12.7329 8.20397C12.6178 8.28089 12.528 8.39021 12.4751 8.51812C12.4221 8.64603 12.4082 8.78677 12.4352 8.92256C12.4622 9.05835 12.5289 9.18308 12.6268 9.28098C12.7247 9.37887 12.8494 9.44554 12.9852 9.47255C13.121 9.49956 13.2618 9.4857 13.3897 9.43272C13.5176 9.37973 13.6269 9.29001 13.7038 9.1749C13.7807 9.05978 13.8218 8.92445 13.8218 8.786C13.8218 8.60035 13.748 8.4223 13.6168 8.29102C13.4855 8.15975 13.3074 8.086 13.1218 8.086Z" fill="#8186AF"/>
<path d="M6.86879 4.21905C6.86879 4.01039 6.80691 3.80642 6.69099 3.63293C6.57506 3.45943 6.4103 3.32421 6.21752 3.24436C6.02474 3.16451 5.81262 3.14362 5.60797 3.18432C5.40332 3.22503 5.21534 3.32551 5.06779 3.47305C4.92025 3.6206 4.81977 3.80858 4.77906 4.01323C4.73835 4.21788 4.75925 4.43001 4.8391 4.62279C4.91895 4.81556 5.05417 4.98033 5.22766 5.09625C5.40116 5.21218 5.60513 5.27405 5.81379 5.27405C6.09359 5.27405 6.36194 5.1629 6.55979 4.96505C6.75764 4.7672 6.86879 4.49886 6.86879 4.21905ZM9.75179 9.49205C9.96045 9.49205 10.1644 9.43018 10.3379 9.31425C10.5114 9.19833 10.6466 9.03356 10.7265 8.84078C10.8063 8.648 10.8272 8.43588 10.7865 8.23123C10.7458 8.02658 10.6453 7.8386 10.4978 7.69105C10.3502 7.54351 10.1623 7.44303 9.95761 7.40233C9.75296 7.36162 9.54083 7.38251 9.34806 7.46236C9.15528 7.54221 8.99051 7.67743 8.87459 7.85093C8.75866 8.02442 8.69679 8.22839 8.69679 8.43705C8.69679 8.71685 8.80794 8.9852 9.00579 9.18305C9.20364 9.3809 9.47199 9.49205 9.75179 9.49205ZM5.37479 9.33805C5.44673 9.39607 5.52944 9.43927 5.61816 9.46516C5.70688 9.49105 5.79985 9.49912 5.89171 9.48889C5.98356 9.47866 6.07248 9.45035 6.15333 9.40558C6.23419 9.36082 6.30537 9.30047 6.36279 9.22805L10.2998 4.30605C10.4162 4.16018 10.4699 3.97404 10.4491 3.78857C10.4283 3.60309 10.3347 3.43348 10.1888 3.31705C10.0429 3.20062 9.85677 3.14691 9.6713 3.16772C9.48583 3.18854 9.31622 3.28218 9.19979 3.42805L5.26479 8.35005C5.20677 8.42199 5.16357 8.50471 5.13768 8.59343C5.11179 8.68215 5.10372 8.77512 5.11395 8.86697C5.12418 8.95883 5.15249 9.04774 5.19726 9.12859C5.24203 9.20945 5.30237 9.28063 5.37479 9.33805Z" fill="#FA544D"/>
</svg>
